<?xml version="1.0" encoding="utf-8"?>
<!-- Generator: Adobe Illustrator 22.1.0, SVG Export Plug-In . SVG Version: 6.00 Build 0)  -->
<svg version="1.1" id="圖層_1" xmlns="http://www.w3.org/2000/svg" xmlns:xlink="http://www.w3.org/1999/xlink" x="0px" y="0px"
	 viewBox="0 0 165 120" style="enable-background:new 0 0 165 120;" xml:space="preserve">
<style type="text/css">
	.st0{fill:#1B1B1B;}
	.st1{fill:#02B9CE;}
</style>
<g>
	<path class="st0" d="M95,109c0,1.6-1.3,3-3,3c-1.6,0-3-1.3-3-3c0-1.6,1.3-3,3-3C93.7,106,95,107.4,95,109z M76.7,115h34.1h17.7
		c2.9,0,5.3-2.2,5.3-5.1V44.5V9.3c0-2.9-2.4-5.3-5.3-5.3h0H55.6h0c-2.9,0-5.3,2.4-5.3,5.3v35.2l2.5,1.7l3.5-2.9V11.8h71.4v32.6v59.2
		H97.5l-5.6-2.3l-12.7,6.5L76.7,115z M67.7,115.2l0.2-5.3l-0.8-3.3l-4.3-1.2l-3.1-2h-3.2v-0.8l-3.1-1.4l-2.9,2.7v6
		c0,2.9,2.4,5.3,5.3,5.3H67.7"/>
	<g>
		<g>
			<path class="st1" d="M100,72.2c-0.1-8.9-4.5-17.6-12.1-22.3l-2.1-1l-7.2,18l0.3,0.4c0.8,1.1,1.4,2.3,1.6,3.6l0.1,0.5l18.7,7.5
				l0.2-1C99.8,76,100,74,100,72.2L100,72.2z M97.2,71.6c0,1.4-0.1,2.9-0.3,4.3L82.2,70c-0.3-1.3-0.8-2.5-1.5-3.5l5.9-14.6
				C93.1,56.3,97.1,63.6,97.2,71.6L97.2,71.6z"/>
		</g>
		<g>
			<path class="st1" d="M78.2,80.4c-1.1,0.8-2.4,1.4-3.7,1.6L74,82l-7.6,19.1l1,0.2c1.9,0.4,3.9,0.6,5.8,0.6
				c9.1-0.1,18.7-4.3,23.4-12l1.1-2.2l-19.1-7.6L78.2,80.4z M93.8,88.3C89.3,95,81.9,99,73.7,99.1c-1.4,0-2.9-0.1-4.3-0.3l6-14.9
				c1.3-0.3,2.5-0.8,3.6-1.5L93.8,88.3z"/>
			<path class="st1" d="M68.1,66.9c1.1-0.8,2.4-1.4,3.7-1.6l0.5-0.1l7.6-19.1l-1-0.2c-1.9-0.4-3.9-0.6-5.8-0.6l0,0
				C64,45.5,55.2,50,50.4,57.7l-1.1,2.2l18.3,7.3L68.1,66.9z M52.4,59c4.5-6.7,12-10.7,20.1-10.8l0,0c1.4,0,2.9,0.1,4.3,0.3l-6,14.9
				c-1.3,0.3-2.5,0.8-3.6,1.5L52.4,59z"/>
			<path class="st1" d="M66.4,78.7c-0.8-1.1-1.4-2.3-1.6-3.7l-0.1-0.5l-19.1-7.6l-0.2,1c-0.4,1.9-0.6,3.9-0.6,5.8
				c0.1,9.1,5.5,19.2,13.3,23.9l0.9,0.6l7.6-19.1L66.4,78.7z M58.5,94.4c-6.7-4.5-10.7-12-10.8-20.1c0-1.4,0.1-2.9,0.3-4.3l14.9,6
				c0.3,1.3,0.8,2.5,1.5,3.6L58.5,94.4z"/>
			<path class="st1" d="M71.2,69.6C69,70.5,68,73,69,75.2c0.5,1.1,1.3,1.9,2.4,2.3c1.1,0.4,2.2,0.4,3.3,0c2.2-0.9,3.2-3.5,2.3-5.7
				C76,69.6,73.4,68.6,71.2,69.6z M73.9,75.9c-0.6,0.3-1.3,0.3-1.9,0c-0.6-0.3-1.1-0.7-1.4-1.4c-0.6-1.3,0-2.8,1.3-3.3
				c0.6-0.3,1.3-0.3,1.9,0c0.6,0.2,1.1,0.7,1.4,1.4C75.8,73.8,75.2,75.3,73.9,75.9z"/>
			<path class="st1" d="M114.6,79.7l-0.1-13.2l-7.7,0.1c-1.1-7.1-4.8-13.3-4.8-13.3l4.7-4.8l-9.4-9.2L92.6,44
				c-4.1-2.7-8.7-4.6-13.5-5.4l-0.1-6.8L65.9,32l0.1,6.8c-4.8,0.9-9.4,2.9-13.3,5.7l-4.8-4.7l-9.2,9.4l4.8,4.7
				c-2.7,4.1-4.6,8.7-5.4,13.5l-6.8,0.1l0.1,13.2l6.8-0.1c0.9,4.8,2.9,9.4,5.7,13.3l-4.7,4.8l9.4,9.2l4.7-4.8
				c4.1,2.7,8.7,4.6,13.5,5.4l0.1,6.8l13.2-0.1l-0.1-6.8c4.8-0.9,9.4-2.9,13.3-5.7l4.8,4.7l9.2-9.4l-4.8-4.7
				c2.7-4.1,4.6-8.7,5.4-13.5L114.6,79.7z M104.9,78.2c-0.8,5-2.7,9.9-5.7,14.1l-1.1,1.1l4.9,4.5l-5.3,5.4l-5.1-4.8L92,99
				c-4.1,3-8.5,5.2-13.5,6l-1.6,0.3l0.2,6.4l-8,0.2l0-6.3l-1.4-0.3c-5-0.8-9.9-2.7-14.1-5.7L53,99.2l-4.9,4.8l-5.2-5.1l3.9-4
				l-1.1-1.5c-3-4.1-5.1-9-6-14L39.5,78l-5.3,0.1L33.9,70l6.2-0.1l0-1c0.8-5,2.7-9.9,5.7-14.1l0.8-1.1L42,49.3l5.9-6.1l4.6,4.3
				l1.1-0.8c4.1-3,9-5.1,14-6l0.7-0.1l0-6.3l8.5,0l0.1,6.4l1.4,0c5,0.8,9.9,2.7,14.1,5.7l1.1,1.2l4.2-4.1l5.6,5.2l-4.4,4.7
				c2.6,3.9,4.1,9,4.8,11.8l0,0c0.3,1,0.5,2.1,0.7,3.2l0.1,0.7l7.5-0.4l0.1,8l-7,0.7L104.9,78.2z"/>
		</g>
	</g>
</g>
</svg>
