<?xml version="1.0" encoding="utf-8"?>
<!-- Generator: Adobe Illustrator 22.1.0, SVG Export Plug-In . SVG Version: 6.00 Build 0)  -->
<svg version="1.1" id="圖層_1" xmlns="http://www.w3.org/2000/svg" xmlns:xlink="http://www.w3.org/1999/xlink" x="0px" y="0px"
	 viewBox="0 0 26 20" style="enable-background:new 0 0 26 20;" xml:space="preserve">
<style type="text/css">
	.st0{fill:#02B9CE;}
</style>
<title>Combined Shape Copy 3</title>
<desc>Created with Sketch.</desc>
<g id="Symbol">
	<g id="漢堡_xFF15_tab" transform="translate(-356.000000, -42.000000)">
		<path id="Combined-Shape-Copy-3" class="st0" d="M381.5,43.7h-24.9c-0.3,0-0.5-0.2-0.5-0.6v-0.6c0-0.3,0.2-0.6,0.5-0.6h24.9
			c0.3,0,0.5,0.2,0.5,0.6v0.6C382,43.4,381.8,43.7,381.5,43.7z M381.5,62h-24.9c-0.3,0-0.5-0.2-0.5-0.6v-0.6c0-0.3,0.2-0.6,0.5-0.6
			h24.9c0.3,0,0.5,0.2,0.5,0.6v0.6C382,61.8,381.8,62,381.5,62z M381.5,52.8h-24.9c-0.3,0-0.5-0.2-0.5-0.6v-0.6
			c0-0.3,0.2-0.6,0.5-0.6h24.9c0.3,0,0.5,0.2,0.5,0.6v0.6C382,52.6,381.8,52.8,381.5,52.8z"/>
	</g>
</g>
</svg>
