<?xml version="1.0" encoding="utf-8"?>
<!-- Generator: Adobe Illustrator 22.1.0, SVG Export Plug-In . SVG Version: 6.00 Build 0)  -->
<svg version="1.1" id="圖層_1" xmlns="http://www.w3.org/2000/svg" xmlns:xlink="http://www.w3.org/1999/xlink" x="0px" y="0px"
	 viewBox="0 0 128 128" style="enable-background:new 0 0 128 128;" xml:space="preserve">
<style type="text/css">
	.st0{fill:none;}
	.st1{fill:#FFFFFF;}
	.st2{fill:#0F3A6A;stroke:#0F3A6A;stroke-miterlimit:10;}
</style>
<path class="st0" d="M24.3,98.2c-1.7,0-3,1.4-3,3.1s1.3,3.1,3,3.1s3-1.4,3-3.1S25.9,98.2,24.3,98.2z"/>
<path class="st0" d="M17.9,20.7h12.7c0.4,0,0.7-0.3,0.7-0.8c0-0.4-0.3-0.8-0.7-0.8H17.9c-0.4,0-0.7,0.3-0.7,0.8
	C17.2,20.4,17.5,20.7,17.9,20.7z"/>
<circle class="st1" cx="64.1" cy="64" r="64"/>
<g id="漢堡">
	<g id="_x30_9基本資料編輯" transform="translate(-17.000000, -155.000000)">
		<path id="Fill-1" class="st2" d="M121.7,203.6v36.5l-22.6-18.3L121.7,203.6z M63,221.9l-22.6,18.3v-36.5L63,221.9z M65.1,223.6
			l12.4,10c2.1,1.7,5,1.7,7.1,0l12.4-10l24.7,19.9c-0.1,0.7-0.4,1.4-0.9,2c-0.6,0.7-1.5,1.1-2.4,1.1H43.7c-0.9,0-1.7-0.4-2.4-1.1
			c-0.5-0.5-0.8-1.2-0.9-1.9L65.1,223.6z M79,231.5l-38.6-31.2v-5.2c0-1,0.4-1.9,1-2.5c0.6-0.7,1.5-1.1,2.4-1.1h74.6
			c0.9,0,1.7,0.4,2.4,1.1c0.6,0.7,1,1.6,1,2.5v5.2l-38.6,31.2C81.9,232.4,80.2,232.4,79,231.5z M122.5,190.6
			c-1.1-1.2-2.6-1.8-4.2-1.8H43.7c-1.6,0-3,0.7-4.2,1.8c-1.1,1.2-1.7,2.8-1.7,4.5V243c0,1.7,0.6,3.3,1.7,4.4l0.1,0.2l0,0
			c1.1,1.1,2.5,1.7,4.1,1.7h74.6c1.6,0,3-0.7,4.2-1.8c1.1-1.2,1.7-2.8,1.7-4.5v-47.9C124.3,193.4,123.6,191.8,122.5,190.6z"/>
	</g>
</g>
</svg>
