<?xml version="1.0" encoding="utf-8"?>
<!-- Generator: Adobe Illustrator 22.1.0, SVG Export Plug-In . SVG Version: 6.00 Build 0)  -->
<svg version="1.1" id="圖層_1" xmlns="http://www.w3.org/2000/svg" xmlns:xlink="http://www.w3.org/1999/xlink" x="0px" y="0px"
	 viewBox="0 0 165 120" style="enable-background:new 0 0 165 120;" xml:space="preserve">
<style type="text/css">
	.st0{fill:#02B9CE;}
	.st1{fill:#1B1B1B;}
</style>
<g>
	<path class="st0" d="M142.5,50.2v-11H97.4v18.4h35.1c0,0,0.1-7.4,4.7-7.4C141.8,50.2,142.5,50.2,142.5,50.2z"/>
	<rect x="97.4" y="60" class="st0" width="35.9" height="9.9"/>
	<rect x="97.4" y="94.2" class="st0" width="36.3" height="5.4"/>
	<rect x="97.4" y="73.1" class="st0" width="20.8" height="19"/>
	<rect x="122.1" y="73.1" class="st0" width="11.2" height="19"/>
	<rect x="137" y="56.4" class="st0" width="23.2" height="9.2"/>
	<rect x="137" y="68.2" class="st0" width="23.2" height="4.6"/>
	<rect x="137" y="75.4" class="st0" width="23.2" height="23.2"/>
	<rect x="74.8" y="31" class="st0" width="16.3" height="24.4"/>
	<rect x="28.4" y="19.8" class="st0" width="106.3" height="7.8"/>
	<rect x="28.4" y="58.9" class="st0" width="62.7" height="23.2"/>
	<rect x="28.4" y="85.8" class="st0" width="62.7" height="8.3"/>
	<g>
		<path class="st1" d="M90.5,97.1h-67V14.9h116v11.7h5.9V14.9c0-3.2-2.6-5.9-5.9-5.9h-116c-3.2,0-5.9,2.6-5.9,5.9v88H1.5
			c-0.8,0-1.5,0.7-1.5,1.5v1.5c0,3.2,2.6,5.9,5.9,5.9h85.8c-0.8-1.1-1.2-2.4-1.2-3.9C90.5,107.9,90.5,97.1,90.5,97.1z M83.7,105.9
			h-4.4c-3.2,0-4.4-1.3-4.4-2.9h13.2C88.1,104.5,86.9,105.9,83.7,105.9z"/>
	</g>
	<g>
		<path class="st1" d="M146.2,29.6H92.3c-2.1,0-3.9,1.7-3.9,3.9v74.4c0,2.1,1.7,3.9,3.9,3.9h38c-0.5-0.9-0.8-1.8-0.8-2.9v-5.7H92.9
			V35.3h52.8v11.9h4.4V33.4C150.1,31.3,148.3,29.6,146.2,29.6z M119.3,104.9c1.2,0,2.2,1,2.2,2.2s-1,2.2-2.2,2.2s-2.2-1-2.2-2.2
			C117.1,105.9,118.1,104.9,119.3,104.9z"/>
	</g>
	<path class="st1" d="M161.9,50.1h-26.5c-1.6,0-2.9,1.3-2.9,2.9v55.8c0,1.6,1.3,2.9,2.9,2.9h26.5c1.6,0,2.9-1.3,2.9-2.9V53
		C164.8,51.4,163.4,50.1,161.9,50.1z M148.6,109.3c-1.2,0-2.2-1-2.2-2.2s1-2.2,2.2-2.2s2.2,1,2.2,2.2S149.9,109.3,148.6,109.3z
		 M161.8,103.1h-26.4v-49h26.8L161.8,103.1z"/>
	<rect x="28.4" y="31" class="st0" width="42.9" height="24.4"/>
</g>
</svg>
