<?xml version="1.0" encoding="utf-8"?>
<!-- Generator: Adobe Illustrator 22.1.0, SVG Export Plug-In . SVG Version: 6.00 Build 0)  -->
<svg version="1.1" id="圖層_1" xmlns="http://www.w3.org/2000/svg" xmlns:xlink="http://www.w3.org/1999/xlink" x="0px" y="0px"
	 viewBox="0 0 165 120" style="enable-background:new 0 0 165 120;" xml:space="preserve">
<style type="text/css">
	.st0{fill:#1B1B1B;}
	.st1{fill:#02B9CE;}
</style>
<g>
	<g>
		<rect x="72.4" y="19.3" class="st1" width="9.2" height="9.2"/>
		<g>
			<rect x="72.4" y="32.2" class="st1" width="9.2" height="9.2"/>
			<rect x="72.4" y="45" class="st1" width="9.2" height="9.2"/>
			<rect x="72.4" y="57.9" class="st1" width="9.2" height="9.2"/>
			<g>
				<rect x="84.9" y="19.3" class="st1" width="9.2" height="9.2"/>
				<rect x="97.5" y="19.3" class="st1" width="9.2" height="9.2"/>
				<rect x="110" y="19.3" class="st1" width="9.2" height="9.2"/>
				<rect x="84.9" y="32.2" class="st1" width="9.2" height="9.2"/>
				<rect x="97.5" y="32.2" class="st1" width="9.2" height="9.2"/>
				<rect x="110" y="32.2" class="st1" width="9.2" height="9.2"/>
				<rect x="84.9" y="45" class="st1" width="9.2" height="9.2"/>
				<rect x="97.5" y="45" class="st1" width="9.2" height="9.2"/>
				<rect x="110" y="45" class="st1" width="9.2" height="9.2"/>
				<rect x="84.9" y="57.9" class="st1" width="9.2" height="9.2"/>
				<rect x="72.4" y="71.5" class="st1" width="46.9" height="25.7"/>
			</g>
		</g>
	</g>
	<g>
		<g>
			<path d="M133.1,55.1h-12h-1.6c-3.5,0-6.4,2.9-6.4,6.4v0.7c0,3.6,2.9,6.4,6.4,6.4h12h1.6c3.5,0,6.4-2.9,6.4-6.4l0-0.7
				C139.5,58,136.6,55.1,133.1,55.1z"/>
			<path class="st0" d="M133.1,39.1h-2.8v-31c0-4.5-3.6-8.1-8.1-8.1H68.7c-4.5,0-8.1,3.6-8.1,8.1v22.3
				c-10.8,6.1-21.9,12.5-21.9,12.5c-6,2.5-14.9,10.5-14.9,29.5c0,1.7,0.1,3.3,0.3,4.8c0,0.4,0.1,0.9,0.2,1.3
				c0.2,1.1,0.4,2.2,0.6,3.2c0.1,0.4,0.1,0.7,0.2,1.1c0.3,1.2,0.7,2.3,1.1,3.3c0.2,0.5,0.4,1,0.7,1.5c0.2,0.5,0.5,1,0.7,1.5
				c0.3,0.6,0.6,1.1,0.9,1.6c0.1,0.1,0.2,0.2,0.2,0.4c7.8,11.8,22.2,11.8,22.2,11.8h9.7v9.2c0,4.5,3.6,8.1,8.1,8.1h53.5
				c4.5,0,8.1-3.6,8.1-8.1v-11.2h1.2v0h1.6c3.5,0,6.4-2.9,6.4-6.4l0-0.7c0-3.5-2.9-6.4-6.4-6.4h-1.6h-10.4h-1.6
				c-3.5,0-6.4,2.9-6.4,6.4v0.7c0,3.5,2.9,6.4,6.4,6.4h5.1v4.3H66.2V46.8c2.9-1.9,5.7-3.7,7.2-4.9c7.9-6.1,15.3-10.9,16.3-15.3
				c1.3-5.7-3.1-10.5-10.6-6.5c-2.4,1.2-7.3,4-12.9,7.1V12.8l58.4,0v26.3h-3.5v0h-1.6c-3.5,0-6.4,2.9-6.4,6.4v0.7
				c0,3.5,2.9,6.4,6.4,6.4h1.6h10.4h1.6c3.5,0,6.4-2.9,6.4-6.4v-0.7C139.5,42,136.6,39.1,133.1,39.1z M95.4,107.9
				c2.2,0,4.1,1.8,4.1,4.1c0,2.2-1.8,4.1-4.1,4.1c-2.2,0-4-1.8-4-4.1C91.4,109.7,93.2,107.9,95.4,107.9z M104,7.8H86.9
				c-0.5,0-1-0.4-1-1c0-0.5,0.4-1,1-1H104c0.5,0,1,0.4,1,1C104.9,7.4,104.5,7.8,104,7.8z"/>
			<path d="M133.1,71.1h-1.6h-12c-3.5,0-6.4,2.9-6.4,6.4v0.7c0,3.5,2.9,6.4,6.4,6.4h1.6h10.4h1.6c3.5,0,6.4-2.9,6.4-6.4v-0.7
				C139.5,74,136.6,71.1,133.1,71.1z"/>
		</g>
	</g>
</g>
</svg>
