<?xml version="1.0" encoding="utf-8"?>
<!-- Generator: Adobe Illustrator 22.1.0, SVG Export Plug-In . SVG Version: 6.00 Build 0)  -->
<svg version="1.1" id="圖層_1" xmlns="http://www.w3.org/2000/svg" xmlns:xlink="http://www.w3.org/1999/xlink" x="0px" y="0px"
	 viewBox="0 0 128 128" style="enable-background:new 0 0 128 128;" xml:space="preserve">
<style type="text/css">
	.st0{fill:#FFFFFF;}
</style>
<g>
	<path class="st0" d="M24.1,118.1l39.9-0.2l39.9,0.2c0,0,1.3-5.9,3.1-14.3H21C22.9,112.2,24.1,118.1,24.1,118.1z"/>
	<path class="st0" d="M119.9,27.8c-4.5,0-8.1,4-8.1,8.9c0,2.6,1,5,2.6,6.6c-5.5,6.2-11.8,12.2-19.6,14.4c-1.8,0.5-3.5,0.7-5.1,0.5
		C83,57.5,78.5,51.2,75,45c-3.2-5.7-5.8-11.7-8.1-17.8c3-1.3,5.2-4.5,5.2-8.3c0-4.9-3.6-8.9-8.1-8.9c-4.5,0-8.1,4-8.1,8.9
		c0,3.8,2.1,7,5.2,8.3C58.8,33.3,56.2,39.3,53,45c-3.5,6.2-8,12.5-14.7,13.2c-1.6,0.2-3.3,0-5.1-0.5c-7.8-2.3-14.1-8.2-19.6-14.4
		c1.6-1.6,2.6-4,2.6-6.6c0-4.9-3.6-8.9-8.1-8.9c-4.5,0-8.1,4-8.1,8.9c0,4.9,3.6,8.9,8.1,8.9c0.6,0,1.2-0.1,1.8-0.2
		c2.3,10.7,6.4,36.5,9.6,51.3h89c3.2-14.7,7.3-40.6,9.6-51.3c0.6,0.2,1.2,0.2,1.8,0.2c4.5,0,8.1-4,8.1-8.9
		C128,31.8,124.4,27.8,119.9,27.8z"/>
</g>
</svg>
