<?xml version="1.0" encoding="utf-8"?>
<!-- Generator: Adobe Illustrator 22.1.0, SVG Export Plug-In . SVG Version: 6.00 Build 0)  -->
<svg version="1.1" id="圖層_1" xmlns="http://www.w3.org/2000/svg" xmlns:xlink="http://www.w3.org/1999/xlink" x="0px" y="0px"
	 viewBox="0 0 165 120" style="enable-background:new 0 0 165 120;" xml:space="preserve">
<style type="text/css">
	.st0{fill:#1B1B1B;}
	.st1{fill:#02B9CE;}
</style>
<g>
	<g>
		<path class="st0" d="M142.9,19.7V9.1c0-3-2.5-5.5-5.5-5.5H27.6c-3,0-5.5,2.5-5.5,5.5v10.6H142.9z M54.6,9.3c1.7,0,3,1.3,3,3
			s-1.3,3-3,3c-1.7,0-3-1.3-3-3S53,9.3,54.6,9.3z M43.1,9.3c1.7,0,3,1.3,3,3s-1.3,3-3,3c-1.7,0-3-1.3-3-3S41.5,9.3,43.1,9.3z
			 M31.1,9.3c1.7,0,3,1.3,3,3s-1.3,3-3,3c-1.7,0-3-1.3-3-3S29.4,9.3,31.1,9.3z"/>
		<rect x="22.1" y="21.9" class="st0" width="120.8" height="93.8"/>
	</g>
	<g>
		<path class="st1" d="M49.7,49.9l5.7,1.8c-0.9,3.2-2.3,5.5-4.4,7.1c-2,1.5-4.6,2.3-7.7,2.3c-3.9,0-7-1.3-9.5-4
			c-2.5-2.6-3.7-6.3-3.7-10.8c0-4.8,1.3-8.6,3.8-11.3c2.5-2.7,5.8-4,9.9-4c3.6,0,6.5,1.1,8.7,3.2c1.3,1.2,2.3,3,3,5.4l-5.8,1.4
			c-0.3-1.5-1.1-2.7-2.2-3.6c-1.1-0.9-2.4-1.3-4-1.3c-2.2,0-3.9,0.8-5.3,2.3c-1.3,1.5-2,4.1-2,7.5c0,3.7,0.7,6.3,2,7.9
			c1.3,1.6,3,2.3,5.2,2.3c1.6,0,2.9-0.5,4-1.5C48.4,53.5,49.2,52,49.7,49.9z"/>
		<path class="st1" d="M61.4,45v-5.6H67V45H61.4z M61.4,60.6V55H67v5.6H61.4z"/>
		<path class="st1" d="M70.9,61L78.1,31h4.2L75,61H70.9z"/>
	</g>
</g>
</svg>
