<?xml version="1.0" encoding="utf-8"?>
<!-- Generator: Adobe Illustrator 22.1.0, SVG Export Plug-In . SVG Version: 6.00 Build 0)  -->
<svg version="1.1" id="圖層_1" xmlns="http://www.w3.org/2000/svg" xmlns:xlink="http://www.w3.org/1999/xlink" x="0px" y="0px"
	 viewBox="0 0 165 120" style="enable-background:new 0 0 165 120;" xml:space="preserve">
<style type="text/css">
	.st0{fill:#1B1B1B;}
	.st1{fill:#02B9CE;}
</style>
<g>
	<path class="st0" d="M71.8,45.4c0.8,0,1.4-0.6,1.4-1.4c0-0.8-0.6-1.4-1.4-1.4c-0.8,0-1.4,0.6-1.4,1.4C70.4,44.7,71,45.4,71.8,45.4z
		"/>
	<path class="st0" d="M71.8,53.1c-0.8,0-1.4,0.6-1.4,1.4c0,0.8,0.6,1.4,1.4,1.4c0.8,0,1.4-0.6,1.4-1.4
		C73.2,53.8,72.6,53.1,71.8,53.1z"/>
	<path class="st0" d="M71.8,67c0.8,0,1.4-0.6,1.4-1.4c0-0.8-0.6-1.4-1.4-1.4c-0.8,0-1.4,0.6-1.4,1.4C70.4,66.4,71,67,71.8,67z"/>
	<path class="st0" d="M71.8,74.9c-0.8,0-1.4,0.6-1.4,1.4c0,0.8,0.6,1.4,1.4,1.4c0.8,0,1.4-0.6,1.4-1.4
		C73.2,75.6,72.6,74.9,71.8,74.9z"/>
	<path class="st0" d="M139.1,33.4V7.6c0-2.4-1.9-4.3-4.3-4.3h-17c-2.4,0-4.3,1.9-4.3,4.3v11.2H87.6c-0.7-1.9-2.5-3.2-4.6-3.2
		c-2.1,0-3.9,1.3-4.6,3.2H52.8V7.6c0-2.4-1.9-4.3-4.3-4.3h-17c-2.4,0-4.3,1.9-4.3,4.3v25.8c0,2.4,1.9,4.3,4.3,4.3h17
		c2.4,0,4.3-1.9,4.3-4.3V22.2h25.8c0.5,1.3,1.5,2.4,2.9,2.9v11.4H70c-3.1,0-5.6,2.5-5.6,5.6v35.8c0,3.1,2.5,5.6,5.6,5.6h11.4v11.5
		c-1.3,0.5-2.4,1.5-2.9,2.9H52.8V86.6c0-2.4-1.9-4.3-4.3-4.3h-17c-2.4,0-4.3,1.9-4.3,4.3v25.8c0,2.4,1.9,4.3,4.3,4.3h17
		c2.4,0,4.3-1.9,4.3-4.3v-11.2h25.8c0.7,1.9,2.5,3.2,4.6,3.2c2.1,0,3.9-1.3,4.6-3.2h25.8v11.2c0,2.4,1.9,4.3,4.3,4.3h17
		c2.4,0,4.3-1.9,4.3-4.3V86.6c0-2.4-1.9-4.3-4.3-4.3h-17c-2.4,0-4.3,1.9-4.3,4.3v11.2H87.6c-0.5-1.3-1.5-2.4-2.9-2.9V83.4h10.1
		c3.1,0,5.6-2.5,5.6-5.6V42.1c0-3.1-2.5-5.6-5.6-5.6H84.8V25.1c1.3-0.5,2.4-1.5,2.9-2.9h25.8v11.2c0,2.4,1.9,4.3,4.3,4.3h17
		C137.1,37.7,139.1,35.8,139.1,33.4z M30.4,18.9v-4.4h19v4.4H30.4z M49.4,22.2v4.4h-19v-4.4H49.4z M31.4,6.7h17c0.5,0,1,0.5,1,1v3.4
		h-19V7.6C30.4,7.1,30.9,6.7,31.4,6.7z M48.4,34.4h-17c-0.5,0-1-0.5-1-1V30h19v3.4C49.4,33.9,49,34.4,48.4,34.4z M30.4,97.8v-4.4h19
		v4.4H30.4z M49.4,101.1v4.4h-19v-4.4H49.4z M31.4,85.6h17c0.5,0,1,0.5,1,1V90h-19v-3.4C30.4,86.1,30.9,85.6,31.4,85.6z M48.4,113.3
		h-17c-0.5,0-1-0.5-1-1v-3.4h19v3.4C49.4,112.9,49,113.3,48.4,113.3z M135.7,101.1v4.4h-19v-4.4H135.7z M116.8,97.8v-4.4h19v4.4
		H116.8z M134.7,113.3h-17c-0.5,0-1-0.5-1-1v-3.4h19v3.4C135.7,112.9,135.3,113.3,134.7,113.3z M117.8,85.6h17c0.5,0,1,0.5,1,1V90
		h-19v-3.4C116.8,86.1,117.2,85.6,117.8,85.6z M67.8,58.3v-7.5h29.3v7.5H67.8z M97.1,61.7v7.5H67.8v-7.5H97.1z M94.9,80.1H70
		c-1.2,0-2.2-1-2.2-2.2v-5.3h29.3v5.3C97.1,79.1,96.1,80.1,94.9,80.1z M97.1,42.1v5.3H67.8v-5.3c0-1.2,1-2.2,2.2-2.2h24.8
		C96.1,39.9,97.1,40.9,97.1,42.1z M135.7,22.2v4.4h-19v-4.4H135.7z M116.8,18.9v-4.4h19v4.4H116.8z M117.8,6.7h17c0.5,0,1,0.5,1,1
		v3.4h-19V7.6C116.8,7.1,117.2,6.7,117.8,6.7z M116.8,33.4V30h19v3.4c0,0.5-0.5,1-1,1h-17C117.2,34.4,116.8,33.9,116.8,33.4z"/>
	<circle class="st1" cx="130.7" cy="72.1" r="2.3"/>
	<circle class="st1" cx="130.7" cy="64" r="2.3"/>
	<path class="st1" d="M130.7,53.6c-1.3,0-2.3,1-2.3,2.3c0,1.3,1,2.3,2.3,2.3c1.3,0,2.3-1,2.3-2.3C133,54.7,131.9,53.6,130.7,53.6z"
		/>
	<path class="st1" d="M130.7,45.5c-1.3,0-2.3,1-2.3,2.3c0,1.3,1,2.3,2.3,2.3c1.3,0,2.3-1,2.3-2.3C133,46.6,131.9,45.5,130.7,45.5z"
		/>
	<path class="st1" d="M121.8,69.8c-1.3,0-2.3,1-2.3,2.3c0,1.3,1,2.3,2.3,2.3c1.3,0,2.3-1,2.3-2.3C124.2,70.8,123.1,69.8,121.8,69.8z
		"/>
	<path class="st1" d="M121.8,61.7c-1.3,0-2.3,1-2.3,2.3c0,1.3,1,2.3,2.3,2.3c1.3,0,2.3-1,2.3-2.3C124.2,62.7,123.1,61.7,121.8,61.7z
		"/>
	<path class="st1" d="M121.8,53.6c-1.3,0-2.3,1-2.3,2.3c0,1.3,1,2.3,2.3,2.3c1.3,0,2.3-1,2.3-2.3C124.2,54.7,123.1,53.6,121.8,53.6z
		"/>
	<path class="st1" d="M121.8,45.5c-1.3,0-2.3,1-2.3,2.3c0,1.3,1,2.3,2.3,2.3c1.3,0,2.3-1,2.3-2.3C124.2,46.6,123.1,45.5,121.8,45.5z
		"/>
	<path class="st1" d="M44.3,74.5c1.3,0,2.3-1,2.3-2.3c0-1.3-1-2.3-2.3-2.3s-2.3,1-2.3,2.3C42,73.4,43,74.5,44.3,74.5z"/>
	<path class="st1" d="M44.3,66.4c1.3,0,2.3-1,2.3-2.3c0-1.3-1-2.3-2.3-2.3S42,62.7,42,64C42,65.3,43,66.4,44.3,66.4z"/>
	<path class="st1" d="M44.3,58.3c1.3,0,2.3-1,2.3-2.3c0-1.3-1-2.3-2.3-2.3S42,54.7,42,56C42,57.3,43,58.3,44.3,58.3z"/>
	<path class="st1" d="M44.3,50.2c1.3,0,2.3-1,2.3-2.3c0-1.3-1-2.3-2.3-2.3s-2.3,1-2.3,2.3C42,49.2,43,50.2,44.3,50.2z"/>
	<path class="st1" d="M35.5,74.5c1.3,0,2.3-1,2.3-2.3c0-1.3-1-2.3-2.3-2.3c-1.3,0-2.3,1-2.3,2.3C33.2,73.4,34.2,74.5,35.5,74.5z"/>
	<path class="st1" d="M35.5,66.4c1.3,0,2.3-1,2.3-2.3c0-1.3-1-2.3-2.3-2.3c-1.3,0-2.3,1-2.3,2.3C33.2,65.3,34.2,66.4,35.5,66.4z"/>
	<path class="st1" d="M35.5,58.3c1.3,0,2.3-1,2.3-2.3c0-1.3-1-2.3-2.3-2.3c-1.3,0-2.3,1-2.3,2.3C33.2,57.3,34.2,58.3,35.5,58.3z"/>
	<path class="st1" d="M35.5,50.2c1.3,0,2.3-1,2.3-2.3c0-1.3-1-2.3-2.3-2.3c-1.3,0-2.3,1-2.3,2.3C33.2,49.2,34.2,50.2,35.5,50.2z"/>
	<rect x="65.2" y="108.5" class="st1" width="4" height="3.3"/>
	<rect x="81.1" y="108.5" class="st1" width="4" height="3.3"/>
	<rect x="57.2" y="108.5" class="st1" width="4" height="3.3"/>
	<rect x="73.1" y="108.5" class="st1" width="4" height="3.3"/>
	<rect x="105" y="108.5" class="st1" width="4" height="3.3"/>
	<rect x="89.1" y="108.5" class="st1" width="4" height="3.3"/>
	<rect x="97" y="108.5" class="st1" width="4" height="3.3"/>
	<rect x="89.1" y="8.1" class="st1" width="4" height="3.3"/>
	<rect x="81.1" y="8.1" class="st1" width="4" height="3.3"/>
	<rect x="97" y="8.1" class="st1" width="4" height="3.3"/>
	<rect x="105" y="8.1" class="st1" width="4" height="3.3"/>
	<rect x="73.1" y="8.1" class="st1" width="4" height="3.3"/>
	<rect x="57.2" y="8.1" class="st1" width="4" height="3.3"/>
	<rect x="65.2" y="8.1" class="st1" width="4" height="3.3"/>
</g>
</svg>
