<?xml version="1.0" encoding="utf-8"?>
<!-- Generator: Adobe Illustrator 22.1.0, SVG Export Plug-In . SVG Version: 6.00 Build 0)  -->
<svg version="1.1" id="圖層_1" xmlns="http://www.w3.org/2000/svg" xmlns:xlink="http://www.w3.org/1999/xlink" x="0px" y="0px"
	 viewBox="0 0 165 120" style="enable-background:new 0 0 165 120;" xml:space="preserve">
<style type="text/css">
	.st0{fill:#1B1B1B;}
	.st1{fill:#02B9CE;}
</style>
<g>
	<g>
		<g>
			<g>
				<path class="st0" d="M83.1,116c-13.9,0-24.8-24.6-24.8-56S69.2,4,83.1,4s24.8,24.6,24.8,56S97,116,83.1,116z M83.1,7
					c-5.5,0-11,5.5-15.1,15c-4.3,10.1-6.7,23.6-6.7,37.9s2.4,27.8,6.7,37.9c4.1,9.6,9.6,15,15.1,15s11-5.5,15.1-15
					c4.3-10.1,6.7-23.6,6.7-37.9s-2.4-27.8-6.7-37.9C94.1,12.5,88.6,7,83.1,7z"/>
			</g>
		</g>
	</g>
	<g>
		<g>
			<g>
				<path class="st0" d="M114.3,97.3c-2.6,0-5.4-0.3-8.4-0.8c-11.2-2-24.2-7.6-36.5-15.8c-12.3-8.1-22.5-17.8-28.8-27.4
					c-6.5-9.9-8-18.5-4.2-24.2c3.8-5.7,12.3-7.7,23.9-5.6c11.2,2,24.2,7.6,36.5,15.8c12.3,8.1,22.5,17.8,28.8,27.4
					c6.5,9.9,8,18.5,4.2,24.2C127,95.1,121.6,97.3,114.3,97.3z M71.1,78.2c12,7.9,24.5,13.3,35.3,15.3c10.2,1.9,17.8,0.3,20.9-4.3
					c3-4.6,1.5-12.2-4.2-20.9c-6.1-9.2-16-18.6-28-26.5c-12-7.9-24.5-13.3-35.3-15.3c-10.2-1.9-17.8-0.3-20.9,4.3
					c-3,4.6-1.5,12.2,4.2,20.9C49.2,60.9,59.1,70.3,71.1,78.2z"/>
			</g>
		</g>
	</g>
	<g>
		<g>
			<g>
				<path class="st0" d="M52,96.3c-7.8,0-13.7-2.3-16.6-7c-7.3-11.8,7.9-34,34.7-50.5c26.7-16.5,53.4-20.1,60.7-8.2
					c7.3,11.8-7.9,34-34.7,50.5C80,91.1,63.9,96.3,52,96.3z M114.2,26.7c-2.1,0-4.3,0.2-6.7,0.5c-10.9,1.6-23.6,6.7-35.8,14.2
					S49.2,58.1,42.9,67c-6,8.5-7.8,16.1-4.9,20.7c2.9,4.7,10.4,6.5,20.7,5c10.9-1.6,23.6-6.7,35.8-14.2l0.8,1.3l-0.8-1.3
					C106.7,71,117,61.9,123.3,53c6-8.5,7.8-16.1,4.9-20.7C126,28.6,121,26.7,114.2,26.7z"/>
			</g>
		</g>
	</g>
	<g>
		<g>
			<g>
				<g>
					<path class="st1" d="M83.1,76.5c-6,0-12-1.5-12-4.9h3c0-0.1,0-0.1,0-0.1c0.3,0.6,3.3,2,9,2c5.7,0,8.7-1.4,9-2c0,0,0,0.1,0,0.1
						h3C95.1,75,89.1,76.5,83.1,76.5z"/>
				</g>
			</g>
		</g>
		<g>
			<g>
				<g>
					<path class="st1" d="M83.1,68.5c-6,0-12-1.5-12-4.9h3c0-0.1,0-0.1,0-0.1c0.3,0.6,3.3,2,9,2c5.7,0,8.7-1.4,9-2c0,0,0,0.1,0,0.1
						h3C95.1,67,89.1,68.5,83.1,68.5z"/>
				</g>
			</g>
		</g>
		<g>
			<g>
				<g>
					<path class="st1" d="M83.1,60.6c-6,0-12-1.5-12-4.9h3c0-0.1,0-0.1,0-0.1c0.3,0.6,3.3,2,9,2c5.7,0,8.7-1.4,9-2c0,0,0,0.1,0,0.1
						h3C95.1,59,89.1,60.6,83.1,60.6z"/>
				</g>
			</g>
		</g>
		<g>
			<g>
				<g>
					<path class="st1" d="M83.1,52.6c-6,0-12-1.5-12-4.9c0-3.4,6-4.9,12-4.9c6,0,12,1.5,12,4.9C95.1,51.1,89.1,52.6,83.1,52.6z
						 M74.2,47.7c0.6,0.6,3.6,1.9,8.9,1.9c5.3,0,8.3-1.2,8.9-1.9c-0.6-0.6-3.6-1.9-8.9-1.9C77.8,45.8,74.8,47,74.2,47.7z"/>
				</g>
			</g>
		</g>
		<g>
			<g>
				<g>
					<rect x="71.1" y="47.7" class="st1" width="3" height="23.9"/>
				</g>
			</g>
		</g>
		<g>
			<g>
				<g>
					<rect x="92.1" y="47.7" class="st1" width="3" height="23.9"/>
				</g>
			</g>
		</g>
	</g>
	<g>
		<g>
			<circle class="st0" cx="101.1" cy="26.5" r="4.7"/>
		</g>
	</g>
	<g>
		<g>
			<g>
				<path class="st0" d="M118.6,66.5c-3.4,0-6.2-2.8-6.2-6.2c0-3.4,2.8-6.2,6.2-6.2c3.4,0,6.2,2.8,6.2,6.2
					C124.8,63.7,122,66.5,118.6,66.5z M118.6,63.4c1.7,0,3.2-1.4,3.2-3.2c0-1.7-1.4-3.2-3.2-3.2"/>
			</g>
		</g>
	</g>
	<g>
		<g>
			<g>
				<path class="st0" d="M63.9,99.1c-3.4,0-6.2-2.8-6.2-6.2c0-3.4,2.8-6.2,6.2-6.2c3.4,0,6.2,2.8,6.2,6.2
					C70,96.3,67.3,99.1,63.9,99.1z M63.9,89.8c-1.7,0-3.2,1.4-3.2,3.2c0,1.7,1.4,3.2,3.2,3.2c1.7,0,3.2-1.4,3.2-3.2
					C67,91.2,65.6,89.8,63.9,89.8z"/>
			</g>
		</g>
	</g>
	<g>
		<g>
			<g>
				<path class="st0" d="M101.1,100.3c-3.4,0-6.2-2.8-6.2-6.2c0-3.4,2.8-6.2,6.2-6.2c3.4,0,6.2,2.8,6.2,6.2
					C107.3,97.5,104.5,100.3,101.1,100.3z M101.1,90.9c-1.7,0-3.2,1.4-3.2,3.2c0,1.7,1.4,3.2,3.2,3.2c1.7,0,3.2-1.4,3.2-3.2
					C104.3,92.3,102.9,90.9,101.1,90.9z"/>
			</g>
		</g>
	</g>
	<g>
		<g>
			<g>
				<path class="st0" d="M65,31.5c-3.4,0-6.2-2.8-6.2-6.2c0-3.4,2.8-6.2,6.2-6.2c3.4,0,6.2,2.8,6.2,6.2C71.2,28.7,68.4,31.5,65,31.5
					z M65,22.2c-1.7,0-3.2,1.4-3.2,3.2c0,1.7,1.4,3.2,3.2,3.2c1.7,0,3.2-1.4,3.2-3.2C68.2,23.6,66.8,22.2,65,22.2z"/>
			</g>
		</g>
	</g>
	<g>
		<g>
			<g>
				<path class="st0" d="M46.4,66.5c-3.4,0-6.2-2.8-6.2-6.2c0-3.4,2.8-6.2,6.2-6.2c3.4,0,6.2,2.8,6.2,6.2
					C52.5,63.7,49.8,66.5,46.4,66.5z M46.4,57.1c-1.7,0-3.2,1.4-3.2,3.2c0,1.7,1.4,3.2,3.2,3.2s3.2-1.4,3.2-3.2
					C49.5,58.6,48.1,57.1,46.4,57.1z"/>
			</g>
		</g>
	</g>
	<g>
		<g>
			<g>
				<path class="st0" d="M101.1,32.7c-3.4,0-6.2-2.8-6.2-6.2s2.8-6.2,6.2-6.2c3.4,0,6.2,2.8,6.2,6.2S104.5,32.7,101.1,32.7z"/>
			</g>
		</g>
	</g>
	<g>
		<g>
			<path class="st0" d="M59.8,13.7c0-1.6-1.3-2.9-2.9-2.9s-2.9,1.3-2.9,2.9c0,1.6,1.3,2.9,2.9,2.9S59.8,15.3,59.8,13.7z"/>
		</g>
	</g>
	<g>
		<g>
			<path class="st0" d="M112.2,13.7c0-1.6-1.3-2.9-2.9-2.9c-1.6,0-2.9,1.3-2.9,2.9c0,1.6,1.3,2.9,2.9,2.9
				C110.9,16.6,112.2,15.3,112.2,13.7z"/>
		</g>
	</g>
	<g>
		<g>
			<path class="st0" d="M59.8,105.7c0-1.6-1.3-2.9-2.9-2.9s-2.9,1.3-2.9,2.9c0,1.6,1.3,2.9,2.9,2.9S59.8,107.3,59.8,105.7z"/>
		</g>
	</g>
	<g>
		<g>
			<path class="st0" d="M112.2,105.7c0-1.6-1.3-2.9-2.9-2.9c-1.6,0-2.9,1.3-2.9,2.9c0,1.6,1.3,2.9,2.9,2.9
				C110.9,108.7,112.2,107.3,112.2,105.7z"/>
		</g>
	</g>
	<g>
		<g>
			<path class="st0" d="M135.5,60.3c0-1.6-1.3-2.9-2.9-2.9c-1.6,0-2.9,1.3-2.9,2.9c0,1.6,1.3,2.9,2.9,2.9
				C134.2,63.2,135.5,61.9,135.5,60.3z"/>
		</g>
	</g>
	<g>
		<g>
			<path class="st0" d="M35.3,60.3c0-1.6-1.3-2.9-2.9-2.9c-1.6,0-2.9,1.3-2.9,2.9c0,1.6,1.3,2.9,2.9,2.9
				C34,63.2,35.3,61.9,35.3,60.3z"/>
		</g>
	</g>
	<circle class="st0" cx="65.7" cy="25.6" r="4.4"/>
	<circle class="st0" cx="46.4" cy="60.3" r="4.4"/>
	<circle class="st0" cx="63.9" cy="93.3" r="4.4"/>
	<circle class="st0" cx="102" cy="94.7" r="4.4"/>
	<circle class="st0" cx="118.6" cy="60.3" r="4.4"/>
</g>
</svg>
