<?xml version="1.0" encoding="utf-8"?>
<!-- Generator: Adobe Illustrator 22.1.0, SVG Export Plug-In . SVG Version: 6.00 Build 0)  -->
<svg version="1.1" id="圖層_1" xmlns="http://www.w3.org/2000/svg" xmlns:xlink="http://www.w3.org/1999/xlink" x="0px" y="0px"
	 viewBox="0 0 128 128" style="enable-background:new 0 0 128 128;" xml:space="preserve">
<style type="text/css">
	.st0{fill:none;}
	.st1{fill:#FFFFFF;}
	.st2{fill:#0F3A6A;}
</style>
<path class="st0" d="M24.3,98.2c-1.7,0-3,1.4-3,3.1s1.3,3.1,3,3.1s3-1.4,3-3.1S25.9,98.2,24.3,98.2z"/>
<path class="st0" d="M17.9,20.7h12.7c0.4,0,0.7-0.3,0.7-0.8c0-0.4-0.3-0.8-0.7-0.8H17.9c-0.4,0-0.7,0.3-0.7,0.8
	C17.2,20.4,17.5,20.7,17.9,20.7z"/>
<g>
	<circle class="st1" cx="64.2" cy="63.9" r="64"/>
	<g>
		<path class="st0" d="M57.8,23.5h12.7c0.4,0,0.7-0.3,0.7-0.8c0-0.4-0.3-0.8-0.7-0.8H57.8c-0.4,0-0.7,0.3-0.7,0.8
			S57.4,23.5,57.8,23.5z"/>
		<path class="st0" d="M64.2,101c-1.7,0-3,1.4-3,3.1s1.3,3.1,3,3.1c1.7,0,3-1.4,3-3.1S65.8,101,64.2,101z"/>
		<rect x="42.5" y="27.4" class="st0" width="43.3" height="71.4"/>
		<path class="st2" d="M84,17.4H44.4c-3.3,0-6,2.8-6,6.3v80.4c0,3.5,2.7,6.3,6,6.3H84c3.3,0,6-2.8,6-6.3V23.7
			C90,20.3,87.3,17.4,84,17.4z M57.8,22h12.7c0.4,0,0.7,0.3,0.7,0.8c0,0.4-0.3,0.8-0.7,0.8H57.8c-0.4,0-0.7-0.3-0.7-0.8
			S57.4,22,57.8,22z M64.2,107.3c-1.7,0-3-1.4-3-3.1s1.3-3.1,3-3.1c1.7,0,3,1.4,3,3.1S65.8,107.3,64.2,107.3z M85.8,98.8H42.5V27.4
			h43.3V98.8z"/>
	</g>
</g>
</svg>
