<?xml version="1.0" encoding="utf-8"?>
<!-- Generator: Adobe Illustrator 16.0.0, SVG Export Plug-In . SVG Version: 6.00 Build 0)  -->
<!DOCTYPE svg PUBLIC "-//W3C//DTD SVG 1.1//EN" "http://www.w3.org/Graphics/SVG/1.1/DTD/svg11.dtd">
<svg version="1.1" id="Layer_1" xmlns="http://www.w3.org/2000/svg" xmlns:xlink="http://www.w3.org/1999/xlink" x="0px" y="0px"
	 width="128px" height="128px" viewBox="0 0 128 128" enable-background="new 0 0 128 128" xml:space="preserve">
<path fill="#A0A0A0" d="M72.682,64l53.526-53.525c2.397-2.398,2.397-6.285,0-8.683s-6.284-2.397-8.683,0L64,55.318L10.475,1.801
	c-2.398-2.398-6.285-2.398-8.683,0c-2.397,2.396-2.397,6.284,0,8.682l53.526,53.525L1.8,117.525c-2.397,2.398-2.397,6.285,0,8.683
	c1.203,1.194,2.766,1.8,4.337,1.8c1.571,0,3.143-0.598,4.337-1.8L64,72.682l53.525,53.526c1.203,1.194,2.766,1.8,4.338,1.8
	c1.57,0,3.142-0.598,4.336-1.8c2.398-2.397,2.398-6.284,0-8.683L72.682,64z"/>
</svg>
