<svg id="圖層_1" data-name="圖層 1" xmlns="http://www.w3.org/2000/svg" viewBox="0 0 45.35 45.35"><defs><style>.cls-1{fill:#25b184;}.cls-2{fill:#fff;}</style></defs><title>工作區域 3</title><rect class="cls-1" width="45.35" height="45.35" rx="5.67" ry="5.67"/><rect class="cls-2" x="3.33" y="4.43" width="3.49" height="36.5"/><path class="cls-2" d="M30.84,7.49q.38,0,.78,0a11.79,11.79,0,0,1,7.22,2.33L41,7.17a14.9,14.9,0,0,0-9.08-2.74A13.77,13.77,0,0,0,28.07,5,9.3,9.3,0,0,1,30.84,7.49Z"/><path class="cls-2" d="M32.42,21.26l-.77-.35a10.15,10.15,0,0,1-1.84,2.8l.67.29c4.11,1.81,8,3.53,8,7.54,0,3.83-3.27,6.41-8.14,6.41A14.88,14.88,0,0,1,20.9,34.7l-2.06,2.72c1.48,1.21,5.09,3.51,11.13,3.51C38.3,40.93,42,36.08,42,31.28,42,25.54,37.14,23.36,32.42,21.26Z"/><path class="cls-2" d="M24.29,20.69a4.78,4.78,0,0,0,1.93-2.94,5.55,5.55,0,0,1-1.94-4.24A5.71,5.71,0,0,1,25,10.6a5.8,5.8,0,0,0-2.91-1.49,8.43,8.43,0,0,0-1.4,4.66A8.21,8.21,0,0,0,24.29,20.69Z"/><path class="cls-2" d="M28.5,23.11a9,9,0,0,0,1.92-2.76,13.38,13.38,0,0,0,1.09-5.62,10.24,10.24,0,0,0-2.24-7A8.46,8.46,0,0,0,26.32,5.6a16,16,0,0,0-6.5-1.17H9.47v36.5H13V26.2H19C23.22,26.2,26.4,25.15,28.5,23.11ZM13,7.44h5.91A14.56,14.56,0,0,1,23,8a6.74,6.74,0,0,1,2.83,1.56c1.34,1.28,2,3.16,2,5.68a10.86,10.86,0,0,1-.5,3.45,6,6,0,0,1-1.92,2.83C24,22.67,21.87,23.24,19,23.24H13Z"/></svg>