<?xml version="1.0" encoding="utf-8"?>
<!-- Generator: Adobe Illustrator 22.1.0, SVG Export Plug-In . SVG Version: 6.00 Build 0)  -->
<svg version="1.1" id="圖層_1" xmlns="http://www.w3.org/2000/svg" xmlns:xlink="http://www.w3.org/1999/xlink" x="0px" y="0px"
	 viewBox="0 0 25 25" style="enable-background:new 0 0 25 25;" xml:space="preserve">
<style type="text/css">
	.st0{fill:#09BC8A;}
</style>
<title>鏈接算力</title>
<desc>Created with Sketch.</desc>
<g id="會員資料修改">
	<g id="資產_414" transform="translate(-15.000000, -265.000000)">
		<path id="鏈接算力" class="st0" d="M38.5,274.2c-0.3,0.7-0.7,1.4-1.3,1.9l-4.3,4.3c0-0.2,0.1-0.3,0.1-0.5c0,0,0,0,0,0l0-0.1
			c0,0,0,0,0,0l0,0l0,0l0,0l0,0c0,0,0,0,0-0.1l0-0.1c0,0,0,0,0,0c0-0.3,0-0.5,0-0.8c0-0.3,0-0.7-0.1-1.1c0-0.2-0.1-0.5-0.2-0.7
			l2.5-2.5l0,0l0.1-0.1c0.3-0.3,0.6-0.7,0.7-1.1c0.2-0.4,0.3-0.9,0.3-1.3c0-0.5-0.1-0.9-0.3-1.3c-0.2-0.4-0.4-0.8-0.8-1.1
			c-0.3-0.3-0.7-0.6-1.1-0.7c-0.8-0.3-1.6-0.3-2.4-0.1v0l-0.2,0.1c-0.4,0.2-0.8,0.4-1.1,0.7l-4.3,4.3c-0.3,0.3-0.6,0.7-0.8,1.1
			c-0.2,0.4-0.2,0.9-0.2,1.3c0,0.5,0.1,0.9,0.3,1.3c0.2,0.4,0.4,0.8,0.7,1.1l0,0c0.3,0.3,0.7,0.6,1.1,0.7c0.3,0.1,0.7,0.2,1.1,0.3
			c0,0.1,0,0.1-0.1,0.2c-0.1,0.2-0.3,0.5-0.5,0.7l-1.2,1.2c-0.3-0.1-0.7-0.3-1-0.5c-0.4-0.2-0.8-0.5-1.1-0.9c-0.6-0.6-1-1.2-1.3-1.9
			c-0.1-0.2-0.1-0.3-0.2-0.5c-0.1-0.3-0.2-0.6-0.2-0.9c0-0.3-0.1-0.6-0.1-0.9c0-0.8,0.2-1.5,0.4-2.3c0.3-0.7,0.7-1.3,1.2-1.8
			l4.4-4.4c0.5-0.5,1.2-1,1.9-1.3c0.7-0.3,1.5-0.4,2.3-0.4l0.1,0c0.8,0,1.5,0.2,2.2,0.4c0.7,0.3,1.4,0.7,1.9,1.3
			c0.5,0.5,1,1.2,1.3,1.9c0.3,0.7,0.4,1.5,0.4,2.3l0,0.1C39,272.7,38.8,273.5,38.5,274.2 M31.1,273.9c-0.4-0.4-0.8-0.7-1.3-1
			c-0.2-0.1-0.5-0.3-0.7-0.4l2.3-2.3c0.2-0.2,0.5-0.4,0.8-0.5l0,0c0.6-0.2,1.3-0.2,1.8,0c0.3,0.1,0.5,0.3,0.8,0.5
			c0.2,0.2,0.4,0.5,0.5,0.8c0.1,0.3,0.2,0.6,0.2,0.9v0.1c0,0.3-0.1,0.6-0.2,0.9c-0.1,0.3-0.3,0.6-0.5,0.8l-2.3,2.3
			C32.2,275.2,31.7,274.5,31.1,273.9 M28.7,278.7c-0.3,0-0.6-0.1-0.8-0.2c-0.3-0.1-0.6-0.3-0.8-0.5l0,0c-0.2-0.2-0.4-0.5-0.5-0.8
			c-0.1-0.3-0.2-0.5-0.2-0.8c0.3,0,0.6,0.1,0.8,0.2c0.3,0.1,0.6,0.3,0.8,0.5l0,0c0.2,0.2,0.4,0.5,0.5,0.8
			C28.6,278.1,28.7,278.4,28.7,278.7 M31.7,281c-0.3,0.7-0.7,1.3-1.2,1.8l-4.4,4.4c-0.5,0.5-1.2,1-1.9,1.3c-0.7,0.3-1.5,0.4-2.3,0.4
			l-0.1,0c-0.8,0-1.5-0.2-2.2-0.4c-0.7-0.3-1.4-0.7-1.9-1.3c-0.6-0.5-1-1.2-1.3-1.9c-0.3-0.7-0.4-1.5-0.4-2.3l0-0.1
			c0-0.7,0.2-1.5,0.4-2.2c0.3-0.7,0.7-1.4,1.3-1.9l4.3-4.3c0,0.2-0.1,0.3-0.1,0.5l0,0l0,0l0,0.1l0,0c0,0,0,0,0,0l0,0l0,0
			c0,0.3-0.1,0.6-0.1,0.9c0,0.4,0,0.7,0.1,1.1c0,0.2,0.1,0.5,0.2,0.7l-2.6,2.6c-0.3,0.3-0.6,0.7-0.7,1.1c-0.2,0.4-0.3,0.9-0.3,1.3
			l0,0.2h0c0,0.4,0.1,0.8,0.3,1.1c0.2,0.4,0.4,0.8,0.8,1.1c0.3,0.3,0.7,0.6,1.1,0.7c0.4,0.2,0.9,0.3,1.3,0.3c0.4,0,0.7-0.1,1.1-0.2
			v0l0.2-0.1c0.4-0.2,0.8-0.4,1.1-0.7l4.3-4.3c0.3-0.3,0.6-0.7,0.8-1.1c0.2-0.4,0.2-0.9,0.2-1.3c0-0.5-0.1-0.9-0.3-1.3
			c-0.2-0.4-0.4-0.8-0.7-1.1l-0.1-0.1c-0.3-0.3-0.7-0.6-1.1-0.7c-0.3-0.1-0.7-0.2-1.1-0.3c0-0.1,0-0.1,0.1-0.2
			c0.1-0.2,0.3-0.5,0.5-0.7l1.2-1.2c0.3,0.1,0.7,0.3,1,0.5c0.4,0.2,0.8,0.5,1.1,0.9c0.6,0.6,1,1.2,1.3,1.9c0.1,0.2,0.1,0.3,0.2,0.5
			c0.1,0.3,0.2,0.6,0.2,0.9c0,0.3,0.1,0.6,0.1,0.9C32.1,279.6,32,280.3,31.7,281 M23.9,281.1c0.4,0.4,0.8,0.7,1.3,1
			c0.2,0.1,0.5,0.3,0.8,0.4l-2.3,2.3c-0.2,0.2-0.5,0.4-0.8,0.5l-0.1,0c-0.6,0.2-1.3,0.2-1.8,0c-0.3-0.1-0.5-0.3-0.8-0.5
			c-0.2-0.2-0.4-0.5-0.5-0.8c-0.1-0.3-0.2-0.6-0.2-0.9v-0.1c0-0.3,0.1-0.6,0.2-0.9c0.1-0.3,0.3-0.6,0.5-0.8l2.3-2.3
			C22.8,279.8,23.3,280.5,23.9,281.1 M39.5,269.3c-0.3-0.8-0.9-1.6-1.5-2.2c-0.6-0.6-1.4-1.1-2.2-1.5c-0.8-0.3-1.6-0.5-2.5-0.5
			l-0.2,0c-0.9,0-1.8,0.2-2.6,0.5c-0.8,0.3-1.6,0.8-2.2,1.5l-4.3,4.3c-0.4,0.4-0.8,0.9-1.1,1.4c-0.2,0.1-0.5,0.3-0.7,0.5
			c-0.3,0.2-0.5,0.4-0.7,0.6l-4.3,4.3c-0.6,0.6-1.1,1.4-1.5,2.2c-0.3,0.8-0.5,1.6-0.5,2.5l0,0.2c0,0.9,0.2,1.8,0.5,2.6
			c0.3,0.8,0.9,1.6,1.5,2.2c0.6,0.6,1.4,1.1,2.2,1.5c0.8,0.3,1.7,0.5,2.7,0.5c0.9,0,1.8-0.2,2.6-0.5c0.8-0.3,1.6-0.8,2.2-1.5
			l4.6-4.6h0c0.3-0.4,0.6-0.7,0.8-1.1c0.2-0.1,0.5-0.3,0.7-0.5c0.3-0.2,0.5-0.4,0.7-0.6l4.3-4.3c0.6-0.6,1.1-1.4,1.5-2.2
			c0.3-0.8,0.5-1.6,0.5-2.5l0-0.2C40,271,39.8,270.1,39.5,269.3"/>
	</g>
</g>
</svg>
