<?xml version="1.0" encoding="utf-8"?>
<!-- Generator: Adobe Illustrator 22.1.0, SVG Export Plug-In . SVG Version: 6.00 Build 0)  -->
<svg version="1.1" id="圖層_1" xmlns="http://www.w3.org/2000/svg" xmlns:xlink="http://www.w3.org/1999/xlink" x="0px" y="0px"
	 viewBox="0 0 40 32" style="enable-background:new 0 0 40 32;" xml:space="preserve">
<style type="text/css">
	.st0{fill:#09BC8A;}
</style>
<title>Combined Shape</title>
<desc>Created with Sketch.</desc>
<g id="Symbols">
	<g id="web-menu" transform="translate(-1670.000000, -29.000000)">
		<path id="Combined-Shape" class="st0" d="M1672,29h36c1.1,0,2,0.9,2,2c0,1.1-0.9,2-2,2h-36c-1.1,0-2-0.9-2-2
			C1670,29.9,1670.9,29,1672,29z M1672,43h36c1.1,0,2,0.9,2,2s-0.9,2-2,2h-36c-1.1,0-2-0.9-2-2S1670.9,43,1672,43z M1672,57h36
			c1.1,0,2,0.9,2,2s-0.9,2-2,2h-36c-1.1,0-2-0.9-2-2S1670.9,57,1672,57z"/>
	</g>
</g>
</svg>
