<?xml version="1.0" encoding="utf-8"?>
<!-- Generator: Adobe Illustrator 22.1.0, SVG Export Plug-In . SVG Version: 6.00 Build 0)  -->
<svg version="1.1" id="圖層_1" xmlns="http://www.w3.org/2000/svg" xmlns:xlink="http://www.w3.org/1999/xlink" x="0px" y="0px"
	 viewBox="0 0 24 26" style="enable-background:new 0 0 24 26;" xml:space="preserve">
<style type="text/css">
	.st0{fill:#09BC8A;}
</style>
<title>001</title>
<desc>Created with Sketch.</desc>
<g id="首頁">
	<g id="漢堡" transform="translate(-1517.000000, -115.000000)">
		<g id="Group-5">
			<g id="_x30_01" transform="translate(1517.000000, 115.000000)">
				<path id="Fill-1" class="st0" d="M22.3,23.6c0,0.2-0.1,0.5-0.3,0.7c-0.2,0.2-0.4,0.3-0.6,0.3H4.1c-0.2,0-0.5-0.1-0.6-0.3
					c-0.2-0.2-0.3-0.4-0.3-0.7V23h2.3c0.4,0,0.7-0.3,0.7-0.7c0-0.4-0.3-0.7-0.7-0.7H3.2V4.3h2.3c0.4,0,0.7-0.3,0.7-0.7
					C6.2,3.3,5.9,3,5.6,3H3.2V2.3c0-0.2,0.1-0.5,0.3-0.7c0.2-0.2,0.4-0.3,0.6-0.3h17.2c0.2,0,0.5,0.1,0.6,0.3
					c0.2,0.2,0.3,0.4,0.3,0.7V23.6z M22.9,0.7L22.9,0.7c-0.5-0.4-1-0.7-1.6-0.7H4.1C3.5,0,3,0.2,2.5,0.7c-0.4,0.4-0.7,1-0.7,1.6V3
					H0.7C0.3,3,0,3.3,0,3.6C0,4,0.3,4.3,0.7,4.3h1.2v17.3H0.7c-0.4,0-0.7,0.3-0.7,0.7C0,22.7,0.3,23,0.7,23h1.2v0.6
					c0,0.6,0.2,1.2,0.7,1.6c0.4,0.4,1,0.7,1.6,0.7h17.2c0.6,0,1.2-0.2,1.6-0.7c0.4-0.4,0.7-1,0.7-1.6V2.3
					C23.6,1.7,23.3,1.1,22.9,0.7z"/>
				<path id="Fill-4" class="st0" d="M8.4,17.1c0.1-0.9,0.6-1.7,1.2-2.4c0.8-0.8,1.9-1.3,3-1.3s2.2,0.5,3,1.3
					c0.6,0.6,1.1,1.5,1.2,2.4H8.4z M10.2,9.7c0-0.6,0.2-1.2,0.7-1.7c0.4-0.5,1-0.7,1.7-0.7c0.6,0,1.2,0.2,1.7,0.7
					c0.4,0.5,0.7,1.1,0.7,1.7c0,0.6-0.2,1.2-0.6,1.6l-0.1,0.1c-0.4,0.5-1,0.7-1.7,0.7c-0.6,0-1.2-0.2-1.7-0.7h0
					C10.5,11,10.2,10.4,10.2,9.7z M14.9,12.7c0.1-0.1,0.2-0.2,0.3-0.3l0.1-0.1v0c0.6-0.7,1-1.6,1-2.5c0-1-0.4-1.9-1.1-2.6
					C14.5,6.4,13.6,6,12.6,6c-1,0-1.9,0.4-2.6,1.1C9.3,7.8,8.9,8.7,8.9,9.7c0,1,0.4,1.9,1.1,2.6c0.1,0.1,0.2,0.2,0.3,0.3
					c-0.6,0.3-1.2,0.7-1.6,1.2c-1.1,1.1-1.6,2.5-1.6,4c0,0.4,0.3,0.7,0.7,0.7h9.8c0.4,0,0.7-0.3,0.7-0.7c0-1.5-0.6-2.9-1.6-4
					C16.1,13.3,15.5,12.9,14.9,12.7z"/>
			</g>
		</g>
	</g>
</g>
</svg>
