<?xml version="1.0" encoding="utf-8"?>
<!-- Generator: Adobe Illustrator 22.1.0, SVG Export Plug-In . SVG Version: 6.00 Build 0)  -->
<svg version="1.1" id="圖層_1" xmlns="http://www.w3.org/2000/svg" xmlns:xlink="http://www.w3.org/1999/xlink" x="0px" y="0px"
	 viewBox="0 0 16 12" style="enable-background:new 0 0 16 12;" xml:space="preserve">
<style type="text/css">
	.st0{fill:#FEFEFE;}
</style>
<title>Fill 1</title>
<desc>Created with Sketch.</desc>
<g id="Symbols">
	<g id="footer" transform="translate(-115.000000, -50.000000)">
		<g id="Group-6" transform="translate(115.000000, 46.000000)">
			<path id="Fill-1" class="st0" d="M5.1,11.1l2.1,1.8c0.5,0.4,1.2,0.4,1.7,0l2.1-1.8l4.3,3.7c0,0.1-0.1,0.1-0.1,0.2l0,0
				c-0.1,0.1-0.3,0.2-0.4,0.2H1.4c-0.2,0-0.3-0.1-0.4-0.2c0-0.1-0.1-0.1-0.1-0.2L5.1,11.1z M0.9,5.1c0.1-0.1,0.3-0.2,0.4-0.2h13.2
				c0.2,0,0.3,0.1,0.4,0.2l0,0c0.1,0.1,0.2,0.3,0.2,0.5v0.7l-6.9,5.9c-0.2,0.2-0.5,0.2-0.8,0L0.8,6.3V5.6C0.8,5.4,0.8,5.2,0.9,5.1z
				 M4.5,10.6l-3.7,3.2V7.4L4.5,10.6z M15.2,7.4v6.4l-3.7-3.2L15.2,7.4z M15.6,4.5L15.6,4.5C15.3,4.2,15,4,14.6,4H1.4
				C1,4,0.7,4.2,0.4,4.5C0.1,4.8,0,5.2,0,5.6v8.9c0,0,0,0.1,0,0.1c0,0.1,0,0.2,0,0.2c0.1,0.3,0.2,0.5,0.4,0.7C0.7,15.8,1,16,1.4,16
				h13.2c0.3,0,0.6-0.1,0.8-0.3l0,0l0.2-0.2c0.2-0.2,0.3-0.5,0.4-0.7c0-0.1,0-0.2,0-0.2c0,0,0-0.1,0-0.1V5.6
				C16,5.2,15.9,4.8,15.6,4.5z"/>
		</g>
	</g>
</g>
</svg>
