<?xml version="1.0" encoding="UTF-8"?>
<svg width="20px" height="20px" viewBox="0 0 20 20" version="1.1" xmlns="http://www.w3.org/2000/svg" xmlns:xlink="http://www.w3.org/1999/xlink">
    <!-- Generator: Sketch 50 (54983) - http://www.bohemiancoding.com/sketch -->
    <title>Group</title>
    <desc>Created with Sketch.</desc>
    <defs></defs>
    <g id="首頁" stroke="none" stroke-width="1" fill="none" fill-rule="evenodd">
        <g id="漢堡" transform="translate(-1815.000000, -37.000000)" fill="#FFFFFF">
            <g id="Group-5">
                <g id="Group-2" transform="translate(1815.000000, 32.000000)">
                    <g id="Group" transform="translate(0.000000, 5.000000)">
                        <path d="M10,18.4 C14.6391919,18.4 18.4,14.6391919 18.4,10 C18.4,5.3608081 14.6391919,1.6 10,1.6 C5.3608081,1.6 1.6,5.3608081 1.6,10 C1.6,14.6391919 5.3608081,18.4 10,18.4 Z M10,20 C4.4771525,20 0,15.5228475 0,10 C0,4.4771525 4.4771525,0 10,0 C15.5228475,0 20,4.4771525 20,10 C20,15.5228475 15.5228475,20 10,20 Z" id="Oval" fill-rule="nonzero"></path>
                        <path d="M9.89199982,8.76046938 L14.4181216,4.23434763 C14.7305851,3.92188412 15.2371885,3.92188412 15.549652,4.23434763 C15.8621155,4.54681113 15.8621155,5.05341456 15.549652,5.36587806 L11.0235303,9.89199982 L15.549652,14.4181216 C15.8621155,14.7305851 15.8621155,15.2371885 15.549652,15.549652 C15.2371885,15.8621155 14.7305851,15.8621155 14.4181216,15.549652 L9.89199982,11.0235303 L5.36587806,15.549652 C5.05341456,15.8621155 4.54681113,15.8621155 4.23434763,15.549652 C3.92188412,15.2371885 3.92188412,14.7305851 4.23434763,14.4181216 L8.76046938,9.89199982 L4.23434763,5.36587806 C3.92188412,5.05341456 3.92188412,4.54681113 4.23434763,4.23434763 C4.54681113,3.92188412 5.05341456,3.92188412 5.36587806,4.23434763 L9.89199982,8.76046938 Z" id="Combined-Shape"></path>
                    </g>
                </g>
            </g>
        </g>
    </g>
</svg>