<?xml version="1.0" encoding="utf-8"?>
<!-- Generator: Adobe Illustrator 22.1.0, SVG Export Plug-In . SVG Version: 6.00 Build 0)  -->
<svg version="1.1" id="圖層_1" xmlns="http://www.w3.org/2000/svg" xmlns:xlink="http://www.w3.org/1999/xlink" x="0px" y="0px"
	 viewBox="0 0 22 26" style="enable-background:new 0 0 22 26;" xml:space="preserve">
<style type="text/css">
	.st0{fill:#09BC8A;}
</style>
<title>003</title>
<desc>Created with Sketch.</desc>
<g id="首頁">
	<g id="漢堡" transform="translate(-1518.000000, -331.000000)">
		<g id="Group-5">
			<g id="_x30_03" transform="translate(1518.000000, 331.000000)">
				<path id="Fill-6" class="st0" d="M17,18.8c0.3,0.3,0.4,0.6,0.4,1s-0.2,0.8-0.4,1l0,0c-0.3,0.3-0.6,0.4-1,0.4
					c-0.4,0-0.8-0.2-1-0.4c-0.3-0.3-0.4-0.6-0.4-1c0-0.4,0.1-0.7,0.4-1C15.5,18.2,16.5,18.2,17,18.8 M14,17.8L14,17.8
					c-0.5,0.5-0.8,1.2-0.8,2c0,0.7,0.3,1.4,0.8,2c0.5,0.5,1.2,0.8,2,0.8c0.6,0,1.2-0.2,1.7-0.6l0,0l0.2-0.2c0.5-0.5,0.8-1.2,0.8-2
					c0-0.7-0.3-1.4-0.8-1.9L18,17.8c-0.5-0.5-1.2-0.8-2-0.8C15.3,17,14.6,17.3,14,17.8"/>
				<path id="Fill-8" class="st0" d="M3,10.7c0,0.4,0.3,0.7,0.7,0.7h10.6c0.4,0,0.7-0.3,0.7-0.7c0-0.4-0.3-0.7-0.7-0.7H3.7
					C3.3,10,3,10.3,3,10.7"/>
				<path id="Fill-10" class="st0" d="M3.7,13C3.3,13,3,13.3,3,13.7c0,0.4,0.3,0.7,0.7,0.7h10.8c0.4,0,0.7-0.3,0.7-0.7
					c0-0.4-0.3-0.7-0.7-0.7H3.7z"/>
				<path id="Fill-12" class="st0" d="M20.5,23.7c0,0.2-0.1,0.4-0.3,0.6c-0.2,0.2-0.4,0.3-0.6,0.3H2.2c-0.3,0-0.5-0.1-0.6-0.3
					c-0.2-0.2-0.3-0.4-0.3-0.6V2.2c0-0.2,0.1-0.4,0.3-0.6c0.2-0.2,0.4-0.2,0.6-0.3l12,0v4.3c0,0.6,0.2,1.1,0.6,1.5l0.1,0.1l0.1,0.1
					c0.4,0.3,0.9,0.5,1.4,0.5h4.3L20.5,23.7z M15.4,2.2l4.2,4.2h-3.3c-0.2,0-0.4-0.1-0.6-0.3c-0.1-0.2-0.2-0.4-0.2-0.6V2.2z
					 M15.2,0.2C15.1,0.1,14.9,0,14.7,0L2.5,0H2L1.8,0C1.4,0.1,1,0.3,0.6,0.6C0.2,1,0,1.6,0,2.2l0,21.5c0,0.6,0.2,1.1,0.6,1.5
					c0.3,0.3,0.7,0.5,1.2,0.6l17.8,0c0.6,0,1.1-0.2,1.5-0.6c0.4-0.4,0.6-1,0.6-1.5l0-16.6c0-0.2-0.1-0.4-0.2-0.5L15.2,0.2z"/>
				<path id="Fill-14" class="st0" d="M10.1,16H3.7C3.3,16,3,16.3,3,16.7c0,0.4,0.3,0.7,0.7,0.7h6.4c0.4,0,0.7-0.3,0.7-0.7
					C10.7,16.3,10.4,16,10.1,16"/>
			</g>
		</g>
	</g>
</g>
</svg>
