<?xml version="1.0" encoding="utf-8"?>
<!-- Generator: Adobe Illustrator 22.1.0, SVG Export Plug-In . SVG Version: 6.00 Build 0)  -->
<svg version="1.1" id="圖層_1" xmlns="http://www.w3.org/2000/svg" xmlns:xlink="http://www.w3.org/1999/xlink" x="0px" y="0px"
	 viewBox="0 0 360 360" style="enable-background:new 0 0 360 360;" xml:space="preserve">
<style type="text/css">
	.st0{fill:#FFFFFF;}
</style>
<title>Group 2</title>
<desc>Created with Sketch.</desc>
<g id="Group-4-Copy-2" transform="translate(102.000000, 120.000000)">
	<path id="Fill-1" class="st0" d="M7.1,110.6V9.4c0-1.4,1.1-2.5,2.6-2.5h140.7c1.4,0,2.6,1.1,2.6,2.5v101.2c0,1.4-1.1,2.5-2.6,2.5
		H9.7C8.3,113.1,7.1,112,7.1,110.6 M156.4,0H3.6C1.6,0,0,1.6,0,3.5v113.1c0,1.9,1.6,3.5,3.6,3.5h152.9c2,0,3.6-1.6,3.6-3.5V3.5
		C160,1.6,158.4,0,156.4,0"/>
	<path id="Fill-4" class="st0" d="M88.3,37.8h42.4c1.9,0,3.5-1.6,3.5-3.6c0-2-1.6-3.6-3.5-3.6H88.3c-1.9,0-3.5,1.6-3.5,3.6
		C84.7,36.2,86.3,37.8,88.3,37.8"/>
	<path id="Fill-6" class="st0" d="M88.3,56.2h42.4c1.9,0,3.5-1.6,3.5-3.6c0-2-1.6-3.6-3.5-3.6H88.3c-1.9,0-3.5,1.6-3.5,3.6
		C84.7,54.6,86.3,56.2,88.3,56.2"/>
	<path id="Fill-8" class="st0" d="M88.3,74.5h42.4c1.9,0,3.5-1.6,3.5-3.6c0-2-1.6-3.6-3.5-3.6H88.3c-1.9,0-3.5,1.6-3.5,3.6
		C84.7,72.9,86.3,74.5,88.3,74.5"/>
	<path id="Fill-10" class="st0" d="M88.3,92.9h24.2c1.9,0,3.5-1.6,3.5-3.6c0-2-1.6-3.6-3.5-3.6H88.3c-1.9,0-3.5,1.6-3.5,3.6
		C84.7,91.3,86.3,92.9,88.3,92.9"/>
	<path id="Fill-12" class="st0" d="M37.6,40.7c0.9-4.3,4.4-7.8,8.6-8.8c4-0.9,8,0.3,10.9,3.1c2.8,2.9,4,7,3.1,11
		c-0.9,4.3-4.4,7.8-8.6,8.7c-4,0.9-8-0.3-10.9-3.1C37.9,48.9,36.7,44.7,37.6,40.7 M45.8,62c1.1,0.2,2.1,0.3,3.2,0.3
		c4.9,0,9.6-1.9,13.2-5.5c4.3-4.4,6.2-10.4,5.2-16.5c-1.3-7.8-7.5-14.1-15.2-15.4c-6.1-1-12,0.9-16.3,5.3
		c-4.3,4.4-6.2,10.4-5.2,16.5C31.8,54.4,38.1,60.7,45.8,62"/>
	<path id="Fill-14" class="st0" d="M31.3,77.1c0-1.4,1.1-2.6,2.5-2.6H64c1.4,0,2.5,1.2,2.5,2.6v12.3c0,1.4-1.1,2.6-2.5,2.6H33.8
		c-1.4,0-2.5-1.2-2.5-2.6V77.1z M27.7,99.1h42.4c1.9,0,3.5-1.6,3.5-3.6V77.1c0-5.3-4.3-9.7-9.6-9.7H33.8c-5.3,0-9.6,4.3-9.6,9.7
		v18.4C24.2,97.5,25.8,99.1,27.7,99.1z"/>
</g>
</svg>
