<?xml version="1.0" encoding="UTF-8"?>
<svg width="18px" height="18px" viewBox="0 0 18 18" version="1.1" xmlns="http://www.w3.org/2000/svg" xmlns:xlink="http://www.w3.org/1999/xlink">
    <!-- Generator: Sketch 50 (54983) - http://www.bohemiancoding.com/sketch -->
    <title>Group</title>
    <desc>Created with Sketch.</desc>
    <defs></defs>
    <g id="規範" stroke="none" stroke-width="1" fill="none" fill-rule="evenodd">
        <g id="Apple-TV" transform="translate(-152.000000, -344.000000)" fill="#FFFFFF">
            <g id="Group" transform="translate(152.000000, 344.000000)">
                <path d="M3.27272727,1.63636364 C2.36898859,1.63636364 1.63636364,2.36898859 1.63636364,3.27272727 L1.63636364,14.7272727 C1.63636364,15.6310114 2.36898859,16.3636364 3.27272727,16.3636364 L14.7272727,16.3636364 C15.6310114,16.3636364 16.3636364,15.6310114 16.3636364,14.7272727 L16.3636364,3.27272727 C16.3636364,2.36898859 15.6310114,1.63636364 14.7272727,1.63636364 L3.27272727,1.63636364 Z M3.27272727,0 L14.7272727,0 C16.5347501,0 18,1.46524991 18,3.27272727 L18,14.7272727 C18,16.5347501 16.5347501,18 14.7272727,18 L3.27272727,18 C1.46524991,18 0,16.5347501 0,14.7272727 L0,3.27272727 C0,1.46524991 1.46524991,0 3.27272727,0 Z" id="Rectangle-2-Copy-3" fill-rule="nonzero"></path>
                <path d="M13.5114137,4.24204423 C12.9814045,3.83139081 12.2352012,3.95595399 11.8480516,4.51952645 L7.72655177,10.532485 L6.17652497,8.0994521 C5.99795045,7.81943812 5.72794578,7.63006157 5.41555943,7.56626091 C5.10222068,7.5019539 4.78602474,7.57183081 4.52316305,7.76171371 C4.25982516,7.95109026 4.08172684,8.23869956 4.02172581,8.5703617 C3.96172477,8.90253019 4.02696399,9.23976223 4.20553851,9.51977621 L6.70558174,13.4440229 C6.92272835,13.784293 7.28321077,13.9924047 7.69083687,14 C8.07036724,14 8.42989727,13.8050536 8.65323446,13.4794677 L13.7723706,6.01074018 C14.1585677,5.44666137 14.0414229,4.65320401 13.5114137,4.24204423" id="Fill-1"></path>
            </g>
        </g>
    </g>
</svg>