<?xml version="1.0" encoding="utf-8"?>
<!-- Generator: Adobe Illustrator 22.1.0, SVG Export Plug-In . SVG Version: 6.00 Build 0)  -->
<svg version="1.1" id="圖層_1" xmlns="http://www.w3.org/2000/svg" xmlns:xlink="http://www.w3.org/1999/xlink" x="0px" y="0px"
	 viewBox="0 0 25 25" style="enable-background:new 0 0 25 25;" xml:space="preserve">
<style type="text/css">
	.st0{fill:#09BC8A;}
</style>
<title>餘額</title>
<desc>Created with Sketch.</desc>
<g id="交易紀錄">
	<g id="_x30_2錢包詳細_x5F_414" transform="translate(-15.000000, -457.000000)">
		<g id="餘額" transform="translate(15.000000, 457.000000)">
			<path id="Fill-1" class="st0" d="M21.4,21.4c-1.4,1.4-3.3,2.2-5.2,2.2c-2,0-3.8-0.8-5.2-2.2c-2.9-3-2.9-7.8,0-10.8
				c1.4-1.4,3.3-2.2,5.2-2.2c2,0,3.8,0.8,5.2,2.2C24.3,13.5,24.3,18.4,21.4,21.4z M3,19.8c-1,0-1.8-0.8-1.8-1.8v-0.1
				C1.1,16.9,2,16,3,16h4.7c0,1.3,0.3,2.6,0.9,3.8H3z M1.1,13v-0.1c0-1,0.8-1.8,1.8-1.8h6.1c-0.8,1.2-1.2,2.5-1.4,3.8H3
				C2,14.9,1.1,14.1,1.1,13z M1.1,8.1V8C1.1,7,2,6.1,3,6.1h13.3c0.8,0,1.5,0.5,1.7,1.3c-0.6-0.1-1.2-0.2-1.8-0.2
				c-2.3,0-4.4,0.9-6,2.6c-0.1,0.1-0.1,0.1-0.1,0.2H3C2,9.9,1.1,9.1,1.1,8.1z M1.1,3.1V3C1.1,2,2,1.1,3,1.1h13.3
				c1,0,1.8,0.8,1.8,1.8v0.1c0,1-0.8,1.8-1.8,1.8H3C2,4.9,1.1,4.1,1.1,3.1z M22.3,9.8c-0.9-0.9-1.9-1.6-3-2C19.2,6.8,18.7,6,18,5.5
				c0.8-0.5,1.3-1.4,1.3-2.4V3c0-1.6-1.3-3-3-3H3C1.3,0,0,1.3,0,3v0.1c0,1,0.5,1.9,1.3,2.4C0.5,6.1,0,7,0,8v0.1c0,1,0.5,1.9,1.3,2.4
				C0.5,11.1,0,11.9,0,12.9V13c0,1,0.5,1.9,1.3,2.4C0.5,16,0,16.9,0,17.9V18c0,1.6,1.3,3,3,3h6.2c0.3,0.4,0.6,0.8,1,1.2
				c1.6,1.7,3.8,2.6,6,2.6c2.3,0,4.4-0.9,6-2.6C25.6,18.8,25.6,13.2,22.3,9.8z"/>
			<path id="Fill-3" class="st0" d="M16.2,12.8c0.9,0,1.6,0.6,1.6,1.3c0,0.3,0.2,0.5,0.6,0.5s0.6-0.2,0.6-0.5c0-1.1-0.8-2.1-2.1-2.3
				l-0.1,0v-0.4c0-0.3-0.2-0.5-0.6-0.5c-0.3,0-0.6,0.2-0.6,0.5v0.4l-0.1,0c-1.2,0.3-2.1,1.2-2.1,2.3c0,1.3,1.2,2.4,2.7,2.4
				c0.9,0,1.6,0.6,1.6,1.3s-0.7,1.3-1.6,1.3c-0.9,0-1.6-0.6-1.6-1.3c0-0.3-0.2-0.5-0.6-0.5c-0.3,0-0.6,0.2-0.6,0.5
				c0,1.1,0.8,2.1,2.1,2.3l0.1,0v0.4c0,0.3,0.2,0.5,0.6,0.5c0.3,0,0.6-0.2,0.6-0.5v-0.4l0.1,0c1.2-0.3,2.1-1.2,2.1-2.3
				c0-1.3-1.2-2.4-2.7-2.4c-0.9,0-1.6-0.6-1.6-1.3S15.3,12.8,16.2,12.8"/>
		</g>
	</g>
</g>
</svg>
