<?xml version="1.0" encoding="utf-8"?>
<!-- Generator: Adobe Illustrator 22.1.0, SVG Export Plug-In . SVG Version: 6.00 Build 0)  -->
<svg version="1.1" id="圖層_1" xmlns="http://www.w3.org/2000/svg" xmlns:xlink="http://www.w3.org/1999/xlink" x="0px" y="0px"
	 viewBox="0 0 25 25" style="enable-background:new 0 0 25 25;" xml:space="preserve">
<style type="text/css">
	.st0{fill:#09BC8A;}
</style>
<g>
	<path class="st0" d="M24.7,12.3L24.7,12.3c-0.2-0.3-0.4-0.6-0.7-0.9l-7-5.5V4.1l2.6-2.8c0.1-0.1,0.2-0.3,0.2-0.5
		c0-0.4-0.3-0.7-0.7-0.7H5.9l-0.2,0l0,0c-0.1,0-0.2,0.1-0.2,0.1C5.3,0.4,5.2,0.6,5.2,0.8c0,0.2,0.1,0.4,0.2,0.5L8,4.1v1.9l-7,5.5
		c-0.3,0.2-0.6,0.5-0.7,0.9C0.1,12.7,0,13,0,13.4v8.7c0,0.6,0.3,1.2,0.7,1.7l0.1,0.2h0c0.5,0.4,1.1,0.7,1.8,0.7h19.6
		c0.7,0,1.4-0.3,1.9-0.7l0,0c0.5-0.5,0.8-1.1,0.8-1.8v-8.7C24.9,13,24.9,12.7,24.7,12.3z M7.5,1.5h10l-1.7,1.8H9.1L7.5,1.5z
		 M15.5,4.6v0.9H9.4V4.6H15.5z M23.6,22.2c0,0.3-0.1,0.6-0.4,0.9c-0.2,0.2-0.6,0.3-0.9,0.3H2.7c-0.4,0-0.7-0.1-0.9-0.4l0,0
		c-0.2-0.2-0.3-0.5-0.3-0.8v-8.7c0-0.2,0-0.4,0.1-0.5c0.1-0.2,0.2-0.3,0.4-0.4l7.2-5.6h6.8l7.2,5.6c0.2,0.1,0.3,0.3,0.4,0.4
		c0.1,0.2,0.1,0.3,0.1,0.5V22.2z"/>
	<path class="st0" d="M12.5,11.2c1,0,1.9,0.7,1.9,1.6c0,0.4,0.3,0.6,0.7,0.6c0.4,0,0.7-0.3,0.7-0.6c0-1.4-1-2.5-2.4-2.8l-0.1,0V9.5
		c0-0.4-0.3-0.6-0.7-0.6c-0.4,0-0.7,0.3-0.7,0.6V10l-0.1,0c-1.4,0.3-2.4,1.5-2.4,2.8c0,1.6,1.4,2.9,3.2,2.9c1,0,1.9,0.7,1.9,1.6
		s-0.9,1.6-1.9,1.6c-1.1,0-1.9-0.7-1.9-1.6c0-0.4-0.3-0.6-0.7-0.6c-0.4,0-0.7,0.3-0.7,0.6c0,1.4,1,2.5,2.4,2.8l0.1,0v0.5
		c0,0.4,0.3,0.6,0.7,0.6c0.4,0,0.7-0.3,0.7-0.6v-0.5l0.1,0c1.4-0.3,2.4-1.5,2.4-2.8c0-1.6-1.4-2.9-3.2-2.9c-1.1,0-1.9-0.7-1.9-1.6
		S11.4,11.2,12.5,11.2z"/>
</g>
</svg>
