<?xml version="1.0" encoding="utf-8"?>
<!-- Generator: Adobe Illustrator 22.1.0, SVG Export Plug-In . SVG Version: 6.00 Build 0)  -->
<svg version="1.1" id="圖層_1" xmlns="http://www.w3.org/2000/svg" xmlns:xlink="http://www.w3.org/1999/xlink" x="0px" y="0px"
	 viewBox="0 0 26 25" style="enable-background:new 0 0 26 25;" xml:space="preserve">
<style type="text/css">
	.st0{fill:#09BC8A;}
</style>
<title>日期</title>
<desc>Created with Sketch.</desc>
<g>
	<path class="st0" d="M20.7,9.6H4.5c-0.4,0-0.7,0.3-0.7,0.6v11c0,0.3,0.3,0.6,0.7,0.6h16.3c0.4,0,0.7-0.3,0.7-0.6v-11
		C21.4,9.8,21.1,9.6,20.7,9.6z M7.9,20.6H5.1V18h2.7L7.9,20.6L7.9,20.6z M7.9,16.9H5.1v-2.5h2.7L7.9,16.9L7.9,16.9z M7.9,13.2H5.1
		v-2.5h2.7L7.9,13.2L7.9,13.2z M11.9,20.6H9.2V18h2.7V20.6z M11.9,16.9H9.2v-2.5h2.7V16.9z M11.9,13.2H9.2v-2.5h2.7V13.2z M16,20.6
		h-2.7V18H16V20.6z M16,16.9h-2.7v-2.5H16V16.9z M16,13.2h-2.7v-2.5H16V13.2z M20,20.6h-2.7V18H20V20.6z M20,16.9h-2.7v-2.5H20V16.9
		z M20,13.2h-2.7v-2.5H20V13.2z"/>
	<path id="Fill-3" class="st0" d="M1.6,22.9V4.5c0-0.2,0.1-0.4,0.3-0.6c0.2-0.2,0.4-0.2,0.7-0.2h1.6v1.9c0,0.3,0.3,0.6,0.7,0.6
		c0.4,0,0.7-0.3,0.7-0.6V3.7h14v1.9c0,0.3,0.3,0.6,0.7,0.6C20.7,6.2,21,6,21,5.6V3.7h1.6c0.2,0,0.5,0.1,0.7,0.2l0,0
		c0.2,0.2,0.3,0.4,0.3,0.6v18.3c0,0.2-0.1,0.4-0.3,0.6c-0.2,0.2-0.4,0.2-0.7,0.2h-20c-0.3,0-0.5-0.1-0.7-0.2l0,0
		C1.7,23.3,1.6,23.1,1.6,22.9 M24.3,3.1c-0.5-0.4-1.1-0.6-1.7-0.6H21V0.6C21,0.3,20.7,0,20.3,0c-0.4,0-0.7,0.3-0.7,0.6v1.9h-14V0.6
		C5.6,0.3,5.3,0,4.9,0S4.1,0.3,4.1,0.6v1.9H2.6C2,2.5,1.3,2.7,0.9,3.1C0.4,3.5,0.1,4,0.1,4.5v18.3c0,0.5,0.2,1,0.6,1.3v0.1l0.1,0.1
		c0.5,0.4,1,0.6,1.7,0.6h20.1c0.6,0,1.2-0.2,1.7-0.6s0.7-0.9,0.7-1.4V4.5C25,4,24.8,3.5,24.3,3.1"/>
</g>
</svg>
