<?xml version="1.0" encoding="utf-8"?>
<!-- Generator: Adobe Illustrator 22.1.0, SVG Export Plug-In . SVG Version: 6.00 Build 0)  -->
<svg version="1.1" id="圖層_1" xmlns="http://www.w3.org/2000/svg" xmlns:xlink="http://www.w3.org/1999/xlink" x="0px" y="0px"
	 viewBox="0 0 25 25" style="enable-background:new 0 0 25 25;" xml:space="preserve">
<style type="text/css">
	.st0{fill:#09BC8A;}
</style>
<title>現金錢包</title>
<desc>Created with Sketch.</desc>
<g id="會員資料修改">
	<g id="資產_414" transform="translate(-15.000000, -206.000000)">
		<g id="現金錢包" transform="translate(15.000000, 206.000000)">
			<path id="Fill-1" class="st0" d="M12.4,23.7c-6.3,0-11.3-5.1-11.3-11.3c0-6.3,5.1-11.3,11.3-11.3c6.3,0,11.3,5.1,11.3,11.3
				C23.7,18.7,18.7,23.7,12.4,23.7 M12.4,0C5.6,0,0,5.6,0,12.4c0,6.8,5.6,12.4,12.4,12.4c6.8,0,12.4-5.6,12.4-12.4
				C24.8,5.6,19.2,0,12.4,0"/>
			<path id="Fill-4" class="st0" d="M14.1,10.2c0,0.3,0.3,0.6,0.6,0.6s0.6-0.3,0.6-0.6c0-1.3-0.9-2.3-2.2-2.6l-0.1,0V7.1
				c0-0.3-0.3-0.6-0.6-0.6s-0.6,0.3-0.6,0.6v0.5l-0.1,0C10.4,7.9,9.5,9,9.5,10.2c0,1.5,1.3,2.7,2.9,2.7c1,0,1.7,0.7,1.7,1.5
				c0,0.8-0.8,1.5-1.7,1.5c-1,0-1.7-0.7-1.7-1.5c0-0.3-0.3-0.6-0.6-0.6c-0.3,0-0.6,0.3-0.6,0.6c0,1.3,0.9,2.3,2.2,2.6l0.1,0v0.4
				c0,0.3,0.3,0.6,0.6,0.6s0.6-0.3,0.6-0.6v-0.4l0.1,0c1.3-0.3,2.2-1.4,2.2-2.6c0-1.5-1.3-2.7-2.9-2.7c-1,0-1.7-0.7-1.7-1.5
				s0.8-1.5,1.7-1.5C13.4,8.7,14.1,9.4,14.1,10.2"/>
			<path id="Fill-6" class="st0" d="M20.7,16.8c0.7-1.3,1.1-2.9,1.1-4.4c0-1.8-0.5-3.5-1.5-5C19.4,5.9,18,4.7,16.5,4
				c-0.1,0-0.2-0.1-0.3-0.1c-0.1,0-0.1,0-0.2,0c-0.2,0.1-0.3,0.2-0.3,0.3c-0.1,0.1-0.1,0.3,0,0.5C15.7,4.9,15.8,5,15.9,5
				c2.8,1.4,4.6,4.2,4.6,7.4c0,1.3-0.3,2.7-1,3.8c-0.1,0.1-0.1,0.3,0,0.5c0,0.2,0.1,0.3,0.3,0.4C20.2,17.2,20.5,17.1,20.7,16.8"/>
			<path id="Fill-8" class="st0" d="M13.5,4.2L13.5,4.2c0.4,0,0.6-0.3,0.6-0.6c0-0.3-0.3-0.6-0.6-0.6h0c-0.3,0-0.6,0.3-0.6,0.6
				S13.2,4.2,13.5,4.2"/>
			<path id="Fill-10" class="st0" d="M8.9,19.8c-2.8-1.4-4.6-4.2-4.6-7.4c0-1.3,0.3-2.7,1-3.8c0.1-0.1,0.1-0.3,0-0.5
				S5.1,7.8,4.9,7.8c-0.1,0-0.2-0.1-0.3-0.1c-0.1,0-0.1,0-0.2,0C4.3,7.8,4.2,7.9,4.1,8C3.4,9.4,3,10.9,3,12.4c0,1.8,0.5,3.5,1.5,5
				c0.9,1.5,2.3,2.6,3.8,3.4c0.3,0.1,0.7,0,0.8-0.3C9.3,20.3,9.2,19.9,8.9,19.8"/>
			<path id="Fill-12" class="st0" d="M11.3,20.6L11.3,20.6L11.3,20.6c-0.4,0-0.6,0.3-0.6,0.6c0,0.2,0.1,0.3,0.2,0.4
				c0.1,0.1,0.3,0.2,0.4,0.2l0,0c0.3,0,0.6-0.3,0.6-0.6C11.9,20.8,11.6,20.6,11.3,20.6"/>
		</g>
	</g>
</g>
</svg>
