<?xml version="1.0" encoding="utf-8"?>
<!-- Generator: Adobe Illustrator 22.1.0, SVG Export Plug-In . SVG Version: 6.00 Build 0)  -->
<svg version="1.1" id="圖層_1" xmlns="http://www.w3.org/2000/svg" xmlns:xlink="http://www.w3.org/1999/xlink" x="0px" y="0px"
	 viewBox="0 0 32 30" style="enable-background:new 0 0 32 30;" xml:space="preserve">
<style type="text/css">
	.st0{fill:#09BC8A;}
</style>
<title>Group 5 Copy 4</title>
<desc>Created with Sketch.</desc>
<g id="Symbols">
	<g id="內頁_NGB" transform="translate(-15.000000, -16.000000)">
		<g id="Group-5-Copy-4" transform="translate(15.000000, 16.000000)">
			<polygon id="Fill-1" class="st0" points="0,30 2.8,30 2.8,0 0,0 			"/>
			<path id="Fill-2" class="st0" d="M23.1,2.3c0.2,0,0.4,0,0.6,0c2.1,0,4,0.6,5.7,1.8l1.7-2C29.9,1.2,27.5,0,23.9,0
				c-1.1,0-2.1,0.1-3,0.4C21.8,0.9,22.5,1.6,23.1,2.3"/>
			<path id="Fill-4" class="st0" d="M24.1,13.9c-0.2-0.1-0.4-0.2-0.6-0.3c-0.4,0.9-0.9,1.6-1.5,2.3c0.2,0.1,0.4,0.2,0.5,0.2
				c3.4,1.5,6.6,2.9,6.6,6.2c0,3.1-2.7,5.2-6.7,5.2c-3.7,0-6.2-1.5-7.7-2.7L13,27.1c1.2,1,4.2,2.9,9.1,2.9c6.8,0,9.9-4,9.9-7.9
				C32,17.4,28,15.6,24.1,13.9"/>
			<path id="Fill-7" class="st0" d="M17.1,13.6c0.7-0.6,1.2-1.3,1.5-2.4c-0.9-0.9-1.5-2-1.5-3.5c0-0.9,0.2-1.7,0.6-2.4
				c-0.5-0.6-1.3-1-2.2-1.2c-0.7,1.1-1.1,2.4-1.1,3.8C14.4,10.6,15.5,12.3,17.1,13.6"/>
			<path id="Fill-9" class="st0" d="M8,2.5h4.8c1.3,0,2.5,0.1,3.4,0.4c0.9,0.3,1.7,0.7,2.3,1.3c1.1,1.1,1.6,2.6,1.6,4.7
				c0,1.1-0.1,2-0.4,2.8c-0.3,1-0.8,1.7-1.6,2.3c-1.2,1-2.9,1.4-5.3,1.4H8V2.5z M20.7,15.4c0.7-0.6,1.2-1.4,1.6-2.3
				c0.6-1.3,0.9-2.8,0.9-4.6c0-2.5-0.6-4.4-1.8-5.8C20.7,2,19.9,1.4,18.9,1c-1.4-0.6-3.2-1-5.3-1H5.1v30H8V17.9h5
				C16.4,17.9,19,17,20.7,15.4z"/>
		</g>
	</g>
</g>
</svg>
