<?xml version="1.0" encoding="UTF-8"?>
<svg width="110px" height="98px" viewBox="0 0 110 98" version="1.1" xmlns="http://www.w3.org/2000/svg" xmlns:xlink="http://www.w3.org/1999/xlink">
    <!-- Generator: Sketch 50 (54983) - http://www.bohemiancoding.com/sketch -->
    <title>Group 25</title>
    <desc>Created with Sketch.</desc>
    <defs></defs>
    <g id="規範" stroke="none" stroke-width="1" fill="none" fill-rule="evenodd">
        <g id="Apple-TV" transform="translate(-67.000000, -76.000000)" fill="#FFFFFF">
            <g id="Group-25" transform="translate(67.000000, 76.000000)">
                <polygon id="Fill-1" points="19.9019266 67.896 26.3979817 67.896 26.3979817 0.581 19.9019266 0.581"></polygon>
                <path d="M71.1024862,6.2246 C71.5788165,6.1916 72.0642294,6.1736 72.5607431,6.1736 C77.6187248,6.1736 82.0197339,7.5816 85.9928532,10.4736 L89.969,5.6326 C87.1867064,3.5746 81.6574404,0.5816 73.0572569,0.5816 C70.5323028,0.5816 68.1516606,0.9366 65.9506514,1.5626 C68.1324862,2.8586 69.815789,4.4516 71.1024862,6.2246" id="Fill-2"></path>
                <path d="M74.0510917,31.6196 C73.5737523,31.4096 73.0984312,31.1996 72.6261376,30.9886 C71.7390734,32.9256 70.5936606,34.6436 69.1959541,36.1356 C69.6087064,36.3166 70.0214587,36.4976 70.4332018,36.6776 C78.0988899,40.0246 85.3387064,43.1866 85.3387064,50.5776 C85.3387064,57.6506 79.2483394,62.4036 70.1839358,62.4036 C61.7008165,62.4036 56.1493486,59.1086 52.6111835,56.4116 L48.7843945,61.4266 C51.5343945,63.6546 58.2514587,67.8956 69.4946697,67.8956 C84.9965963,67.8956 91.9356789,58.9576 91.9356789,50.0996 C91.9356789,39.5116 82.8440275,35.4996 74.0510917,31.6196" id="Fill-5"></path>
                <path d="M58.9125688,30.5801 C60.7341284,29.3481 61.9007339,27.5591 62.5122936,25.1601 C60.2921101,23.1251 58.8944037,20.6421 58.8944037,17.3331 C58.8944037,15.3271 59.3989908,13.5231 60.3163303,11.9751 C59.0215596,10.6501 57.2343119,9.7481 54.9000917,9.2221 C53.2410092,11.7221 52.2984404,14.6351 52.2984404,17.8081 C52.2984404,23.7411 55.0151376,27.6321 58.9125688,30.5801" id="Fill-7"></path>
                <path d="M37.8307156,6.1387 L48.8266789,6.1387 C51.8330092,6.1387 54.4033761,6.4637 56.5771376,7.1067 C58.7286972,7.7427 60.4775963,8.7047 61.842,9.9957 C64.3386972,12.3547 65.5597982,15.8117 65.5597982,20.4657 C65.5597982,22.8967 65.2489725,25.0077 64.6353945,26.8247 C63.8997064,28.9967 62.7088807,30.7297 61.0588807,32.0527 C58.3542936,34.2217 54.4144771,35.2847 49.1233761,35.2847 L37.8307156,35.2847 L37.8307156,6.1387 Z M66.7486055,35.0367 C68.239156,33.6037 69.4309908,31.9007 70.3311743,29.9417 C71.6602569,27.0457 72.355578,23.5987 72.355578,19.5857 C72.355578,14.0857 70.9629174,9.7707 68.1957615,6.6507 C66.7465872,5.0147 64.9008073,3.7237 62.6957615,2.7477 C59.4653945,1.3177 55.4458532,0.5817 50.6078716,0.5817 L31.3326422,0.5817 L31.3326422,67.8957 L37.8307156,67.8957 L37.8307156,40.7427 L49.1233761,40.7427 C56.9364037,40.7427 62.8410826,38.7957 66.7486055,35.0367 Z" id="Fill-9"></path>
                <polygon id="Fill-12" points="0 92.824 2.29587156 92.824 2.29587156 77.746 0 77.746"></polygon>
                <polygon id="Fill-14" points="6.55155963 86.947 10.9465138 86.947 10.9465138 85.033 6.55155963 85.033"></polygon>
                <path d="M17.4880826,84.5918 L18.3458807,84.5918 C20.4540459,84.5918 21.508633,83.7878 21.508633,82.1798 C21.508633,80.6238 20.4217523,79.8458 18.2469817,79.8458 L17.4880826,79.8458 L17.4880826,84.5918 Z M17.4880826,86.7008 L17.4880826,92.8238 L15.192211,92.8238 L15.192211,77.7458 L17.7938624,77.7458 C19.0684495,77.7458 20.0312018,77.8338 20.6811101,78.0098 C21.3380826,78.1858 21.9163394,78.5178 22.4158807,79.0058 C23.2898257,79.8518 23.7267982,80.9198 23.7267982,82.2088 C23.7267982,83.5898 23.2595505,84.6828 22.3270734,85.4898 C21.3945963,86.2978 20.136156,86.7008 18.5527615,86.7008 L17.4880826,86.7008 Z" id="Fill-15"></path>
                <path d="M26.6745963,83.3125 L26.6745963,88.7715 C26.6745963,90.3475 27.3023028,91.1345 28.5567064,91.1345 C29.8121193,91.1345 30.4388165,90.3475 30.4388165,88.7715 L30.4388165,83.3125 L32.6569817,83.3125 L32.6569817,88.8205 C32.6569817,89.5825 32.5611101,90.2395 32.3713853,90.7925 C32.1867064,91.2875 31.8678073,91.7335 31.4146881,92.1305 C30.6658807,92.7755 29.7132202,93.0975 28.5567064,93.0975 C27.4072569,93.0975 26.4576239,92.7755 25.7088165,92.1305 C25.248633,91.7335 24.9236789,91.2875 24.732945,90.7925 C24.5492752,90.3505 24.4574404,89.6925 24.4574404,88.8205 L24.4574404,83.3125 L26.6745963,83.3125 Z" id="Fill-16"></path>
                <path d="M39.822422,84.9336 L37.9897615,85.9006 C37.7001284,85.3146 37.3418716,85.0216 36.9149908,85.0216 C36.7111376,85.0216 36.5375596,85.0886 36.3932477,85.2216 C36.2479266,85.3546 36.1762752,85.5256 36.1762752,85.7346 C36.1762752,86.0996 36.603156,86.4606 37.4569174,86.8186 C38.6336147,87.3196 39.4248073,87.7816 39.8325138,88.2046 C40.2402202,88.6286 40.4430642,89.1976 40.4430642,89.9136 C40.4430642,90.8316 40.1019633,91.6006 39.4187523,92.2186 C38.7547156,92.8046 37.9534312,93.0976 37.0138899,93.0976 C35.4042569,93.0976 34.2638899,92.3196 33.5937982,90.7636 L35.486,89.8946 C35.7483853,90.3506 35.949211,90.6406 36.0874679,90.7636 C36.3569174,91.0116 36.678844,91.1346 37.0532477,91.1346 C37.802055,91.1346 38.1764587,90.7966 38.1764587,90.1196 C38.1764587,89.7286 37.8878349,89.3636 37.309578,89.0256 C37.0865505,88.9146 36.8625138,88.8076 36.6394862,88.7036 C36.4164587,88.5996 36.1893945,88.4916 35.9593028,88.3806 C35.3154495,88.0686 34.8613211,87.7556 34.5989358,87.4436 C34.2638899,87.0466 34.096367,86.5356 34.096367,85.9106 C34.096367,85.0836 34.3819633,84.3996 34.9541651,83.8596 C35.5384771,83.3186 36.2479266,83.0486 37.0825138,83.0486 C38.3106789,83.0486 39.2249908,83.6776 39.822422,84.9336" id="Fill-17"></path>
                <path d="M41.2233578,76.3301 L43.4405138,76.3301 L43.4405138,84.1031 C44.2296881,83.4001 45.0995963,83.0491 46.0522569,83.0491 C47.1361101,83.0491 48.004,83.3971 48.6539083,84.0941 C49.2059266,84.6991 49.4824404,85.6661 49.4824404,86.9941 L49.4824404,92.8241 L47.2642752,92.8241 L47.2642752,87.1991 C47.2642752,86.4371 47.1280367,85.8861 46.8555596,85.5441 C46.5830826,85.2021 46.1440917,85.0311 45.5395963,85.0311 C44.7645505,85.0311 44.2195963,85.2691 43.9037248,85.7441 C43.5949174,86.2261 43.4405138,87.0531 43.4405138,88.2251 L43.4405138,92.8241 L41.2233578,92.8241 L41.2233578,76.3301 Z" id="Fill-18"></path>
                <path d="M63.7396514,79.9922 L61.8767156,81.0862 C61.5295596,80.4872 61.1965321,80.0962 60.8816697,79.9142 C60.5536881,79.7052 60.1298349,79.6012 59.6101101,79.6012 C58.9733211,79.6012 58.4445138,79.7812 58.0236881,80.1382 C57.6038716,80.4902 57.3929541,80.9332 57.3929541,81.4672 C57.3929541,82.2022 57.9449725,82.7952 59.0490092,83.2442 L60.5657982,83.8592 C61.8020367,84.3542 62.7052477,84.9582 63.2764404,85.6712 C63.847633,86.3842 64.1342385,87.2582 64.1342385,88.2932 C64.1342385,89.6802 63.668,90.8252 62.7345138,91.7302 C61.7949725,92.6422 60.6293761,93.0972 59.2357064,93.0972 C57.9157064,93.0972 56.824789,92.7102 55.9639633,91.9352 C55.1172661,91.1602 54.5884587,90.0702 54.3775413,88.6642 L56.7026789,88.1562 C56.8086422,89.0412 56.9923119,89.6542 57.2546972,89.9922 C57.728,90.6432 58.4182752,90.9692 59.3245138,90.9692 C60.0410275,90.9692 60.6354312,90.7312 61.1087339,90.2562 C61.5810275,89.7812 61.8181835,89.1782 61.8181835,88.4492 C61.8181835,88.1562 61.7778165,87.8882 61.6950642,87.6432 C61.6133211,87.3992 61.485156,87.1752 61.3105688,86.9702 C61.1369908,86.7642 60.9109358,86.5732 60.6354312,86.3932 C60.3589174,86.2142 60.0309358,86.0432 59.6494679,85.8812 L58.1811193,85.2752 C56.0991927,84.4032 55.0577248,83.1272 55.0577248,81.4472 C55.0577248,80.3142 55.4946972,79.3672 56.367633,78.6052 C57.2425872,77.8372 58.3294679,77.4532 59.6302936,77.4532 C61.3842385,77.4532 62.7536881,78.2992 63.7396514,79.9922" id="Fill-19"></path>
                <polygon id="Fill-20" points="67.8905872 91.0566 63.5743486 83.3126 66.1457248 83.3126 69.0834312 88.7816 71.8223303 83.3126 74.3260917 83.3126 66.6785688 97.9996 64.1455413 97.9996"></polygon>
                <path d="M79.7967248,84.9336 L77.9640642,85.9006 C77.6744312,85.3146 77.3171835,85.0216 76.8892936,85.0216 C76.6864495,85.0216 76.5118624,85.0886 76.3675505,85.2216 C76.2232385,85.3546 76.150578,85.5256 76.150578,85.7346 C76.150578,86.0996 76.5784679,86.4606 77.4312202,86.8186 C78.6079174,87.3196 79.3991101,87.7816 79.8068165,88.2046 C80.2145229,88.6286 80.417367,89.1976 80.417367,89.9136 C80.417367,90.8316 80.0762661,91.6006 79.393055,92.2186 C78.7290183,92.8046 77.9277339,93.0976 76.9881927,93.0976 C75.3785596,93.0976 74.2381927,92.3196 73.5681009,90.7636 L75.4603028,89.8946 C75.7236972,90.3506 75.9235138,90.6406 76.0617706,90.7636 C76.3312202,91.0116 76.6531468,91.1346 77.0275505,91.1346 C77.7763578,91.1346 78.1507615,90.7966 78.1507615,90.1196 C78.1507615,89.7286 77.8621376,89.3636 77.2838807,89.0256 C77.0608532,88.9146 76.8368165,88.8076 76.613789,88.7036 C76.3907615,88.5996 76.1636972,88.4916 75.9336055,88.3806 C75.2897523,88.0686 74.836633,87.7556 74.5732385,87.4436 C74.2381927,87.0466 74.0706697,86.5356 74.0706697,85.9106 C74.0706697,85.0836 74.3562661,84.3996 74.9284679,83.8596 C75.513789,83.3186 76.2232385,83.0486 77.0568165,83.0486 C78.2859908,83.0486 79.1992936,83.6776 79.7967248,84.9336" id="Fill-21"></path>
                <polygon id="Fill-22" points="84.2916881 85.3633 84.2916881 92.8243 82.0745321 92.8243 82.0745321 85.3633 81.1279266 85.3633 81.1279266 83.3123 82.0745321 83.3123 82.0745321 79.8263 84.2916881 79.8263 84.2916881 83.3123 86.016367 83.3123 86.016367 85.3633"></polygon>
                <path d="M92.7780367,86.7891 C92.4682202,85.6171 91.7234495,85.0311 90.5406972,85.0311 C90.2712477,85.0311 90.0189541,85.0721 89.7817982,85.1531 C89.5456514,85.2351 89.3296881,85.3521 89.1369358,85.5051 C88.9421651,85.6581 88.7766606,85.8421 88.6384037,86.0571 C88.501156,86.2711 88.3951927,86.5161 88.3235413,86.7891 L92.7780367,86.7891 Z M95.0547339,88.5861 L88.1751927,88.5861 C88.2347339,89.3671 88.4910642,89.9891 88.9441835,90.4511 C89.3973028,90.9071 89.9795963,91.1351 90.6890459,91.1351 C91.2410642,91.1351 91.697211,91.0041 92.0584954,90.7441 C92.4137248,90.4841 92.8173945,90.0021 93.2705138,89.2991 L95.1435413,90.3341 C94.8539083,90.8221 94.5481284,91.2411 94.227211,91.5891 C93.9042752,91.9371 93.5591376,92.2241 93.1917982,92.4481 C92.8234495,92.6731 92.4258349,92.8371 91.9999633,92.9411 C91.5720734,93.0451 91.1088624,93.0981 90.6103303,93.0981 C89.1773028,93.0981 88.0278532,92.6421 87.1609725,91.7301 C86.2930826,90.8121 85.8601468,89.5951 85.8601468,88.0781 C85.8601468,86.5741 86.2799633,85.3571 87.1216147,84.4261 C87.9683119,83.5081 89.0925321,83.0491 90.4912477,83.0491 C91.9040917,83.0491 93.0202385,83.4951 93.8427156,84.3871 C94.6561101,85.2721 95.0648257,86.4991 95.0648257,88.0681 L95.0547339,88.5861 Z" id="Fill-23"></path>
                <path d="M96.2677615,83.3125 L98.4849174,83.3125 L98.4849174,84.1915 C98.9128073,83.7485 99.2771193,83.4495 99.5788624,83.2925 C99.9017982,83.1305 100.305468,83.0485 100.790881,83.0485 C101.875743,83.0485 102.732532,83.5175 103.363266,84.4555 C104.060606,83.5175 105.003174,83.0485 106.191982,83.0485 C108.354642,83.0485 109.434459,84.3475 109.434459,86.9455 L109.434459,92.8245 L107.207211,92.8245 L107.207211,87.5415 C107.207211,86.6295 107.095193,85.9845 106.872165,85.6075 C106.642073,85.2235 106.264642,85.0315 105.738862,85.0315 C105.127303,85.0315 104.683266,85.2595 104.403725,85.7145 C104.124183,86.1705 103.983908,86.9025 103.983908,87.9125 L103.983908,92.8245 L101.756661,92.8245 L101.756661,87.5705 C101.756661,85.8775 101.264183,85.0315 100.279229,85.0315 C99.6545505,85.0315 99.1994128,85.2625 98.9138165,85.7245 C98.6282202,86.1875 98.4849174,86.9165 98.4849174,87.9125 L98.4849174,92.8245 L96.2677615,92.8245 L96.2677615,83.3125 Z" id="Fill-24"></path>
            </g>
        </g>
    </g>
</svg>