<?xml version="1.0" encoding="utf-8"?>
<!-- Generator: Adobe Illustrator 22.1.0, SVG Export Plug-In . SVG Version: 6.00 Build 0)  -->
<svg version="1.1" id="圖層_1" xmlns="http://www.w3.org/2000/svg" xmlns:xlink="http://www.w3.org/1999/xlink" x="0px" y="0px"
	 viewBox="0 0 668.5 128" style="enable-background:new 0 0 668.5 128;" xml:space="preserve">
<style type="text/css">
	.st0{fill:#02B9CE;}
</style>
<g>
	<g>
		<path class="st0" d="M280.1,83.6L259,83.4l0.1-6.2l4.6-0.1l4.5,0l3.3,3.8l6.3-5.4l-5.4-6.1c-1.8-2.1-3.5-3.7-4.8-4.9l4,0l0.3-31.7
			l-33.1-0.3l0-4.8l40.7,0.4l0.1-7.7l-40.7-0.4l0.1-5.2l-8.9-0.1l-0.1,5.2l-40-0.4l-0.1,7.7l40,0.4l0,4.8l-33-0.3L196.4,64l33,0.3
			l-0.1,5.5l-18.7-0.2c-0.7,0-3.6-0.1-8.8-0.2c-5.2-0.2-8.6-0.2-10.2-0.3l2,8.7l30.5-0.1c9.4,0.1,18,0,25.6-0.3l-0.1,5.9l-61.4-0.6
			l-0.1,7.8l61.4,0.6l-0.1,6.6c0,2-1,3-2.9,2.9l-9.9-0.6l2,9l10.5,0.1c6.3,0.1,9.5-2.7,9.6-8.3l0-2.2l0.1-7.4l21.1,0.2L280.1,83.6z
			 M229.5,57.4l-24.2-0.2l0.1-6.1l24.2,0.2L229.5,57.4z M229.6,44.9l-24.2-0.2l0.1-5.4l24.2,0.2L229.6,44.9z M238.6,39.5l24.3,0.2
			l-0.1,5.4L238.5,45L238.6,39.5z M238.4,51.4l24.3,0.2l-0.1,6.1l-24.3-0.2L238.4,51.4z M250.4,69.9l-12.2,0l0.1-5.4l26,0.3
			l-4.7,2.7l2.2,2.3L250.4,69.9z"/>
		<path class="st0" d="M229.1,99.9c-4.7-3.2-9.4-5.8-14-7.9l-2.5-1.1l-6.6,5.6c1.1,0.6,2,1.1,2.7,1.5c4,2.2,8.6,5.3,13.7,9.3
			L229.1,99.9z"/>
		
			<rect x="392.7" y="27.9" transform="matrix(9.903976e-03 -1 1 9.903976e-03 349.0175 436.9305)" class="st0" width="4.9" height="28.6"/>
		
			<rect x="392.6" y="35.8" transform="matrix(9.903976e-03 -1 1 9.903976e-03 341.0321 444.6833)" class="st0" width="4.9" height="28.6"/>
		
			<rect x="365.2" y="42" transform="matrix(9.973709e-03 -1 1 9.973709e-03 322.6035 418.2454)" class="st0" width="14.6" height="8.4"/>
		
			<rect x="348.5" y="36.3" transform="matrix(9.949756e-03 -1 1 9.949756e-03 297.7689 400.1228)" class="st0" width="4.9" height="26.7"/>
		
			<rect x="348.6" y="28.4" transform="matrix(9.949756e-03 -1 1 9.949756e-03 305.7543 392.3704)" class="st0" width="4.9" height="26.7"/>
		<path class="st0" d="M404.2,108.5c1.1-1.2,1.9-4.1,2.6-8.8c0.6-4.6,1-12.9,1.1-24.9l-48.8-0.5l1.5-1.7l1.3-1.8l44.7,0.4l0.2-15.2
			l-68.5-0.7l-0.2,15.2l12.6,0.1c-0.5,0.4-0.8,0.7-1.1,1c-5.6,4.9-11.5,8.2-17.7,10c0.6-3.2,1-7.4,1-12.5l0.5-13l0.2-19.9l73.2,0.7
			L407,19l-82.1-0.8L324.6,51c0,1.2,0,2.3,0,3.4c0,1.1,0,2.3,0,3.4l0,1.2c-0.2,16.9-2.5,31.5-6.9,43.6l7.8,6.8
			c3.2-10.4,5.3-19.3,6.2-26.9l3.9,7.5l7.5-4.4L343,97.4l20.7,0.2l0,4.5l-11.3,0c-3.3,0-8.6,0-15.9-0.1l1.4,6.9l23.1-0.8l24-1.2
			l1.2,2.1l3.9-1.4l0.9,2.9c1.3-0.1,4.1-0.1,8.4,0C401.6,110.4,403.1,109.7,404.2,108.5z M386.6,61.1l11.8,0.1l0,4.7l-11.8-0.1
			L386.6,61.1z M368.2,61l10.8,0.1l0,4.7l-10.8-0.1L368.2,61z M333.7,24.7l64.5,0.6l-0.1,5.2l-64.5-0.6L333.7,24.7z M346.9,65.5
			l0-4.7l13,0.1l0,4.7L346.9,65.5z M363.8,92.8l-13.1-0.1l0-4.1l13.1,0.1L363.8,92.8z M363.9,83.8l-17-0.2l2.3-1.7l2.1-1.7l12.6,0.1
			L363.9,83.8z M376.6,101.8l-5.2,0.2l0-4.3l8.4,0.1l2.5,3.6L376.6,101.8z M384,93l-12.6-0.1l0-4.1l12.6,0.1L384,93z M398.5,89.2
			c-0.5,7.7-0.9,11.9-1.4,12.6c-0.4,0.6-1.1,1-2,1l-4.8-0.5l-1.6-2c-0.4-0.6-0.8-1.1-1.1-1.7c-0.1-0.2-0.2-0.5-0.4-0.8l4.3,0
			l0.1-13.8l-20.2-0.2l0-3.5l27.4,0.3C398.8,84.4,398.6,87.3,398.5,89.2z"/>
		<path class="st0" d="M490.1,69c-2.8-3.2-5-5.6-6.5-7.1l-8.1-8l0-0.8l14.9,0.1l0.1-8.6l-14.9-0.1l0.1-14.2c0.6-0.1,1.1-0.2,1.4-0.3
			c5.1-1,9.5-2.3,13.4-3.7l-3.2-8.3c-10.1,3.6-22.7,5.9-37.6,6.8l1.9,8.4l7.6-0.5c0.9-0.1,3.1-0.3,6.4-0.9c0.3,0,0.7,0,1.2-0.1
			l-0.1,12.5l-18.1-0.2l-0.1,8.6l17.8,0.2c-5,11.4-11.3,21.6-18.8,30.7l5.4,9.1c6.1-8.1,10.6-15.5,13.5-22.3l-0.4,41.2l8.9-0.3
			l0.5-46.5l5.2,6.7c2,2.6,3.9,5.2,5.7,7.8l5.5-8.6C491,70.1,490.5,69.4,490.1,69z"/>
		<polygon class="st0" points="531.2,17.9 522.1,17.8 521.5,75.5 488.9,80.1 488.8,89.5 521.4,84.7 521.2,112.3 530.2,112.4 
			530.5,83.6 539.3,82.2 539.4,73 530.6,74.5 		"/>
		<path class="st0" d="M503.7,38.2l8.4,6.9l6.2-7.5l-8.8-6.7c-2.5-1.9-5.5-3.8-8.9-5.7l-5.9,6.6c0.7,0.6,1.3,1,1.8,1.3
			C499.9,35.2,502.3,37,503.7,38.2z"/>
		<path class="st0" d="M510.1,69.4l6.2-7.6c-6.2-5.1-12.2-9.3-17.9-12.5l-5.8,6.6c1.3,0.9,2.4,1.6,3.2,2.1
			C498.7,60,503.5,63.8,510.1,69.4z"/>
		<path class="st0" d="M664.1,64.3l0.1-8.4l-19.6-0.2l0.1-13.4l22.9,0.2l0.1-9.1l-22.9-0.2l0.1-14.2l-9.7-0.1l-0.1,14.2l-20.9-0.2
			l-0.1,6.4l-11.5-0.1l0.2-20.5l-9.6-0.1l-0.2,20.5l-14.4-0.1l-0.1,9.1l14.4,0.1l-0.2,20.1c-1.5,0.4-4.1,1-7.7,1.8l-7.7,1.2
			l2.2,10.8l6.5-1.6l6.6-1.7l-0.2,20.4c0,2.2-1.1,3.3-3.2,3.3l-8.5-0.4l2.2,10.2l7.7,0.1c5,0,8.1-0.8,9.4-2.5c1.3-1.7,1.9-4.3,2-7.9
			l0-1.3l0.2-24.6l6.2-2.3c0.7-0.3,2.4-1,5.2-2.2l0.1-9.9c-0.3,0.1-0.6,0.2-0.8,0.3c-1.7,0.8-3.4,1.5-4.9,2l-5.7,2l0.2-17.8
			l11.5,0.1l0.1-6.4l20.9,0.2l-0.1,13.4l-19.2-0.2l-0.1,9.2l38.7,0.4c-3.6,8.1-8.4,15-14.4,20.6c-4.2-4.8-8.6-11.2-13.3-19.2
			l-8.1,3.2c4.2,8.1,8.6,14.7,13.1,19.9c0.4,0.4,0.9,1,1.5,1.7c-8.8,5.6-18.2,9.8-28.2,12.7l5.3,9.2c10.3-3,20.1-7.9,29.6-14.8
			c7,6.6,15,11.7,24,15.1l5.1-9.4c-9.2-3.2-16.5-7.2-21.9-11.9C655.3,83.8,661.1,74.6,664.1,64.3z"/>
	</g>
	<g>
		<polygon class="st0" points="8.2,8.1 108.2,8.1 108.2,28 116.2,28 116.2,0.1 0.2,0.1 0.2,89.2 13.2,89.2 13.2,81.2 8.2,81.2 		"/>
		<polygon class="st0" points="85.1,89.2 116.2,89.2 116.2,48.9 108.2,48.9 108.2,81.2 85.1,81.2 77.1,81.2 73.5,81.2 73.5,89.2 
			77.1,89.2 		"/>
		<path class="st0" d="M19.6,81.2v8v38.8h47.6V89.2v-8V63.2H19.6V81.2z M27.6,89.2v-8v-10h31.5v10v8V120H27.6V89.2z"/>
		<polygon class="st0" points="77.1,42.4 77.1,74.8 85.1,74.8 85.1,42.4 139.3,42.4 139.3,104.5 85.1,104.5 85.1,95.6 77.1,95.6 
			77.1,112.5 147.3,112.5 147.3,42.4 147.3,34.4 77.1,34.4 		"/>
		<rect x="133.3" y="0.1" class="st0" width="13.9" height="13.9"/>
		<rect x="27.6" y="34.4" class="st0" width="13.9" height="13.9"/>
	</g>
</g>
</svg>
