<?xml version="1.0" encoding="utf-8"?>
<!-- Generator: Adobe Illustrator 16.0.0, SVG Export Plug-In . SVG Version: 6.00 Build 0)  -->
<!DOCTYPE svg PUBLIC "-//W3C//DTD SVG 1.0//EN" "http://www.w3.org/TR/2001/REC-SVG-20010904/DTD/svg10.dtd">
<svg version="1.0" id="圖層_1" xmlns="http://www.w3.org/2000/svg" xmlns:xlink="http://www.w3.org/1999/xlink" x="0px" y="0px"
	 width="141.191px" height="117.999px" viewBox="0 0 141.191 117.999" enable-background="new 0 0 141.191 117.999"
	 xml:space="preserve">
<g>
	<path fill="#FFFFFF" d="M45.642,70.592v-5.43c3.144-2.484,5.878-6.027,7.483-10.184c2.706-0.211,4.853-3.102,4.853-6.646
		c0-2.995-1.531-5.528-3.639-6.37C53.116,32.241,47.977,25,35.976,25s-17.141,7.241-18.364,16.963
		c-2.107,0.841-3.639,3.375-3.639,6.37c0,3.545,2.146,6.436,4.853,6.646c1.606,4.156,4.34,7.699,7.483,10.184v5.411
		C9.462,72.152,1.818,78.738,0.146,95.499c-1.78,17.834,12.91,22.5,35.83,22.5s37.057-2,35.83-22.5
		C70.816,78.967,62.489,72.236,45.642,70.592z"/>
	<path fill="#FFFFFF" d="M97.279,31.022c1.538-0.119,2.761-1.751,2.761-3.765c0-1.701-0.874-3.123-2.069-3.602
		c-0.691-5.533-3.606-9.658-10.433-9.658s-9.74,4.125-10.433,9.657c-1.196,0.479-2.07,1.901-2.07,3.603
		c0,2.015,1.224,3.646,2.762,3.765c1.8,4.665,6.101,7.978,9.741,7.978C91.178,39,95.479,35.688,97.279,31.022z"/>
	<polygon fill="#FFFFFF" points="85.988,46.666 89.219,46.666 89.746,43.666 85.329,43.666 	"/>
	<path fill="#FFFFFF" d="M124.169,67.667c0.446-0.925,0.694-1.943,0.694-3.013V7.677c0-4.24-3.877-7.677-8.66-7.677h-79.68
		c-4.783,0-8.66,3.437-8.66,7.677v11.391c1.873-0.523,3.871-0.864,6-0.995V7.677c0-0.776,1.162-1.677,2.66-1.677h79.68
		c1.498,0,2.66,0.901,2.66,1.677v56.977c0,0.775-1.162,1.677-2.66,1.677h-8.749c0-2.119,0-13.733,0-17.665
		c0-4.334-12-5.334-12-5.334S93.121,53,91.788,55.666c-0.502,1.004-1.475,1.628-2.494,2.018l-0.371-8.852h-2.661l-0.465,8.856
		c-1.024-0.39-2.005-1.013-2.51-2.022C81.954,53,79.621,43.332,79.621,43.332s-12,1-12,5.334c0,3.932,0,15.546,0,17.665h-8.522
		c4.268,1.525,7.816,3.628,10.673,6.335h12.684l0.751,4.5h-9.655c0.421,0.643,0.814,1.311,1.185,2h8.805l0.863,5.172h-7.497
		c0.208,0.65,0.4,1.316,0.575,2h7.256l1.808,10.828h-7.677c0.034,2.131-0.082,4.129-0.354,6h62.6l0.078-6.428L124.169,67.667z
		 M123.949,79.166l3.028,5.172h-20.797l-1.378-5.172H123.949z M120.144,72.666l2.635,4.5H104.27l-1.2-4.5H120.144z M84.482,72.666
		h16.519l1.199,4.5H85.233L84.482,72.666z M86.431,84.338l-0.863-5.172h17.166l1.379,5.172H86.431z M88.572,97.166l-1.808-10.828
		h17.881l2.886,10.828H88.572z M109.601,97.166l-2.887-10.828h21.435l6.34,10.828H109.601z"/>
</g>
<g>
	<g>
		<path fill="#FFFFFF" d="M710.784-51.981h-2.303v7.066h1.666c1.557,0,2.721-0.307,3.496-0.92c0.773-0.613,1.156-1.506,1.156-2.678
			c0-1.185-0.324-2.058-0.971-2.623C713.182-51.699,712.167-51.981,710.784-51.981z M740.088-79.505
			c2.191,0,4.307-0.793,5.959-2.234c3.754-3.278,4.135-8.992,0.848-12.738c-1.719-1.958-4.203-3.082-6.814-3.082
			c-2.191,0-4.307,0.794-5.959,2.235c-3.754,3.279-4.135,8.993-0.848,12.739C734.993-80.628,737.477-79.505,740.088-79.505z
			 M737.042-91.999c0.842-0.736,1.922-1.142,3.039-1.142c1.334,0,2.604,0.573,3.48,1.573c1.678,1.912,1.484,4.83-0.434,6.504
			c-0.842,0.735-1.922,1.141-3.039,1.141c-1.336,0-2.604-0.573-3.48-1.572C734.93-87.407,735.124-90.326,737.042-91.999z
			 M733.821-44.216c0,6.953-1.795,13.493-4.938,19.193l4.088,3.979c4.051-6.792,6.387-14.714,6.387-23.173
			c0-11.436-4.268-21.886-11.283-29.884l5.021-4.384l-4.377-4.986l-5.377,4.693c-0.025-0.021-0.047-0.045-0.074-0.066l-4.316,3.595
			C728.014-67.918,733.821-56.731,733.821-44.216z M729.083-15.5c0.01-0.013,0.021-0.024,0.033-0.038l-3.984-3.875
			c-7.344,9.219-18.672,15.148-31.369,15.148c-15.337,0-28.682-8.645-35.41-21.302l-5.259,1.872
			c7.533,14.789,22.928,24.953,40.669,24.953c11.841,0,22.632-4.539,30.748-11.95l4.715,4.563l4.627-4.758L729.083-15.5z
			 M739.836-9.027c-2.471,0-4.777,0.974-6.498,2.741c-3.475,3.574-3.387,9.301,0.195,12.766c1.697,1.643,3.936,2.547,6.301,2.547
			c2.469,0,4.777-0.974,6.498-2.741c3.475-3.571,3.389-9.297-0.193-12.765C744.44-8.122,742.202-9.027,739.836-9.027z
			 M743.153,3.208c-0.879,0.902-2.057,1.4-3.318,1.4c-1.207,0-2.35-0.463-3.217-1.302c-1.828-1.769-1.873-4.692-0.1-6.516
			c0.879-0.902,2.057-1.399,3.318-1.399c1.207,0,2.352,0.462,3.217,1.3C744.883-1.538,744.926,1.385,743.153,3.208z M693.766-98.948
			h0.063c4.991-0.037,9.022-4.116,8.987-9.094c-0.037-4.941-4.098-8.961-9.118-8.961c-4.989,0.035-9.021,4.113-8.986,9.092
			C684.748-102.97,688.81-98.948,693.766-98.948z M693.763-112.585c2.531,0,4.603,2.053,4.621,4.574
			c0.02,2.542-2.039,4.625-4.586,4.645l-0.031,2.209v-2.209c-2.531,0-4.605-2.054-4.624-4.577
			C689.124-110.483,691.183-112.565,693.763-112.585z M653.704-44.216c0-18.498,12.675-34.095,29.815-38.621l0.012-5.683
			c-20.229,4.645-35.364,22.739-35.364,44.304c0,2.699,0.247,5.34,0.705,7.908l-4.68,1.664c-1.689-2.063-4.239-3.342-7.008-3.342
			c-1.035,0-2.058,0.178-3.04,0.527c-4.7,1.671-7.159,6.846-5.482,11.535c1.282,3.586,4.709,5.995,8.525,5.995
			c1.034,0,2.058-0.177,3.041-0.526c3.483-1.24,5.73-4.406,5.981-7.869l4.301-1.53c0.004,0.012,0.008,0.024,0.012,0.036l5.216-1.855
			C654.426-35.62,653.704-39.834,653.704-44.216z M638.739-24.616c-0.503,0.18-1.025,0.27-1.552,0.27
			c-1.948,0-3.697-1.229-4.353-3.061c-0.855-2.395,0.398-5.036,2.798-5.89c0.503-0.179,1.025-0.27,1.552-0.27
			c1.949,0,3.699,1.229,4.355,3.06C642.396-28.112,641.138-25.47,638.739-24.616z M696.827-96.135l-6.645,0.048l0.047,6.549
			c-0.017,0.001-0.033,0.002-0.05,0.004l-0.011,5.537c1.185-0.105,2.382-0.168,3.595-0.168c7.06,0,13.697,1.838,19.462,5.05
			l4.512-3.757c-6.141-3.803-13.248-6.19-20.861-6.706L696.827-96.135z M693.763-80.847c-20.254,0-36.731,16.433-36.731,36.631
			c0,20.199,16.478,36.633,36.731,36.633c20.253,0,36.73-16.434,36.73-36.633C730.493-64.414,714.016-80.847,693.763-80.847z
			 M681.23-32.312h-5.52l-8.098-23.808h5.111l4.491,14.167c0.247,0.837,0.506,1.812,0.775,2.925
			c0.265,1.112,0.432,1.885,0.496,2.319c0.119-0.999,0.528-2.746,1.227-5.244l4.521-14.167h5.11L681.23-32.312z M697.411-32.312
			h-5.061v-23.808h5.061V-32.312z M717.502-42.813c-1.605,1.355-3.889,2.035-6.85,2.035h-2.172v8.467h-5.061v-23.808h7.627
			c2.891,0,5.096,0.622,6.602,1.864c1.51,1.244,2.262,3.098,2.262,5.563C719.911-46.131,719.11-44.171,717.502-42.813z"/>
	</g>
</g>
<g>
	<g>
		<path fill-rule="evenodd" clip-rule="evenodd" fill="#FFFFFF" d="M564.139,273.426h-50.607c-0.769,0-1.41-0.646-1.41-1.424
			v-82.238c0.011-0.77,0.646-1.405,1.41-1.405h72.138c0.763,0,1.399,0.636,1.41,1.405v60.729c0.109,0.424,0.215,0.848,0.317,1.273
			c1.627,0.047,3.262,0.209,4.778,0.415l0.206,0.027v-67.729c0-3.992-3.224-7.247-7.178-7.247h-71.202
			c-3.954,0-7.178,3.255-7.178,7.247v94.16c0,3.992,3.224,7.247,7.178,7.247h57.914c-1.508-2.224-2.513-4.677-3.791-7.027
			C566.991,276.777,565.742,275.033,564.139,273.426z M549.849,282.033c-1.24,0-2.246-1.016-2.246-2.268s1.005-2.268,2.246-2.268
			s2.246,1.016,2.246,2.268S551.089,282.033,549.849,282.033z M548.437,220.586c-2.083,0-4.011-0.545-5.558-1.24
			c-0.279-0.125-0.569-0.12-0.844,0.014c-0.274,0.135-0.458,0.361-0.534,0.66l-0.688,2.713c-0.124,0.484,0.115,0.978,0.568,1.178
			c1.338,0.594,3.174,1.098,5.113,1.287c0.516,0.051,0.905,0.484,0.905,1.008v1.876c0,0.558,0.451,1.013,1.003,1.013h1.948
			c0.552,0,1.002-0.455,1.002-1.013v-2.311c0-0.476,0.315-0.878,0.775-0.985c4.096-0.967,6.294-3.883,6.294-7.264
			c0-3.67-1.877-5.889-6.629-7.582c-3.435-1.25-4.832-2.137-4.832-3.428c0-1.129,0.838-2.298,3.434-2.298
			c2.071,0,3.624,0.481,4.704,0.931c0.276,0.115,0.56,0.105,0.828-0.028s0.447-0.355,0.524-0.647l0.671-2.551
			c0.132-0.501-0.127-1.016-0.606-1.203c-1.082-0.425-2.393-0.787-4.081-0.926c-0.521-0.043-0.921-0.479-0.921-1.008v-1.579
			c0-0.558-0.451-1.013-1.003-1.013h-1.908c-0.552,0-1.003,0.455-1.003,1.013v2.005c0,0.469-0.305,0.865-0.755,0.98
			c-3.808,0.979-5.994,3.639-5.994,7.011c0,3.911,2.915,5.927,7.188,7.379c2.995,1.008,4.273,1.976,4.273,3.509
			C552.311,219.658,550.753,220.586,548.437,220.586z M540.119,254.771c1.074,0.997,2.744,0.927,3.732-0.157
			c0.099-0.107,0.187-0.223,0.265-0.342l10.998-14.812l5.133,2.979c1.089,0.633,2.437,0.392,3.252-0.504l0.004,0.004l17.312-18.999
			c0.987-1.083,0.918-2.771-0.155-3.768s-2.744-0.927-3.731,0.156l-15.886,17.435l-5.263-3.055c-1.146-0.71-2.661-0.435-3.484,0.674
			l-10.748,14.473l-4.861-4.504l-0.005,0.005c-0.061-0.056-0.125-0.11-0.191-0.161c-1.159-0.889-2.811-0.66-3.69,0.511
			l-10.102,13.438v-23.023h-3.528v29.392h0.007c0,0.979,0.787,1.774,1.757,1.774h38.515c-0.07-1.195,0.111-2.407,0.553-3.549
			h-34.144l9.385-12.486L540.119,254.771z M601.587,260.047c-0.814-2.258-12.222-4.432-17.76-3.686
			c-0.795-4.946-2.782-10.622-4.146-15.569c-1.369-4.962-8.952-2.955-7.733,2.046c1.573,6.453,3.189,14.558,4.019,20.863
			c0.218,1.658,0.412,3.315,0.582,4.979c-1.604-2.01-3.483-3.936-6.034-5.967c-1.675-1.334-4.099-1.035-5.412,0.668
			s-1.018,4.166,0.658,5.5c8.175,7.095,7.177,14.01,13.328,18.002c0.123,0.883,0.25,2.434,0.44,4.349h23.495
			c-0.108-2.365-0.263-3.81-0.416-6.433C604.299,278.354,604.448,267.974,601.587,260.047z"/>
	</g>
</g>
<g>
	<g>
		<path fill="#FFFFFF" d="M498.417-9.25c-2.068-4.375-5.49-4.633-9.572-4.633c0.323-0.944,0.549-2.014,0.55-3.063l0.138-76.922
			c0.008-5.111-4.13-8.833-9.052-9.324c-14.904-1.487-33.332-1.966-51.753-1.966c-18.382,0-36.763,0.474-51.639,1.966
			c-4.912,0.492-9.056,4.213-9.052,9.324l0.055,76.922c0,1.051,0.23,2.118,0.553,3.063l-2.233,0.055
			c-10.566,0.258-11.338,16.665-0.35,17.848c20.553,2.213,41.62,2.996,62.637,2.996c21.041,0,42.129-0.783,62.705-2.996
			C498.333,3.273,500.883-4.036,498.417-9.25z M374.653-93.868c0-1.643,1.54-2.621,3.081-2.775
			c14.505-1.458,32.711-1.969,50.989-1.969c18.318,0,36.573,0.514,51.112,1.969c1.51,0.15,3.083,1.125,3.081,2.775l-0.118,76.922
			c-0.002,1.508-1.126,3.082-2.64,3.082H377.411c-1.514,0-2.758-1.582-2.758-3.082V-93.868z M490.704-2.53
			c-20.45,2.195-41.493,3.016-62.527,3c-20.665-0.016-41.327-0.833-61.418-3c-2.723-0.293-2.588-4.746-0.349-4.746l124.643,0.002
			C493.292-7.274,493.424-2.821,490.704-2.53z M434.974-5.615H422.49c-2.174,0-2.174,3.297,0,3.297h12.484
			C437.147-2.318,437.147-5.615,434.974-5.615z M451.52-31.041c0.25,0,0.474-0.11,0.625-0.285l4.207-4.196l2.81,7.833
			c0.12,0.337,0.438,0.547,0.778,0.548h3.161c0.603,0,0.995-0.62,0.756-1.158l-3.41-8.61l6.006,0.484
			c0.454,0.036,0.852-0.303,0.888-0.757c0.019-0.236-0.066-0.459-0.217-0.622l-14.975-17.646c-0.478-0.563-1.456-0.103-1.456,0.532
			v23.054C450.694-31.41,451.064-31.041,451.52-31.041z M478.348-88.671l-98.674-0.003l-0.03,70.408l98.704,0.004V-88.671z
			 M473.937-22.663h-89.88v-56.094l89.883,0.003L473.937-22.663z M435.288-40.555h-8.906v11.842h8.906V-40.555z M399.029-51.129
			h-8.906v22.416h8.906V-51.129z M423.202-59.588h-8.906v30.875h8.906V-59.588z M411.115-67.202h-8.905v38.488h8.905V-67.202z
			 M428.741-91.416c1.219,0,2.206-0.985,2.206-2.2s-0.987-2.199-2.206-2.199s-2.206,0.984-2.206,2.199
			S427.522-91.416,428.741-91.416z"/>
	</g>
</g>
</svg>
