<?xml version="1.0" encoding="utf-8"?>
<!-- Generator: Adobe Illustrator 16.0.0, SVG Export Plug-In . SVG Version: 6.00 Build 0)  -->
<!DOCTYPE svg PUBLIC "-//W3C//DTD SVG 1.0//EN" "http://www.w3.org/TR/2001/REC-SVG-20010904/DTD/svg10.dtd">
<svg version="1.0" id="圖層_1" xmlns="http://www.w3.org/2000/svg" xmlns:xlink="http://www.w3.org/1999/xlink" x="0px" y="0px"
	 width="1420.237px" height="342.62px" viewBox="0 0 1420.237 342.62" enable-background="new 0 0 1420.237 342.62"
	 xml:space="preserve">
<g>
	<g>
		<linearGradient id="SVGID_1_" gradientUnits="userSpaceOnUse" x1="157.1299" y1="371.7578" x2="86.6338" y2="38.7744">
			<stop  offset="0" style="stop-color:#200C63"/>
			<stop  offset="0.543" style="stop-color:#2D5C88"/>
			<stop  offset="1" style="stop-color:#50BDB5"/>
		</linearGradient>
		<path fill="url(#SVGID_1_)" d="M201.87,214.415c2.769,1.73,4.482,5.046,3.636,9.568c-0.614,3.279-7.799,8.662-10.275,10.939
			c-13.149,12.097-27.378,23.04-41.828,33.526c-19.908,14.448-43.17,29.979-68.06,33.549c-5.186,0.742-9.78,0.658-13.656-0.326
			c-3.342-0.851-6.149-2.365-8.34-4.588c-1.906-1.933-3.267-4.322-4.116-7.122c3.074,0.988,6.662,1.351,10.677,1.131
			c4.97-0.276,10.606-1.449,16.775-3.449c7.108-2.304,14.913-5.7,23.226-10.108c9.024-4.782,18.647-10.742,28.582-17.751
			c11.972-8.441,24.406-18.392,36.831-29.629c5.4-4.884,9.598-10.234,15.798-14.221C194.67,213.653,198.883,212.547,201.87,214.415z
			"/>
		<g>
			<linearGradient id="SVGID_2_" gradientUnits="userSpaceOnUse" x1="247.8213" y1="352.5791" x2="177.3192" y2="19.5674">
				<stop  offset="0" style="stop-color:#200C63"/>
				<stop  offset="0.543" style="stop-color:#2D5C88"/>
				<stop  offset="1" style="stop-color:#50BDB5"/>
			</linearGradient>
			<path fill="url(#SVGID_2_)" d="M193.604,133.049c4.348-4.779,8.5-9.572,12.444-14.353"/>
			<linearGradient id="SVGID_3_" gradientUnits="userSpaceOnUse" x1="247.8154" y1="352.5508" x2="177.3219" y2="19.5795">
				<stop  offset="0" style="stop-color:#200C63"/>
				<stop  offset="0.543" style="stop-color:#2D5C88"/>
				<stop  offset="1" style="stop-color:#50BDB5"/>
			</linearGradient>
			<path fill="url(#SVGID_3_)" d="M193.602,140.697c-1.837,0-3.678-0.657-5.146-1.991c-3.125-2.842-3.353-7.68-0.51-10.805
				c4.209-4.627,8.315-9.363,12.202-14.074c2.688-3.258,7.51-3.722,10.768-1.032s3.72,7.51,1.031,10.768
				c-4.043,4.9-8.312,9.824-12.686,14.633C197.754,139.854,195.681,140.697,193.602,140.697z"/>
		</g>
		<g>
			<linearGradient id="SVGID_4_" gradientUnits="userSpaceOnUse" x1="191.0029" y1="364.5869" x2="120.5069" y2="31.6035">
				<stop  offset="0" style="stop-color:#200C63"/>
				<stop  offset="0.543" style="stop-color:#2D5C88"/>
				<stop  offset="1" style="stop-color:#50BDB5"/>
			</linearGradient>
			<path fill="url(#SVGID_4_)" d="M152.023,220.897c5.04-4.044,9.887-8.13,14.529-12.238"/>
			<linearGradient id="SVGID_5_" gradientUnits="userSpaceOnUse" x1="191.001" y1="364.5801" x2="120.5077" y2="31.6101">
				<stop  offset="0" style="stop-color:#200C63"/>
				<stop  offset="0.543" style="stop-color:#2D5C88"/>
				<stop  offset="1" style="stop-color:#50BDB5"/>
			</linearGradient>
			<path fill="url(#SVGID_5_)" d="M152.027,228.548c-2.239,0-4.459-0.979-5.97-2.863c-2.644-3.293-2.116-8.108,1.178-10.751
				c4.884-3.921,9.677-7.958,14.247-12.003c3.164-2.798,7.998-2.505,10.797,0.66c2.799,3.163,2.504,7.997-0.659,10.796
				c-4.752,4.205-9.736,8.404-14.811,12.477C155.398,227.996,153.707,228.548,152.027,228.548z"/>
		</g>
		<g>
			<linearGradient id="SVGID_6_" gradientUnits="userSpaceOnUse" x1="250.0239" y1="352.0752" x2="179.5354" y2="19.1276">
				<stop  offset="0" style="stop-color:#200C63"/>
				<stop  offset="0.543" style="stop-color:#2D5C88"/>
				<stop  offset="1" style="stop-color:#50BDB5"/>
			</linearGradient>
			<path fill="url(#SVGID_6_)" d="M212.495,207.06c7.26-7.146,4.987-4.81,11.19-11.645"/>
			<linearGradient id="SVGID_7_" gradientUnits="userSpaceOnUse" x1="250.0264" y1="352.0908" x2="179.5303" y2="19.1074">
				<stop  offset="0" style="stop-color:#200C63"/>
				<stop  offset="0.543" style="stop-color:#2D5C88"/>
				<stop  offset="1" style="stop-color:#50BDB5"/>
			</linearGradient>
			<path fill="url(#SVGID_7_)" d="M212.495,214.708c-1.978,0-3.953-0.762-5.451-2.282c-2.964-3.011-2.926-7.854,0.086-10.817
				l2.288-2.248c3.512-3.451,3.512-3.451,6.095-6.315c0.653-0.722,1.461-1.616,2.507-2.77c2.84-3.128,7.677-3.363,10.805-0.524
				c3.129,2.839,3.363,7.675,0.525,10.804c-1.036,1.143-1.835,2.025-2.479,2.74c-2.839,3.146-2.965,3.276-6.732,6.978l-2.276,2.237
				C216.372,213.977,214.434,214.708,212.495,214.708z"/>
		</g>
		<g>
			<linearGradient id="SVGID_8_" gradientUnits="userSpaceOnUse" x1="282.1924" y1="345.2803" x2="211.6963" y2="12.2969">
				<stop  offset="0" style="stop-color:#200C63"/>
				<stop  offset="0.543" style="stop-color:#2D5C88"/>
				<stop  offset="1" style="stop-color:#50BDB5"/>
			</linearGradient>
			<path fill="url(#SVGID_8_)" d="M240.827,180.939c6.871-7.519,4.727-5.067,10.558-12.22"/>
			<linearGradient id="SVGID_9_" gradientUnits="userSpaceOnUse" x1="282.1904" y1="345.2754" x2="211.6971" y2="12.305">
				<stop  offset="0" style="stop-color:#200C63"/>
				<stop  offset="0.543" style="stop-color:#2D5C88"/>
				<stop  offset="1" style="stop-color:#50BDB5"/>
			</linearGradient>
			<path fill="url(#SVGID_9_)" d="M240.825,188.588c-1.844,0-3.69-0.661-5.158-2.002c-3.118-2.85-3.335-7.688-0.485-10.806
				l2.166-2.369c3.324-3.629,3.324-3.629,5.755-6.627c0.613-0.756,1.372-1.69,2.355-2.897c2.67-3.273,7.488-3.763,10.76-1.094
				c3.274,2.669,3.765,7.486,1.095,10.761c-0.973,1.194-1.723,2.118-2.329,2.866c-2.669,3.291-2.789,3.429-6.354,7.321l-2.156,2.357
				C244.965,187.751,242.898,188.588,240.825,188.588z"/>
		</g>
		<g>
			<linearGradient id="SVGID_10_" gradientUnits="userSpaceOnUse" x1="284.791" y1="344.7305" x2="214.2949" y2="11.7471">
				<stop  offset="0" style="stop-color:#200C63"/>
				<stop  offset="0.543" style="stop-color:#2D5C88"/>
				<stop  offset="1" style="stop-color:#50BDB5"/>
			</linearGradient>
			<path fill="url(#SVGID_10_)" d="M250.671,216.112c7.357-7.045,5.054-4.741,11.349-11.489"/>
			<linearGradient id="SVGID_11_" gradientUnits="userSpaceOnUse" x1="284.792" y1="344.7363" x2="214.2931" y2="11.7395">
				<stop  offset="0" style="stop-color:#200C63"/>
				<stop  offset="0.543" style="stop-color:#2D5C88"/>
				<stop  offset="1" style="stop-color:#50BDB5"/>
			</linearGradient>
			<path fill="url(#SVGID_11_)" d="M250.672,223.76c-2.015,0-4.024-0.79-5.526-2.358c-2.921-3.052-2.815-7.895,0.234-10.814
				l2.308-2.205c3.567-3.409,3.567-3.409,6.188-6.233c0.665-0.714,1.484-1.6,2.554-2.743c2.881-3.087,7.721-3.256,10.81-0.375
				c3.089,2.882,3.256,7.721,0.375,10.811c-1.056,1.131-1.868,2.007-2.524,2.714c-2.879,3.102-3.007,3.229-6.835,6.888l-2.294,2.193
				C254.478,223.056,252.572,223.76,250.672,223.76z"/>
		</g>
		<g>
			<linearGradient id="SVGID_12_" gradientUnits="userSpaceOnUse" x1="284.5449" y1="344.7715" x2="214.0566" y2="11.8247">
				<stop  offset="0" style="stop-color:#200C63"/>
				<stop  offset="0.543" style="stop-color:#2D5C88"/>
				<stop  offset="1" style="stop-color:#50BDB5"/>
			</linearGradient>
			<path fill="url(#SVGID_12_)" d="M257.531,249.728c7.359-7.043,5.056-4.739,11.352-11.487"/>
			<linearGradient id="SVGID_13_" gradientUnits="userSpaceOnUse" x1="284.5469" y1="344.7822" x2="214.0508" y2="11.7988">
				<stop  offset="0" style="stop-color:#200C63"/>
				<stop  offset="0.543" style="stop-color:#2D5C88"/>
				<stop  offset="1" style="stop-color:#50BDB5"/>
			</linearGradient>
			<path fill="url(#SVGID_13_)" d="M257.534,257.376c-2.016,0-4.024-0.789-5.526-2.358c-2.921-3.052-2.816-7.894,0.235-10.814
				l2.303-2.201c3.57-3.411,3.57-3.411,6.191-6.234c0.663-0.716,1.484-1.602,2.553-2.745c2.882-3.088,7.722-3.256,10.811-0.375
				c3.089,2.882,3.256,7.722,0.374,10.81c-1.057,1.134-1.867,2.01-2.526,2.717c-2.876,3.101-3.005,3.229-6.835,6.889l-2.291,2.19
				C261.34,256.672,259.436,257.376,257.534,257.376z"/>
		</g>
		<g>
			<linearGradient id="SVGID_14_" gradientUnits="userSpaceOnUse" x1="327.4092" y1="335.6943" x2="256.9224" y2="2.7549">
				<stop  offset="0" style="stop-color:#200C63"/>
				<stop  offset="0.543" style="stop-color:#2D5C88"/>
				<stop  offset="1" style="stop-color:#50BDB5"/>
			</linearGradient>
			<path fill="url(#SVGID_14_)" d="M302.592,243.984c5.749-5.743,3.96-3.855,8.806-9.43"/>
			<linearGradient id="SVGID_15_" gradientUnits="userSpaceOnUse" x1="327.4111" y1="335.7031" x2="256.9181" y2="2.7341">
				<stop  offset="0" style="stop-color:#200C63"/>
				<stop  offset="0.543" style="stop-color:#2D5C88"/>
				<stop  offset="1" style="stop-color:#50BDB5"/>
			</linearGradient>
			<path fill="url(#SVGID_15_)" d="M302.592,251.633c-1.96,0-3.917-0.748-5.409-2.243c-2.987-2.989-2.985-7.831,0.004-10.816
				l1.812-1.806c2.709-2.702,2.709-2.702,4.661-4.962c0.513-0.593,1.145-1.325,1.966-2.269c2.772-3.189,7.604-3.528,10.792-0.755
				c3.187,2.771,3.524,7.603,0.754,10.79c-0.809,0.93-1.432,1.65-1.934,2.232c-2.26,2.617-2.413,2.779-5.444,5.799l-1.796,1.791
				C306.503,250.887,304.549,251.633,302.592,251.633z"/>
		</g>
		<g>
			<linearGradient id="SVGID_16_" gradientUnits="userSpaceOnUse" x1="355.376" y1="329.7744" x2="284.8876" y2="-3.1727">
				<stop  offset="0" style="stop-color:#200C63"/>
				<stop  offset="0.543" style="stop-color:#2D5C88"/>
				<stop  offset="1" style="stop-color:#50BDB5"/>
			</linearGradient>
			<path fill="url(#SVGID_16_)" d="M326.623,216.365c4.779-6.57,3.307-4.426,7.223-10.69"/>
			<linearGradient id="SVGID_17_" gradientUnits="userSpaceOnUse" x1="355.3799" y1="329.792" x2="284.881" y2="-3.2048">
				<stop  offset="0" style="stop-color:#200C63"/>
				<stop  offset="0.543" style="stop-color:#2D5C88"/>
				<stop  offset="1" style="stop-color:#50BDB5"/>
			</linearGradient>
			<path fill="url(#SVGID_17_)" d="M326.616,224.015c-1.561,0-3.135-0.476-4.494-1.465c-3.416-2.485-4.169-7.269-1.684-10.685
				l1.507-2.068c2.256-3.091,2.256-3.091,3.828-5.628c0.413-0.665,0.923-1.487,1.588-2.549c2.237-3.581,6.958-4.671,10.54-2.431
				c3.581,2.239,4.67,6.957,2.431,10.54c-0.651,1.043-1.154,1.852-1.558,2.505c-1.826,2.94-1.95,3.124-4.472,6.579l-1.495,2.052
				C331.31,222.924,328.979,224.015,326.616,224.015z"/>
		</g>
		<g>
			<linearGradient id="SVGID_18_" gradientUnits="userSpaceOnUse" x1="317.5898" y1="337.7744" x2="247.1007" y2="4.8239">
				<stop  offset="0" style="stop-color:#200C63"/>
				<stop  offset="0.543" style="stop-color:#2D5C88"/>
				<stop  offset="1" style="stop-color:#50BDB5"/>
			</linearGradient>
			<path fill="url(#SVGID_18_)" d="M286.072,219.719c6.799-7.583,4.679-5.111,10.44-12.319"/>
			<linearGradient id="SVGID_19_" gradientUnits="userSpaceOnUse" x1="317.5928" y1="337.7871" x2="247.0967" y2="4.8037">
				<stop  offset="0" style="stop-color:#200C63"/>
				<stop  offset="0.543" style="stop-color:#2D5C88"/>
				<stop  offset="1" style="stop-color:#50BDB5"/>
			</linearGradient>
			<path fill="url(#SVGID_19_)" d="M286.07,227.369c-1.818,0-3.643-0.645-5.104-1.953c-3.144-2.82-3.409-7.655-0.59-10.802
				l2.126-2.369c3.303-3.675,3.303-3.675,5.697-6.688c0.608-0.765,1.361-1.711,2.339-2.934c2.639-3.299,7.451-3.835,10.751-1.197
				c3.3,2.637,3.835,7.45,1.196,10.75c-0.966,1.209-1.71,2.146-2.312,2.9c-2.632,3.312-2.748,3.449-6.291,7.392l-2.116,2.357
				C290.259,226.511,288.167,227.369,286.07,227.369z"/>
		</g>
		<g>
			<linearGradient id="SVGID_20_" gradientUnits="userSpaceOnUse" x1="350.5811" y1="330.7881" x2="280.0914" y2="-2.1651">
				<stop  offset="0" style="stop-color:#200C63"/>
				<stop  offset="0.543" style="stop-color:#2D5C88"/>
				<stop  offset="1" style="stop-color:#50BDB5"/>
			</linearGradient>
			<path fill="url(#SVGID_20_)" d="M314.281,188.364c6.24-8.051,4.302-5.435,9.533-13.036"/>
			<linearGradient id="SVGID_21_" gradientUnits="userSpaceOnUse" x1="350.583" y1="330.8018" x2="280.0869" y2="-2.1816">
				<stop  offset="0" style="stop-color:#200C63"/>
				<stop  offset="0.543" style="stop-color:#2D5C88"/>
				<stop  offset="1" style="stop-color:#50BDB5"/>
			</linearGradient>
			<path fill="url(#SVGID_21_)" d="M314.276,196.013c-1.638,0-3.286-0.523-4.681-1.604c-3.34-2.588-3.946-7.394-1.359-10.731
				l1.95-2.514c3.031-3.903,3.031-3.903,5.205-7.079c0.552-0.807,1.235-1.803,2.123-3.094c2.395-3.479,7.157-4.359,10.636-1.964
				c3.48,2.396,4.359,7.157,1.965,10.638c-0.879,1.275-1.553,2.263-2.1,3.06c-2.389,3.49-2.495,3.637-5.747,7.823l-1.941,2.501
				C318.82,194.993,316.56,196.013,314.276,196.013z"/>
		</g>
		<g>
			<linearGradient id="SVGID_22_" gradientUnits="userSpaceOnUse" x1="378.1504" y1="324.9854" x2="307.6466" y2="-8.0344">
				<stop  offset="0" style="stop-color:#200C63"/>
				<stop  offset="0.543" style="stop-color:#2D5C88"/>
				<stop  offset="1" style="stop-color:#50BDB5"/>
			</linearGradient>
			<path fill="url(#SVGID_22_)" d="M337.806,156.313c4.644-6.548,3.213-4.413,7.018-10.638"/>
			<linearGradient id="SVGID_23_" gradientUnits="userSpaceOnUse" x1="378.1455" y1="324.9668" x2="307.6494" y2="-8.0166">
				<stop  offset="0" style="stop-color:#200C63"/>
				<stop  offset="0.543" style="stop-color:#2D5C88"/>
				<stop  offset="1" style="stop-color:#50BDB5"/>
			</linearGradient>
			<path fill="url(#SVGID_23_)" d="M337.799,163.961c-1.53,0-3.076-0.458-4.418-1.41c-3.447-2.444-4.259-7.219-1.813-10.664
				l1.461-2.059c2.195-3.085,2.195-3.085,3.727-5.609c0.402-0.66,0.897-1.478,1.542-2.532c2.203-3.604,6.912-4.739,10.517-2.536
				s4.739,6.911,2.535,10.516c-0.635,1.036-1.12,1.84-1.516,2.489c-1.787,2.944-1.868,3.066-4.338,6.539l-1.451,2.043
				C342.553,162.84,340.194,163.961,337.799,163.961z"/>
		</g>
		<g>
			<linearGradient id="SVGID_24_" gradientUnits="userSpaceOnUse" x1="317.3457" y1="337.8389" x2="246.8496" y2="4.8555">
				<stop  offset="0" style="stop-color:#200C63"/>
				<stop  offset="0.543" style="stop-color:#2D5C88"/>
				<stop  offset="1" style="stop-color:#50BDB5"/>
			</linearGradient>
			<path fill="url(#SVGID_24_)" d="M278.653,184.562c6.381-7.939,4.396-5.355,9.762-12.864"/>
			<linearGradient id="SVGID_25_" gradientUnits="userSpaceOnUse" x1="317.3457" y1="337.8389" x2="246.8496" y2="4.8555">
				<stop  offset="0" style="stop-color:#200C63"/>
				<stop  offset="0.543" style="stop-color:#2D5C88"/>
				<stop  offset="1" style="stop-color:#50BDB5"/>
			</linearGradient>
			<path fill="url(#SVGID_25_)" d="M278.649,192.21c-1.681,0-3.373-0.551-4.787-1.686c-3.293-2.646-3.816-7.46-1.171-10.754
				l2.021-2.512c3.08-3.824,3.08-3.824,5.318-6.975c0.562-0.792,1.259-1.77,2.16-3.034c2.457-3.437,7.233-4.231,10.671-1.776
				c3.438,2.456,4.231,7.233,1.777,10.67c-0.894,1.25-1.583,2.219-2.141,3.003c-2.457,3.457-2.566,3.602-5.87,7.707l-2.012,2.498
				C283.105,191.233,280.887,192.21,278.649,192.21z"/>
		</g>
		<g>
			<linearGradient id="SVGID_26_" gradientUnits="userSpaceOnUse" x1="226.5361" y1="357.0635" x2="156.0401" y2="24.0801">
				<stop  offset="0" style="stop-color:#200C63"/>
				<stop  offset="0.543" style="stop-color:#2D5C88"/>
				<stop  offset="1" style="stop-color:#50BDB5"/>
			</linearGradient>
			<path fill="url(#SVGID_26_)" d="M183.59,192.509c4.651-4.484,9.11-8.994,13.359-13.506"/>
			<linearGradient id="SVGID_27_" gradientUnits="userSpaceOnUse" x1="226.5371" y1="357.0635" x2="156.041" y2="24.0801">
				<stop  offset="0" style="stop-color:#200C63"/>
				<stop  offset="0.543" style="stop-color:#2D5C88"/>
				<stop  offset="1" style="stop-color:#50BDB5"/>
			</linearGradient>
			<path fill="url(#SVGID_27_)" d="M183.592,200.157c-2.004,0-4.006-0.783-5.508-2.339c-2.932-3.042-2.843-7.883,0.197-10.816
				c4.509-4.347,8.917-8.803,13.103-13.244c2.896-3.074,7.737-3.219,10.811-0.322c3.075,2.896,3.219,7.737,0.321,10.812
				c-4.351,4.62-8.931,9.251-13.616,13.769C187.415,199.446,185.502,200.157,183.592,200.157z"/>
		</g>
		<g>
			<linearGradient id="SVGID_28_" gradientUnits="userSpaceOnUse" x1="264.208" y1="349.0879" x2="193.7119" y2="16.1045">
				<stop  offset="0" style="stop-color:#200C63"/>
				<stop  offset="0.543" style="stop-color:#2D5C88"/>
				<stop  offset="1" style="stop-color:#50BDB5"/>
			</linearGradient>
			<path fill="url(#SVGID_28_)" d="M215.884,159.13c4.651-4.485,9.108-8.994,13.358-13.506"/>
			<linearGradient id="SVGID_29_" gradientUnits="userSpaceOnUse" x1="264.208" y1="349.0889" x2="193.7119" y2="16.1055">
				<stop  offset="0" style="stop-color:#200C63"/>
				<stop  offset="0.543" style="stop-color:#2D5C88"/>
				<stop  offset="1" style="stop-color:#50BDB5"/>
			</linearGradient>
			<path fill="url(#SVGID_29_)" d="M215.885,166.778c-2.005,0-4.006-0.782-5.507-2.338c-2.934-3.04-2.845-7.884,0.196-10.816
				c4.516-4.354,8.923-8.811,13.102-13.246c2.896-3.072,7.736-3.219,10.811-0.32c3.075,2.896,3.22,7.735,0.323,10.811
				c-4.345,4.612-8.928,9.244-13.616,13.769C219.709,166.067,217.796,166.778,215.885,166.778z"/>
		</g>
		<g>
			<linearGradient id="SVGID_30_" gradientUnits="userSpaceOnUse" x1="214.5742" y1="359.5977" x2="144.0781" y2="26.6143">
				<stop  offset="0" style="stop-color:#200C63"/>
				<stop  offset="0.543" style="stop-color:#2D5C88"/>
				<stop  offset="1" style="stop-color:#50BDB5"/>
			</linearGradient>
			<path fill="url(#SVGID_30_)" d="M156.982,125.872c4.652-4.485,9.109-8.995,13.36-13.506"/>
			<linearGradient id="SVGID_31_" gradientUnits="userSpaceOnUse" x1="214.5723" y1="359.5879" x2="144.0789" y2="26.6171">
				<stop  offset="0" style="stop-color:#200C63"/>
				<stop  offset="0.543" style="stop-color:#2D5C88"/>
				<stop  offset="1" style="stop-color:#50BDB5"/>
			</linearGradient>
			<path fill="url(#SVGID_31_)" d="M156.984,133.521c-2.005,0-4.006-0.782-5.507-2.339c-2.933-3.041-2.844-7.884,0.197-10.815
				c4.509-4.348,8.917-8.804,13.101-13.246c2.896-3.074,7.737-3.22,10.812-0.321c3.074,2.896,3.219,7.736,0.322,10.812
				c-4.352,4.619-8.933,9.252-13.618,13.769C160.809,132.81,158.895,133.521,156.984,133.521z"/>
		</g>
		<g>
			<linearGradient id="SVGID_32_" gradientUnits="userSpaceOnUse" x1="248.0205" y1="352.5391" x2="177.5188" y2="19.5291">
				<stop  offset="0" style="stop-color:#200C63"/>
				<stop  offset="0.543" style="stop-color:#2D5C88"/>
				<stop  offset="1" style="stop-color:#50BDB5"/>
			</linearGradient>
			<path fill="url(#SVGID_32_)" d="M186.116,95.269c4.101-4.993,8.009-9.987,11.71-14.96"/>
			<linearGradient id="SVGID_33_" gradientUnits="userSpaceOnUse" x1="248.0181" y1="352.5264" x2="177.5195" y2="19.5312">
				<stop  offset="0" style="stop-color:#200C63"/>
				<stop  offset="0.543" style="stop-color:#2D5C88"/>
				<stop  offset="1" style="stop-color:#50BDB5"/>
			</linearGradient>
			<path fill="url(#SVGID_33_)" d="M186.112,102.917c-1.709,0-3.428-0.57-4.852-1.739c-3.264-2.683-3.736-7.502-1.054-10.765
				c3.982-4.849,7.846-9.785,11.482-14.671c2.522-3.39,7.313-4.092,10.703-1.568c3.389,2.52,4.092,7.313,1.57,10.7
				c-3.782,5.083-7.798,10.213-11.936,15.248C190.515,101.964,188.321,102.917,186.112,102.917z"/>
		</g>
		<g>
			<linearGradient id="SVGID_34_" gradientUnits="userSpaceOnUse" x1="281.5908" y1="345.4092" x2="211.0947" y2="12.4258">
				<stop  offset="0" style="stop-color:#200C63"/>
				<stop  offset="0.543" style="stop-color:#2D5C88"/>
				<stop  offset="1" style="stop-color:#50BDB5"/>
			</linearGradient>
			<path fill="url(#SVGID_34_)" d="M222.563,101.605c4.081-5.009,7.969-10.019,11.649-15.006"/>
			<linearGradient id="SVGID_35_" gradientUnits="userSpaceOnUse" x1="281.5898" y1="345.4082" x2="211.0938" y2="12.4248">
				<stop  offset="0" style="stop-color:#200C63"/>
				<stop  offset="0.543" style="stop-color:#2D5C88"/>
				<stop  offset="1" style="stop-color:#50BDB5"/>
			</linearGradient>
			<path fill="url(#SVGID_35_)" d="M222.56,109.255c-1.7,0-3.41-0.562-4.829-1.72c-3.273-2.668-3.766-7.485-1.097-10.762
				c3.961-4.861,7.805-9.813,11.423-14.714c2.508-3.4,7.297-4.121,10.695-1.614c3.399,2.508,4.121,7.296,1.614,10.695
				c-3.763,5.099-7.758,10.246-11.875,15.298C226.98,108.294,224.778,109.255,222.56,109.255z"/>
		</g>
		<g>
			<linearGradient id="SVGID_36_" gradientUnits="userSpaceOnUse" x1="250.6582" y1="351.957" x2="180.1621" y2="18.9736">
				<stop  offset="0" style="stop-color:#200C63"/>
				<stop  offset="0.543" style="stop-color:#2D5C88"/>
				<stop  offset="1" style="stop-color:#50BDB5"/>
			</linearGradient>
			<path fill="url(#SVGID_36_)" d="M181.323,38.897c1.659-2.433,3.174-4.919,4.541-7.446"/>
			<linearGradient id="SVGID_37_" gradientUnits="userSpaceOnUse" x1="250.6582" y1="351.957" x2="180.1621" y2="18.9736">
				<stop  offset="0" style="stop-color:#200C63"/>
				<stop  offset="0.543" style="stop-color:#2D5C88"/>
				<stop  offset="1" style="stop-color:#50BDB5"/>
			</linearGradient>
			<path fill="url(#SVGID_37_)" d="M181.315,46.546c-1.485,0-2.984-0.431-4.304-1.33c-3.489-2.381-4.389-7.14-2.007-10.63
				c1.498-2.195,2.887-4.474,4.13-6.773c2.009-3.717,6.65-5.101,10.366-3.09c3.715,2.01,5.098,6.65,3.089,10.366
				c-1.492,2.759-3.157,5.49-4.95,8.118C186.16,45.378,183.759,46.546,181.315,46.546z"/>
		</g>
		<g>
			<linearGradient id="SVGID_38_" gradientUnits="userSpaceOnUse" x1="268.5615" y1="348.0771" x2="198.0835" y2="15.1792">
				<stop  offset="0" style="stop-color:#200C63"/>
				<stop  offset="0.543" style="stop-color:#2D5C88"/>
				<stop  offset="1" style="stop-color:#50BDB5"/>
			</linearGradient>
			<path fill="url(#SVGID_38_)" d="M195.865,11.999c0.842-1.366,1.564-2.819,2.17-4.347"/>
			<linearGradient id="SVGID_39_" gradientUnits="userSpaceOnUse" x1="268.5762" y1="348.1455" x2="198.0837" y2="15.1791">
				<stop  offset="0" style="stop-color:#200C63"/>
				<stop  offset="0.543" style="stop-color:#2D5C88"/>
				<stop  offset="1" style="stop-color:#50BDB5"/>
			</linearGradient>
			<path fill="url(#SVGID_39_)" d="M195.857,19.651c-1.368,0-2.753-0.368-4.004-1.139c-3.597-2.216-4.716-6.926-2.5-10.523
				c0.599-0.973,1.127-2.034,1.569-3.152c1.555-3.929,5.999-5.854,9.927-4.296c3.928,1.555,5.854,5.999,4.298,9.926
				c-0.771,1.947-1.704,3.813-2.771,5.545C200.932,18.357,198.424,19.651,195.857,19.651z"/>
		</g>
		<linearGradient id="SVGID_40_" gradientUnits="userSpaceOnUse" x1="143.4556" y1="374.6563" x2="72.9588" y2="41.6696">
			<stop  offset="0" style="stop-color:#200C63"/>
			<stop  offset="0.543" style="stop-color:#2D5C88"/>
			<stop  offset="1" style="stop-color:#50BDB5"/>
		</linearGradient>
		<path fill="url(#SVGID_40_)" d="M175.12,60.214c-2.073,3.03-4.263,6.11-6.569,9.22c-3.439,4.647-7.123,9.36-11.047,14.111
			c-8.225,9.959-17.468,20.073-27.583,30.044c-16.512,16.276-33.379,30.237-49.284,41.22c-13.807,9.535-26.883,16.825-38.367,21.438
			c-7.33,2.943-14.01,4.794-19.815,5.441c-6.603,0.734-12.074-0.087-16.094-2.625c-0.558-0.355-1.092-0.745-1.594-1.173
			c-0.347-0.286-0.677-0.589-0.991-0.909c-1.746-1.77-2.997-3.967-3.775-6.532c2.27,0.729,4.844,1.088,7.68,1.093
			c0.405-0.001,0.813-0.006,1.226-0.022c6.276-0.196,13.756-2.018,22.105-5.281c8.699-3.403,18.346-8.377,28.556-14.726
			c18.927-11.784,39.783-28.308,60.095-48.328c9.2-9.069,17.68-18.254,25.325-27.334c4.119-4.889,8.113-9.886,11.955-14.997
			c3.309-4.401,8.86-17.075,16.58-11.282C175.968,51.406,176.404,55.392,175.12,60.214z"/>
		<linearGradient id="SVGID_41_" gradientUnits="userSpaceOnUse" x1="119.5205" y1="379.7207" x2="49.0244" y2="46.7373">
			<stop  offset="0" style="stop-color:#200C63"/>
			<stop  offset="0.543" style="stop-color:#2D5C88"/>
			<stop  offset="1" style="stop-color:#50BDB5"/>
		</linearGradient>
		<path fill="url(#SVGID_41_)" d="M144.797,136.067c2.355,2.843,1.644,7.633-1.376,12.454c-4.255,3.955-8.513,7.771-12.762,11.434
			c-13.469,11.622-26.832,21.755-39.561,30.132l-0.016,0.015c-18.496,12.172-35.624,20.622-49.759,24.538
			c-7.559,2.098-14.255,2.89-19.84,2.26c-4.299-0.486-7.939-1.815-10.8-4.056c-0.565-0.436-1.095-0.909-1.597-1.418
			c-2-2.029-3.437-4.544-4.325-7.486c2.375,0.763,5.035,1.17,7.952,1.238c4.29,0.107,9.134-0.514,14.432-1.821
			c7.758-1.904,16.497-5.267,25.924-9.938c18.869-9.339,40.493-23.907,62.505-42.526c5.329-4.507,10.66-8.965,15.759-13.733
			C134.742,133.969,141.032,131.523,144.797,136.067z"/>
		<linearGradient id="SVGID_42_" gradientUnits="userSpaceOnUse" x1="111.1074" y1="381.5049" x2="40.6093" y2="48.5117">
			<stop  offset="0" style="stop-color:#200C63"/>
			<stop  offset="0.543" style="stop-color:#2D5C88"/>
			<stop  offset="1" style="stop-color:#50BDB5"/>
		</linearGradient>
		<path fill="url(#SVGID_42_)" d="M131.729,231.675c1.54,2.806,0.774,7.16-2.977,11.458c-5.164,3.606-10.222,6.957-15.158,10.045
			c-5.674,3.549-11.177,6.754-16.476,9.579c-10.497,5.599-21.318,11.115-33.038,13.628c-5.32,1.141-11.091,2.55-16.544,1.588
			c-6.625-1.169-10.638-7.562-13.717-13.102c1.508,2.713,15.584,0.021,18.453-0.548c6.222-1.236,12.26-3.31,18.092-5.783
			c17.229-7.306,34.582-16.865,50.305-27.036C125.704,228.247,130.173,228.843,131.729,231.675z"/>
		<linearGradient id="SVGID_43_" gradientUnits="userSpaceOnUse" x1="183.8301" y1="366.1055" x2="113.334" y2="33.1221">
			<stop  offset="0" style="stop-color:#200C63"/>
			<stop  offset="0.543" style="stop-color:#2D5C88"/>
			<stop  offset="1" style="stop-color:#50BDB5"/>
		</linearGradient>
		<path fill="url(#SVGID_43_)" d="M237.555,230.072c2.055,2.109,2.265,5.615,0.937,9.513c-1.998,1.977-4.035,3.953-6.102,5.917
			c-4.433,4.227-8.89,8.311-13.345,12.24c-20.102,17.716-40.196,32.286-58.489,42.838c-0.004,0.005-0.004,0.005-0.004,0.005
			c-6.663,3.846-13.081,7.157-19.175,9.894c-0.003,0.003-0.003,0.003-0.003,0.003c-8.883,3.992-17.076,6.762-24.301,8.179
			c-4.102,0.812-7.898,1.183-11.327,1.093c-6.617-0.169-11.896-2.046-15.475-5.804c-0.454-0.477-0.875-0.978-1.263-1.509
			c3.94,0.261,8.402-0.127,13.301-1.129c4.614-0.945,9.612-2.428,14.928-4.421c10.111-3.793,21.361-9.425,33.285-16.674
			c0.004-0.006,0.004-0.006,0.004-0.006c9.4-5.708,19.211-12.419,29.211-20.025c0.004-0.002,0.004-0.002,0.007-0.006
			c10.289-7.819,20.761-16.574,31.182-26.153c2.058-1.885,4.105-3.81,6.156-5.757c2.961-2.823,5.862-5.659,8.693-8.499
			C230.608,227.617,235.104,227.562,237.555,230.072z"/>
		<linearGradient id="SVGID_44_" gradientUnits="userSpaceOnUse" x1="192.6113" y1="364.248" x2="122.1137" y2="31.2575">
			<stop  offset="0" style="stop-color:#200C63"/>
			<stop  offset="0.543" style="stop-color:#2D5C88"/>
			<stop  offset="1" style="stop-color:#50BDB5"/>
		</linearGradient>
		<path fill="url(#SVGID_44_)" d="M237.642,271.426c6.729,8.88-14.726,20.928-20.129,24.906
			c-24.319,17.909-47.256,30.151-65.115,34.947c-5.442,1.461-11.147,2.404-16.792,1.832c-2.912-0.295-5.771-0.975-8.479-2.096
			c-1.672-0.693-6.655-2.494-7.7-3.891c5.386,0.356,12.649-1.16,19.815-3.221c4.412-1.271,9.124-2.979,14.079-5.095
			c16.092-6.895,34.738-18.146,54.098-32.87c3.823-2.907,7.59-5.884,11.306-8.927C223.288,273.275,231.52,263.355,237.642,271.426z"
			/>
		<linearGradient id="SVGID_45_" gradientUnits="userSpaceOnUse" x1="238.6729" y1="354.4961" x2="168.1747" y2="21.503">
			<stop  offset="0" style="stop-color:#200C63"/>
			<stop  offset="0.543" style="stop-color:#2D5C88"/>
			<stop  offset="1" style="stop-color:#50BDB5"/>
		</linearGradient>
		<path fill="url(#SVGID_45_)" d="M294.359,254.747c4.261,4.308-3.405,12.943-5.944,16.21c-5.108,6.574-12.538,12.589-18.574,18.281
			c-14.096,13.301-28.758,26.349-45.162,36.769c-11.099,7.051-20.465,12.448-33.291,15.418c-10.382,2.404-23.459,0.94-33.464-2.236
			c10.458-0.012,20.372-3.806,29.723-8.174c14.341-6.698,27.806-15.33,40.409-24.87c20.834-15.776,40.229-33.501,57.479-53.146
			C289.055,252.138,292.294,252.66,294.359,254.747z"/>
		<linearGradient id="SVGID_46_" gradientUnits="userSpaceOnUse" x1="140.5381" y1="375.2705" x2="70.042" y2="42.2871">
			<stop  offset="0" style="stop-color:#200C63"/>
			<stop  offset="0.543" style="stop-color:#2D5C88"/>
			<stop  offset="1" style="stop-color:#50BDB5"/>
		</linearGradient>
		<path fill="url(#SVGID_46_)" d="M182.981,149.499c2.375,2.825,1.696,7.62-1.292,12.464c-4.228,3.982-31.709,27.665-36.198,31.03
			c-27.431,20.566-26.684,19.103-39.354,27.565l-0.016,0.016c-18.414,12.297-35.485,20.862-49.592,24.875
			c-7.544,2.148-14.235,2.985-19.824,2.395c-4.302-0.458-7.952-1.762-10.827-3.981c-0.568-0.434-1.102-0.904-1.606-1.408
			c-2.014-2.015-3.467-4.52-4.375-7.458c2.379,0.747,5.043,1.136,7.959,1.187c4.291,0.077,9.131-0.577,14.419-1.92
			c7.745-1.957,16.46-5.379,25.856-10.113c18.806-9.469,40.33-21.348,62.216-40.117c5.298-4.543,34.112-28.547,39.178-33.352
			C172.913,147.469,179.186,144.98,182.981,149.499z"/>
	</g>
	<g>
		<path fill="#1F2437" d="M410.559,272.609v-42.715h27.527v3.441h-23.492v15.424h21.357v3.441h-21.357v20.408H410.559z"/>
		<path fill="#1F2437" d="M473.863,228.768c13.348,0,20.111,10.025,20.111,22.544c0,12.28-6.764,22.425-19.934,22.425
			s-19.874-10.145-19.874-22.425C454.107,238.853,461.107,228.768,473.863,228.768z M489.94,251.312
			c0-11.865-6.11-19.104-15.959-19.104c-10.976,0-15.78,9.196-15.78,19.104c0,10.085,4.746,18.984,15.899,18.984
			C485.194,270.296,489.94,261.278,489.94,251.312z"/>
		<path fill="#1F2437" d="M517.828,253.21v19.399h-4.034v-42.715h16.729c9.374,0,14.535,3.322,14.535,11.213
			c0,5.398-2.017,8.246-6.941,10.441c5.043,1.721,5.34,7.06,5.459,11.568c0.178,6.467,0.711,8.246,1.779,9.077v0.415h-4.449
			c-1.661-2.907-1.246-10.916-1.898-14.179c-0.949-4.628-4.449-5.221-8.484-5.221H517.828z M530.405,249.769
			c5.992,0,10.619-2.491,10.619-8.483c0-6.407-4.983-7.949-10.382-7.949h-12.814v16.433H530.405z"/>
		<path fill="#1F2437" d="M565.293,272.609v-42.715h28.417v3.441h-24.383v15.424h22.01v3.441h-22.01v16.967h24.976v3.441H565.293z"
			/>
		<path fill="#1F2437" d="M626.639,253.744l-12.399,18.865h-4.567l14.713-21.951l-14.12-20.764h4.687l11.688,17.976l11.746-17.976
			h4.688l-14.001,20.764l14.653,21.951h-4.627L626.639,253.744z"/>
		<path fill="#1F2437" d="M686.029,229.895h31.087v3.441H703.59v39.273h-4.034v-39.273h-13.526V229.895z"/>
		<path fill="#1F2437" d="M738.715,253.21v19.399h-4.034v-42.715h16.729c9.374,0,14.535,3.322,14.535,11.213
			c0,5.398-2.017,8.246-6.941,10.441c5.043,1.721,5.34,7.06,5.459,11.568c0.178,6.467,0.711,8.246,1.779,9.077v0.415h-4.449
			c-1.661-2.907-1.246-10.916-1.898-14.179c-0.949-4.628-4.449-5.221-8.484-5.221H738.715z M751.292,249.769
			c5.992,0,10.619-2.491,10.619-8.483c0-6.407-4.983-7.949-10.382-7.949h-12.814v16.433H751.292z"/>
		<path fill="#1F2437" d="M782.263,272.609l16.79-42.715h4.567l16.374,42.715h-4.152l-4.924-13.408h-19.459l-5.043,13.408H782.263z
			 M792.823,255.761h16.729l-8.365-22.425L792.823,255.761z"/>
		<path fill="#1F2437" d="M837.618,272.609v-42.715h14.594c4.746,0,9.196,0.297,13.171,3.203c5.636,4.094,7.119,12.399,7.119,18.095
			c0,5.636-1.246,11.925-5.162,16.196c-3.915,4.391-9.492,5.221-15.128,5.221H837.618z M841.652,269.168h9.67
			c3.619,0,6.764-0.236,10.026-1.957c5.695-2.907,7.119-10.204,7.119-16.019c0-6.229-1.364-13.052-7.356-16.255
			c-2.551-1.365-6.229-1.602-9.789-1.602h-9.67V269.168z"/>
		<path fill="#1F2437" d="M893.744,272.609v-42.715h4.034v42.715H893.744z"/>
		<path fill="#1F2437" d="M924.714,235.353h-0.119v37.257h-4.034v-42.715h4.568l24.68,37.316h0.119v-37.316h4.033v42.715h-4.687
			L924.714,235.353z"/>
		<path fill="#1F2437" d="M993.535,253.98v-3.44h18.272v22.069h-3.44v-7.297c-2.967,5.102-7.535,8.424-15.959,8.424
			c-10.797,0-18.688-7.534-18.688-22.722c0-12.518,6.288-22.247,19.756-22.247c8.958,0,16.018,4.39,17.856,13.526h-4.152
			c-1.424-6.407-7.06-10.086-13.408-10.086c-11.271,0-16.018,8.306-16.018,20.408c0,9.433,5.695,17.68,15.483,17.68
			c4.628,0,10.086-1.958,12.874-7.476c1.364-2.67,1.78-5.636,1.839-8.84H993.535z"/>
		<path fill="#1F2437" d="M1061.59,272.609v-42.715h15.603c11.094,0,13.941,5.518,13.941,11.925c0,9.552-8.483,11.925-16.374,11.925
			h-9.137v18.865H1061.59z M1074.879,250.303c7.534,0,12.221-1.543,12.221-8.78c0-5.339-3.441-8.187-11.035-8.187h-10.441v16.967
			H1074.879z"/>
		<path fill="#1F2437" d="M1113.858,253.21v19.399h-4.034v-42.715h16.73c9.373,0,14.534,3.322,14.534,11.213
			c0,5.398-2.017,8.246-6.94,10.441c5.042,1.721,5.339,7.06,5.457,11.568c0.179,6.467,0.713,8.246,1.78,9.077v0.415h-4.449
			c-1.661-2.907-1.246-10.916-1.898-14.179c-0.949-4.628-4.45-5.221-8.483-5.221H1113.858z M1126.436,249.769
			c5.992,0,10.619-2.491,10.619-8.483c0-6.407-4.983-7.949-10.382-7.949h-12.814v16.433H1126.436z"/>
		<path fill="#1F2437" d="M1179.358,228.768c13.349,0,20.111,10.025,20.111,22.544c0,12.28-6.763,22.425-19.934,22.425
			s-19.874-10.145-19.874-22.425C1159.603,238.853,1166.604,228.768,1179.358,228.768z M1195.436,251.312
			c0-11.865-6.11-19.104-15.959-19.104c-10.975,0-15.78,9.196-15.78,19.104c0,10.085,4.746,18.984,15.899,18.984
			C1190.689,270.296,1195.436,261.278,1195.436,251.312z"/>
		<path fill="#1F2437" d="M1237.502,253.98v-3.44h18.272v22.069h-3.44v-7.297c-2.967,5.102-7.535,8.424-15.959,8.424
			c-10.797,0-18.688-7.534-18.688-22.722c0-12.518,6.288-22.247,19.756-22.247c8.958,0,16.018,4.39,17.856,13.526h-4.152
			c-1.424-6.407-7.06-10.086-13.408-10.086c-11.271,0-16.018,8.306-16.018,20.408c0,9.433,5.695,17.68,15.483,17.68
			c4.628,0,10.086-1.958,12.874-7.476c1.364-2.67,1.78-5.636,1.839-8.84H1237.502z"/>
		<path fill="#1F2437" d="M1281.349,253.21v19.399h-4.034v-42.715h16.73c9.373,0,14.534,3.322,14.534,11.213
			c0,5.398-2.017,8.246-6.94,10.441c5.042,1.721,5.339,7.06,5.457,11.568c0.179,6.467,0.713,8.246,1.78,9.077v0.415h-4.449
			c-1.661-2.907-1.246-10.916-1.898-14.179c-0.949-4.628-4.45-5.221-8.483-5.221H1281.349z M1293.926,249.769
			c5.992,0,10.619-2.491,10.619-8.483c0-6.407-4.983-7.949-10.382-7.949h-12.814v16.433H1293.926z"/>
		<path fill="#1F2437" d="M1324.896,272.609l16.789-42.715h4.568l16.374,42.715h-4.152l-4.925-13.408h-19.459l-5.042,13.408
			H1324.896z M1335.457,255.761h16.729l-8.364-22.425L1335.457,255.761z"/>
		<path fill="#1F2437" d="M1380.074,272.609v-42.715h6.17l14,37.672h0.119l13.764-37.672h6.11v42.715h-4.034v-38.088h-0.118
			l-14.001,38.088h-3.797l-14.061-38.088h-0.119v38.088H1380.074z"/>
	</g>
	<g>
		<path fill="#1F2437" d="M502.302,201.518l-15.503-15.189c-7.596,3.903-16.352,5.854-26.264,5.854
			c-8.861,0-16.746-1.53-23.653-4.586c-6.908-3.058-12.736-7.252-17.481-12.581c-4.745-5.322-8.36-11.547-10.837-18.664
			c-2.479-7.123-3.718-14.794-3.718-23.023c0-8.227,1.238-15.897,3.718-23.02c2.477-7.119,6.092-13.339,10.837-18.666
			c4.745-5.326,10.573-9.52,17.481-12.579c6.907-3.057,14.792-4.587,23.653-4.587c8.86,0,16.742,1.53,23.651,4.587
			c6.907,3.06,12.737,7.253,17.483,12.579c4.746,5.327,8.356,11.547,10.838,18.666c2.476,7.122,3.719,14.793,3.719,23.02
			c0,8.122-1.188,15.664-3.562,22.627c-2.373,6.957-5.88,13.131-10.521,18.509l13.606,13.133L502.302,201.518z M470.66,143.771
			l11.076,10.758c1.792-3.06,3.084-6.409,3.875-10.048c0.792-3.636,1.188-7.356,1.188-11.153c0-4.214-0.476-8.33-1.425-12.341
			c-0.95-4.003-2.479-7.593-4.588-10.756c-2.11-3.164-4.825-5.698-8.148-7.593c-3.321-1.899-7.356-2.851-12.103-2.851
			s-8.78,0.951-12.103,2.851c-3.323,1.895-6.039,4.429-8.147,7.593c-2.11,3.163-3.639,6.753-4.589,10.756
			c-0.949,4.011-1.423,8.127-1.423,12.341c0,4.223,0.474,8.334,1.423,12.344c0.95,4.008,2.479,7.595,4.589,10.757
			c2.108,3.163,4.824,5.696,8.147,7.594c3.322,1.898,7.356,2.849,12.103,2.849c2.319,0,4.271-0.213,5.854-0.635l-8.859-8.702
			L470.66,143.771z"/>
		<path fill="#1F2437" d="M665.837,143.14c0,16.352-3.931,28.612-11.787,36.782c-7.856,8.176-20.33,12.261-37.415,12.261
			c-17.087,0-29.561-4.085-37.418-12.261c-7.856-8.17-11.787-20.431-11.787-36.782V76.85h29.428v68.03
			c0,7.276,1.477,12.761,4.431,16.454c2.952,3.689,8.068,5.537,15.347,5.537c7.276,0,12.392-1.848,15.347-5.537
			c2.951-3.693,4.428-9.178,4.428-16.454V76.85h29.428V143.14z"/>
		<path fill="#1F2437" d="M746.701,76.85h29.901l42.241,112.959h-30.691l-6.962-20.25h-39.395l-7.12,20.25h-30.217L746.701,76.85z
			 M748.599,147.728h25.631l-12.501-39.553h-0.314L748.599,147.728z"/>
		<path fill="#1F2437" d="M860.793,76.85h30.218l39.237,69.609h0.315V76.85h27.687v112.959h-30.219l-39.235-70.401h-0.315v70.401
			h-27.688V76.85z"/>
		<path fill="#1F2437" d="M1098.527,102.162h-33.698v87.646h-29.427v-87.646h-33.698V76.85h96.823V102.162z"/>
		<path fill="#1F2437" d="M1239.797,143.14c0,16.352-3.932,28.612-11.787,36.782c-7.858,8.176-20.33,12.261-37.415,12.261
			c-17.089,0-29.563-4.085-37.418-12.261c-7.858-8.17-11.786-20.431-11.786-36.782V76.85h29.426v68.03
			c0,7.276,1.478,12.761,4.432,16.454c2.951,3.689,8.068,5.537,15.347,5.537c7.277,0,12.391-1.848,15.345-5.537
			c2.952-3.693,4.43-9.178,4.43-16.454V76.85h29.428V143.14z"/>
		<path fill="#1F2437" d="M1293.154,76.85h43.352l19.459,75.307h0.316l19.459-75.307h43.352v112.959h-27.688v-85.747h-0.316
			l-23.731,85.747h-22.465l-23.73-85.747h-0.319v85.747h-27.687V76.85z"/>
	</g>
</g>
</svg>
