<?xml version="1.0" encoding="utf-8"?>
<!-- Generator: Adobe Illustrator 16.0.0, SVG Export Plug-In . SVG Version: 6.00 Build 0)  -->
<!DOCTYPE svg PUBLIC "-//W3C//DTD SVG 1.1//EN" "http://www.w3.org/Graphics/SVG/1.1/DTD/svg11.dtd">
<svg version="1.1" id="圖層_1" xmlns="http://www.w3.org/2000/svg" xmlns:xlink="http://www.w3.org/1999/xlink" x="0px" y="0px"
	 width="200.207px" height="321.117px" viewBox="0 0 200.207 321.117" enable-background="new 0 0 200.207 321.117"
	 xml:space="preserve">
<g>
	<path fill="#FFFFFF" d="M100.105,0C44.906,0,0,44.906,0,100.102v120.91c0,55.199,44.906,100.105,100.105,100.105
		c55.196,0,100.102-44.906,100.102-100.105v-120.91C200.207,44.906,155.301,0,100.105,0L100.105,0z M188.207,100.102v1.578
		c-25.844,13.586-54.742,21.027-84.105,21.648V89.859c8.469-1.839,14.832-9.386,14.832-18.398V46.367
		c0-9.008-6.363-16.558-14.832-18.398V12.094C150.832,14.191,188.207,52.863,188.207,100.102L188.207,100.102z M96.102,12.094
		v15.879c-8.465,1.84-14.825,9.386-14.825,18.394v25.094c0,9.008,6.36,16.559,14.825,18.398v33.469
		c-29.36-0.621-58.258-8.062-84.102-21.648v-1.575C12,52.863,49.371,14.195,96.102,12.094L96.102,12.094z M100.105,309.117
		C51.523,309.117,12,269.594,12,221.012v-110.34c27.211,13.566,57.48,20.703,88.102,20.703c30.625,0,60.894-7.137,88.105-20.703
		v110.34C188.207,269.594,148.684,309.117,100.105,309.117L100.105,309.117z M100.105,309.117"/>
</g>
</svg>
