<?xml version="1.0" encoding="utf-8"?>
<!-- Generator: Adobe Illustrator 21.1.0, SVG Export Plug-In . SVG Version: 6.00 Build 0)  -->
<svg version="1.1" id="Layer_1" xmlns="http://www.w3.org/2000/svg" xmlns:xlink="http://www.w3.org/1999/xlink" x="0px" y="0px"
	 viewBox="0 0 30 30" style="enable-background:new 0 0 30 30;" xml:space="preserve">
<style type="text/css">
	.st0{fill:#F8B551;}
</style>
<g>
	<path class="st0" d="M25.9,8.8h-3.7l-1.7-4.3H9.5L7.8,8.8H7.2V6.6H4.6v2.2H4.1C3,8.8,2,9.6,2,10.8v12.7c0,1.1,1,2.1,2.1,2.1h21.8
		c1.1,0,2.1-1,2.1-2.1V10.8C28,9.6,27,8.8,25.9,8.8z M5.5,7.4h0.9v1.3H5.5V7.4z M27.1,23.5c0,0.7-0.5,1.2-1.2,1.2H4.1
		c-0.7,0-1.2-0.5-1.2-1.2V10.8c0-0.7,0.5-1.2,1.2-1.2h0.5h2.6h1.1l1.7-4.3h9.8l1.7,4.3h4.2c0.7,0,1.2,0.5,1.2,1.2L27.1,23.5
		L27.1,23.5z"/>
	<path class="st0" d="M15,8.3c-4.3,0-7.8,3.5-7.8,7.8s3.5,7.8,7.8,7.8s7.8-3.5,7.8-7.8S19.3,8.3,15,8.3z M15,23.1
		c-3.8,0-6.9-3.1-6.9-6.9s3.1-6.9,6.9-6.9s6.9,3.1,6.9,6.9S18.8,23.1,15,23.1z"/>
	<path class="st0" d="M15,10.9c-2.9,0-5.2,2.3-5.2,5.2s2.3,5.2,5.2,5.2s5.2-2.3,5.2-5.2C20.2,13.2,17.9,10.9,15,10.9z M15,20.5
		c-2.4,0-4.3-1.9-4.3-4.3s1.9-4.3,4.3-4.3s4.3,1.9,4.3,4.3C19.3,18.5,17.4,20.5,15,20.5z"/>
	<path class="st0" d="M24.5,10.5c-1,0-1.7,0.8-1.7,1.7c0,1,0.8,1.7,1.7,1.7c1,0,1.7-0.8,1.7-1.7C26.3,11.2,25.5,10.5,24.5,10.5z
		 M24.5,13.1c-0.5,0-0.9-0.3-0.9-0.9s0.3-0.9,0.9-0.9s0.9,0.3,0.9,0.9C25.4,12.7,25.1,13.1,24.5,13.1z"/>
</g>
</svg>
