<?xml version="1.0" encoding="utf-8"?>
<!-- Generator: Adobe Illustrator 21.1.0, SVG Export Plug-In . SVG Version: 6.00 Build 0)  -->
<svg version="1.1" id="Layer_1" xmlns="http://www.w3.org/2000/svg" xmlns:xlink="http://www.w3.org/1999/xlink" x="0px" y="0px"
	 viewBox="0 0 128 128" style="enable-background:new 0 0 128 128;" xml:space="preserve">
<style type="text/css">
	.st0{fill:#A0A0A0;}
</style>
<path class="st0" d="M113.5,112.7L84.3,82.3c7.4-7.5,12.1-17.8,12.1-29.1C96.4,30.5,77.9,12,55.2,12S13.9,30.5,13.9,53.2
	s18.5,41.2,41.2,41.2c10,0,19.1-3.6,26.3-9.5l29.2,30.4c0.4,0.4,0.9,0.6,1.4,0.6s1-0.2,1.4-0.5C114.2,114.7,114.3,113.5,113.5,112.7
	z M55.2,90.5c-20.6,0-37.3-16.7-37.3-37.3s16.7-37.3,37.3-37.3s37.3,16.7,37.3,37.3S75.7,90.5,55.2,90.5z"/>
</svg>
