<?xml version="1.0" encoding="utf-8"?>
<!-- Generator: Adobe Illustrator 16.0.0, SVG Export Plug-In . SVG Version: 6.00 Build 0)  -->
<!DOCTYPE svg PUBLIC "-//W3C//DTD SVG 1.1//EN" "http://www.w3.org/Graphics/SVG/1.1/DTD/svg11.dtd">
<svg version="1.1" id="Layer_1" xmlns="http://www.w3.org/2000/svg" xmlns:xlink="http://www.w3.org/1999/xlink" x="0px" y="0px"
	 width="128px" height="128px" viewBox="0 0 128 128" enable-background="new 0 0 128 128" xml:space="preserve">
<g>
	<g>
		<path fill="#F8B551" d="M29.315,25.383C48.213,8.289,76.494,8.027,95.652,23.631l-15.187,0.575
			c-1.96,0.079-3.477,1.699-3.397,3.659c0.078,1.908,1.646,3.398,3.529,3.398c0.053,0,0.077,0,0.131,0l23.313-0.862
			c1.908-0.079,3.397-1.621,3.397-3.529v-0.261c0-0.052,0-0.079,0-0.131v-0.026l0,0L106.577,3.4
			c-0.078-1.96-1.726-3.477-3.658-3.398c-1.961,0.078-3.478,1.699-3.397,3.659l0.549,14.454C90.582,10.354,78.898,5.858,66.404,5.23
			c-15.474-0.784-30.347,4.522-41.82,14.925C8.797,34.453,2.104,56.199,7.124,76.9c0.393,1.621,1.83,2.691,3.424,2.691
			c0.288,0,0.549-0.025,0.837-0.104c1.882-0.471,3.058-2.379,2.587-4.262C9.581,57.036,15.437,37.929,29.315,25.383z"/>
		<path fill="#F8B551" d="M120.876,51.103c-0.47-1.882-2.378-3.058-4.261-2.588c-1.881,0.471-3.059,2.379-2.588,4.261
			c4.418,18.191-1.463,37.299-15.342,49.845c-9.75,8.809-21.982,13.146-34.162,13.146c-11.632,0-23.237-3.947-32.595-11.735
			l15.368-1.386c1.935-0.184,3.372-1.883,3.188-3.842c-0.184-1.961-1.883-3.373-3.842-3.188l-23.236,2.091
			c-1.936,0.184-3.372,1.882-3.188,3.843l2.091,23.236c0.157,1.83,1.698,3.215,3.502,3.215c0.104,0,0.211,0,0.313-0.026
			c1.935-0.183,3.372-1.882,3.188-3.842l-1.254-14.141c9.487,7.685,21.119,12.152,33.533,12.781
			c0.994,0.052,1.987,0.078,2.954,0.078c14.402,0,28.1-5.281,38.867-15.004C119.203,93.551,125.895,71.83,120.876,51.103z"/>
	</g>
</g>
</svg>
