<?xml version="1.0" encoding="utf-8"?>
<!-- Generator: Adobe Illustrator 16.0.0, SVG Export Plug-In . SVG Version: 6.00 Build 0)  -->
<!DOCTYPE svg PUBLIC "-//W3C//DTD SVG 1.1//EN" "http://www.w3.org/Graphics/SVG/1.1/DTD/svg11.dtd">
<svg version="1.1" id="Layer_1" xmlns="http://www.w3.org/2000/svg" xmlns:xlink="http://www.w3.org/1999/xlink" x="0px" y="0px"
	 width="128px" height="128px" viewBox="0 0 128 128" enable-background="new 0 0 128 128" xml:space="preserve">
<g>
	<g>
		<g>
			<path fill="#F8B551" d="M111.285,33.271H33.324c-7.223,0-13.129-5.879-13.129-13.129c0-7.225,5.879-13.129,13.129-13.129h77.986
				c1.951,0,3.508-1.582,3.508-3.508c0-1.95-1.582-3.506-3.508-3.506H33.324C22.226,0,13.182,9.043,13.182,20.143v87.715
				c0,11.1,9.044,20.143,20.143,20.143h77.986c1.951,0,3.508-1.582,3.508-3.506V36.778
				C114.791,34.854,113.236,33.271,111.285,33.271z M107.778,120.986H33.324c-7.223,0-13.129-5.879-13.129-13.129V35.434
				c3.533,3.032,8.12,4.878,13.129,4.878h74.454V120.986L107.778,120.986z"/>
			<path fill="#F8B551" d="M34.432,16.953c-1.951,0-3.506,1.581-3.506,3.506c0,1.924,1.582,3.506,3.506,3.506h65.859
				c1.951,0,3.506-1.582,3.506-3.506c0-1.925-1.582-3.506-3.506-3.506H34.432z"/>
		</g>
	</g>
	<text transform="matrix(1 0 0 1 45.6182 97.6914)" fill="#F8B551" font-family="'ArialRoundedMTBold'" font-size="52.6077">E</text>
</g>
</svg>
