<?xml version="1.0" encoding="utf-8"?>
<!-- Generator: Adobe Illustrator 16.0.0, SVG Export Plug-In . SVG Version: 6.00 Build 0)  -->
<!DOCTYPE svg PUBLIC "-//W3C//DTD SVG 1.1//EN" "http://www.w3.org/Graphics/SVG/1.1/DTD/svg11.dtd">
<svg version="1.1" id="圖層_1" xmlns="http://www.w3.org/2000/svg" xmlns:xlink="http://www.w3.org/1999/xlink" x="0px" y="0px"
	 width="128px" height="128px" viewBox="233.639 356.945 128 128" enable-background="new 233.639 356.945 128 128"
	 xml:space="preserve">
<g>
	<g>
		<path fill="none" d="M323.925,435.29l-1.494-0.398c-0.1,0-0.1,0-0.198,0c-0.399,0-0.699,0.2-0.997,0.499
			c-6.774,7.771-15.143,8.467-23.312,8.467h-0.1h-0.099c-8.169,0-16.538-0.597-23.312-8.367c-0.299-0.298-0.598-0.498-0.996-0.498
			c-0.1,0-0.1,0-0.199,0l-1.494,0.398c-3.687,1.097-7.174,2.789-9.863,5.28c-0.299,0.299-0.597,0.397-0.996,0.498
			c-3.388,3.089-5.878,7.073-7.173,11.556l-5.18,18.031c-0.2,0.896,0,1.495,0.199,1.694c0.398,0.599,0.996,0.896,1.594,0.896h42.639
			h9.663h42.639c0.598,0,1.194-0.2,1.593-0.896c0.2-0.2,0.499-0.896,0.2-1.694l-5.181-18.031c-1.295-4.482-3.885-8.467-7.174-11.556
			c-0.397-0.101-0.696-0.199-0.995-0.498C330.998,438.18,327.612,436.387,323.925,435.29z"/>
		<path fill="none" d="M303.602,388.668c3.188,0.697,6.873,0.996,10.858,0.697c-2.89-0.597-5.578-1.892-7.771-3.885
			C305.794,386.675,304.698,387.771,303.602,388.668z"/>
		<path fill="none" d="M292.046,388.668c-1.195-0.996-2.192-1.993-3.088-3.188c-2.292,1.992-4.981,3.288-7.771,3.885
			C285.172,389.664,288.858,389.365,292.046,388.668z"/>
		<path fill="#F8B551" d="M280.091,412.478c4.285,7.771,10.76,12.95,17.733,12.95l0,0
			C290.851,425.428,284.375,420.249,280.091,412.478z"/>
		<path fill="#F8B551" d="M284.375,394.346c4.981,0,9.563-0.796,13.449-2.39c-2.191-0.896-4.085-1.993-5.778-3.288
			c-3.188,0.697-6.874,0.997-10.859,0.697c-0.996,0.199-2.091,0.299-3.188,0.299c-0.996,0-2.092-0.1-3.089-0.399
			c-0.1,0.698-0.1,1.395-0.1,2.092c0,1.196,0.1,2.392,0.1,3.586c0-0.498-0.1-0.996-0.1-1.494
			C278.198,394.147,281.287,394.346,284.375,394.346z"/>
		<path fill="#F8B551" d="M316.454,410.784c-0.1,0.1-0.1,0.299-0.2,0.398C316.254,411.083,316.354,410.983,316.454,410.784z"/>
		<path fill="#F8B551" d="M317.251,409.09c-0.101,0.299-0.299,0.598-0.398,0.897C316.952,409.688,317.051,409.389,317.251,409.09z"
			/>
		<path fill="#F8B551" d="M279.195,410.784c-0.1-0.299-0.298-0.499-0.398-0.798C278.996,410.286,279.094,410.584,279.195,410.784z"
			/>
		<path fill="#F8B551" d="M315.657,412.378C315.556,412.378,315.556,412.478,315.657,412.378
			C315.556,412.478,315.556,412.378,315.657,412.378z"/>
		<path fill="#F8B551" d="M278.398,409.09c-0.1-0.099-0.1-0.298-0.2-0.398C278.298,408.892,278.398,408.99,278.398,409.09z"/>
		<path fill="#F8B551" d="M275.11,396.538c0-0.299-0.1-0.598-0.1-0.997C275.11,395.94,275.11,396.239,275.11,396.538z"/>
		<path fill="#F8B551" d="M293.64,368.942c0.697-0.099,1.295-0.199,1.993-0.298C294.935,368.743,294.337,368.843,293.64,368.942z"/>
		<path fill="#F8B551" d="M279.992,412.378c-0.199-0.398-0.398-0.697-0.598-1.096C279.594,411.681,279.793,411.98,279.992,412.378z"
			/>
		<path fill="#F8B551" d="M293.541,369.042c-8.368,1.594-15.043,7.671-17.633,15.641c0,0,0,0,0.099,0
			C278.597,376.714,285.272,370.636,293.541,369.042z"/>
		<path fill="#F8B551" d="M320.937,376.016l2.29,4.284c1.495,3.487,2.393,7.272,2.393,11.258c0,3.786-0.399,7.471-1.197,10.958
			c0.798-3.487,1.197-7.172,1.197-10.958c0-14.843-11.458-26.898-26.103-27.795C308.483,364.36,316.254,369.042,320.937,376.016z"/>
		<path fill="#F8B551" d="M296.529,430.309C296.529,430.309,296.429,430.309,296.529,430.309
			C296.429,430.309,296.529,430.309,296.529,430.309z"/>
		<path fill="#F8B551" d="M297.824,430.409c0.399,0,0.897,0,1.296,0C298.721,430.409,298.223,430.409,297.824,430.409
			L297.824,430.409z"/>
		<path fill="#F8B551" d="M271.125,402.416c3.288,15.142,13.25,26.698,24.906,27.795
			C284.674,429.215,274.513,417.459,271.125,402.416z"/>
		<path fill="#F8B551" d="M296.031,363.762h0.1C296.031,363.762,296.031,363.762,296.031,363.762z"/>
		<path fill="#F8B551" d="M299.617,430.309c-0.1,0-0.298,0-0.398,0C299.319,430.309,299.517,430.309,299.617,430.309z"/>
		<path fill="#F8B551" d="M275.31,398.132c0-0.1,0-0.1,0-0.2C275.31,397.933,275.31,398.032,275.31,398.132z"/>
		<path fill="#F8B551" d="M297.824,363.663L297.824,363.663c0.597,0,1.096,0,1.693,0.1
			C299.019,363.663,298.421,363.663,297.824,363.663z"/>
		<path fill="#F8B551" d="M320.339,398.132c-0.599,3.785-1.594,7.372-2.889,10.659C318.745,405.504,319.741,401.917,320.339,398.132
			z"/>
		<path fill="#F8B551" d="M320.539,396.538c-0.101,0.498-0.101,0.896-0.2,1.395C320.339,397.435,320.438,397.036,320.539,396.538z"
			/>
		<path fill="#F8B551" d="M297.824,368.644c-0.697,0-1.395,0-2.091,0.1C296.429,368.644,297.127,368.644,297.824,368.644
			L297.824,368.644z"/>
		<path fill="#F8B551" d="M320.636,395.044c0,0.199,0,0.398-0.098,0.597C320.636,395.442,320.636,395.243,320.636,395.044z"/>
		<path fill="#F8B551" d="M308.085,380.1c-0.896-1.096-2.291-1.394-3.487-0.498c-0.497,0.398-0.696,0.697-0.896,1.195
			c-0.1,0.099-0.1,0.199-0.199,0.398c-1.095,2.292-3.09,4.084-5.679,5.479c1.692,0.896,3.586,1.594,5.778,1.993
			c1.195-0.996,2.191-1.993,3.088-3.188c2.291,1.992,4.981,3.288,7.771,3.885c1.992-0.099,3.985-0.398,6.076-0.796
			c-0.198-1.396-0.496-2.69-0.896-3.985C315.357,385.48,310.775,383.787,308.085,380.1z"/>
		<path fill="#F8B551" d="M299.916,368.743C299.916,368.743,300.015,368.743,299.916,368.743
			C300.015,368.743,299.916,368.743,299.916,368.743z"/>
		<path fill="#F8B551" d="M302.009,368.942C302.009,369.042,302.107,369.042,302.009,368.942
			C302.107,369.042,302.009,369.042,302.009,368.942z"/>
		<path fill="#F8B551" d="M317.649,432.203c1.096-1.296,2.689-2.092,4.283-2.192c-1.892,0-3.687,0.797-4.882,2.192
			c-5.279,6.077-12.055,6.674-19.227,6.674c0.1,0,0.199,0,0.299,0C305.297,438.877,312.269,438.379,317.649,432.203z"/>
		<path fill="#F8B551" d="M297.725,443.857C297.725,443.857,297.824,443.857,297.725,443.857c-7.97,0-16.339-0.597-23.113-8.367
			c0,0,0-0.1-0.099-0.1c-0.2-0.198-0.698-0.398-0.996-0.398c0.398,0,0.697,0.2,0.996,0.498
			C281.187,443.161,289.555,443.857,297.725,443.857z"/>
		<path fill="#F8B551" d="M290.552,475.738c0-1.396,1.097-2.492,2.49-2.492h-42.638c-0.598,0-1.195-0.197-1.593-0.896
			c-0.2-0.2-0.499-0.896-0.2-1.693l5.181-18.031c1.295-4.484,3.885-8.469,7.172-11.557c-0.896,0.199-1.892,0-2.49-0.698
			c-0.896-0.994-0.697-2.589,0.2-3.486c3.288-2.988,7.372-5.081,11.955-6.275l1.494-0.398c0.499-0.1,0.997-0.2,1.495-0.2
			c-0.697,0-1.295,0-1.992,0.2l-1.495,0.398c-10.162,2.69-18.231,10.659-21.22,20.82l-2.091,7.173l-1.495,4.981l-1.693,5.778
			c-0.598,2.091-0.2,4.282,1.095,6.076c1.395,1.694,3.487,2.789,5.679,2.789h42.638
			C291.648,478.228,290.552,477.133,290.552,475.738z"/>
		<path fill="#F8B551" d="M322.63,434.892c-0.099,0-0.299,0-0.397,0c0.099,0,0.099,0,0.198,0l1.495,0.398
			c3.687,1.097,7.173,2.791,9.862,5.281c0.299,0.298,0.598,0.398,0.996,0.497c-2.988-2.689-6.575-4.78-10.66-5.778L322.63,434.892z"
			/>
		<path fill="#F8B551" d="M299.617,430.309c11.656-1.094,21.618-12.651,24.906-27.793
			C321.135,417.459,310.974,429.215,299.617,430.309z"/>
		<path fill="#F8B551" d="M296.429,430.309c-0.1,0-0.299,0-0.399,0C296.131,430.309,296.33,430.309,296.429,430.309z"/>
		<path fill="#F8B551" d="M299.219,430.309C299.219,430.309,299.12,430.309,299.219,430.309
			C299.12,430.309,299.219,430.309,299.219,430.309z"/>
		<path fill="#F8B551" d="M297.824,363.663c-0.598,0-1.096,0-1.693,0.1C296.629,363.663,297.226,363.663,297.824,363.663
			L297.824,363.663z"/>
		<path fill="#F8B551" d="M297.824,430.409L297.824,430.409c-0.398,0-0.896,0-1.295,0
			C296.927,430.409,297.326,430.409,297.824,430.409z"/>
		<path fill="#F8B551" d="M299.517,363.762h0.1C299.617,363.762,299.617,363.762,299.517,363.762z"/>
		<path fill="#F8B551" d="M270.03,391.557c0-3.985,0.896-7.771,2.391-11.258l2.292-4.284c4.682-6.874,12.453-11.655,21.319-12.253
			C281.386,364.659,269.93,376.714,270.03,391.557c-0.1,3.786,0.399,7.471,1.196,10.958
			C270.428,398.929,270.03,395.343,270.03,391.557z"/>
		<path fill="#F8B551" d="M280.091,412.478C280.091,412.478,280.091,412.378,280.091,412.478
			C280.091,412.378,280.091,412.478,280.091,412.478z"/>
		<path fill="#F8B551" d="M316.154,411.282c-0.198,0.399-0.398,0.698-0.598,1.096C315.856,411.98,316.055,411.681,316.154,411.282z"
			/>
		<path fill="#F8B551" d="M279.493,411.282c-0.1-0.099-0.1-0.298-0.199-0.398C279.295,410.983,279.394,411.083,279.493,411.282z"/>
		<path fill="#F8B551" d="M278.797,409.986c-0.1-0.298-0.299-0.597-0.399-0.896C278.597,409.389,278.697,409.688,278.797,409.986z"
			/>
		<path fill="#F8B551" d="M297.824,425.428L297.824,425.428c6.974,0,13.449-5.18,17.732-12.95
			C311.273,420.249,304.798,425.428,297.824,425.428z"/>
		<path fill="#F8B551" d="M275.31,397.933c-0.1-0.498-0.1-0.896-0.2-1.395C275.21,397.036,275.31,397.435,275.31,397.933z"/>
		<path fill="#F8B551" d="M275.01,395.641c0-0.199,0-0.398-0.1-0.597C275.01,395.243,275.01,395.442,275.01,395.641z"/>
		<path fill="#F8B551" d="M278.298,408.692c-1.395-3.288-2.391-6.875-2.889-10.66C275.907,401.917,276.904,405.504,278.298,408.692z
			"/>
		<path fill="#F8B551" d="M320.339,397.933c0,0.1,0,0.1,0,0.2C320.339,398.032,320.339,397.933,320.339,397.933z"/>
		<path fill="#F8B551" d="M317.349,408.692c-0.099,0.099-0.099,0.298-0.199,0.398C317.251,408.99,317.349,408.892,317.349,408.692z"
			/>
		<path fill="#F8B551" d="M316.852,409.986c-0.1,0.299-0.3,0.499-0.398,0.798C316.552,410.584,316.652,410.286,316.852,409.986z"/>
		<path fill="#F8B551" d="M320.636,395.641c0,0.299-0.098,0.598-0.098,0.996C320.539,396.239,320.539,395.94,320.636,395.641z"/>
		<path fill="#F8B551" d="M319.641,384.683C319.641,384.583,319.641,384.583,319.641,384.683
			c-2.491-7.969-9.166-14.047-17.534-15.641C310.377,370.636,317.051,376.714,319.641,384.683z"/>
		<path fill="#F8B551" d="M293.541,369.042C293.541,369.042,293.64,369.042,293.541,369.042
			C293.64,369.042,293.541,369.042,293.541,369.042z"/>
		<path fill="#F8B551" d="M300.015,368.743c0.698,0.1,1.296,0.199,1.992,0.299C301.311,368.843,300.714,368.743,300.015,368.743z"/>
		<path fill="#F8B551" d="M295.733,368.743C295.733,368.743,295.633,368.743,295.733,368.743
			C295.633,368.743,295.733,368.743,295.733,368.743z"/>
		<path fill="#F8B551" d="M297.824,368.644L297.824,368.644c0.697,0,1.395,0,2.092,0.1
			C299.219,368.644,298.521,368.644,297.824,368.644z"/>
		<path fill="#F8B551" d="M274.712,376.016l-2.292,4.284c-1.495,3.487-2.392,7.272-2.392,11.258c0,3.786,0.399,7.471,1.196,10.958
			c3.387,15.042,13.449,26.7,24.906,27.793c0.099,0,0.299,0,0.398,0c0,0,0,0,0.1,0c0.398,0,0.896,0,1.295,0s0.896,0,1.295,0
			c0,0,0,0,0.101,0c0.099,0,0.298,0,0.397,0c11.356-1.094,21.519-12.85,24.904-27.793c0.799-3.487,1.197-7.172,1.197-10.958
			c0-3.985-0.896-7.771-2.391-11.258l-2.292-4.284c-4.882-6.973-12.652-11.655-21.519-12.253h-0.101c-0.597,0-1.194-0.1-1.692-0.1
			c-0.598,0-1.195,0-1.693,0.1h-0.1C287.164,364.36,279.394,369.042,274.712,376.016z M297.824,368.644L297.824,368.644
			L297.824,368.644c0.797,0,1.495,0,2.092,0.1h0.1c0.698,0.1,1.296,0.199,1.992,0.299c0,0,0,0,0.1,0
			c8.368,1.594,15.043,7.671,17.633,15.641c0,0,0,0-0.099,0c0.399,1.295,0.697,2.59,0.896,3.984
			c-2.091,0.399-4.084,0.697-6.076,0.797c0.997,0.199,2.092,0.299,3.188,0.299c0.995,0,2.091-0.1,3.088-0.399
			c0.1,0.698,0.1,1.395,0.1,2.092c0,1.195-0.1,2.391-0.1,3.586c0,0.199,0,0.398-0.101,0.598c0,0.299-0.1,0.598-0.1,0.997
			c-0.099,0.498-0.099,0.896-0.198,1.395c0,0.1,0,0.1,0,0.199c-0.599,3.786-1.594,7.372-2.889,10.66
			c-0.101,0.1-0.101,0.299-0.199,0.398c-0.101,0.299-0.299,0.599-0.399,0.897c-0.099,0.298-0.299,0.498-0.398,0.797
			c-0.099,0.099-0.099,0.298-0.199,0.398c-0.2,0.398-0.397,0.698-0.598,1.096c0,0,0,0.1-0.1,0.1
			c-4.283,7.771-10.759,12.952-17.732,12.952l0,0l0,0c-6.974,0-13.45-5.181-17.733-12.952c0,0,0-0.1-0.099-0.1
			c-0.199-0.398-0.399-0.698-0.598-1.096c-0.099-0.1-0.099-0.299-0.199-0.398c-0.1-0.299-0.298-0.498-0.398-0.797
			c-0.1-0.299-0.299-0.598-0.399-0.897c-0.1-0.099-0.1-0.298-0.2-0.398c-1.395-3.288-2.391-6.874-2.889-10.66
			c0-0.099,0-0.099,0-0.199c-0.099-0.499-0.099-0.897-0.199-1.395c0-0.299-0.1-0.598-0.1-0.997c0-0.199,0-0.398-0.099-0.598
			c-0.1-1.195-0.1-2.391-0.1-3.586c0-0.697,0-1.395,0.1-2.092c0.996,0.2,2.092,0.399,3.089,0.399c1.095,0,2.091-0.1,3.188-0.299
			c-1.993-0.1-3.985-0.398-6.077-0.797c0.2-1.395,0.498-2.689,0.897-3.984c0,0,0,0-0.099,0c2.49-7.97,9.265-14.047,17.633-15.641
			c0,0,0,0,0.1,0c0.697-0.1,1.294-0.199,1.993-0.299h0.099C296.429,368.644,297.127,368.644,297.824,368.644z"/>
		<path fill="#F8B551" d="M297.824,392.055c2.192-0.896,4.085-1.992,5.778-3.288c-2.093-0.499-4.085-1.196-5.778-1.992
			c-1.693,0.896-3.586,1.593-5.778,1.992C293.739,390.063,295.633,391.159,297.824,392.055z"/>
		<path fill="#F8B551" d="M352.018,469.362l-1.693-5.778l-1.495-4.981l-2.091-7.173c-2.99-10.261-11.059-18.132-21.319-20.82
			l-1.494-0.398c-0.598-0.2-1.296-0.2-1.993-0.2c0.498,0,0.997,0.101,1.495,0.2l1.494,0.398c4.583,1.194,8.667,3.287,11.954,6.274
			c0.997,0.897,1.097,2.491,0.2,3.487c-0.599,0.697-1.594,0.998-2.49,0.697c3.387,3.089,5.877,7.073,7.172,11.557l5.181,18.032
			c0.2,0.896,0,1.493-0.199,1.692c-0.399,0.599-0.996,0.896-1.594,0.896h-42.439c1.395,0,2.49,1.097,2.49,2.491
			c0,1.396-1.096,2.49-2.49,2.49h42.638c2.192,0,4.285-1.095,5.679-2.79C352.318,473.645,352.717,471.453,352.018,469.362z"/>
		<path fill="#F8B551" d="M321.235,435.391c0.298-0.299,0.599-0.499,0.997-0.499c-0.398,0-0.797,0.2-0.997,0.398
			c-0.1,0-0.1,0.101-0.1,0.101c-6.874,7.771-15.242,8.467-23.312,8.467h0.1C306.093,443.857,314.461,443.161,321.235,435.391z"/>
		<path fill="#F8B551" d="M278,432.203c5.379,6.176,12.353,6.674,19.526,6.674c0.099,0,0.199,0,0.298,0
			c-7.173,0-13.947-0.597-19.227-6.674c-1.195-1.396-2.988-2.192-4.881-2.192C275.31,430.211,276.904,430.907,278,432.203z"/>
		<path fill="#F8B551" d="M271.723,435.29l1.494-0.398c0.099,0,0.099,0,0.199,0c-0.1,0-0.299,0-0.398,0l-1.495,0.398
			c-4.084,0.998-7.671,3.089-10.659,5.778c0.398-0.099,0.697-0.199,0.996-0.497C264.65,438.18,268.037,436.387,271.723,435.29z"/>
		<path fill="#F8B551" d="M270.628,430.609c-4.583,1.194-8.667,3.287-11.955,6.274c-0.997,0.897-1.096,2.491-0.2,3.487
			c0.598,0.697,1.594,0.998,2.49,0.697c2.989-2.689,6.575-4.78,10.66-5.778l1.494-0.398c0.1,0,0.299,0,0.399,0
			c0.398,0,0.796,0.2,0.996,0.398c0.1,0,0.1,0.101,0.1,0.101c6.774,7.771,15.142,8.467,23.211,8.467s16.438-0.597,23.213-8.367
			c0,0,0-0.1,0.1-0.1c0.198-0.199,0.697-0.398,0.995-0.398c0.101,0,0.299,0,0.399,0l1.495,0.398
			c4.084,0.996,7.67,3.088,10.659,5.778c0.896,0.2,1.893,0,2.49-0.697c0.897-0.997,0.697-2.591-0.2-3.487
			c-3.287-2.989-7.371-5.081-11.954-6.276l-1.494-0.399c-0.498-0.098-0.996-0.197-1.494-0.197c-1.595,0.1-3.188,0.896-4.284,2.189
			c-5.479,6.078-12.452,6.576-19.626,6.576c-0.1,0-0.199,0-0.299,0c-0.099,0-0.199,0-0.298,0c-7.173,0-14.047-0.498-19.526-6.674
			c-1.096-1.296-2.69-2.092-4.284-2.192c-0.498,0-0.996,0.101-1.494,0.2L270.628,430.609z"/>
		<path fill="#F8B551" d="M305.096,475.738c0-1.396-1.096-2.492-2.49-2.492h-9.663c-1.395,0-2.491,1.097-2.491,2.492
			c0,1.395,1.096,2.489,2.491,2.489h9.663C304.001,478.228,305.096,477.133,305.096,475.738z"/>
	</g>
	<g>
		<g>
			<path fill="#F8B551" d="M264.252,425.428c-0.299,0-0.598-0.099-0.896-0.197c-6.376-3.189-9.465-11.757-9.465-25.903
				c0-10.261,8.369-18.629,18.63-18.629c1.096,0,1.993,0.896,1.993,1.993c0,1.095-0.897,1.992-1.993,1.992
				c-8.069,0-14.645,6.575-14.645,14.645c0,12.452,2.391,19.924,7.272,22.415c0.996,0.498,1.395,1.693,0.896,2.69
				C265.646,425.03,264.949,425.428,264.252,425.428z"/>
			<path fill="#F8B551" d="M248.511,459.101h-10.959c-0.797,0-1.594-0.299-2.191-0.896c-0.598-0.599-1.096-1.594-0.797-2.79
				l3.786-13.549c3.387-11.256,10.659-17.732,23.511-20.721l0,0c0,0,0.1,0,0.1-0.099c0.996-0.499,2.191-0.1,2.689,0.897
				c0.498,0.995,0.099,2.19-0.897,2.689c-0.199,0.1-0.597,0.398-1.095,0.398c-11.357,2.69-17.434,8.069-20.423,18.031l-3.487,12.054
				h9.763c1.096,0,1.993,0.896,1.993,1.992C250.504,458.204,249.608,459.101,248.511,459.101z M262.259,421.045L262.259,421.045
				L262.259,421.045z"/>
		</g>
		<g>
			<path fill="#F8B551" d="M331.397,425.428c-0.698,0-1.395-0.397-1.793-1.096c-0.498-0.996-0.1-2.191,0.896-2.688
				c4.781-2.491,7.271-9.963,7.271-22.416c0-8.069-6.575-14.645-14.645-14.645c-1.095,0-1.992-0.896-1.992-1.992
				c0-1.095,0.897-1.992,1.992-1.992c10.262,0,18.629,8.368,18.629,18.629c0,14.246-3.087,22.714-9.464,25.902
				C331.995,425.329,331.696,425.428,331.397,425.428z"/>
			<path fill="#F8B551" d="M358.095,459.101h-10.958c-1.096,0-1.992-0.896-1.992-1.993c0-1.096,0.896-1.992,1.992-1.992h9.763
				l-3.387-12.054c-2.989-9.862-9.066-15.243-20.423-17.932c-0.497-0.1-0.897-0.299-1.096-0.398
				c-0.997-0.499-1.395-1.694-0.896-2.69c0.498-0.997,1.692-1.395,2.689-0.896c0,0,0.099,0,0.099,0.1l0,0
				c12.853,2.988,20.124,9.463,23.511,20.72l3.786,13.449c0.299,1.295-0.2,2.292-0.697,2.891
				C359.69,458.802,358.992,459.101,358.095,459.101z M333.389,421.045L333.389,421.045L333.389,421.045z"/>
		</g>
	</g>
	<path fill="#F8B551" d="M297.824,377.71"/>
</g>
</svg>
