<?xml version="1.0" encoding="utf-8"?>
<!-- Generator: Adobe Illustrator 21.1.0, SVG Export Plug-In . SVG Version: 6.00 Build 0)  -->
<svg version="1.1" id="Layer_1" xmlns="http://www.w3.org/2000/svg" xmlns:xlink="http://www.w3.org/1999/xlink" x="0px" y="0px"
	 viewBox="0 0 128 128" style="enable-background:new 0 0 128 128;" xml:space="preserve">
<style type="text/css">
	.st0{fill:none;stroke:#F8B551;stroke-width:4;stroke-miterlimit:10;}
	.st1{fill:#F8B551;}
</style>
<path class="st0" d="M120.4,45.1c-1.4-1.1-3.3-1.5-5.1-1.1l-14.1,4.8v-4.9c0-5.7-4.7-10.4-10.4-10.4H17.7c-5.7,0-10.4,4.7-10.4,10.4
	v40.3c0,5.7,4.7,10.4,10.4,10.4h73.2c5.7,0,10.4-4.7,10.4-10.4v-4.4l14.1,4.3c0.5,0.1,1,0.2,1.4,0.2c1.3,0,2.6-0.4,3.6-1.3
	c1.4-1.1,2.3-2.8,2.3-4.7V49.7C122.7,47.9,121.9,46.2,120.4,45.1z"/>
<circle class="st1" cx="85.2" cy="46.4" r="4.9"/>
<polygon class="st1" points="33.5,78.8 19.1,78.8 19.1,55.8 24.4,55.8 24.4,74.4 33.5,74.4 "/>
<rect x="38.3" y="55.8" class="st1" width="5.2" height="23"/>
<path class="st1" d="M62.1,78.8H56l-7.4-23h5.7l2.8,9.7c0.8,2.7,1.5,5.4,2.1,8.2h0.1c0.6-2.8,1.3-5.5,2.1-8.1l2.9-9.8h5.5L62.1,78.8
	z"/>
<polygon class="st1" points="89.6,78.8 74.9,78.8 74.9,55.8 89.1,55.8 89.1,60.1 80.1,60.1 80.1,64.8 88.6,64.8 88.6,69.1 
	80.1,69.1 80.1,74.5 89.6,74.5 89.6,78.8 "/>
</svg>
