<?xml version="1.0" encoding="utf-8"?>
<!-- Generator: Adobe Illustrator 21.1.0, SVG Export Plug-In . SVG Version: 6.00 Build 0)  -->
<svg version="1.1" id="Layer_1" xmlns="http://www.w3.org/2000/svg" xmlns:xlink="http://www.w3.org/1999/xlink" x="0px" y="0px"
	 viewBox="0 0 30 180" style="enable-background:new 0 0 30 180;" xml:space="preserve">
<style type="text/css">
	.st0{fill:#F8B551;}
	.st1{fill:#A0A0A0;}
</style>
<g>
	<path class="st0" d="M25.3,39.1h-3.5L20.2,35H9.8l-1.6,4.1H7.6V37H5.1v2.1H4.7c-1,0-2,0.8-2,1.9v12c0,1,0.9,2,2,2h20.7
		c1,0,2-0.9,2-2V41C27.3,39.8,26.4,39.1,25.3,39.1z M6,37.7h0.9V39H6V37.7z M26.5,53c0,0.7-0.5,1.1-1.1,1.1H4.7
		c-0.7,0-1.1-0.5-1.1-1.1V41c0-0.7,0.5-1.1,1.1-1.1h0.5h2.5h1l1.6-4.1h9.3l1.6,4.1h4c0.7,0,1.1,0.5,1.1,1.1L26.5,53L26.5,53z"/>
	<path class="st0" d="M15,38.6c-4.1,0-7.4,3.3-7.4,7.4s3.3,7.4,7.4,7.4s7.4-3.3,7.4-7.4S19.1,38.6,15,38.6z M15,52.6
		c-3.6,0-6.5-2.9-6.5-6.5c0-3.6,2.9-6.5,6.5-6.5s6.5,2.9,6.5,6.5C21.5,49.7,18.6,52.6,15,52.6z"/>
	<path class="st0" d="M15,41.1c-2.7,0-4.9,2.2-4.9,4.9s2.2,4.9,4.9,4.9s4.9-2.2,4.9-4.9C19.9,43.2,17.7,41.1,15,41.1z M15,50.2
		c-2.3,0-4.1-1.8-4.1-4.1c0-2.3,1.8-4.1,4.1-4.1s4.1,1.8,4.1,4.1C19.1,48.3,17.3,50.2,15,50.2z"/>
	<path class="st0" d="M24,40.7c-0.9,0-1.6,0.8-1.6,1.6c0,0.9,0.8,1.6,1.6,1.6c0.9,0,1.6-0.8,1.6-1.6C25.7,41.4,25,40.7,24,40.7z
		 M24,43.2c-0.5,0-0.9-0.3-0.9-0.9c0-0.6,0.3-0.9,0.9-0.9c0.6,0,0.9,0.3,0.9,0.9C24.9,42.8,24.6,43.2,24,43.2z"/>
</g>
<g>
	<path class="st1" d="M25.3,9.1h-3.5L20.2,5H9.9L8.3,9.1H7.7V7H5.2v2H4.7c-1,0-1.9,0.8-1.9,1.9v12c0,1,0.9,1.9,1.9,1.9h20.6
		c1,0,1.9-0.9,1.9-1.9V11C27.2,9.9,26.3,9.1,25.3,9.1z M6,7.9h0.8v1.2H6V7.9z M26.4,23c0,0.6-0.5,1.1-1.1,1.1H4.7
		c-0.6,0-1.1-0.5-1.1-1.1V11c0-0.6,0.5-1.1,1.1-1.1h0.5h2.4h1l1.6-4.1h9.2l1.6,4.1h4.1c0.6,0,1.1,0.5,1.1,1.1L26.4,23L26.4,23z"/>
	<path class="st1" d="M15,8.7c-4.1,0-7.3,3.3-7.3,7.3s3.3,7.3,7.3,7.3s7.3-3.3,7.3-7.3S19.1,8.7,15,8.7z M15,22.6
		c-3.6,0-6.5-3-6.5-6.5s3-6.5,6.5-6.5s6.5,3,6.5,6.5S18.6,22.6,15,22.6z"/>
	<path class="st1" d="M15,11.1c-2.7,0-4.9,2.2-4.9,4.9s2.2,4.9,4.9,4.9s4.9-2.2,4.9-4.9C19.9,13.3,17.7,11.1,15,11.1z M15,20.1
		c-2.2,0-4.1-1.8-4.1-4.1s1.8-4.1,4.1-4.1s4.1,1.8,4.1,4.1C19.1,18.3,17.2,20.1,15,20.1z"/>
	<path class="st1" d="M24,10.7c-0.9,0-1.6,0.7-1.6,1.6c0,0.9,0.7,1.6,1.6,1.6c0.9,0,1.6-0.7,1.6-1.6C25.6,11.4,24.9,10.7,24,10.7z
		 M24,13.2c-0.5,0-0.8-0.3-0.8-0.8s0.3-0.8,0.8-0.8c0.5,0,0.8,0.3,0.8,0.8C24.8,12.8,24.5,13.2,24,13.2z"/>
</g>
<g>
	<g>
		<g>
			<path class="st1" d="M19.1,67.4c-0.8,0-1.4,0.6-1.4,1.4c0,0.8,0.6,1.4,1.4,1.4s1.4-0.6,1.4-1.4C20.5,68,19.9,67.4,19.1,67.4z
				 M19.1,69.2c-0.3,0-0.5-0.2-0.5-0.5c0-0.3,0.2-0.5,0.5-0.5s0.5,0.2,0.5,0.5C19.6,69,19.4,69.2,19.1,69.2z"/>
		</g>
	</g>
	<g>
		<g>
			<path class="st1" d="M29.3,68.4c-0.4-0.3-1-0.4-1.5-0.3L24.4,69c-0.3,0.1-0.4,0.3-0.3,0.6s0.3,0.4,0.6,0.3l3.4-0.9
				c0.2-0.1,0.5,0,0.7,0.1s0.3,0.4,0.3,0.6V78c0,0.2-0.1,0.5-0.3,0.6c-0.2,0.1-0.4,0.2-0.7,0.1l-5.2-1.3v-7.5V68c0-1.7-1.4-3-3-3H3
				c-1.6,0-3,1.4-3,3v11.7c0,1.7,1.4,3,3,3h0.1v1.1c0,0.6,0.5,1.2,1.2,1.2h13.3c0.6,0,1.2-0.5,1.2-1.2v-1.1H20c1.7,0,3-1.4,3-3v-1.3
				l5,1.2c0.1,0,0.3,0.1,0.4,0.1c0.4,0,0.7-0.1,1.1-0.4C29.8,79,30,78.5,30,78v-8.3C30,69.2,29.8,68.7,29.3,68.4z M19.9,81.8h-1.7
				H7.6c-0.3,0-0.5,0.2-0.5,0.5c0,0.3,0.2,0.5,0.5,0.5h10.2v1.1c0,0.1-0.1,0.2-0.2,0.2H4.2C4.1,84.1,4,84,4,83.9v-1.1h1h0.4
				c0.3,0,0.5-0.2,0.5-0.5c0-0.3-0.2-0.5-0.5-0.5H5.1H3.5H3c-1.1,0-2.1-0.9-2.1-2.1V68c0-1.1,0.9-2.1,2.1-2.1h16.9
				c1.1,0,2.1,1,2.1,2.1v1.9v7.9v1.9l0,0C22,80.9,21,81.8,19.9,81.8z"/>
		</g>
	</g>
</g>
<g>
	<g>
		<g>
			<path class="st0" d="M19.1,97.4c-0.8,0-1.4,0.6-1.4,1.4c0,0.8,0.6,1.4,1.4,1.4s1.4-0.6,1.4-1.4C20.5,98,19.9,97.4,19.1,97.4z
				 M19.1,99.2c-0.3,0-0.5-0.2-0.5-0.5c0-0.3,0.2-0.5,0.5-0.5s0.5,0.2,0.5,0.5C19.6,99,19.4,99.2,19.1,99.2z"/>
		</g>
	</g>
	<g>
		<g>
			<path class="st0" d="M29.3,98.4c-0.4-0.3-1-0.4-1.5-0.3L24.4,99c-0.3,0.1-0.4,0.3-0.3,0.6s0.3,0.4,0.6,0.3l3.4-0.9
				c0.2-0.1,0.5,0,0.7,0.1s0.3,0.4,0.3,0.6v8.3c0,0.2-0.1,0.5-0.3,0.6c-0.2,0.1-0.4,0.2-0.7,0.1l-5.2-1.3v-7.5V98c0-1.7-1.4-3-3-3H3
				c-1.6,0-3,1.4-3,3v11.7c0,1.7,1.4,3,3,3h0.1v1.1c0,0.6,0.5,1.2,1.2,1.2h13.3c0.6,0,1.2-0.5,1.2-1.2v-1.1H20c1.7,0,3-1.4,3-3v-1.3
				l5,1.2c0.1,0,0.3,0.1,0.4,0.1c0.4,0,0.7-0.1,1.1-0.4c0.3-0.3,0.5-0.8,0.5-1.3v-8.3C30,99.2,29.8,98.7,29.3,98.4z M19.9,111.8
				h-1.7H7.6c-0.3,0-0.5,0.2-0.5,0.5c0,0.3,0.2,0.5,0.5,0.5h10.2v1.1c0,0.1-0.1,0.2-0.2,0.2H4.2c-0.1,0-0.2-0.1-0.2-0.2v-1.1h1h0.4
				c0.3,0,0.5-0.2,0.5-0.5c0-0.3-0.2-0.5-0.5-0.5H5.1H3.5H3c-1.1,0-2.1-0.9-2.1-2.1V98c0-1.1,0.9-2.1,2.1-2.1h16.9
				c1.1,0,2.1,1,2.1,2.1v1.9v7.9v1.9l0,0C22,110.9,21,111.8,19.9,111.8z"/>
		</g>
	</g>
</g>
<g>
	<g>
		<g>
			<path class="st1" d="M3.1,126.5l0.4,6.1c0.1,1.2,0.6,2.2,1.5,3l11.5,10c0.6,0.5,1.3,0.7,2,0.7c0.7-0.1,1.5-0.4,1.9-0.9l5.9-6.8
				c0.5-0.6,0.7-1.3,0.7-2c-0.1-0.7-0.4-1.5-0.9-1.9l-11.6-10c-0.9-0.8-2-1.1-3.2-1.1l-6,0.5C4,124.2,3,125.2,3.1,126.5z
				 M11.5,124.5c0.8-0.1,1.8,0.3,2.5,0.8l11.4,10c0.7,0.6,0.8,1.9,0.2,2.6l-5.9,6.8c-0.3,0.4-0.8,0.6-1.3,0.6s-0.9-0.2-1.4-0.5
				l-11.4-9.9c-0.7-0.6-1.1-1.5-1.1-2.3L4,126.5c-0.1-0.9,0.5-1.6,1.4-1.6L11.5,124.5L11.5,124.5z"/>
		</g>
	</g>
	<g>
		<g>
			<path class="st1" d="M6.1,129.2c0.1,1.4,1.3,2.3,2.6,2.2c1.4-0.1,2.3-1.3,2.2-2.6c-0.1-1.3-1.2-2.4-2.6-2.3
				C7,126.8,6,127.9,6.1,129.2z M10,128.9c0.1,0.8-0.6,1.5-1.4,1.6c-0.8,0-1.5-0.6-1.5-1.4c-0.1-0.8,0.6-1.5,1.3-1.5
				C9.3,127.7,9.9,128.1,10,128.9z"/>
		</g>
	</g>
</g>
<g>
	<g>
		<g>
			<path class="st0" d="M3.1,156.6l0.4,6.1c0.1,1.2,0.6,2.2,1.5,3l11.5,10c0.6,0.5,1.3,0.7,2,0.7c0.7-0.1,1.5-0.4,1.9-0.9l5.9-6.8
				c0.5-0.6,0.7-1.3,0.7-2c-0.1-0.7-0.4-1.5-0.9-1.9l-11.6-10c-0.9-0.8-2-1.1-3.2-1.1l-6,0.5C4,154.1,3,155.2,3.1,156.6z
				 M11.5,154.6c0.8-0.1,1.8,0.3,2.5,0.8l11.4,10c0.7,0.6,0.8,1.9,0.2,2.6l-5.9,6.8c-0.3,0.4-0.8,0.6-1.3,0.6s-0.9-0.2-1.4-0.5
				l-11.4-9.9c-0.7-0.6-1.1-1.5-1.1-2.3L4,156.6c-0.1-0.9,0.5-1.6,1.4-1.6L11.5,154.6L11.5,154.6z"/>
		</g>
	</g>
	<g>
		<g>
			<path class="st0" d="M6.1,159.2c0.1,1.4,1.3,2.3,2.6,2.2c1.4-0.1,2.3-1.3,2.2-2.6c-0.1-1.3-1.2-2.4-2.6-2.3
				C7,156.8,6,157.9,6.1,159.2z M10,158.9c0.1,0.8-0.6,1.5-1.4,1.6c-0.8,0-1.5-0.6-1.5-1.4c-0.1-0.8,0.6-1.5,1.3-1.5
				C9.3,157.6,9.9,158.1,10,158.9z"/>
		</g>
	</g>
</g>
</svg>
