<?xml version="1.0" encoding="utf-8"?>
<!-- Generator: Adobe Illustrator 21.1.0, SVG Export Plug-In . SVG Version: 6.00 Build 0)  -->
<svg version="1.1" id="Layer_1" xmlns="http://www.w3.org/2000/svg" xmlns:xlink="http://www.w3.org/1999/xlink" x="0px" y="0px"
	 viewBox="0 0 30 30" style="enable-background:new 0 0 30 30;" xml:space="preserve">
<style type="text/css">
	.st0{fill:#FBB03B;}
</style>
<path class="st0" d="M26.7,3.3h-1v2h-2.9v-2H7.2v2H4.3v-2h-1c-0.5,0-1,0.4-1,1v21.5c0,0.5,0.4,1,1,1h1v-1h2.9v1h15.6v-1h2.9v1h1
	c0.5,0,1-0.4,1-1V4.3C27.7,3.7,27.3,3.3,26.7,3.3z M7.2,22.8H4.3v-2.9h2.9C7.2,19.9,7.2,22.8,7.2,22.8z M7.2,17H4.3v-3h2.9
	C7.2,14,7.2,17,7.2,17z M7.2,11.1H4.3V8.2h2.9C7.2,8.2,7.2,11.1,7.2,11.1z M14.9,20.6c-1.7,0-2.9-0.7-3.7-1.5l1-1.4
	c0.6,0.6,1.4,1.1,2.4,1.1c1.1,0,1.9-0.7,1.9-2s-0.7-2-1.9-2c-0.7,0-1,0.2-1.6,0.6l-1-0.7l0.3-5.3h5.9v1.8h-4L14,13.5
	c0.4-0.2,0.8-0.3,1.3-0.3c1.8,0,3.4,1.1,3.4,3.5C18.8,19.2,17,20.6,14.9,20.6z M25.7,22.8h-2.9v-2.9h2.9V22.8z M25.7,17h-2.9v-3h2.9
	V17z M25.7,11.1h-2.9V8.2h2.9V11.1z"/>
</svg>
