<?xml version="1.0" encoding="utf-8"?>
<!-- Generator: Adobe Illustrator 21.1.0, SVG Export Plug-In . SVG Version: 6.00 Build 0)  -->
<svg version="1.1" id="圖層_1" xmlns="http://www.w3.org/2000/svg" xmlns:xlink="http://www.w3.org/1999/xlink" x="0px" y="0px"
	 viewBox="0 0 107.7 30" style="enable-background:new 0 0 107.7 30;" xml:space="preserve">
<style type="text/css">
	.st0{fill:#FFFFFF;}
</style>
<g>
	<path class="st0" d="M4.7,0.4C4.3,0.1,3.6,0,2.7,0c-0.9,0-1.5,0.1-2,0.4C0.2,0.6,0,1.1,0,1.9v26c0,0.8,0.2,1.3,0.7,1.5
		c0.5,0.2,1.1,0.4,2,0.4c0.9,0,1.6-0.1,2-0.4c0.5-0.2,0.7-0.8,0.7-1.5v-26C5.4,1.1,5.2,0.6,4.7,0.4z"/>
	<path class="st0" d="M31.2,6.7h-4c-0.6,0-1,0.2-1.2,0.5c-0.2,0.3-0.3,0.9-0.3,1.6c0,0.7,0.1,1.2,0.3,1.5c0.2,0.3,0.6,0.5,1.2,0.5
		H31c2.3,0,4,0.2,5,0.7c1,0.4,1.5,1.1,1.5,1.9v0H20.1c-7.7,0-11.5,2.4-11.5,7.1v2.2c0,4.7,3.8,7.1,11.5,7.1h11.1
		c7.7,0,11.5-2.4,11.5-7.1v-8.8C42.7,9,38.8,6.7,31.2,6.7z M37.5,22.6c0,0.8-0.5,1.5-1.5,2.1c-1,0.6-2.7,0.9-5,0.9H20.3
		c-2.3,0-3.9-0.3-5-0.9c-1-0.6-1.5-1.3-1.5-2.1v-2.3c0-0.8,0.5-1.5,1.5-2.1c1-0.6,2.7-0.9,5-0.9h17.2V22.6z"/>
	<path class="st0" d="M87.4,8.4c-1.8-1.2-4.4-1.7-7.7-1.7h-4c-3.4,0-6,0.7-7.6,2c-1.7-1.4-4.2-2-7.6-2h-4c-3.3,0-5.9,0.6-7.7,1.7
		c-1.8,1.2-2.7,2.9-2.7,5.3v14.1c0,0.8,0.2,1.3,0.6,1.5c0.4,0.2,1.1,0.4,1.9,0.4c0.9,0,1.5-0.1,2-0.4c0.4-0.2,0.6-0.8,0.6-1.5V13.7
		c0-0.8,0.5-1.5,1.4-2.1c0.9-0.6,2.5-0.9,4.8-0.9h2.3c1.1,0,2.1,0.1,2.8,0.2c0.7,0.1,1.3,0.4,1.8,0.6c0.5,0.3,0.8,0.6,1,1
		c0.2,0.4,0.3,0.8,0.3,1.2v14.1c0,0.7,0.2,1.2,0.6,1.5c0.4,0.3,1,0.4,2,0.4c0.9,0,1.5-0.1,2-0.4c0.4-0.2,0.7-0.8,0.7-1.5V13.7
		c0-0.4,0.1-0.8,0.3-1.2c0.2-0.4,0.5-0.7,1-1c0.5-0.3,1.1-0.5,1.8-0.6c0.7-0.1,1.7-0.2,2.8-0.2h2.3c2.3,0,3.9,0.3,4.8,0.9
		c0.9,0.6,1.4,1.3,1.4,2.1v14.1c0,0.8,0.2,1.3,0.7,1.5c0.4,0.2,1.1,0.4,1.9,0.4c0.9,0,1.5-0.1,1.9-0.4c0.4-0.2,0.6-0.8,0.6-1.5V13.7
		C90.2,11.4,89.3,9.6,87.4,8.4z"/>
	<path class="st0" d="M98.5,0.4c-0.5-0.2-1.1-0.4-2-0.4c-0.9,0-1.5,0.1-2,0.4c-0.5,0.2-0.7,0.8-0.7,1.5v26c0,0.8,0.2,1.3,0.7,1.5
		c0.5,0.2,1.1,0.4,2,0.4c0.9,0,1.6-0.1,2-0.4c0.5-0.2,0.7-0.8,0.7-1.5v-26C99.2,1.1,99,0.6,98.5,0.4z"/>
	<path class="st0" d="M105.8,27.6L105.8,27.6c0.3-0.1,0.5-0.3,0.5-0.6c0-0.2-0.1-0.4-0.2-0.5c-0.2-0.1-0.4-0.2-0.9-0.2
		c-0.4,0-0.7,0-1,0.1v2.5h0.6v-1h0.3c0.3,0,0.5,0.1,0.5,0.4c0.1,0.3,0.1,0.5,0.2,0.6h0.6c-0.1-0.1-0.1-0.2-0.2-0.6
		C106.1,27.8,106,27.6,105.8,27.6z M105.1,27.4h-0.3v-0.7c0.1,0,0.2,0,0.3,0c0.4,0,0.5,0.2,0.5,0.4
		C105.6,27.3,105.4,27.4,105.1,27.4z"/>
	<path class="st0" d="M105.2,25c-1.4,0-2.6,1.1-2.6,2.5c0,1.4,1.1,2.5,2.6,2.5c1.4,0,2.6-1.1,2.6-2.5C107.7,26.1,106.6,25,105.2,25z
		 M105.2,29.5c-1.1,0-1.9-0.9-1.9-2c0-1.1,0.8-2,1.9-2c1.1,0,1.9,0.9,1.9,2C107.1,28.6,106.3,29.5,105.2,29.5z"/>
</g>
</svg>
