<?xml version="1.0" encoding="utf-8"?>
<!-- Generator: Adobe Illustrator 21.1.0, SVG Export Plug-In . SVG Version: 6.00 Build 0)  -->
<svg version="1.1" id="Layer_1" xmlns="http://www.w3.org/2000/svg" xmlns:xlink="http://www.w3.org/1999/xlink" x="0px" y="0px"
	 viewBox="0 0 255 255" style="enable-background:new 0 0 255 255;" xml:space="preserve">
<style type="text/css">
	.st0{fill:#FFFFFF;}
</style>
<path class="st0" d="M247.1,237.9l-65-67.6c17-18.7,26.3-42.8,26.3-68.2c0-56-45.6-101.6-101.6-101.6C50.8,0.5,5.2,46.1,5.2,102.1
	s45.6,101.6,101.6,101.6c22,0,43.6-7.2,61.1-20.5l65.4,68c1.8,1.9,4.3,3,6.9,3c2.5,0,4.9-1,6.7-2.7
	C250.7,247.8,250.8,241.7,247.1,237.9z M189.2,102.1c0,45.4-37,82.4-82.4,82.4s-82.4-37-82.4-82.4s37-82.4,82.4-82.4
	S189.2,56.7,189.2,102.1z"/>
</svg>
