<?xml version="1.0" encoding="utf-8"?>
<!-- Generator: Adobe Illustrator 21.1.0, SVG Export Plug-In . SVG Version: 6.00 Build 0)  -->
<svg version="1.1" id="Layer_1" xmlns="http://www.w3.org/2000/svg" xmlns:xlink="http://www.w3.org/1999/xlink" x="0px" y="0px"
	 viewBox="0 0 30 30" style="enable-background:new 0 0 30 30;" xml:space="preserve">
<style type="text/css">
	.st0{fill:#F8B551;}
</style>
<g>
	<g>
		<g>
			<path class="st0" d="M19.1,7.4c-0.8,0-1.4,0.6-1.4,1.4c0,0.8,0.6,1.4,1.4,1.4c0.8,0,1.4-0.6,1.4-1.4C20.5,8,19.9,7.4,19.1,7.4z
				 M19.1,9.2c-0.3,0-0.5-0.2-0.5-0.5c0-0.3,0.2-0.5,0.5-0.5c0.3,0,0.5,0.2,0.5,0.5C19.6,9,19.4,9.2,19.1,9.2z"/>
		</g>
	</g>
	<g>
		<g>
			<path class="st0" d="M29.3,8.4c-0.4-0.3-1-0.4-1.5-0.3l-3.4,0.9c-0.3,0.1-0.4,0.3-0.3,0.6c0.1,0.3,0.3,0.4,0.6,0.3L28.1,9
				c0.2-0.1,0.5,0,0.7,0.1c0.2,0.1,0.3,0.4,0.3,0.6V18c0,0.2-0.1,0.5-0.3,0.6c-0.2,0.1-0.4,0.2-0.7,0.1l-5.2-1.3V9.9V8
				c0-1.7-1.4-3-3-3H3C1.4,5,0,6.4,0,8v11.7c0,1.7,1.4,3,3,3h0.1v1.1c0,0.6,0.5,1.2,1.2,1.2h13.3c0.6,0,1.2-0.5,1.2-1.2v-1.1h1.2
				c1.7,0,3-1.4,3-3v-1.3l5,1.2c0.1,0,0.3,0.1,0.4,0.1c0.4,0,0.7-0.1,1.1-0.4C29.8,19,30,18.5,30,18V9.7C30,9.2,29.8,8.7,29.3,8.4z
				 M19.9,21.8h-1.7H7.6c-0.3,0-0.5,0.2-0.5,0.5c0,0.3,0.2,0.5,0.5,0.5h10.2v1.1c0,0.1-0.1,0.2-0.2,0.2H4.2C4.1,24.1,4,24,4,23.9
				v-1.1h1h0.4c0.3,0,0.5-0.2,0.5-0.5c0-0.3-0.2-0.5-0.5-0.5H5.1H3.5H3c-1.1,0-2.1-0.9-2.1-2.1V8c0-1.1,0.9-2.1,2.1-2.1h16.9
				C21,5.9,22,6.9,22,8v1.9v7.9v1.9l0,0C22,20.9,21,21.8,19.9,21.8z"/>
		</g>
	</g>
</g>
</svg>
