<?xml version="1.0" encoding="utf-8"?>
<!-- Generator: Adobe Illustrator 22.0.1, SVG Export Plug-In . SVG Version: 6.00 Build 0)  -->
<svg version="1.1" id="圖層_1" xmlns="http://www.w3.org/2000/svg" xmlns:xlink="http://www.w3.org/1999/xlink" x="0px" y="0px"
	 viewBox="0 0 128 128" style="enable-background:new 0 0 128 128;" xml:space="preserve">
<style type="text/css">
	.st0{fill:none;}
	.st1{fill:#F8B551;}
</style>
<g>
	<g>
		<path class="st0" d="M90.2,78.4L88.7,78c-0.1,0-0.1,0-0.2,0c-0.4,0-0.7,0.2-1,0.5C80.7,86.3,72.3,87,64.1,87c0,0-0.1,0-0.1,0
			s-0.1,0-0.1,0c-8.2,0-16.6-0.6-23.4-8.4c-0.3-0.3-0.6-0.5-1-0.5c-0.1,0-0.1,0-0.2,0l-1.5,0.4c-3.7,1.1-7.2,2.8-9.9,5.3
			c-0.3,0.3-0.6,0.4-1,0.5c-3.4,3.1-5.9,7.1-7.2,11.6l-5.2,18.1c-0.2,0.9,0,1.5,0.2,1.7c0.4,0.6,1,0.9,1.6,0.9h42.8h9.7h42.8
			c0.6,0,1.2-0.2,1.6-0.9c0.2-0.2,0.5-0.9,0.2-1.7l-5.2-18.1c-1.3-4.5-3.9-8.5-7.2-11.6c-0.4-0.1-0.7-0.2-1-0.5
			C97.3,81.3,93.9,79.5,90.2,78.4z"/>
		<path class="st0" d="M69.8,31.6c3.2,0.7,6.9,1,10.9,0.7c-2.9-0.6-5.6-1.9-7.8-3.9C72,29.6,70.9,30.7,69.8,31.6z"/>
		<path class="st0" d="M58.2,31.6c-1.2-1-2.2-2-3.1-3.2c-2.3,2-5,3.3-7.8,3.9C51.3,32.6,55,32.3,58.2,31.6z"/>
		<path class="st1" d="M46.2,55.5c4.3,7.8,10.8,13,17.8,13c0,0,0,0,0,0C57,68.5,50.5,63.3,46.2,55.5z"/>
		<path class="st1" d="M50.5,37.3c5,0,9.6-0.8,13.5-2.4c-2.2-0.9-4.1-2-5.8-3.3c-3.2,0.7-6.9,1-10.9,0.7c-1,0.2-2.1,0.3-3.2,0.3
			c-1,0-2.1-0.1-3.1-0.4c-0.1,0.7-0.1,1.4-0.1,2.1c0,1.2,0.1,2.4,0.1,3.6c0-0.5-0.1-1-0.1-1.5C44.3,37.1,47.4,37.3,50.5,37.3z"/>
		<path class="st1" d="M82.7,53.8c-0.1,0.1-0.1,0.3-0.2,0.4C82.5,54.1,82.6,54,82.7,53.8z"/>
		<path class="st1" d="M83.5,52.1c-0.1,0.3-0.3,0.6-0.4,0.9C83.2,52.7,83.3,52.4,83.5,52.1z"/>
		<path class="st1" d="M45.3,53.8c-0.1-0.3-0.3-0.5-0.4-0.8C45.1,53.3,45.2,53.6,45.3,53.8z"/>
		<path class="st1" d="M81.9,55.4C81.8,55.4,81.8,55.5,81.9,55.4C81.8,55.5,81.8,55.4,81.9,55.4z"/>
		<path class="st1" d="M44.5,52.1c-0.1-0.1-0.1-0.3-0.2-0.4C44.4,51.9,44.5,52,44.5,52.1z"/>
		<path class="st1" d="M41.2,39.5c0-0.3-0.1-0.6-0.1-1C41.2,38.9,41.2,39.2,41.2,39.5z"/>
		<path class="st1" d="M59.8,11.8c0.7-0.1,1.3-0.2,2-0.3C61.1,11.6,60.5,11.7,59.8,11.8z"/>
		<path class="st1" d="M46.1,55.4c-0.2-0.4-0.4-0.7-0.6-1.1C45.7,54.7,45.9,55,46.1,55.4z"/>
		<path class="st1" d="M59.7,11.9c-8.4,1.6-15.1,7.7-17.7,15.7c0,0,0,0,0.1,0C44.7,19.6,51.4,13.5,59.7,11.9z"/>
		<path class="st1" d="M87.2,18.9l2.3,4.3c1.5,3.5,2.4,7.3,2.4,11.3c0,3.8-0.4,7.5-1.2,11c0.8-3.5,1.2-7.2,1.2-11
			c0-14.9-11.5-27-26.2-27.9C74.7,7.2,82.5,11.9,87.2,18.9z"/>
		<path class="st1" d="M62.7,73.4C62.7,73.4,62.6,73.4,62.7,73.4C62.6,73.4,62.7,73.4,62.7,73.4z"/>
		<path class="st1" d="M64,73.5c0.4,0,0.9,0,1.3,0C64.9,73.5,64.4,73.5,64,73.5C64,73.5,64,73.5,64,73.5z"/>
		<path class="st1" d="M37.2,45.4c3.3,15.2,13.3,26.8,25,27.9C50.8,72.3,40.6,60.5,37.2,45.4z"/>
		<path class="st1" d="M62.2,6.6c0,0,0.1,0,0.1,0C62.2,6.6,62.2,6.6,62.2,6.6z"/>
		<path class="st1" d="M65.8,73.4c-0.1,0-0.3,0-0.4,0C65.5,73.4,65.7,73.4,65.8,73.4z"/>
		<path class="st1" d="M41.4,41.1c0-0.1,0-0.1,0-0.2C41.4,40.9,41.4,41,41.4,41.1z"/>
		<path class="st1" d="M64,6.5C64,6.5,64,6.5,64,6.5c0.6,0,1.1,0,1.7,0.1C65.2,6.5,64.6,6.5,64,6.5z"/>
		<path class="st1" d="M86.6,41.1c-0.6,3.8-1.6,7.4-2.9,10.7C85,48.5,86,44.9,86.6,41.1z"/>
		<path class="st1" d="M86.8,39.5c-0.1,0.5-0.1,0.9-0.2,1.4C86.6,40.4,86.7,40,86.8,39.5z"/>
		<path class="st1" d="M64,11.5c-0.7,0-1.4,0-2.1,0.1C62.6,11.5,63.3,11.5,64,11.5C64,11.5,64,11.5,64,11.5z"/>
		<path class="st1" d="M86.9,38c0,0.2,0,0.4-0.1,0.6C86.9,38.4,86.9,38.2,86.9,38z"/>
		<path class="st1" d="M74.3,23c-0.9-1.1-2.3-1.4-3.5-0.5c-0.5,0.4-0.7,0.7-0.9,1.2c-0.1,0.1-0.1,0.2-0.2,0.4
			c-1.1,2.3-3.1,4.1-5.7,5.5c1.7,0.9,3.6,1.6,5.8,2c1.2-1,2.2-2,3.1-3.2c2.3,2,5,3.3,7.8,3.9c2-0.1,4-0.4,6.1-0.8
			c-0.2-1.4-0.5-2.7-0.9-4C81.6,28.4,77,26.7,74.3,23z"/>
		<path class="st1" d="M66.1,11.6C66.1,11.6,66.2,11.6,66.1,11.6C66.2,11.6,66.1,11.6,66.1,11.6z"/>
		<path class="st1" d="M68.2,11.8C68.2,11.9,68.3,11.9,68.2,11.8C68.3,11.9,68.2,11.9,68.2,11.8z"/>
		<path class="st1" d="M83.9,75.3c1.1-1.3,2.7-2.1,4.3-2.2c-1.9,0-3.7,0.8-4.9,2.2C78,81.4,71.2,82,64,82c0.1,0,0.2,0,0.3,0
			C71.5,82,78.5,81.5,83.9,75.3z"/>
		<path class="st1" d="M63.9,87C63.9,87,64,87,63.9,87c-8,0-16.4-0.6-23.2-8.4c0,0,0-0.1-0.1-0.1c-0.2-0.2-0.7-0.4-1-0.4
			c0.4,0,0.7,0.2,1,0.5C47.3,86.3,55.7,87,63.9,87z"/>
		<path class="st1" d="M56.7,119c0-1.4,1.1-2.5,2.5-2.5H16.4c-0.6,0-1.2-0.2-1.6-0.9c-0.2-0.2-0.5-0.9-0.2-1.7l5.2-18.1
			c1.3-4.5,3.9-8.5,7.2-11.6c-0.9,0.2-1.9,0-2.5-0.7c-0.9-1-0.7-2.6,0.2-3.5c3.3-3,7.4-5.1,12-6.3l1.5-0.4c0.5-0.1,1-0.2,1.5-0.2
			c-0.7,0-1.3,0-2,0.2l-1.5,0.4C26,76.4,17.9,84.4,14.9,94.6l-2.1,7.2l-1.5,5l-1.7,5.8c-0.6,2.1-0.2,4.3,1.1,6.1
			c1.4,1.7,3.5,2.8,5.7,2.8h42.8C57.8,121.5,56.7,120.4,56.7,119z"/>
		<path class="st1" d="M88.9,78c-0.1,0-0.3,0-0.4,0c0.1,0,0.1,0,0.2,0l1.5,0.4c3.7,1.1,7.2,2.8,9.9,5.3c0.3,0.3,0.6,0.4,1,0.5
			c-3-2.7-6.6-4.8-10.7-5.8L88.9,78z"/>
		<path class="st1" d="M65.8,73.4c11.7-1.1,21.7-12.7,25-27.9C87.4,60.5,77.2,72.3,65.8,73.4z"/>
		<path class="st1" d="M62.6,73.4c-0.1,0-0.3,0-0.4,0C62.3,73.4,62.5,73.4,62.6,73.4z"/>
		<path class="st1" d="M65.4,73.4C65.4,73.4,65.3,73.4,65.4,73.4C65.3,73.4,65.4,73.4,65.4,73.4z"/>
		<path class="st1" d="M64,6.5c-0.6,0-1.1,0-1.7,0.1C62.8,6.5,63.4,6.5,64,6.5C64,6.5,64,6.5,64,6.5z"/>
		<path class="st1" d="M64,73.5C64,73.5,64,73.5,64,73.5c-0.4,0-0.9,0-1.3,0C63.1,73.5,63.5,73.5,64,73.5z"/>
		<path class="st1" d="M65.7,6.6c0,0,0.1,0,0.1,0C65.8,6.6,65.8,6.6,65.7,6.6z"/>
		<path class="st1" d="M36.1,34.5c0-4,0.9-7.8,2.4-11.3l2.3-4.3c4.7-6.9,12.5-11.7,21.4-12.3C47.5,7.5,36,19.6,36.1,34.5
			c-0.1,3.8,0.4,7.5,1.2,11C36.5,41.9,36.1,38.3,36.1,34.5z"/>
		<path class="st1" d="M46.2,55.5C46.2,55.5,46.2,55.4,46.2,55.5C46.2,55.4,46.2,55.5,46.2,55.5z"/>
		<path class="st1" d="M82.4,54.3c-0.2,0.4-0.4,0.7-0.6,1.1C82.1,55,82.3,54.7,82.4,54.3z"/>
		<path class="st1" d="M45.6,54.3c-0.1-0.1-0.1-0.3-0.2-0.4C45.4,54,45.5,54.1,45.6,54.3z"/>
		<path class="st1" d="M44.9,53c-0.1-0.3-0.3-0.6-0.4-0.9C44.7,52.4,44.8,52.7,44.9,53z"/>
		<path class="st1" d="M64,68.5C64,68.5,64,68.5,64,68.5c7,0,13.5-5.2,17.8-13C77.5,63.3,71,68.5,64,68.5z"/>
		<path class="st1" d="M41.4,40.9c-0.1-0.5-0.1-0.9-0.2-1.4C41.3,40,41.4,40.4,41.4,40.9z"/>
		<path class="st1" d="M41.1,38.6c0-0.2,0-0.4-0.1-0.6C41.1,38.2,41.1,38.4,41.1,38.6z"/>
		<path class="st1" d="M44.4,51.7c-1.4-3.3-2.4-6.9-2.9-10.7C42,44.9,43,48.5,44.4,51.7z"/>
		<path class="st1" d="M86.6,40.9c0,0.1,0,0.1,0,0.2C86.6,41,86.6,40.9,86.6,40.9z"/>
		<path class="st1" d="M83.6,51.7c-0.1,0.1-0.1,0.3-0.2,0.4C83.5,52,83.6,51.9,83.6,51.7z"/>
		<path class="st1" d="M83.1,53c-0.1,0.3-0.3,0.5-0.4,0.8C82.8,53.6,82.9,53.3,83.1,53z"/>
		<path class="st1" d="M86.9,38.6c0,0.3-0.1,0.6-0.1,1C86.8,39.2,86.8,38.9,86.9,38.6z"/>
		<path class="st1" d="M85.9,27.6C85.9,27.5,85.9,27.5,85.9,27.6c-2.5-8-9.2-14.1-17.6-15.7C76.6,13.5,83.3,19.6,85.9,27.6z"/>
		<path class="st1" d="M59.7,11.9C59.7,11.9,59.8,11.9,59.7,11.9C59.8,11.9,59.7,11.9,59.7,11.9z"/>
		<path class="st1" d="M66.2,11.6c0.7,0.1,1.3,0.2,2,0.3C67.5,11.7,66.9,11.6,66.2,11.6z"/>
		<path class="st1" d="M61.9,11.6C61.9,11.6,61.8,11.6,61.9,11.6C61.8,11.6,61.9,11.6,61.9,11.6z"/>
		<path class="st1" d="M64,11.5C64,11.5,64,11.5,64,11.5c0.7,0,1.4,0,2.1,0.1C65.4,11.5,64.7,11.5,64,11.5z"/>
		<path class="st1" d="M40.8,18.9l-2.3,4.3c-1.5,3.5-2.4,7.3-2.4,11.3c0,3.8,0.4,7.5,1.2,11c3.4,15.1,13.5,26.8,25,27.9
			c0.1,0,0.3,0,0.4,0c0,0,0,0,0.1,0c0.4,0,0.9,0,1.3,0c0.4,0,0.9,0,1.3,0c0,0,0,0,0.1,0c0.1,0,0.3,0,0.4,0
			c11.4-1.1,21.6-12.9,25-27.9c0.8-3.5,1.2-7.2,1.2-11c0-4-0.9-7.8-2.4-11.3l-2.3-4.3C82.5,11.9,74.7,7.2,65.8,6.6c0,0-0.1,0-0.1,0
			c-0.6,0-1.2-0.1-1.7-0.1c-0.6,0-1.2,0-1.7,0.1c0,0-0.1,0-0.1,0C53.3,7.2,45.5,11.9,40.8,18.9z M64,11.5C64,11.5,64,11.5,64,11.5
			C64,11.5,64,11.5,64,11.5c0.8,0,1.5,0,2.1,0.1c0,0,0.1,0,0.1,0c0.7,0.1,1.3,0.2,2,0.3c0,0,0,0,0.1,0c8.4,1.6,15.1,7.7,17.7,15.7
			c0,0,0,0-0.1,0c0.4,1.3,0.7,2.6,0.9,4c-2.1,0.4-4.1,0.7-6.1,0.8c1,0.2,2.1,0.3,3.2,0.3c1,0,2.1-0.1,3.1-0.4
			c0.1,0.7,0.1,1.4,0.1,2.1c0,1.2-0.1,2.4-0.1,3.6c0,0.2,0,0.4-0.1,0.6c0,0.3-0.1,0.6-0.1,1c-0.1,0.5-0.1,0.9-0.2,1.4
			c0,0.1,0,0.1,0,0.2c-0.6,3.8-1.6,7.4-2.9,10.7c-0.1,0.1-0.1,0.3-0.2,0.4c-0.1,0.3-0.3,0.6-0.4,0.9c-0.1,0.3-0.3,0.5-0.4,0.8
			c-0.1,0.1-0.1,0.3-0.2,0.4c-0.2,0.4-0.4,0.7-0.6,1.1c0,0,0,0.1-0.1,0.1c-4.3,7.8-10.8,13-17.8,13c0,0,0,0,0,0s0,0,0,0
			c-7,0-13.5-5.2-17.8-13c0,0,0-0.1-0.1-0.1c-0.2-0.4-0.4-0.7-0.6-1.1c-0.1-0.1-0.1-0.3-0.2-0.4c-0.1-0.3-0.3-0.5-0.4-0.8
			c-0.1-0.3-0.3-0.6-0.4-0.9c-0.1-0.1-0.1-0.3-0.2-0.4c-1.4-3.3-2.4-6.9-2.9-10.7c0-0.1,0-0.1,0-0.2c-0.1-0.5-0.1-0.9-0.2-1.4
			c0-0.3-0.1-0.6-0.1-1c0-0.2,0-0.4-0.1-0.6c-0.1-1.2-0.1-2.4-0.1-3.6c0-0.7,0-1.4,0.1-2.1c1,0.2,2.1,0.4,3.1,0.4
			c1.1,0,2.1-0.1,3.2-0.3c-2-0.1-4-0.4-6.1-0.8c0.2-1.4,0.5-2.7,0.9-4c0,0,0,0-0.1,0c2.5-8,9.3-14.1,17.7-15.7c0,0,0,0,0.1,0
			c0.7-0.1,1.3-0.2,2-0.3c0,0,0.1,0,0.1,0C62.6,11.5,63.3,11.5,64,11.5z"/>
		<path class="st1" d="M64,35c2.2-0.9,4.1-2,5.8-3.3c-2.1-0.5-4.1-1.2-5.8-2c-1.7,0.9-3.6,1.6-5.8,2C59.9,33,61.8,34.1,64,35z"/>
		<path class="st1" d="M118.4,112.6l-1.7-5.8l-1.5-5l-2.1-7.2c-3-10.3-11.1-18.2-21.4-20.9l-1.5-0.4c-0.6-0.2-1.3-0.2-2-0.2
			c0.5,0,1,0.1,1.5,0.2l1.5,0.4c4.6,1.2,8.7,3.3,12,6.3c1,0.9,1.1,2.5,0.2,3.5c-0.6,0.7-1.6,1-2.5,0.7c3.4,3.1,5.9,7.1,7.2,11.6
			l5.2,18.1c0.2,0.9,0,1.5-0.2,1.7c-0.4,0.6-1,0.9-1.6,0.9H68.9c1.4,0,2.5,1.1,2.5,2.5c0,1.4-1.1,2.5-2.5,2.5h42.8
			c2.2,0,4.3-1.1,5.7-2.8C118.7,116.9,119.1,114.7,118.4,112.6z"/>
		<path class="st1" d="M87.5,78.5c0.3-0.3,0.6-0.5,1-0.5c-0.4,0-0.8,0.2-1,0.4c-0.1,0-0.1,0.1-0.1,0.1C80.5,86.3,72.1,87,64,87
			c0,0,0.1,0,0.1,0C72.3,87,80.7,86.3,87.5,78.5z"/>
		<path class="st1" d="M44.1,75.3c5.4,6.2,12.4,6.7,19.6,6.7c0.1,0,0.2,0,0.3,0c-7.2,0-14-0.6-19.3-6.7c-1.2-1.4-3-2.2-4.9-2.2
			C41.4,73.3,43,74,44.1,75.3z"/>
		<path class="st1" d="M37.8,78.4l1.5-0.4c0.1,0,0.1,0,0.2,0c-0.1,0-0.3,0-0.4,0l-1.5,0.4c-4.1,1-7.7,3.1-10.7,5.8
			c0.4-0.1,0.7-0.2,1-0.5C30.7,81.3,34.1,79.5,37.8,78.4z"/>
		<path class="st1" d="M36.7,73.7c-4.6,1.2-8.7,3.3-12,6.3c-1,0.9-1.1,2.5-0.2,3.5c0.6,0.7,1.6,1,2.5,0.7c3-2.7,6.6-4.8,10.7-5.8
			l1.5-0.4c0.1,0,0.3,0,0.4,0c0.4,0,0.8,0.2,1,0.4c0.1,0,0.1,0.1,0.1,0.1C47.5,86.3,55.9,87,64,87c8.1,0,16.5-0.6,23.3-8.4
			c0,0,0-0.1,0.1-0.1c0.2-0.2,0.7-0.4,1-0.4c0.1,0,0.3,0,0.4,0l1.5,0.4c4.1,1,7.7,3.1,10.7,5.8c0.9,0.2,1.9,0,2.5-0.7
			c0.9-1,0.7-2.6-0.2-3.5c-3.3-3-7.4-5.1-12-6.3l-1.5-0.4c-0.5-0.1-1-0.2-1.5-0.2c-1.6,0.1-3.2,0.9-4.3,2.2
			C78.5,81.5,71.5,82,64.3,82c-0.1,0-0.2,0-0.3,0c-0.1,0-0.2,0-0.3,0c-7.2,0-14.1-0.5-19.6-6.7c-1.1-1.3-2.7-2.1-4.3-2.2
			c-0.5,0-1,0.1-1.5,0.2L36.7,73.7z"/>
		<path class="st1" d="M71.3,119c0-1.4-1.1-2.5-2.5-2.5h-9.7c-1.4,0-2.5,1.1-2.5,2.5c0,1.4,1.1,2.5,2.5,2.5h9.7
			C70.2,121.5,71.3,120.4,71.3,119z"/>
	</g>
	<g>
		<g>
			<path class="st1" d="M30.3,68.5c-0.3,0-0.6-0.1-0.9-0.2c-6.4-3.2-9.5-11.8-9.5-26c0-10.3,8.4-18.7,18.7-18.7c1.1,0,2,0.9,2,2
				s-0.9,2-2,2c-8.1,0-14.7,6.6-14.7,14.7c0,12.5,2.4,20,7.3,22.5c1,0.5,1.4,1.7,0.9,2.7C31.7,68.1,31,68.5,30.3,68.5z"/>
			<path class="st1" d="M14.5,102.3h-11c-0.8,0-1.6-0.3-2.2-0.9c-0.6-0.6-1.1-1.6-0.8-2.8L4.3,85C7.7,73.7,15,67.2,27.9,64.2
				c0,0,0,0,0,0c0,0,0.1,0,0.1-0.1c1-0.5,2.2-0.1,2.7,0.9c0.5,1,0.1,2.2-0.9,2.7c-0.2,0.1-0.6,0.4-1.1,0.4
				c-11.4,2.7-17.5,8.1-20.5,18.1L4.7,98.3h9.8c1.1,0,2,0.9,2,2S15.6,102.3,14.5,102.3z M28.3,64.1C28.3,64.1,28.3,64.1,28.3,64.1
				C28.3,64.1,28.3,64.1,28.3,64.1z"/>
		</g>
		<g>
			<path class="st1" d="M97.7,68.5c-0.7,0-1.4-0.4-1.8-1.1c-0.5-1-0.1-2.2,0.9-2.7c4.8-2.5,7.3-10,7.3-22.5
				c0-8.1-6.6-14.7-14.7-14.7c-1.1,0-2-0.9-2-2s0.9-2,2-2c10.3,0,18.7,8.4,18.7,18.7c0,14.3-3.1,22.8-9.5,26
				C98.3,68.4,98,68.5,97.7,68.5z"/>
			<path class="st1" d="M124.5,102.3h-11c-1.1,0-2-0.9-2-2s0.9-2,2-2h9.8l-3.4-12.1c-3-9.9-9.1-15.3-20.5-18
				c-0.5-0.1-0.9-0.3-1.1-0.4c-1-0.5-1.4-1.7-0.9-2.7c0.5-1,1.7-1.4,2.7-0.9c0,0,0.1,0,0.1,0.1c0,0,0,0,0,0
				c12.9,3,20.2,9.5,23.6,20.8l3.8,13.5c0.3,1.3-0.2,2.3-0.7,2.9C126.1,102,125.4,102.3,124.5,102.3z M99.7,64.1
				C99.7,64.1,99.7,64.1,99.7,64.1C99.7,64.1,99.7,64.1,99.7,64.1z"/>
		</g>
	</g>
	<path class="st1" d="M64,20.6"/>
</g>
</svg>
