<?xml version="1.0" encoding="utf-8"?>
<!-- Generator: Adobe Illustrator 21.1.0, SVG Export Plug-In . SVG Version: 6.00 Build 0)  -->
<svg version="1.1" id="Layer_1" xmlns="http://www.w3.org/2000/svg" xmlns:xlink="http://www.w3.org/1999/xlink" x="0px" y="0px"
	 viewBox="0 0 30 30" style="enable-background:new 0 0 30 30;" xml:space="preserve">
<style type="text/css">
	.st0{fill:#A0A0A0;}
</style>
<g>
	<g>
		<g>
			<path class="st0" d="M18.8,7.9c-0.7,0-1.3,0.6-1.3,1.3c0,0.7,0.6,1.3,1.3,1.3s1.3-0.6,1.3-1.3S19.6,7.9,18.8,7.9z M18.8,9.6
				c-0.3,0-0.5-0.2-0.5-0.5s0.2-0.5,0.5-0.5c0.3,0,0.5,0.2,0.5,0.5S19.1,9.6,18.8,9.6z"/>
		</g>
	</g>
	<g>
		<g>
			<path class="st0" d="M28.3,8.8c-0.4-0.3-0.9-0.4-1.4-0.3l-3.2,0.8c-0.3,0.1-0.4,0.3-0.3,0.6c0.1,0.3,0.3,0.4,0.6,0.3l3.2-0.8
				c0.2-0.1,0.5,0,0.7,0.1c0.2,0.1,0.3,0.4,0.3,0.6v7.7c0,0.2-0.1,0.5-0.3,0.6s-0.4,0.2-0.7,0.1l-4.9-1.2v-7V8.5
				c0-1.6-1.3-2.8-2.8-2.8H3.8C2.3,5.7,1,7,1,8.5v10.9c0,1.6,1.3,2.8,2.8,2.8h0.1v1c0,0.6,0.5,1.1,1.1,1.1h12.4
				c0.6,0,1.1-0.5,1.1-1.1v-1h1.1c1.6,0,2.8-1.3,2.8-2.8v-1.2l4.7,1.1c0.1,0,0.3,0.1,0.4,0.1c0.4,0,0.7-0.1,1-0.4
				c0.3-0.3,0.5-0.7,0.5-1.2v-7.7C29,9.6,28.8,9.1,28.3,8.8z M19.6,21.3H18H8.1c-0.3,0-0.5,0.2-0.5,0.5c0,0.3,0.2,0.5,0.5,0.5h9.5v1
				c0,0.1-0.1,0.2-0.2,0.2H4.9c-0.1,0-0.2-0.1-0.2-0.2v-1h0.9H6c0.3,0,0.5-0.2,0.5-0.5c0-0.3-0.2-0.5-0.5-0.5H5.8H4.3H3.8
				c-1,0-2-0.8-2-2V8.5c0-1,0.8-2,2-2h15.8c1,0,2,0.9,2,2v1.8v7.4v1.8l0,0C21.5,20.5,20.6,21.3,19.6,21.3z"/>
		</g>
	</g>
</g>
</svg>
