<?xml version="1.0" encoding="utf-8"?>
<!-- Generator: Adobe Illustrator 16.0.0, SVG Export Plug-In . SVG Version: 6.00 Build 0)  -->
<!DOCTYPE svg PUBLIC "-//W3C//DTD SVG 1.1//EN" "http://www.w3.org/Graphics/SVG/1.1/DTD/svg11.dtd">
<svg version="1.1" id="Layer_1" xmlns="http://www.w3.org/2000/svg" xmlns:xlink="http://www.w3.org/1999/xlink" x="0px" y="0px"
	 width="128px" height="128px" viewBox="0 0 128 128" enable-background="new 0 0 128 128" xml:space="preserve">
<g>
	<g>
		<path fill="#F8B551" d="M118.318,119.121H9.682c-5.341,0-9.682-4.346-9.682-9.682v-78.44c0-5.337,4.341-9.681,9.682-9.681h108.637
			c5.341,0,9.682,4.344,9.682,9.681v78.444C128,114.779,123.659,119.121,118.318,119.121z M9.682,25.19
			c-3.203,0-5.809,2.606-5.809,5.809v78.444c0,3.202,2.605,5.809,5.809,5.809h108.637c3.203,0,5.809-2.606,5.809-5.809V30.999
			c0-3.202-2.605-5.809-5.809-5.809H9.682z"/>
		<path fill="#F8B551" d="M97.264,25.19H30.736c-1.069,0-1.938-0.868-1.938-1.937s0.868-1.936,1.938-1.936h66.531
			c1.069,0,1.938,0.867,1.938,1.936S98.337,25.19,97.264,25.19z"/>
	</g>
	<path fill="#F8B551" d="M66.184,100.053H20.629c-1.069,0-1.937-0.867-1.937-1.937v-5.181c0-3.23,1.886-6.216,4.81-7.598
		l10.254-6.305c-3.311-2.684-5.367-6.669-5.533-10.982l-0.392-10.208c0-7.803,6.374-14.088,14.216-14.088h2.703
		c7.838,0,14.22,6.288,14.22,14.015l-0.396,10.281c-0.166,4.321-2.223,8.311-5.545,10.99l10.363,6.343
		c2.869,1.401,4.72,4.356,4.72,7.556v5.177C68.12,99.186,67.253,100.053,66.184,100.053z M22.564,96.18h41.684v-3.24
		c0-1.747-1.022-3.354-2.603-4.102c-0.062-0.031-0.124-0.062-0.183-0.101l-13.068-8.001c-0.601-0.367-0.957-1.029-0.926-1.734
		c0.035-0.705,0.441-1.336,1.068-1.65c3.656-1.823,6.021-5.443,6.173-9.452l0.396-10.208c0-5.518-4.64-10.068-10.348-10.068h-2.703
		c-5.704,0-10.344,4.551-10.344,10.143l0.392,10.134c0.151,3.997,2.505,7.617,6.153,9.445c0.627,0.313,1.038,0.944,1.064,1.646
		c0.027,0.705-0.324,1.367-0.921,1.734l-13.05,8.009c-1.763,0.849-2.781,2.455-2.781,4.198v3.248H22.564z"/>
	<g>
		<path fill="#F8B551" d="M107.646,56.643h-23.92c-1.069,0-1.937-0.867-1.937-1.937s0.867-1.937,1.937-1.937h23.92
			c1.068,0,1.936,0.867,1.936,1.937S108.715,56.643,107.646,56.643z"/>
		<path fill="#F8B551" d="M107.646,73.832h-23.92c-1.069,0-1.937-0.867-1.937-1.936c0-1.069,0.867-1.937,1.937-1.937h23.92
			c1.068,0,1.936,0.867,1.936,1.937C109.582,72.965,108.715,73.832,107.646,73.832z"/>
		<path fill="#F8B551" d="M107.646,91.033h-23.92c-1.069,0-1.937-0.867-1.937-1.936c0-1.069,0.867-1.937,1.937-1.937h23.92
			c1.068,0,1.936,0.867,1.936,1.937C109.582,90.166,108.715,91.033,107.646,91.033z"/>
	</g>
</g>
</svg>
