<?xml version="1.0" encoding="utf-8"?>
<!-- Generator: Adobe Illustrator 16.0.0, SVG Export Plug-In . SVG Version: 6.00 Build 0)  -->
<!DOCTYPE svg PUBLIC "-//W3C//DTD SVG 1.1//EN" "http://www.w3.org/Graphics/SVG/1.1/DTD/svg11.dtd">
<svg version="1.1" id="Layer_1" xmlns="http://www.w3.org/2000/svg" xmlns:xlink="http://www.w3.org/1999/xlink" x="0px" y="0px"
	 width="128px" height="128px" viewBox="0 0 128 128" enable-background="new 0 0 128 128" xml:space="preserve">
<g>
	<path fill="#F8B551" d="M122.029,69.222l-5.822-5.821c-2.377-2.378-6.245-2.375-8.621,0L76.146,94.84l-4.333,15.892l-1.061,1.059
		c-0.792,0.794-0.794,2.072-0.012,2.872l-0.01,0.04l0.038-0.012c0.396,0.391,0.911,0.59,1.428,0.59c0.523,0,1.046-0.2,1.444-0.599
		l1.062-1.062l15.889-4.333l31.438-31.439C124.408,75.47,124.408,71.6,122.029,69.222z M80.862,95.902l20.924-20.924l8.667,8.667
		l-20.924,20.924L80.862,95.902z M79.019,99.836l6.579,6.579l-9.047,2.466L79.019,99.836z M119.14,74.959l-5.799,5.799l-8.667-8.665
		l5.8-5.801c0.786-0.785,2.062-0.783,2.848-0.002l5.822,5.822C119.925,72.894,119.925,74.174,119.14,74.959z"/>
	<path fill="#F8B551" d="M63.427,98.387H12.11c9.291-7.361,30.235-24.065,40.996-33.508l2.903,2.564
		c2.044,1.825,4.732,2.738,7.419,2.738c2.683,0,5.366-0.911,7.405-2.73l47.747-42.16V57.53c0,1.128,0.915,2.042,2.043,2.042
		s2.043-0.914,2.043-2.042v-36.77c0-0.017-0.008-0.029-0.012-0.046c-0.003-0.227-0.038-0.456-0.122-0.676
		c-0.005-0.015-0.017-0.025-0.021-0.04c-0.022-0.055-0.059-0.097-0.084-0.147c-0.084-0.166-0.185-0.319-0.307-0.455
		c-0.053-0.057-0.107-0.105-0.168-0.156c-0.126-0.113-0.265-0.205-0.416-0.279c-0.067-0.035-0.128-0.069-0.197-0.098
		c-0.225-0.085-0.462-0.144-0.716-0.144H6.229c-0.253,0-0.49,0.059-0.717,0.144c-0.071,0.028-0.133,0.062-0.198,0.098
		c-0.151,0.076-0.29,0.169-0.417,0.279c-0.059,0.053-0.114,0.1-0.167,0.156c-0.123,0.136-0.221,0.287-0.307,0.455
		c-0.024,0.053-0.062,0.095-0.084,0.147c-0.006,0.015-0.017,0.025-0.022,0.04c-0.082,0.22-0.116,0.449-0.12,0.676
		c-0.002,0.017-0.011,0.031-0.011,0.047v79.668c0,0.005,0.004,0.009,0.004,0.018c0.002,0.22,0.035,0.437,0.108,0.652
		c0.009,0.023,0.026,0.042,0.037,0.067c0.028,0.071,0.071,0.133,0.106,0.2c0.077,0.148,0.167,0.287,0.277,0.409
		c0.058,0.064,0.114,0.119,0.178,0.176c0.125,0.107,0.26,0.196,0.407,0.273c0.069,0.036,0.133,0.075,0.206,0.104
		c0.227,0.084,0.466,0.143,0.719,0.143h57.197c1.128,0,2.042-0.912,2.042-2.042S64.555,98.387,63.427,98.387z M8.272,96.213V25.291
		l41.748,36.862C38.671,72.069,16.619,89.608,8.272,96.213z M115.225,22.805L68.123,64.396c-2.588,2.312-6.803,2.312-9.4-0.01
		l-4.043-3.568c-0.013-0.015-0.015-0.031-0.026-0.042c-0.045-0.051-0.108-0.071-0.157-0.116L11.629,22.805H115.225z"/>
</g>
</svg>
