<?xml version="1.0" encoding="utf-8"?>
<!-- Generator: Adobe Illustrator 16.0.0, SVG Export Plug-In . SVG Version: 6.00 Build 0)  -->
<!DOCTYPE svg PUBLIC "-//W3C//DTD SVG 1.1//EN" "http://www.w3.org/Graphics/SVG/1.1/DTD/svg11.dtd">
<svg version="1.1" id="Layer_1" xmlns="http://www.w3.org/2000/svg" xmlns:xlink="http://www.w3.org/1999/xlink" x="0px" y="0px"
	 width="128px" height="128px" viewBox="0 0 128 128" enable-background="new 0 0 128 128" xml:space="preserve">
<g>
	<path fill="#FFFFFF" d="M118.197,72.546l-6.714-6.714c-2.742-2.741-7.201-2.736-9.944,0L65.282,102.09l-4.996,18.325l-1.223,1.223
		c-0.915,0.914-0.916,2.389-0.014,3.31l-0.012,0.048l0.045-0.012c0.457,0.449,1.051,0.678,1.646,0.678
		c0.603,0,1.206-0.23,1.666-0.69l1.225-1.225l18.323-4.997l36.255-36.257C120.939,79.748,120.939,75.289,118.197,72.546z
		 M70.723,103.312l24.129-24.13l9.996,9.993l-24.13,24.132L70.723,103.312z M68.598,107.85l7.585,7.586l-10.431,2.845L68.598,107.85
		z M114.866,79.159l-6.688,6.688l-9.994-9.992l6.688-6.688c0.906-0.906,2.379-0.905,3.283-0.002l6.715,6.714
		C115.771,76.779,115.771,78.254,114.866,79.159z"/>
	<path fill="#FFFFFF" d="M12.152,110.614c0.098-0.057,0.193-0.108,0.289-0.163L33.949,98.72c3.697-2.019,5.996-5.89,5.996-10.104
		v-9.801l-0.634-0.756c-0.058-0.068-5.919-7.164-8.158-16.906l-0.248-1.076l-0.928-0.602c-1.308-0.846-2.091-2.26-2.091-3.786
		v-9.643c0-1.266,0.538-2.443,1.515-3.328l0.898-0.81V26.758l-0.025-0.356c-0.008-0.065-0.81-6.607,3.797-11.86
		c3.938-4.485,10.677-6.762,20.031-6.762c9.316,0,16.041,2.258,19.982,6.708c4.603,5.198,3.849,11.862,3.844,11.916l-0.024,15.509
		l0.896,0.811c0.977,0.881,1.516,2.062,1.516,3.326v9.644c0,1.969-1.292,3.688-3.213,4.281c-1.434,0.443-2.238,1.967-1.797,3.402
		c0.439,1.434,1.963,2.241,3.399,1.799c4.216-1.304,7.048-5.111,7.048-9.482v-9.644c0-2.355-0.865-4.646-2.41-6.444V26.91
		c0.142-1.415,0.643-9.38-5.122-15.951c-5.011-5.724-13.124-8.62-24.119-8.62s-19.106,2.896-24.12,8.617
		c-5.764,6.572-5.264,14.542-5.122,15.951v12.694c-1.545,1.798-2.41,4.089-2.41,6.445v9.643c0,2.995,1.343,5.788,3.642,7.673
		c2.204,8.632,6.736,15.165,8.411,17.38v7.872c0,2.219-1.21,4.259-3.161,5.326L9.834,105.672c-0.702,0.384-1.395,0.83-2.089,1.33"/>
</g>
</svg>
