<?xml version="1.0" encoding="utf-8"?>
<!-- Generator: Adobe Illustrator 21.1.0, SVG Export Plug-In . SVG Version: 6.00 Build 0)  -->
<svg version="1.1" id="Layer_1" xmlns="http://www.w3.org/2000/svg" xmlns:xlink="http://www.w3.org/1999/xlink" x="0px" y="0px"
	 viewBox="0 0 30 30" style="enable-background:new 0 0 30 30;" xml:space="preserve">
<style type="text/css">
	.st0{fill:#F8B551;}
</style>
<g>
	<g>
		<g>
			<path class="st0" d="M27.3,3H7.9C6.4,3,5.2,4.2,5.2,5.7v0.9L2.1,7.5C1.3,7.7,0.8,8.1,0.4,8.8c-0.4,0.6-0.5,1.4-0.3,2.1l3.8,14.1
				c0.2,0.7,0.6,1.3,1.2,1.6c0.4,0.2,0.9,0.4,1.4,0.4c0.2,0,0.5,0,0.7-0.1l12.4-3.3h7.8c1.5,0,2.7-1.2,2.7-2.7V5.7
				C30,4.2,28.8,3,27.3,3z M6.9,25.8c-0.4,0.1-0.9,0.1-1.2-0.2c-0.4-0.2-0.6-0.6-0.8-1L1.2,10.5c-0.1-0.4-0.1-0.9,0.2-1.2
				s0.6-0.6,1-0.8l2.9-0.8v13.1c0,1.5,1.2,2.7,2.7,2.7h7.5L6.9,25.8z M29,20.8c0,0.9-0.7,1.6-1.6,1.6H7.9c-0.9,0-1.6-0.7-1.6-1.6
				V5.7c0-0.9,0.7-1.6,1.6-1.6h19.5c0.9,0,1.6,0.7,1.6,1.6v7.7l-2.6-2.6c-0.4-0.4-1.1-0.4-1.5,0L18.7,17l0,0l-3.1-3.1
				c-0.4-0.4-1.1-0.4-1.5,0l-2.6,2.6c-0.2,0.2-0.2,0.5,0,0.8c0.2,0.2,0.5,0.2,0.8,0l2.6-2.6l3.1,3.1l0,0l-2.2,2.2
				c-0.2,0.2-0.2,0.5,0,0.8c0.1,0.1,0.2,0.2,0.4,0.2c0.1,0,0.3-0.1,0.4-0.2l9.1-9.1l3.2,3.2c0,0,0.1,0.1,0.1,0.1V20.8z"/>
			<path class="st0" d="M10.1,17.8l-0.5,0.5c-0.2,0.2-0.2,0.5,0,0.8c0.1,0.1,0.2,0.2,0.4,0.2c0.1,0,0.3-0.1,0.4-0.2l0.5-0.5
				c0.2-0.2,0.2-0.5,0-0.8C10.6,17.5,10.3,17.5,10.1,17.8z"/>
			<path class="st0" d="M13.8,8.9c0-1.5-1.2-2.7-2.7-2.7c-1.5,0-2.7,1.2-2.7,2.7c0,1.5,1.2,2.7,2.7,2.7
				C12.6,11.6,13.8,10.4,13.8,8.9z M11.1,10.6c-0.9,0-1.6-0.7-1.6-1.6c0-0.9,0.7-1.6,1.6-1.6c0.9,0,1.6,0.7,1.6,1.6
				C12.8,9.8,12,10.6,11.1,10.6z"/>
		</g>
	</g>
</g>
</svg>
