<?xml version="1.0" encoding="utf-8"?>
<!-- Generator: Adobe Illustrator 16.0.0, SVG Export Plug-In . SVG Version: 6.00 Build 0)  -->
<!DOCTYPE svg PUBLIC "-//W3C//DTD SVG 1.1//EN" "http://www.w3.org/Graphics/SVG/1.1/DTD/svg11.dtd">
<svg version="1.1" id="Layer_1" xmlns="http://www.w3.org/2000/svg" xmlns:xlink="http://www.w3.org/1999/xlink" x="0px" y="0px"
	 width="128px" height="128px" viewBox="0 0 128 128" enable-background="new 0 0 128 128" xml:space="preserve">
<g>
	<path fill="#F8B551" d="M86.117,72.452H41.883c-14.851,0-26.932,12.081-26.932,26.931v15.559h98.098V99.383
		C113.049,84.533,100.967,72.452,86.117,72.452z M107.204,109.097H20.796v-9.713c0-11.628,9.459-21.087,21.087-21.087h44.234
		c11.627,0,21.086,9.459,21.086,21.087L107.204,109.097L107.204,109.097z"/>
	<path fill="#F8B551" d="M64,69.686c15.611,0,28.312-12.702,28.312-28.313c0-15.612-12.701-28.313-28.312-28.313
		S35.688,25.76,35.688,41.372C35.688,56.984,48.389,69.686,64,69.686z M64,18.904c12.389,0,22.469,10.079,22.469,22.468
		c0,12.39-10.08,22.469-22.469,22.469s-22.469-10.08-22.469-22.469C41.531,28.983,51.611,18.904,64,18.904z"/>
</g>
</svg>
