<?xml version="1.0" encoding="utf-8"?>
<!-- Generator: Adobe Illustrator 16.0.0, SVG Export Plug-In . SVG Version: 6.00 Build 0)  -->
<!DOCTYPE svg PUBLIC "-//W3C//DTD SVG 1.1//EN" "http://www.w3.org/Graphics/SVG/1.1/DTD/svg11.dtd">
<svg version="1.1" id="Layer_1" xmlns="http://www.w3.org/2000/svg" xmlns:xlink="http://www.w3.org/1999/xlink" x="0px" y="0px"
	 width="128px" height="128px" viewBox="0 0 128 128" enable-background="new 0 0 128 128" xml:space="preserve">
<g>
	<path fill="#F8B551" d="M117.536,125.116H98.883c-5.533,0-10.037-4.503-10.037-10.036c0-4.433,2.865-8.203,6.884-9.524
		l-6.062-13.128H38.333l-6.062,13.128c4.019,1.321,6.884,5.092,6.884,9.524c0,5.533-4.504,10.036-10.037,10.036H10.464
		c-5.534,0-10.037-4.503-10.037-10.036c0-5.512,4.466-10,9.97-10.036L54.889,8.712C56.522,5.171,60.1,2.884,64,2.884
		c3.899,0,7.477,2.287,9.112,5.828l44.491,96.332c5.504,0.036,9.97,4.524,9.97,10.036
		C127.573,120.613,123.07,125.116,117.536,125.116z M35.869,88.576h56.262l9.333,20.207l-2.863,0.131
		c-3.31,0.149-5.901,2.856-5.901,6.166c0,3.409,2.773,6.183,6.184,6.183h18.653c3.41,0,6.185-2.773,6.185-6.183
		s-2.774-6.184-6.185-6.184h-2.396L69.614,10.327c-1.007-2.182-3.211-3.59-5.614-3.59s-4.606,1.408-5.613,3.589l-45.526,98.57
		h-2.396c-3.41,0-6.185,2.774-6.185,6.184s2.774,6.183,6.185,6.183h18.653c3.41,0,6.184-2.773,6.184-6.183
		c0-3.31-2.592-6.017-5.901-6.166l-2.863-0.131L35.869,88.576z M86.42,76.209H41.58L64,27.668L86.42,76.209z M47.604,72.355h32.791
		L64,36.856L47.604,72.355z"/>
</g>
</svg>
