<?xml version="1.0" encoding="utf-8"?>
<!-- Generator: Adobe Illustrator 22.0.1, SVG Export Plug-In . SVG Version: 6.00 Build 0)  -->
<svg version="1.1" id="圖層_1" xmlns="http://www.w3.org/2000/svg" xmlns:xlink="http://www.w3.org/1999/xlink" x="0px" y="0px"
	 viewBox="0 0 128 128" style="enable-background:new 0 0 128 128;" xml:space="preserve">
<style type="text/css">
	.st0{fill:#F8B551;}
</style>
<g>
	<path class="st0" d="M86.7,124.5c-1.1,0-2.2-0.6-2.7-1.7c-0.7-1.5-0.1-3.3,1.4-4c0.2-0.1,23.5-11.4,23.5-33.6
		c0-36.6-37.3-64.9-50-73.5C57.1,26.7,47.7,37,38.4,47C28.5,57.9,19,68.1,19,83.9c0,30.7,30.8,34.5,32.1,34.6
		c1.6,0.2,2.8,1.7,2.7,3.3c-0.2,1.6-1.7,2.8-3.3,2.7c-0.4,0-37.4-4.6-37.4-40.6C13,65.8,23.7,54.2,34,43c9.9-10.8,19.3-21,19.3-36.5
		c0-1.1,0.6-2.1,1.5-2.6s2.1-0.5,3,0c2.3,1.4,57.2,34,57.2,81.3c0,26-25.9,38.5-27,39C87.6,124.4,87.2,124.5,86.7,124.5z"/>
	<path class="st0" d="M77.9,106.8c-0.5,0-0.9-0.1-1.4-0.3c-1.5-0.8-2.1-2.6-1.3-4c14.3-27.8,2.1-43.9-5.4-50.4
		c0.2,17.3-2.3,26.2-8,28.6c-5.2,2.2-10.6-2-14.3-5.6c-3,4.2-4.2,8.4-3.6,12.4c1.1,8.3,9.3,13.8,9.4,13.8c1.4,0.9,1.8,2.8,0.9,4.2
		c-0.9,1.4-2.8,1.8-4.1,0.9c-0.4-0.3-10.5-7-12-18C37,81.6,39.4,75,45,68.6c0.6-0.6,1.4-1,2.2-1c0.9,0,1.7,0.3,2.2,0.9
		c4.9,5.2,8.3,7.4,10,6.6c0.9-0.4,5.3-3.6,4.2-29c0-1.1,0.5-2.1,1.4-2.7c0.9-0.6,2.1-0.6,3-0.1c0.3,0.2,34,19.6,12.4,61.8
		C80,106.2,79,106.8,77.9,106.8z"/>
</g>
</svg>
