<?xml version="1.0" encoding="utf-8"?>
<!-- Generator: Adobe Illustrator 16.0.0, SVG Export Plug-In . SVG Version: 6.00 Build 0)  -->
<!DOCTYPE svg PUBLIC "-//W3C//DTD SVG 1.1//EN" "http://www.w3.org/Graphics/SVG/1.1/DTD/svg11.dtd">
<svg version="1.1" id="Layer_1" xmlns="http://www.w3.org/2000/svg" xmlns:xlink="http://www.w3.org/1999/xlink" x="0px" y="0px"
	 width="128px" height="128px" viewBox="0 0 128 128" enable-background="new 0 0 128 128" xml:space="preserve">
<g>
	<g>
		<g>
			<path fill="#F8B551" d="M109.16,14.217c0-1.179-0.961-2.134-2.146-2.134c-1.184,0-2.145,0.955-2.145,2.134v3.047
				c-0.359,0.044-0.728,0.116-1.108,0.247L19.347,46.482c-2.971,1.029-5.725,1.872-6.118,1.872c-0.393,0-2.965-1.243-5.715-2.763
				l-2.872-1.586c-0.778-0.43-1.512-0.631-2.171-0.631c-1.671-0.001-2.829,1.312-2.829,3.559V81.07c0,2.246,1.158,3.559,2.829,3.559
				c0.657,0,1.393-0.203,2.171-0.632l2.872-1.586c2.75-1.522,5.322-2.765,5.715-2.765s3.146,0.843,6.118,1.871L32.61,86.07
				l-2.672,7.834c-0.333,0.975-0.492,1.975-0.492,2.955c0,3.856,2.436,7.457,6.307,8.771l16.14,5.447
				c0.978,0.33,1.985,0.489,2.974,0.489c3.876,0,7.497-2.423,8.815-6.271l2.616-7.665l37.464,12.857
				c0.383,0.132,0.748,0.203,1.108,0.247v3.048c0,1.178,0.962,2.134,2.145,2.134c1.185,0,2.146-0.956,2.146-2.134L109.16,14.217
				L109.16,14.217z M59.619,103.925c-0.694,2.058-2.67,3.377-4.753,3.376c-0.531,0-1.065-0.084-1.596-0.264l-16.139-5.447
				c-2.068-0.69-3.396-2.658-3.396-4.73c0-0.524,0.085-1.055,0.266-1.582l2.664-7.814L62.24,96.24L59.619,103.925z M87.834,100.508
				l-67.075-23.02c-6.089-2.109-6.991-2.109-7.53-2.109c-0.858,0-1.827,0-7.799,3.301l-1.498,0.826V48.495l1.498,0.827
				c5.973,3.299,6.943,3.299,7.799,3.299c0.539,0,1.441,0,7.53-2.109l67.075-23.019V100.508z M104.87,106.354l-12.745-4.373V26.02
				l12.745-4.373V106.354z"/>
		</g>
	</g>
	<g>
		<g>
			<path fill="#F8B551" d="M125.496,61.867h-11.142c-1.185,0-2.146,0.955-2.146,2.133s0.962,2.133,2.146,2.133h11.142
				c1.186,0,2.146-0.955,2.146-2.133S126.682,61.867,125.496,61.867z"/>
		</g>
	</g>
	<g>
		<g>
			<path fill="#F8B551" d="M123.738,92.041l-7.15-4.268c-1.014-0.605-2.334-0.277-2.941,0.731c-0.61,1.011-0.28,2.323,0.736,2.929
				l7.15,4.268c1.016,0.607,2.334,0.277,2.941-0.732C125.086,93.959,124.756,92.646,123.738,92.041z"/>
		</g>
	</g>
	<g>
		<g>
			<path fill="#F8B551" d="M124.475,33.032c-0.608-1.01-1.926-1.337-2.941-0.731l-7.15,4.268c-1.017,0.605-1.346,1.917-0.736,2.927
				c0.608,1.01,1.928,1.337,2.941,0.731l7.15-4.268C124.755,35.354,125.085,34.042,124.475,33.032z"/>
		</g>
	</g>
	<g>
		<g>
			<path fill="#F8B551" d="M63.165,44.386c-0.39-1.112-1.614-1.698-2.734-1.31l-14.393,5.003c-1.118,0.388-1.708,1.606-1.317,2.718
				c0.391,1.113,1.615,1.699,2.734,1.311l14.393-5.004C62.967,46.715,63.556,45.499,63.165,44.386z"/>
		</g>
	</g>
</g>
</svg>
