<?xml version="1.0" encoding="utf-8"?>
<!-- Generator: Adobe Illustrator 16.0.0, SVG Export Plug-In . SVG Version: 6.00 Build 0)  -->
<!DOCTYPE svg PUBLIC "-//W3C//DTD SVG 1.1//EN" "http://www.w3.org/Graphics/SVG/1.1/DTD/svg11.dtd">
<svg version="1.1" id="Layer_1" xmlns="http://www.w3.org/2000/svg" xmlns:xlink="http://www.w3.org/1999/xlink" x="0px" y="0px"
	 width="128px" height="128px" viewBox="0 0 128 128" enable-background="new 0 0 128 128" xml:space="preserve">
<g id="Settings">
	<g>
		<path fill="#F8B551" d="M127.438,56.903c-0.203-1.798-2.299-3.147-4.109-3.147c-5.858,0-11.056-3.439-13.237-8.758
			c-2.227-5.449-0.79-11.803,3.576-15.807c1.374-1.257,1.541-3.359,0.388-4.82c-2.998-3.808-6.406-7.247-10.126-10.227
			c-1.457-1.169-3.595-1.006-4.858,0.393c-3.811,4.22-10.653,5.788-15.941,3.581c-5.503-2.314-8.974-7.892-8.634-13.879
			c0.111-1.88-1.263-3.514-3.138-3.732c-4.774-0.553-9.591-0.57-14.38-0.037c-1.854,0.204-3.228,1.801-3.165,3.655
			c0.208,5.928-3.304,11.407-8.753,13.639c-5.225,2.134-12.021,0.579-15.823-3.603c-1.256-1.377-3.36-1.547-4.824-0.406
			c-3.831,3.006-7.315,6.448-10.341,10.224c-1.18,1.469-1.007,3.596,0.381,4.859c4.449,4.028,5.886,10.438,3.574,15.949
			c-2.207,5.253-7.662,8.639-13.908,8.639c-2.027-0.064-3.471,1.295-3.693,3.139c-0.562,4.802-0.569,9.695-0.028,14.537
			c0.201,1.805,2.36,3.143,4.192,3.143c5.566-0.143,10.91,3.305,13.152,8.758c2.234,5.449,0.798,11.799-3.574,15.807
			c-1.368,1.257-1.541,3.356-0.389,4.816c2.97,3.783,6.378,7.226,10.112,10.231c1.465,1.18,3.595,1.013,4.866-0.387
			c3.824-4.229,10.667-5.794,15.934-3.583c5.518,2.308,8.988,7.884,8.648,13.874c-0.11,1.88,1.271,3.519,3.137,3.732
			c2.442,0.285,4.899,0.428,7.364,0.428c2.338,0,4.678-0.129,7.017-0.389c1.854-0.205,3.228-1.802,3.165-3.66
			c-0.215-5.925,3.304-11.403,8.745-13.632c5.261-2.147,12.028-0.575,15.83,3.603c1.264,1.374,3.354,1.54,4.825,0.403
			c3.823-2.998,7.3-6.438,10.34-10.225c1.179-1.464,1.014-3.596-0.381-4.857c-4.449-4.028-5.893-10.438-3.582-15.946
			c2.173-5.184,7.426-8.664,13.075-8.664l0.791,0.021c1.833,0.148,3.52-1.264,3.741-3.134
			C127.973,66.634,127.979,61.744,127.438,56.903z M64.021,85.457c-11.757,0-21.32-9.562-21.32-21.321
			c0-11.757,9.563-21.32,21.32-21.32s21.32,9.563,21.32,21.32C85.341,75.895,75.778,85.457,64.021,85.457z"/>
	</g>
</g>
</svg>
