<?xml version="1.0" encoding="utf-8"?>
<!-- Generator: Adobe Illustrator 16.0.0, SVG Export Plug-In . SVG Version: 6.00 Build 0)  -->
<!DOCTYPE svg PUBLIC "-//W3C//DTD SVG 1.1//EN" "http://www.w3.org/Graphics/SVG/1.1/DTD/svg11.dtd">
<svg version="1.1" id="Layer_1" xmlns="http://www.w3.org/2000/svg" xmlns:xlink="http://www.w3.org/1999/xlink" x="0px" y="0px"
	 width="128px" height="128px" viewBox="0 0 128 128" enable-background="new 0 0 128 128" xml:space="preserve">
<g>
	<g>
		<g>
			<path fill="#A0A0A0" d="M64,12.256c-28.531,0-51.744,23.213-51.744,51.744S35.469,115.744,64,115.744S115.744,92.531,115.744,64
				S92.531,12.256,64,12.256z M64,111.432c-26.154,0-47.433-21.277-47.433-47.432c0-26.155,21.278-47.434,47.433-47.434
				c26.155,0,47.433,21.278,47.433,47.434C111.433,90.154,90.155,111.432,64,111.432z"/>
			<path fill="#A0A0A0" d="M91.769,72.715c-1.171-0.281-2.324,0.439-2.596,1.599C86.394,86.013,76.043,94.185,64,94.185
				c-12.058,0-22.413-8.185-25.18-19.9c-0.275-1.162-1.443-1.866-2.594-1.604c-1.16,0.274-1.878,1.437-1.604,2.594
				C37.852,88.948,49.934,98.495,64,98.495c14.05,0,26.127-9.533,29.367-23.186C93.644,74.15,92.928,72.988,91.769,72.715z"/>
			<path fill="#A0A0A0" d="M38.128,55.375c0-4.755,3.867-8.624,8.625-8.624c4.756,0,8.624,3.867,8.624,8.624
				c0,1.192,0.964,2.157,2.155,2.157c1.192,0,2.156-0.965,2.156-2.157c0-7.133-5.803-12.937-12.936-12.937
				c-7.134,0-12.937,5.804-12.937,12.937c0,1.192,0.964,2.157,2.156,2.157C37.163,57.532,38.128,56.567,38.128,55.375z"/>
			<path fill="#A0A0A0" d="M81.249,42.438c-7.135,0-12.937,5.804-12.937,12.937c0,1.192,0.964,2.157,2.156,2.157
				c1.191,0,2.156-0.965,2.156-2.157c0-4.755,3.867-8.624,8.624-8.624c4.756,0,8.623,3.867,8.623,8.624
				c0,1.192,0.965,2.157,2.157,2.157c1.19,0,2.155-0.965,2.155-2.157C94.185,48.242,88.382,42.438,81.249,42.438z"/>
		</g>
	</g>
</g>
</svg>
