<?xml version="1.0" encoding="utf-8"?>
<!-- Generator: Adobe Illustrator 16.0.0, SVG Export Plug-In . SVG Version: 6.00 Build 0)  -->
<!DOCTYPE svg PUBLIC "-//W3C//DTD SVG 1.1//EN" "http://www.w3.org/Graphics/SVG/1.1/DTD/svg11.dtd">
<svg version="1.1" id="Layer_1" xmlns="http://www.w3.org/2000/svg" xmlns:xlink="http://www.w3.org/1999/xlink" x="0px" y="0px"
	 width="128px" height="128px" viewBox="0 0 128 128" enable-background="new 0 0 128 128" xml:space="preserve">
<g>
	<g>
		<g>
			<path fill="#A0A0A0" d="M122.11,69.812c-1.744,0-2.905,1.162-2.905,2.904v37.771c0,1.744-1.163,2.906-2.907,2.906H11.701
				c-1.744,0-2.906-1.162-2.906-2.906V72.716c0-1.742-1.162-2.904-2.905-2.904c-1.743,0-2.905,1.162-2.905,2.904v37.771
				c0,4.94,3.777,8.718,8.717,8.718h104.597c4.939,0,8.717-3.777,8.717-8.718V72.716C125.015,70.974,123.854,69.812,122.11,69.812z"
				/>
		</g>
	</g>
	<g>
		<g>
			<path fill="#A0A0A0" d="M119.205,29.134H8.795c-4.939,0-8.716,3.777-8.716,8.717v18.596c0,4.066,2.906,7.554,6.683,8.426
				l45.616,10.169v9.297c0,1.744,1.162,2.906,2.906,2.906h17.432c1.744,0,2.906-1.162,2.906-2.906v-9.297l45.616-10.169
				c3.777-0.872,6.683-4.359,6.683-8.427V37.851C127.921,32.911,124.144,29.134,119.205,29.134z M69.811,81.434H58.189V69.812
				h11.622V81.434z M122.11,56.445c0,1.453-0.872,2.615-2.325,2.906l-44.163,9.878v-2.324c0-1.743-1.163-2.905-2.906-2.905H55.284
				c-1.744,0-2.906,1.162-2.906,2.905v2.324L8.214,59.352c-1.453-0.291-2.324-1.453-2.324-2.905V37.851
				c0-1.744,1.162-2.905,2.905-2.905h110.41c1.742,0,2.905,1.162,2.905,2.905V56.445z"/>
		</g>
	</g>
	<g>
		<g>
			<path fill="#A0A0A0" d="M78.527,8.795H49.473c-4.94,0-8.717,3.777-8.717,8.718v2.904c0,1.744,1.163,2.906,2.905,2.906
				c1.743,0,2.906-1.162,2.906-2.906v-2.904c0-1.744,1.162-2.906,2.905-2.906h29.055c1.744,0,2.906,1.162,2.906,2.906v2.904
				c0,1.744,1.163,2.906,2.905,2.906c1.744,0,2.906-1.162,2.906-2.906v-2.904C87.245,12.572,83.467,8.795,78.527,8.795z"/>
		</g>
	</g>
</g>
</svg>
