<?xml version="1.0" encoding="utf-8"?>
<!-- Generator: Adobe Illustrator 16.0.0, SVG Export Plug-In . SVG Version: 6.00 Build 0)  -->
<!DOCTYPE svg PUBLIC "-//W3C//DTD SVG 1.1//EN" "http://www.w3.org/Graphics/SVG/1.1/DTD/svg11.dtd">
<svg version="1.1" id="Layer_1" xmlns="http://www.w3.org/2000/svg" xmlns:xlink="http://www.w3.org/1999/xlink" x="0px" y="0px"
	 width="128px" height="128px" viewBox="0 0 128 128" enable-background="new 0 0 128 128" xml:space="preserve">
<g>
	<g>
		<linearGradient id="SVGID_1_" gradientUnits="userSpaceOnUse" x1="-0.0444" y1="10.0059" x2="122.9062" y2="98.6721">
			<stop  offset="0.0545" style="stop-color:#D7AC63"/>
			<stop  offset="0.2667" style="stop-color:#E8D980"/>
			<stop  offset="0.3018" style="stop-color:#E3D37C"/>
			<stop  offset="0.3489" style="stop-color:#D6C270"/>
			<stop  offset="0.4027" style="stop-color:#BFA65B"/>
			<stop  offset="0.4611" style="stop-color:#A07F40"/>
			<stop  offset="0.5091" style="stop-color:#825A25"/>
			<stop  offset="0.5532" style="stop-color:#8F662E"/>
			<stop  offset="0.6342" style="stop-color:#B08647"/>
			<stop  offset="0.7152" style="stop-color:#D8AC64"/>
			<stop  offset="0.8667" style="stop-color:#916232"/>
			<stop  offset="0.9818" style="stop-color:#7D4C23"/>
			<stop  offset="1" style="stop-color:#27180A"/>
		</linearGradient>
		<path fill="url(#SVGID_1_)" d="M64,7.993c2.269,0,3.954,0.969,8.493,3.772c1.898,1.172,4.05,2.5,6.703,3.982
			c10.146,5.666,19.083,9.178,32.268,9.178c0.732,0,1.063,0.113,1.146,0.147c0.09,0.117,0.571,0.833,0.799,2.983
			c0.238,2.249,0.083,4.906-0.12,7.442c-1.4,17.519-4.599,31.095-10.067,42.726c-4.789,10.188-11.174,19.345-18.978,27.217
			c-0.355,0.358-0.723,0.731-1.103,1.116c-2.918,2.961-6.55,6.646-10.307,9.44c-4.458,3.314-7.265,4.011-8.834,4.011
			c-1.569,0-4.375-0.696-8.834-4.011c-3.757-2.793-7.389-6.479-10.307-9.44c-0.379-0.385-0.747-0.758-1.103-1.116
			c-7.803-7.873-14.188-17.03-18.978-27.217c-5.468-11.63-8.667-25.207-10.067-42.726c-0.203-2.536-0.357-5.193-0.119-7.442
			c0.227-2.151,0.708-2.866,0.799-2.983c0.083-0.035,0.414-0.147,1.146-0.147c13.185,0,22.122-3.512,32.268-9.178
			c2.653-1.481,4.805-2.81,6.703-3.982C60.046,8.962,61.731,7.993,64,7.993 M64,0.506c-6.207,0-9.665,3.577-18.846,8.704
			c-9.182,5.127-16.812,8.228-28.617,8.228c-10.312,0-9.903,10.977-9.289,18.656c1.249,15.624,4.046,31.044,10.755,45.315
			c5.09,10.828,12.01,20.803,20.435,29.303c6.143,6.198,15.997,16.783,25.562,16.783s19.418-10.585,25.562-16.783
			c8.425-8.5,15.345-18.475,20.435-29.303c6.709-14.271,9.506-29.691,10.755-45.315c0.614-7.68,1.023-18.656-9.289-18.656
			c-11.805,0-19.437-3.1-28.617-8.228C73.665,4.083,70.207,0.506,64,0.506L64,0.506z"/>
	</g>
	<linearGradient id="SVGID_2_" gradientUnits="userSpaceOnUse" x1="-12.7471" y1="27.6206" x2="110.2026" y2="116.2862">
		<stop  offset="0.0545" style="stop-color:#D7AC63"/>
		<stop  offset="0.2667" style="stop-color:#E8D980"/>
		<stop  offset="0.3018" style="stop-color:#E3D37C"/>
		<stop  offset="0.3489" style="stop-color:#D6C270"/>
		<stop  offset="0.4027" style="stop-color:#BFA65B"/>
		<stop  offset="0.4611" style="stop-color:#A07F40"/>
		<stop  offset="0.5091" style="stop-color:#825A25"/>
		<stop  offset="0.5532" style="stop-color:#8F662E"/>
		<stop  offset="0.6342" style="stop-color:#B08647"/>
		<stop  offset="0.7152" style="stop-color:#D8AC64"/>
		<stop  offset="0.8667" style="stop-color:#916232"/>
		<stop  offset="0.9818" style="stop-color:#7D4C23"/>
		<stop  offset="1" style="stop-color:#27180A"/>
	</linearGradient>
	<path fill="url(#SVGID_2_)" d="M61.307,96.089c-1.06-0.523-2.121-1.052-3.177-1.593c0.385-0.888,0.907-2.519,0.419-4.042
		c-0.897-2.796-2.739-4.21-2.739-4.21s-1.16,2.846-0.903,4.557c0.149,0.997,0.673,1.918,1.234,2.654
		c-1.529-0.819-3.037-1.678-4.506-2.595c0.471-0.769,1.205-2.265,0.932-3.789c-0.49-2.731-2.039-4.286-2.039-4.286
		s-1.442,2.521-1.416,4.155c0.017,1.081,0.497,2.129,1,2.938c-1.564-1.047-3.07-2.178-4.497-3.419
		c0.449-0.555,1.436-1.963,1.306-3.509c-0.208-2.489-1.463-4.014-1.463-4.014s-1.506,2.136-1.621,3.604
		c-0.089,1.131,0.39,2.276,0.84,3.081c-1.301-1.199-2.524-2.465-3.668-3.794c0.495-0.472,1.476-1.569,1.554-2.909
		c0.131-2.244-0.794-3.761-0.794-3.761s-1.613,1.712-1.902,3.003c-0.202,0.905,0.011,1.881,0.276,2.632
		c-1.046-1.288-2.02-2.632-2.925-4.024c0.479-0.368,1.483-1.267,1.68-2.475c0.325-1.997-0.362-3.441-0.362-3.441
		s-1.603,1.383-1.981,2.513c-0.26,0.778-0.167,1.654-0.005,2.345c-0.814-1.326-1.566-2.696-2.257-4.104
		c0.482-0.284,1.448-0.963,1.756-1.998c0.521-1.744,0.074-3.113,0.074-3.113s-1.591,1.05-2.059,2.015
		c-0.312,0.642-0.338,1.403-0.281,2.028c-0.618-1.337-1.182-2.708-1.69-4.107c0.443-0.193,1.417-0.707,1.809-1.625
		c0.642-1.508,0.381-2.777,0.381-2.777s-1.529,0.778-2.044,1.594c-0.373,0.589-0.46,1.337-0.458,1.927
		c-0.463-1.346-0.876-2.718-1.241-4.114c0.437-0.155,1.283-0.54,1.685-1.296c0.691-1.302,0.555-2.461,0.555-2.461
		s-1.431,0.581-1.956,1.272c-0.331,0.434-0.476,0.994-0.536,1.48c-0.269-1.111-0.506-2.238-0.712-3.377
		c0.434-0.101,1.26-0.37,1.718-1.03c0.798-1.151,0.799-2.258,0.799-2.258s-1.414,0.386-1.987,0.979
		c-0.377,0.392-0.58,0.934-0.688,1.401c-0.196-1.182-0.359-2.378-0.488-3.585c0.405-0.071,1.233-0.289,1.708-0.913
		c0.805-1.06,0.851-2.111,0.851-2.111s-1.358,0.309-1.927,0.849c-0.382,0.363-0.597,0.884-0.717,1.329
		c-0.108-1.148-0.187-2.308-0.235-3.476c0.385-0.03,1.198-0.161,1.707-0.715c0.855-0.931,0.992-1.921,0.992-1.921
		s-1.312,0.173-1.897,0.632c-0.422,0.333-0.678,0.853-0.829,1.281c-0.035-1.121-0.041-2.25-0.021-3.385
		c0.354-0.025,1.153-0.142,1.648-0.681c0.812-0.884,0.942-1.825,0.942-1.825s-1.247,0.163-1.802,0.601
		c-0.386,0.303-0.626,0.772-0.771,1.17c0.03-1.043,0.082-2.091,0.158-3.144c0.312-0.014,1.045-0.096,1.51-0.577
		c0.75-0.778,0.888-1.622,0.888-1.622s-1.125,0.12-1.635,0.501c-0.347,0.259-0.57,0.665-0.71,1.014
		c0.072-0.895,0.162-1.793,0.268-2.694c0.246,0.015,0.966,0.019,1.445-0.402c0.731-0.642,0.918-1.388,0.918-1.388
		s-1.019,0.023-1.504,0.327c-0.413,0.258-0.671,0.735-0.812,1.073c0.082-0.661,0.172-1.323,0.271-1.985
		c0.208-0.175,0.792-0.724,0.855-1.431c0.096-1.076-0.325-1.819-0.325-1.819s-0.801,0.799-0.959,1.415
		c-0.205,0.8,0.27,1.736,0.344,1.875c-0.104,0.527-0.226,1.203-0.352,2.015c-0.058-0.417-0.176-0.999-0.41-1.347
		c-0.552-0.825-1.832-1.109-1.832-1.109s-0.11,1.171,0.546,1.874c0.643,0.688,1.35,0.959,1.626,1.044
		c-0.123,0.84-0.245,1.804-0.351,2.875c-0.104-0.454-0.288-1.074-0.574-1.433c-0.688-0.863-2.13-1.059-2.13-1.059
		s-0.015,1.307,0.777,2.023c0.758,0.687,1.547,0.927,1.876,1.002c-0.089,0.974-0.163,2.031-0.212,3.157
		c-0.131-0.48-0.34-1.07-0.635-1.421c-0.789-0.939-2.396-1.119-2.396-1.119s0.02,1.452,0.918,2.227
		c0.839,0.723,1.701,0.975,2.083,1.056c-0.033,0.992-0.045,2.033-0.032,3.117c-0.139-0.456-0.338-0.958-0.604-1.275
		c-0.83-0.989-2.522-1.178-2.522-1.178s0.021,1.529,0.967,2.344c0.874,0.753,1.77,1.02,2.179,1.108
		c0.029,1.06,0.085,2.156,0.172,3.283c-0.188-0.451-0.439-0.936-0.74-1.232c-0.967-0.956-2.758-0.988-2.758-0.988
		s0.171,1.6,1.243,2.362c0.958,0.682,1.893,0.883,2.349,0.942c0.101,1.074,0.233,2.173,0.399,3.291
		c-0.211-0.433-0.479-0.88-0.784-1.156c-1.06-0.961-2.945-0.912-2.945-0.912s0.253,1.674,1.415,2.427
		c1.038,0.672,2.029,0.842,2.511,0.884c0.175,1.038,0.38,2.09,0.621,3.154c-0.273-0.42-0.603-0.842-0.949-1.088
		c-1.227-0.873-3.192-0.587-3.192-0.587s0.473,1.719,1.78,2.362c1.118,0.548,2.138,0.622,2.669,0.613
		c0.287,1.145,0.614,2.301,0.986,3.463c-0.309-0.374-0.657-0.727-1.007-0.933c-1.441-0.85-3.59-0.347-3.59-0.347
		s0.687,1.857,2.196,2.445c1.239,0.482,2.333,0.486,2.938,0.433c0.44,1.242,0.933,2.49,1.485,3.735
		c-0.417-0.42-0.894-0.82-1.35-1.023c-1.698-0.758-4.007,0.064-4.007,0.064s0.99,1.966,2.729,2.426
		c1.47,0.388,2.708,0.238,3.356,0.1c0.591,1.223,1.24,2.442,1.955,3.653c-0.521-0.404-1.104-0.778-1.636-0.938
		c-1.979-0.593-4.406,0.642-4.406,0.642s1.371,2.025,3.353,2.284c1.661,0.217,2.994-0.118,3.693-0.362
		c0.488,0.759,1,1.514,1.542,2.263c0.325,0.438,0.65,0.86,0.977,1.275c-0.626-0.392-1.323-0.745-1.936-0.861
		c-2.255-0.43-4.796,1.214-4.796,1.214s1.747,2.081,3.967,2.14c1.914,0.051,3.38-0.505,4.105-0.854
		c0.928,1.09,1.861,2.099,2.796,3.033c-0.691-0.291-1.427-0.523-2.055-0.553c-2.547-0.119-5.085,2.088-5.085,2.088
		s2.249,2.015,4.7,1.732c2.026-0.234,3.509-1.016,4.282-1.519c1.248,1.123,2.494,2.129,3.732,3.042
		c-0.804-0.254-1.652-0.439-2.358-0.406c-2.831,0.135-5.408,2.84-5.408,2.84s2.697,1.994,5.38,1.425
		c2.348-0.498,3.961-1.614,4.717-2.237c1.383,0.908,2.75,1.717,4.088,2.461c-0.921-0.171-1.897-0.263-2.674-0.122
		c-2.95,0.538-5.272,3.737-5.272,3.737s3.108,1.713,5.841,0.741c2.388-0.851,3.923-2.244,4.63-3.004
		c6.838,3.552,12.722,5.921,16.047,12.144l1.453-1.724C72.986,101.239,65.804,98.309,61.307,96.089z"/>
	<linearGradient id="SVGID_3_" gradientUnits="userSpaceOnUse" x1="-2.2832" y1="13.1123" x2="120.6651" y2="101.777">
		<stop  offset="0.0545" style="stop-color:#D7AC63"/>
		<stop  offset="0.2667" style="stop-color:#E8D980"/>
		<stop  offset="0.3018" style="stop-color:#E3D37C"/>
		<stop  offset="0.3489" style="stop-color:#D6C270"/>
		<stop  offset="0.4027" style="stop-color:#BFA65B"/>
		<stop  offset="0.4611" style="stop-color:#A07F40"/>
		<stop  offset="0.5091" style="stop-color:#825A25"/>
		<stop  offset="0.5532" style="stop-color:#8F662E"/>
		<stop  offset="0.6342" style="stop-color:#B08647"/>
		<stop  offset="0.7152" style="stop-color:#D8AC64"/>
		<stop  offset="0.8667" style="stop-color:#916232"/>
		<stop  offset="0.9818" style="stop-color:#7D4C23"/>
		<stop  offset="1" style="stop-color:#27180A"/>
	</linearGradient>
	<path fill="url(#SVGID_3_)" d="M101.436,56.457c1.162-0.753,1.415-2.427,1.415-2.427s-1.885-0.049-2.945,0.912
		c-0.305,0.276-0.572,0.723-0.784,1.156c0.166-1.118,0.297-2.217,0.399-3.291c0.456-0.06,1.39-0.261,2.349-0.942
		c1.072-0.762,1.243-2.362,1.243-2.362s-1.791,0.032-2.758,0.988c-0.3,0.296-0.552,0.781-0.74,1.232
		c0.087-1.127,0.144-2.223,0.172-3.283c0.41-0.089,1.306-0.355,2.179-1.108c0.946-0.815,0.967-2.344,0.967-2.344
		s-1.692,0.188-2.521,1.178c-0.266,0.317-0.466,0.819-0.604,1.275c0.013-1.084,0.001-2.125-0.032-3.117
		c0.383-0.081,1.244-0.333,2.083-1.056c0.898-0.775,0.918-2.227,0.918-2.227s-1.607,0.179-2.396,1.119
		c-0.295,0.352-0.503,0.941-0.635,1.421c-0.049-1.126-0.123-2.184-0.212-3.157c0.329-0.075,1.118-0.315,1.876-1.002
		c0.792-0.717,0.777-2.023,0.777-2.023s-1.442,0.196-2.131,1.059c-0.286,0.359-0.47,0.979-0.574,1.433
		c-0.106-1.07-0.228-2.034-0.351-2.875c0.276-0.085,0.983-0.356,1.626-1.044c0.656-0.703,0.546-1.874,0.546-1.874
		s-1.279,0.284-1.832,1.109c-0.233,0.348-0.352,0.93-0.41,1.347c-0.125-0.812-0.248-1.488-0.351-2.015
		c0.074-0.139,0.549-1.075,0.344-1.875c-0.159-0.616-0.959-1.415-0.959-1.415s-0.422,0.743-0.325,1.819
		c0.063,0.707,0.647,1.256,0.855,1.431c0.099,0.662,0.189,1.324,0.271,1.985c-0.141-0.338-0.399-0.815-0.812-1.073
		c-0.486-0.304-1.504-0.327-1.504-0.327s0.187,0.746,0.918,1.388c0.479,0.42,1.199,0.417,1.444,0.402
		c0.106,0.901,0.195,1.799,0.269,2.694c-0.14-0.349-0.364-0.755-0.71-1.014c-0.51-0.381-1.635-0.501-1.635-0.501
		s0.138,0.844,0.888,1.622c0.464,0.481,1.198,0.563,1.51,0.577c0.076,1.053,0.128,2.101,0.158,3.144
		c-0.145-0.398-0.385-0.867-0.771-1.17c-0.556-0.438-1.803-0.601-1.803-0.601s0.13,0.94,0.943,1.825
		c0.495,0.54,1.294,0.656,1.648,0.681c0.02,1.135,0.013,2.264-0.021,3.385c-0.15-0.428-0.407-0.948-0.829-1.281
		c-0.585-0.459-1.897-0.632-1.897-0.632s0.137,0.991,0.992,1.921c0.51,0.554,1.322,0.685,1.708,0.715
		c-0.048,1.168-0.126,2.327-0.235,3.476c-0.121-0.445-0.336-0.966-0.718-1.329c-0.569-0.54-1.927-0.849-1.927-0.849
		s0.047,1.051,0.853,2.111c0.474,0.625,1.303,0.842,1.708,0.913c-0.13,1.207-0.292,2.403-0.488,3.585
		c-0.108-0.467-0.31-1.01-0.688-1.401c-0.573-0.593-1.988-0.979-1.988-0.979s0.002,1.107,0.8,2.258
		c0.458,0.66,1.284,0.93,1.718,1.03c-0.207,1.139-0.443,2.266-0.712,3.377c-0.061-0.486-0.206-1.046-0.536-1.48
		c-0.526-0.692-1.956-1.272-1.956-1.272s-0.136,1.159,0.555,2.461c0.401,0.756,1.248,1.141,1.684,1.296
		c-0.364,1.396-0.777,2.768-1.24,4.114c0.002-0.589-0.085-1.337-0.458-1.927c-0.516-0.816-2.044-1.594-2.044-1.594
		s-0.261,1.269,0.381,2.777c0.392,0.918,1.366,1.432,1.809,1.625c-0.509,1.399-1.073,2.77-1.69,4.107
		c0.057-0.625,0.03-1.386-0.281-2.028c-0.468-0.965-2.059-2.015-2.059-2.015s-0.447,1.369,0.074,3.113
		c0.309,1.035,1.274,1.714,1.756,1.998c-0.691,1.408-1.443,2.778-2.257,4.104c0.162-0.691,0.254-1.567-0.006-2.345
		c-0.378-1.13-1.98-2.513-1.98-2.513s-0.687,1.444-0.362,3.441c0.197,1.208,1.201,2.106,1.68,2.475
		c-0.905,1.392-1.879,2.736-2.925,4.024c0.265-0.751,0.478-1.727,0.276-2.632c-0.289-1.292-1.902-3.003-1.902-3.003
		s-0.925,1.517-0.794,3.761c0.078,1.339,1.059,2.437,1.553,2.909c-1.144,1.329-2.367,2.596-3.667,3.794
		c0.45-0.804,0.929-1.95,0.84-3.081c-0.115-1.467-1.621-3.604-1.621-3.604s-1.255,1.524-1.463,4.014
		c-0.129,1.546,0.857,2.955,1.306,3.509c-1.426,1.241-2.933,2.372-4.497,3.419c0.503-0.809,0.983-1.857,1-2.938
		c0.027-1.634-1.416-4.155-1.416-4.155s-1.548,1.555-2.038,4.286c-0.273,1.523,0.46,3.02,0.931,3.789
		c-1.469,0.917-2.976,1.776-4.505,2.595c0.561-0.736,1.084-1.657,1.234-2.654c0.256-1.711-0.903-4.557-0.903-4.557
		s-1.842,1.415-2.739,4.21c-0.488,1.523,0.035,3.154,0.419,4.042c-1.056,0.542-2.117,1.07-3.178,1.593
		c-4.497,2.219-11.679,5.15-14.068,10.199l1.453,1.724c3.325-6.223,9.209-8.591,16.047-12.144c0.708,0.76,2.242,2.153,4.631,3.004
		c2.733,0.972,5.841-0.741,5.841-0.741s-2.323-3.199-5.273-3.737c-0.776-0.142-1.752-0.05-2.673,0.122
		c1.339-0.744,2.706-1.553,4.088-2.461c0.755,0.624,2.37,1.74,4.717,2.237c2.682,0.569,5.379-1.425,5.379-1.425
		s-2.577-2.706-5.407-2.84c-0.706-0.034-1.554,0.152-2.358,0.406c1.238-0.912,2.484-1.919,3.732-3.042
		c0.774,0.503,2.256,1.285,4.283,1.519c2.452,0.283,4.7-1.732,4.7-1.732s-2.538-2.207-5.085-2.088
		c-0.629,0.029-1.364,0.262-2.055,0.553c0.935-0.934,1.868-1.942,2.796-3.033c0.726,0.35,2.192,0.905,4.105,0.854
		c2.221-0.06,3.968-2.14,3.968-2.14s-2.541-1.644-4.796-1.214c-0.613,0.117-1.31,0.47-1.936,0.861
		c0.327-0.415,0.652-0.837,0.977-1.275c0.542-0.749,1.053-1.504,1.542-2.263c0.7,0.245,2.033,0.58,3.693,0.362
		c1.983-0.259,3.353-2.284,3.353-2.284s-2.427-1.235-4.406-0.642c-0.533,0.16-1.116,0.534-1.636,0.938
		c0.715-1.211,1.363-2.431,1.955-3.653c0.648,0.138,1.886,0.289,3.355-0.1c1.739-0.46,2.729-2.426,2.729-2.426
		s-2.309-0.822-4.007-0.064c-0.456,0.204-0.933,0.604-1.351,1.023c0.552-1.246,1.045-2.493,1.485-3.735
		c0.605,0.053,1.699,0.05,2.939-0.433c1.508-0.587,2.195-2.445,2.195-2.445s-2.148-0.503-3.589,0.347
		c-0.35,0.207-0.699,0.559-1.007,0.933c0.372-1.163,0.699-2.318,0.986-3.463c0.531,0.008,1.55-0.065,2.669-0.613
		c1.308-0.643,1.78-2.362,1.78-2.362s-1.965-0.285-3.192,0.587c-0.346,0.246-0.676,0.668-0.948,1.088
		c0.24-1.064,0.445-2.116,0.621-3.154C99.406,57.298,100.398,57.129,101.436,56.457z"/>
	<linearGradient id="SVGID_5_" gradientUnits="userSpaceOnUse" x1="-2.2261" y1="13.0332" x2="120.721" y2="101.697">
		<stop  offset="0.0545" style="stop-color:#D7AC63"/>
		<stop  offset="0.2667" style="stop-color:#E8D980"/>
		<stop  offset="0.3018" style="stop-color:#E3D37C"/>
		<stop  offset="0.3489" style="stop-color:#D6C270"/>
		<stop  offset="0.4027" style="stop-color:#BFA65B"/>
		<stop  offset="0.4611" style="stop-color:#A07F40"/>
		<stop  offset="0.5091" style="stop-color:#825A25"/>
		<stop  offset="0.5532" style="stop-color:#8F662E"/>
		<stop  offset="0.6342" style="stop-color:#B08647"/>
		<stop  offset="0.7152" style="stop-color:#D8AC64"/>
		<stop  offset="0.8667" style="stop-color:#916232"/>
		<stop  offset="0.9818" style="stop-color:#7D4C23"/>
		<stop  offset="1" style="stop-color:#27180A"/>
	</linearGradient>
	<path fill="url(#SVGID_5_)" d="M69.286,60.073c0,0,0-13.99,0-15.142s0.868-1.957,1.499-2.209c0.631-0.252,2.272-0.331,2.272-0.331
		v-2.477c-4.212-0.41-9.057-0.3-9.057-0.3s-4.844-0.11-9.056,0.3v2.477c0,0,1.641,0.079,2.272,0.331
		c0.631,0.252,1.499,1.057,1.499,2.209c0,1.062,0,12.975,0,14.892c0,0.162,0,0.25,0,0.25c0,1.916,0,15.629,0,16.691
		c0,1.152-0.868,1.957-1.499,2.209c-0.631,0.253-2.272,0.332-2.272,0.332v2.367c3.849,0.473,9.056,0.41,9.056,0.41
		s5.208,0.063,9.057-0.41v-2.367c0,0-1.641-0.079-2.272-0.332c-0.631-0.252-1.499-1.057-1.499-2.209
		C69.286,75.702,69.286,61.989,69.286,60.073L69.286,60.073z"/>
	<g>
		<g>
			<linearGradient id="SVGID_6_" gradientUnits="userSpaceOnUse" x1="-10.6465" y1="24.7139" x2="112.2947" y2="113.3733">
				<stop  offset="0.0545" style="stop-color:#D7AC63"/>
				<stop  offset="0.2667" style="stop-color:#E8D980"/>
				<stop  offset="0.3018" style="stop-color:#E3D37C"/>
				<stop  offset="0.3489" style="stop-color:#D6C270"/>
				<stop  offset="0.4027" style="stop-color:#BFA65B"/>
				<stop  offset="0.4611" style="stop-color:#A07F40"/>
				<stop  offset="0.5091" style="stop-color:#825A25"/>
				<stop  offset="0.5532" style="stop-color:#8F662E"/>
				<stop  offset="0.6342" style="stop-color:#B08647"/>
				<stop  offset="0.7152" style="stop-color:#D8AC64"/>
				<stop  offset="0.8667" style="stop-color:#916232"/>
				<stop  offset="0.9818" style="stop-color:#7D4C23"/>
				<stop  offset="1" style="stop-color:#27180A"/>
			</linearGradient>
			<polygon fill="url(#SVGID_6_)" points="47.514,59.792 49.07,63.798 53.361,64.041 50.032,66.758 51.127,70.914 47.514,68.587 
				43.9,70.914 44.997,66.758 41.667,64.041 45.958,63.798 			"/>
			<linearGradient id="SVGID_7_" gradientUnits="userSpaceOnUse" x1="-5.4814" y1="17.5376" x2="117.4759" y2="106.2087">
				<stop  offset="0.0545" style="stop-color:#D7AC63"/>
				<stop  offset="0.2667" style="stop-color:#E8D980"/>
				<stop  offset="0.3018" style="stop-color:#E3D37C"/>
				<stop  offset="0.3489" style="stop-color:#D6C270"/>
				<stop  offset="0.4027" style="stop-color:#BFA65B"/>
				<stop  offset="0.4611" style="stop-color:#A07F40"/>
				<stop  offset="0.5091" style="stop-color:#825A25"/>
				<stop  offset="0.5532" style="stop-color:#8F662E"/>
				<stop  offset="0.6342" style="stop-color:#B08647"/>
				<stop  offset="0.7152" style="stop-color:#D8AC64"/>
				<stop  offset="0.8667" style="stop-color:#916232"/>
				<stop  offset="0.9818" style="stop-color:#7D4C23"/>
				<stop  offset="1" style="stop-color:#27180A"/>
			</linearGradient>
			<polygon fill="url(#SVGID_7_)" points="42.463,45.935 43.864,49.541 47.725,49.759 44.729,52.205 45.715,55.945 42.463,53.851 
				39.21,55.945 40.197,52.205 37.2,49.759 41.063,49.541 			"/>
			<linearGradient id="SVGID_8_" gradientUnits="userSpaceOnUse" x1="2.064" y1="7.0859" x2="125.006" y2="95.746">
				<stop  offset="0.0545" style="stop-color:#D7AC63"/>
				<stop  offset="0.2667" style="stop-color:#E8D980"/>
				<stop  offset="0.3018" style="stop-color:#E3D37C"/>
				<stop  offset="0.3489" style="stop-color:#D6C270"/>
				<stop  offset="0.4027" style="stop-color:#BFA65B"/>
				<stop  offset="0.4611" style="stop-color:#A07F40"/>
				<stop  offset="0.5091" style="stop-color:#825A25"/>
				<stop  offset="0.5532" style="stop-color:#8F662E"/>
				<stop  offset="0.6342" style="stop-color:#B08647"/>
				<stop  offset="0.7152" style="stop-color:#D8AC64"/>
				<stop  offset="0.8667" style="stop-color:#916232"/>
				<stop  offset="0.9818" style="stop-color:#7D4C23"/>
				<stop  offset="1" style="stop-color:#27180A"/>
			</linearGradient>
			<polygon fill="url(#SVGID_8_)" points="43.806,31.628 45.067,34.873 48.542,35.069 45.845,37.271 46.733,40.637 43.806,38.753 
				40.878,40.637 41.767,37.271 39.07,35.069 42.545,34.873 			"/>
		</g>
		<g>
			<linearGradient id="SVGID_9_" gradientUnits="userSpaceOnUse" x1="0.6309" y1="9.0679" x2="123.5823" y2="97.7348">
				<stop  offset="0.0545" style="stop-color:#D7AC63"/>
				<stop  offset="0.2667" style="stop-color:#E8D980"/>
				<stop  offset="0.3018" style="stop-color:#E3D37C"/>
				<stop  offset="0.3489" style="stop-color:#D6C270"/>
				<stop  offset="0.4027" style="stop-color:#BFA65B"/>
				<stop  offset="0.4611" style="stop-color:#A07F40"/>
				<stop  offset="0.5091" style="stop-color:#825A25"/>
				<stop  offset="0.5532" style="stop-color:#8F662E"/>
				<stop  offset="0.6342" style="stop-color:#B08647"/>
				<stop  offset="0.7152" style="stop-color:#D8AC64"/>
				<stop  offset="0.8667" style="stop-color:#916232"/>
				<stop  offset="0.9818" style="stop-color:#7D4C23"/>
				<stop  offset="1" style="stop-color:#27180A"/>
			</linearGradient>
			<polygon fill="url(#SVGID_9_)" points="80.486,59.792 78.93,63.798 74.639,64.041 77.969,66.758 76.873,70.914 80.486,68.587 
				84.101,70.914 83.004,66.758 86.333,64.041 82.042,63.798 			"/>
			<linearGradient id="SVGID_10_" gradientUnits="userSpaceOnUse" x1="9.2603" y1="-2.8945" x2="132.2062" y2="85.7684">
				<stop  offset="0.0545" style="stop-color:#D7AC63"/>
				<stop  offset="0.2667" style="stop-color:#E8D980"/>
				<stop  offset="0.3018" style="stop-color:#E3D37C"/>
				<stop  offset="0.3489" style="stop-color:#D6C270"/>
				<stop  offset="0.4027" style="stop-color:#BFA65B"/>
				<stop  offset="0.4611" style="stop-color:#A07F40"/>
				<stop  offset="0.5091" style="stop-color:#825A25"/>
				<stop  offset="0.5532" style="stop-color:#8F662E"/>
				<stop  offset="0.6342" style="stop-color:#B08647"/>
				<stop  offset="0.7152" style="stop-color:#D8AC64"/>
				<stop  offset="0.8667" style="stop-color:#916232"/>
				<stop  offset="0.9818" style="stop-color:#7D4C23"/>
				<stop  offset="1" style="stop-color:#27180A"/>
			</linearGradient>
			<polygon fill="url(#SVGID_10_)" points="85.538,45.935 84.137,49.541 80.275,49.759 83.271,52.205 82.285,55.945 85.538,53.851 
				88.79,55.945 87.804,52.205 90.8,49.759 86.938,49.541 			"/>
			<linearGradient id="SVGID_11_" gradientUnits="userSpaceOnUse" x1="15.8843" y1="-12.0737" x2="138.8263" y2="76.5864">
				<stop  offset="0.0545" style="stop-color:#D7AC63"/>
				<stop  offset="0.2667" style="stop-color:#E8D980"/>
				<stop  offset="0.3018" style="stop-color:#E3D37C"/>
				<stop  offset="0.3489" style="stop-color:#D6C270"/>
				<stop  offset="0.4027" style="stop-color:#BFA65B"/>
				<stop  offset="0.4611" style="stop-color:#A07F40"/>
				<stop  offset="0.5091" style="stop-color:#825A25"/>
				<stop  offset="0.5532" style="stop-color:#8F662E"/>
				<stop  offset="0.6342" style="stop-color:#B08647"/>
				<stop  offset="0.7152" style="stop-color:#D8AC64"/>
				<stop  offset="0.8667" style="stop-color:#916232"/>
				<stop  offset="0.9818" style="stop-color:#7D4C23"/>
				<stop  offset="1" style="stop-color:#27180A"/>
			</linearGradient>
			<polygon fill="url(#SVGID_11_)" points="84.194,31.628 82.934,34.873 79.458,35.069 82.155,37.271 81.267,40.637 84.194,38.753 
				87.121,40.637 86.233,37.271 88.93,35.069 85.455,34.873 			"/>
		</g>
	</g>
	<linearGradient id="SVGID_12_" gradientUnits="userSpaceOnUse" x1="-25.0293" y1="44.6538" x2="97.9196" y2="133.3189">
		<stop  offset="0.0545" style="stop-color:#D7AC63"/>
		<stop  offset="0.2667" style="stop-color:#E8D980"/>
		<stop  offset="0.3018" style="stop-color:#E3D37C"/>
		<stop  offset="0.3489" style="stop-color:#D6C270"/>
		<stop  offset="0.4027" style="stop-color:#BFA65B"/>
		<stop  offset="0.4611" style="stop-color:#A07F40"/>
		<stop  offset="0.5091" style="stop-color:#825A25"/>
		<stop  offset="0.5532" style="stop-color:#8F662E"/>
		<stop  offset="0.6342" style="stop-color:#B08647"/>
		<stop  offset="0.7152" style="stop-color:#D8AC64"/>
		<stop  offset="0.8667" style="stop-color:#916232"/>
		<stop  offset="0.9818" style="stop-color:#7D4C23"/>
		<stop  offset="1" style="stop-color:#27180A"/>
	</linearGradient>
	<circle fill="url(#SVGID_12_)" cx="64" cy="108.858" r="3.678"/>
	<linearGradient id="SVGID_13_" gradientUnits="userSpaceOnUse" x1="13.918" y1="-9.355" x2="136.8686" y2="79.3113">
		<stop  offset="0.0545" style="stop-color:#D7AC63"/>
		<stop  offset="0.2667" style="stop-color:#E8D980"/>
		<stop  offset="0.3018" style="stop-color:#E3D37C"/>
		<stop  offset="0.3489" style="stop-color:#D6C270"/>
		<stop  offset="0.4027" style="stop-color:#BFA65B"/>
		<stop  offset="0.4611" style="stop-color:#A07F40"/>
		<stop  offset="0.5091" style="stop-color:#825A25"/>
		<stop  offset="0.5532" style="stop-color:#8F662E"/>
		<stop  offset="0.6342" style="stop-color:#B08647"/>
		<stop  offset="0.7152" style="stop-color:#D8AC64"/>
		<stop  offset="0.8667" style="stop-color:#916232"/>
		<stop  offset="0.9818" style="stop-color:#7D4C23"/>
		<stop  offset="1" style="stop-color:#27180A"/>
	</linearGradient>
	<path fill="url(#SVGID_13_)" d="M76.066,21L76.066,21c-0.043-0.466-0.485-0.833-1.025-0.833c-0.569,0-1.03,0.407-1.03,0.908
		c0,0.298,0.162,0.56,0.412,0.726l-5.283,5.736h-0.009l-0.544-1.738c-0.01-0.03-0.021-0.057-0.032-0.083l0,0c0,0,0,0,0-0.001
		c-0.006-0.012-0.012-0.024-0.017-0.034c0.356-0.072,0.623-0.354,0.623-0.689c0-0.39-0.359-0.707-0.802-0.707
		c-0.421,0-0.765,0.286-0.798,0.649c0,0-0.001,0-0.001,0c-0.001,0.02-0.003,0.039-0.003,0.058c0,0.282,0.188,0.524,0.458,0.638
		c-0.004,0.003-0.006,0.006-0.01,0.009c-0.011,0.01-0.021,0.021-0.031,0.031c-0.006,0.005-0.012,0.011-0.017,0.017
		c-0.016,0.017-0.033,0.035-0.049,0.055l-1.052,1.279l-0.001-0.003l0.005-0.006l-2.621-5.74c0.419-0.115,0.723-0.46,0.723-0.867
		c0-0.025-0.002-0.05-0.004-0.075l0,0c-0.043-0.466-0.485-0.833-1.026-0.833c-0.568,0-1.029,0.407-1.029,0.908
		c0,0.428,0.336,0.787,0.789,0.882l-2.616,5.731l-1.054-1.28c-0.016-0.02-0.032-0.038-0.048-0.055
		c-0.005-0.006-0.012-0.011-0.017-0.017c-0.01-0.01-0.021-0.021-0.031-0.031c-0.003-0.003-0.007-0.005-0.011-0.009
		c0.271-0.114,0.458-0.356,0.458-0.638c0-0.02-0.002-0.04-0.003-0.059v0.001c-0.034-0.364-0.378-0.649-0.799-0.649
		c-0.443,0-0.802,0.316-0.802,0.707c0,0.336,0.267,0.617,0.624,0.689c-0.006,0.011-0.011,0.022-0.017,0.035l0,0v0
		c-0.011,0.026-0.022,0.053-0.031,0.083l-0.546,1.743l-5.096-5.533l-0.111-0.121l-0.139-0.151c0.321-0.153,0.539-0.453,0.539-0.798
		c0-0.025-0.002-0.05-0.004-0.075l0,0c-0.043-0.466-0.485-0.833-1.025-0.833c-0.569,0-1.03,0.407-1.03,0.908
		c0,0.481,0.425,0.873,0.961,0.904v0.002l0.118,0.462l0.005,0.021l0.017,0.065l0,0.004l-0.003-0.004l0.008,0.028l2.056,8.067
		c-0.276,0.048-0.523,0.109-0.68,0.214v-0.001c0,0.001,0,0.001,0,0.001c-0.011,0.007-0.021,0.015-0.031,0.022l0,0
		c-0.002,0.001-0.004,0.003-0.006,0.004c0,0,0,0-0.001,0.001c-0.018,0.014-0.033,0.029-0.048,0.045
		c-0.001,0.002-0.004,0.004-0.006,0.007c-0.009,0.011-0.018,0.022-0.025,0.034c-0.003,0.004-0.006,0.009-0.009,0.014
		c-0.002,0.004-0.005,0.008-0.007,0.011c0,0.001,0,0.001,0,0.002c-0.001,0.003-0.003,0.006-0.004,0.009
		c-0.004,0.007-0.007,0.015-0.01,0.022c-0.003,0.006-0.005,0.013-0.007,0.02c-0.002,0.005-0.003,0.01-0.005,0.015
		c0,0.003-0.001,0.005-0.001,0.008c0,0.002-0.001,0.004-0.002,0.005c0,0.006-0.002,0.012-0.003,0.018
		c-0.002,0.016-0.004,0.033-0.004,0.05c0,0.314,0.409,0.427,0.891,0.509v2.375c-0.287,0.05-0.559,0.117-0.726,0.233
		c0.002-0.003,0.004-0.007,0.006-0.009c-0.011,0.007-0.021,0.015-0.032,0.023c0,0,0,0,0,0c-0.001,0.001-0.002,0.001-0.003,0.002
		c-0.018,0.015-0.034,0.03-0.049,0.046c-0.003,0.003-0.007,0.007-0.011,0.011c-0.014,0.017-0.026,0.034-0.037,0.052
		c-0.001,0.004-0.004,0.007-0.005,0.011c-0.01,0.019-0.019,0.04-0.024,0.061c0,0.003-0.001,0.006-0.001,0.009
		c-0.002,0.005-0.002,0.01-0.003,0.014c0,0.002,0,0.003-0.001,0.006c-0.003,0.017-0.004,0.035-0.004,0.053
		c0,0.339,0.474,0.443,1.003,0.527c0.484,0.078,1.174,0.148,2.048,0.208c1.699,0.116,3.928,0.181,6.312,0.187
		c0.108,0,0.218,0.001,0.328,0.001c0.007,0,0.015,0,0.021,0c0.005,0,0.011,0,0.015,0c0.034,0,0.068,0,0.101,0
		c0.043,0,0.087,0,0.13,0c2.435-0.004,4.716-0.07,6.446-0.188c0.875-0.06,1.564-0.129,2.049-0.208
		c0.029-0.004,0.057-0.009,0.085-0.014c0.012-0.002,0.023-0.004,0.034-0.006c0.017-0.003,0.034-0.006,0.051-0.009
		c0.014-0.002,0.027-0.005,0.041-0.008c0.014-0.003,0.028-0.005,0.042-0.008c0.033-0.006,0.065-0.013,0.096-0.02
		c0.005-0.001,0.011-0.002,0.017-0.003c0.018-0.004,0.034-0.008,0.051-0.013c0.007-0.001,0.015-0.003,0.023-0.005
		c0.017-0.004,0.035-0.009,0.052-0.014c0.005-0.002,0.009-0.003,0.015-0.004c0.06-0.017,0.115-0.035,0.167-0.055
		c0.001,0,0.002-0.001,0.003-0.001c0.017-0.007,0.034-0.015,0.05-0.021c0.001-0.001,0.003-0.002,0.005-0.003
		c0.065-0.031,0.121-0.066,0.165-0.107c0.002-0.001,0.003-0.003,0.005-0.005c0.01-0.01,0.02-0.02,0.029-0.031l0,0
		c0.046-0.056,0.073-0.122,0.073-0.201c0-0.023-0.003-0.044-0.008-0.066c-0.003-0.01-0.005-0.021-0.009-0.03
		c-0.003-0.007-0.005-0.015-0.009-0.022c-0.023-0.056-0.061-0.105-0.115-0.147c0,0.001-0.002,0.002-0.002,0.004
		c-0.163-0.126-0.447-0.198-0.749-0.251v-2.375c0.003,0,0.006,0,0.008-0.001c0.017-0.003,0.034-0.006,0.051-0.009
		c0.014-0.002,0.027-0.005,0.041-0.008c0.014-0.003,0.028-0.005,0.042-0.008c0.033-0.006,0.065-0.012,0.096-0.019
		c0.005-0.002,0.011-0.002,0.017-0.003c0.018-0.004,0.034-0.008,0.051-0.013c0.007-0.001,0.015-0.003,0.023-0.005
		c0.017-0.004,0.035-0.009,0.052-0.014c0.005-0.002,0.009-0.003,0.015-0.004c0.06-0.017,0.115-0.035,0.167-0.056
		c0.001,0,0.002,0,0.003-0.001c0.017-0.007,0.034-0.015,0.05-0.021c0.001-0.002,0.003-0.002,0.005-0.003
		c0.065-0.031,0.121-0.066,0.165-0.107c0.002-0.001,0.003-0.003,0.005-0.005c0.01-0.01,0.02-0.02,0.029-0.031l0,0
		c0.046-0.056,0.073-0.122,0.073-0.201c0-0.025-0.004-0.048-0.008-0.07c-0.002-0.006-0.003-0.011-0.004-0.017
		c-0.006-0.021-0.014-0.042-0.024-0.061c0,0-0.001-0.001-0.001-0.002c-0.012-0.021-0.026-0.04-0.042-0.059
		c-0.001-0.002-0.004-0.004-0.006-0.007c-0.016-0.018-0.034-0.035-0.055-0.05l0,0c-0.154-0.12-0.418-0.185-0.713-0.237l2.056-8.067
		l0,0l0.028-0.113l0.082-0.321v-0.001c0.01,0,0.021,0.001,0.032,0.001c0.569,0,1.03-0.406,1.03-0.909
		C76.071,21.049,76.069,21.024,76.066,21z"/>
</g>
</svg>
