<?xml version="1.0" encoding="utf-8"?>
<!-- Generator: Adobe Illustrator 21.1.0, SVG Export Plug-In . SVG Version: 6.00 Build 0)  -->
<svg version="1.1" id="Layer_1" xmlns="http://www.w3.org/2000/svg" xmlns:xlink="http://www.w3.org/1999/xlink" x="0px" y="0px"
	 viewBox="0 0 30 30" style="enable-background:new 0 0 30 30;" xml:space="preserve">
<style type="text/css">
	.st0{fill:#A0A0A0;}
</style>
<g>
	<g>
		<g>
			<path class="st0" d="M4.1,7.3L4.4,13c0.1,1.1,0.6,2,1.4,2.7l10.5,9.1c0.5,0.4,1.2,0.7,1.9,0.7c0.7-0.1,1.3-0.4,1.8-0.9l5.4-6.2
				c0.4-0.5,0.7-1.2,0.7-1.9c-0.1-0.7-0.4-1.3-0.9-1.8L14.6,5.6c-0.8-0.7-1.8-1-2.9-0.9L6.1,5C4.9,5.1,4,6.1,4.1,7.3z M11.8,5.5
				c0.8-0.1,1.6,0.2,2.3,0.7l10.4,9.1c0.7,0.6,0.7,1.7,0.1,2.4L19.3,24c-0.3,0.4-0.7,0.5-1.2,0.6c-0.4,0-0.9-0.1-1.2-0.4L6.4,15
				c-0.7-0.5-1-1.3-1-2.1L4.9,7.3C4.9,6.5,5.4,5.9,6.2,5.9L11.8,5.5L11.8,5.5z"/>
		</g>
	</g>
	<g>
		<g>
			<path class="st0" d="M6.9,9.8c0.1,1.2,1.2,2.1,2.3,2c1.2-0.1,2.1-1.2,2-2.3c-0.1-1.2-1.1-2.2-2.3-2.1C7.7,7.6,6.8,8.6,6.9,9.8z
				 M10.4,9.5c0.1,0.7-0.5,1.4-1.2,1.5c-0.7,0-1.3-0.5-1.4-1.2C7.7,9,8.3,8.4,9,8.4C9.8,8.3,10.3,8.8,10.4,9.5z"/>
		</g>
	</g>
</g>
</svg>
