<?xml version="1.0" encoding="utf-8"?>
<!-- Generator: Adobe Illustrator 16.0.0, SVG Export Plug-In . SVG Version: 6.00 Build 0)  -->
<!DOCTYPE svg PUBLIC "-//W3C//DTD SVG 1.1//EN" "http://www.w3.org/Graphics/SVG/1.1/DTD/svg11.dtd">
<svg version="1.1" id="Layer_1" xmlns="http://www.w3.org/2000/svg" xmlns:xlink="http://www.w3.org/1999/xlink" x="0px" y="0px"
	 width="128px" height="128px" viewBox="0 0 128 128" enable-background="new 0 0 128 128" xml:space="preserve">
<g>
	<circle fill="#DCDCDC" cx="64" cy="64" r="62.623"/>
</g>
<path fill="#FFFFFF" d="M66.078,66.078h25.623c1.147-0.001,2.078-0.931,2.078-2.078s-0.931-2.078-2.078-2.078H66.078l-0.002-25.621
	c0-1.147-0.931-2.078-2.078-2.078s-2.078,0.931-2.078,2.078v25.623H36.302c-1.148-0.001-2.079,0.93-2.078,2.078
	c0.001,0.574,0.231,1.093,0.606,1.469c0.377,0.376,0.896,0.609,1.469,0.607l25.624-0.001l-0.001,25.624
	c0.002,0.573,0.231,1.092,0.607,1.468s0.895,0.61,1.469,0.607c1.147,0.001,2.078-0.93,2.078-2.078L66.078,66.078z"/>
</svg>
