<?xml version="1.0" encoding="utf-8"?>
<!-- Generator: Adobe Illustrator 16.0.0, SVG Export Plug-In . SVG Version: 6.00 Build 0)  -->
<!DOCTYPE svg PUBLIC "-//W3C//DTD SVG 1.1//EN" "http://www.w3.org/Graphics/SVG/1.1/DTD/svg11.dtd">
<svg version="1.1" id="Layer_1" xmlns="http://www.w3.org/2000/svg" xmlns:xlink="http://www.w3.org/1999/xlink" x="0px" y="0px"
	 width="128px" height="128px" viewBox="0 0 128 128" enable-background="new 0 0 128 128" xml:space="preserve">
<g>
	<g>
		<g>
			<polygon fill="#FFFFFF" points="64.833,77.559 105.953,36.438 91.562,22.047 50.441,63.167 43.32,84.68 			"/>
			<path fill="#FFFFFF" d="M100.033,13.574l14.393,14.393l10.592-10.593c3.977-3.976,3.977-10.416,0-14.392
				c-3.976-3.977-10.416-3.977-14.392,0L100.033,13.574z"/>
			<path fill="#FFFFFF" d="M0,31.998V120c0,4.424,3.576,8,8,8h88.002c4.416,0,8-3.576,8-8V63.295l-8,8V120H8V31.998h48.713l8-8H8
				C3.584,23.998,0,27.582,0,31.998z"/>
		</g>
	</g>
</g>
</svg>
