<?xml version="1.0" encoding="utf-8"?>
<!-- Generator: Adobe Illustrator 16.0.0, SVG Export Plug-In . SVG Version: 6.00 Build 0)  -->
<!DOCTYPE svg PUBLIC "-//W3C//DTD SVG 1.1//EN" "http://www.w3.org/Graphics/SVG/1.1/DTD/svg11.dtd">
<svg version="1.1" id="Layer_1" xmlns="http://www.w3.org/2000/svg" xmlns:xlink="http://www.w3.org/1999/xlink" x="0px" y="0px"
	 width="128px" height="128px" viewBox="0 0 128 128" enable-background="new 0 0 128 128" xml:space="preserve">
<g>
	<g>
		<path fill="#A0A0A0" d="M64,0C28.711,0,0,28.711,0,64s28.711,64,64,64s64-28.711,64-64S99.289,0,64,0z M117.465,39.977
			c-3.555,4.23-7.607,7.947-9.271,8.459c-2.19-2.047-7.485-5.901-10.873-3.758c-1.35,0.854-2.646,2.742-1.164,6.885
			c1.912,5.354,6.631,10.206,9.408,12.727c-2.638,3.209-6.898,9.008-6.898,13.045c0,0.688-0.13,0.88-1.275,1.872
			c-1.615,1.403-4.058,3.523-4.058,8.794c0,3.394-5.794,6.284-9.731,7.604C82.107,93.654,80,90.381,80,88
			c0-1.521,0.275-1.875,0.823-2.586c0.972-1.258,1.844-2.619,1.844-5.414c0-2.672-0.802-4.514-1.511-6.139
			C80.511,72.381,80,71.208,80,69.333c0-6.961-13.367-8-21.333-8c-2.151,0-5.334-0.847-5.334-2.667c0-0.83-0.075-1.736-0.161-2.695
			c-0.278-3.169-0.544-6.161,2.047-8.752c4.11-4.109,11.24-4.552,14.115-4.552c2.869,0,3.814,0.448,5.016,1.013
			c1.984,0.938,3.856,1.654,8.317,1.654l3.078,0.036c5.7,0.081,10.622,0.18,13.523-2.675c1.37-1.346,2.065-3.15,2.065-5.361
			c0-9.628-16.784-10.667-24-10.667c-5.016,0-8.531,1.68-11.633,3.161c-1.917,0.917-3.628,1.734-5.481,2.042
			c0.002-0.075,0.01-0.159,0.025-0.25c0.381-2.383,3.873-6.005,7.628-7.909c2.653-1.346,5.752-3.289,6.156-6.396
			c0.161-1.239-0.164-2.344-0.659-3.269c3.534-1.322,10.226-2.395,16.106-2.812C101.848,17.234,111.799,27.418,117.465,39.977z
			 M21.333,93.333v10.808C11.503,93.698,5.419,79.697,5.347,64.273c4.575,0.914,6.418,4.187,8.32,7.646
			c0.953,1.734,1.854,3.372,3.114,4.632c2.276,2.276,5.333,2.62,7.565,2.87c0.836,0.094,2.101,0.236,2.319,0.578
			c0,1.383-0.698,2.455-1.933,4.232C23.219,86.412,21.333,89.127,21.333,93.333z M64,122.667c-14.171,0-27.183-5.053-37.333-13.448
			V93.334c0-2.537,1.135-4.17,2.447-6.061C30.466,85.328,32,83.123,32,80c0-5.086-4.591-5.602-7.06-5.877
			c-1.766-0.199-3.433-0.387-4.389-1.342c-0.724-0.725-1.447-2.039-2.213-3.43c-2.086-3.797-5.158-9.292-12.748-10.439
			C8.183,28.941,33.368,5.333,64,5.333c5.037,0,9.902,0.706,14.57,1.906c-4.521,0.848-9.074,2.16-11.122,4.209
			c-0.519,0.519-0.802,1.229-0.781,1.964c0.023,0.73,0.347,1.424,0.894,1.914c0.957,0.851,1.143,1.281,1.18,1.281
			c-0.061,0.127-0.55,0.963-3.279,2.348c-4.505,2.284-9.708,6.959-10.481,11.824c-0.354,2.207,0.286,4.258,1.802,5.773
			c0.5,0.5,1.177,0.781,1.886,0.781c3.703,0,6.565-1.37,9.333-2.693C70.842,33.283,73.525,32,77.333,32
			C87.799,32,96,34.344,96,37.333c0,1.097-0.342,1.433-0.471,1.558c-1.311,1.289-5.771,1.205-9.693,1.146
			C84.797,40.018,83.734,40,82.667,40c-3.62,0-4.743-0.529-6.042-1.144c-1.514-0.714-3.227-1.523-7.292-1.523
			c-4.396,0-12.564,0.794-17.885,6.114c-4.352,4.35-3.891,9.553-3.589,12.992C47.93,57.231,48,57.981,48,58.666
			c0,5.253,5.367,8,10.667,8c8.151,0,15.198,1.521,16,2.667c0,2.984,0.888,5.023,1.601,6.659c0.594,1.367,1.065,2.445,1.065,4.008
			c0,1.208-0.198,1.466-0.731,2.153c-1.019,1.323-1.936,2.763-1.936,5.847c0,5.611,5.404,11.768,6.019,12.453
			c0.513,0.567,1.237,0.88,1.981,0.88c0.222,0,0.443-0.026,0.662-0.083c1.57-0.404,15.338-4.193,15.338-13.25
			c0-2.839,0.883-3.604,2.222-4.766C102.2,82.094,104,80.533,104,77.333c0-2.138,3.794-7.656,7.31-11.544
			c0.497-0.55,0.745-1.284,0.68-2.023c-0.065-0.74-0.435-1.42-1.021-1.873c-2.073-1.606-7.797-6.838-9.713-11.914
			c1.086,0.568,2.445,1.492,3.525,2.573c0.889,0.894,2.078,1.32,3.432,1.266c3.526-0.201,8.141-4.544,11.452-8.224
			c1.923,5.796,3.001,11.973,3.001,18.406C122.667,96.35,96.35,122.667,64,122.667z"/>
	</g>
</g>
</svg>
