<?xml version="1.0" encoding="utf-8"?>
<!-- Generator: Adobe Illustrator 21.1.0, SVG Export Plug-In . SVG Version: 6.00 Build 0)  -->
<svg version="1.1" id="Layer_1" xmlns="http://www.w3.org/2000/svg" xmlns:xlink="http://www.w3.org/1999/xlink" x="0px" y="0px"
	 viewBox="0 0 30 30" style="enable-background:new 0 0 30 30;" xml:space="preserve">
<style type="text/css">
	.st0{fill:#A0A0A0;}
</style>
<g>
	<path class="st0" d="M25.1,9.2h-3.4l-1.6-4H10l-1.6,4H7.8v-2H5.4v2H4.9C3.9,9.2,3,10,3,11.1v11.8c0,1,0.9,1.9,1.9,1.9h20.2
		c1,0,1.9-0.9,1.9-1.9V11.1C27,10,26.1,9.2,25.1,9.2z M6.2,8H7v1.2H6.2V8z M26.2,22.8c0,0.6-0.5,1.1-1.1,1.1H4.9
		c-0.6,0-1.1-0.5-1.1-1.1V11.1c0-0.6,0.5-1.1,1.1-1.1h0.5h2.4h1l1.6-4h9l1.6,4h4c0.6,0,1.1,0.5,1.1,1.1L26.2,22.8L26.2,22.8z"/>
	<path class="st0" d="M15,8.8c-4,0-7.2,3.2-7.2,7.2s3.2,7.2,7.2,7.2s7.2-3.2,7.2-7.2S19,8.8,15,8.8z M15,22.4
		c-3.5,0-6.4-2.9-6.4-6.4s2.9-6.4,6.4-6.4s6.4,2.9,6.4,6.4S18.5,22.4,15,22.4z"/>
	<path class="st0" d="M15,11.2c-2.6,0-4.8,2.2-4.8,4.8s2.2,4.8,4.8,4.8s4.8-2.2,4.8-4.8C19.8,13.3,17.6,11.2,15,11.2z M15,20
		c-2.2,0-4-1.8-4-4s1.8-4,4-4s4,1.8,4,4S17.2,20,15,20z"/>
	<path class="st0" d="M23.8,10.8c-0.9,0-1.6,0.7-1.6,1.6c0,0.9,0.7,1.6,1.6,1.6s1.6-0.7,1.6-1.6S24.7,10.8,23.8,10.8z M23.8,13.2
		c-0.5,0-0.8-0.3-0.8-0.8s0.3-0.8,0.8-0.8s0.8,0.3,0.8,0.8C24.6,12.8,24.3,13.2,23.8,13.2z"/>
</g>
</svg>
