<?xml version="1.0" encoding="utf-8"?>
<!-- Generator: Adobe Illustrator 16.0.0, SVG Export Plug-In . SVG Version: 6.00 Build 0)  -->
<!DOCTYPE svg PUBLIC "-//W3C//DTD SVG 1.1//EN" "http://www.w3.org/Graphics/SVG/1.1/DTD/svg11.dtd">
<svg version="1.1" id="Layer_1" xmlns="http://www.w3.org/2000/svg" xmlns:xlink="http://www.w3.org/1999/xlink" x="0px" y="0px"
	 width="128px" height="128px" viewBox="0 0 128 128" enable-background="new 0 0 128 128" xml:space="preserve">
<g>
	<defs>
		<rect id="SVGID_1_" width="128" height="128.012"/>
	</defs>
	<clipPath id="SVGID_2_">
		<use xlink:href="#SVGID_1_"  overflow="visible"/>
	</clipPath>
	<path clip-path="url(#SVGID_2_)" fill="#C2CFCF" d="M7.556,64C7.556,32.827,32.827,7.556,64,7.556V0C28.654,0,0,28.654,0,64
		c0,35.347,28.654,64,64,64v-7.556C32.827,120.445,7.556,95.173,7.556,64"/>
	<path clip-path="url(#SVGID_2_)" fill="#B8BFC2" d="M64,0v7.556c31.174,0,56.445,25.271,56.445,56.445
		c0,31.174-25.271,56.445-56.445,56.445V128c35.347,0,64.001-28.654,64.001-64C128.001,28.654,99.347,0,64,0"/>
	<path clip-path="url(#SVGID_2_)" fill="#C2CFCF" d="M11.111,64c0,29.21,23.679,52.889,52.889,52.889V11.111
		C34.791,11.111,11.111,34.791,11.111,64"/>
	<path clip-path="url(#SVGID_2_)" fill="#B8BFC2" d="M116.89,64c0-29.209-23.68-52.889-52.89-52.889v105.778
		C93.21,116.889,116.89,93.21,116.89,64"/>
	<path clip-path="url(#SVGID_2_)" fill="#B8BFC2" d="M7.556,64c0,31.173,25.271,56.445,56.444,56.445v-3.556
		c-29.21,0-52.889-23.679-52.889-52.889c0-29.209,23.679-52.889,52.889-52.889V7.556C32.827,7.556,7.556,32.827,7.556,64"/>
	<path clip-path="url(#SVGID_2_)" fill="#C2CFCF" d="M116.89,64c0,29.21-23.68,52.889-52.89,52.889v3.556
		c31.174,0,56.445-25.271,56.445-56.445S95.174,7.556,64,7.556v3.556C93.21,11.111,116.89,34.791,116.89,64"/>
	<path clip-path="url(#SVGID_2_)" fill="#F7C35F" d="M7.556,64.011C7.556,32.838,32.827,7.567,64,7.567V0.011
		c-35.346,0-64,28.654-64,64c0,35.347,28.654,64.001,64,64.001v-7.556C32.827,120.456,7.556,95.185,7.556,64.011"/>
	<path clip-path="url(#SVGID_2_)" fill="#F7C35F" d="M64,0.011v7.556c31.174,0,56.445,25.271,56.445,56.444
		c0,31.174-25.271,56.445-56.445,56.445v7.555c35.347,0,64.001-28.653,64.001-64C128.001,28.666,99.347,0.011,64,0.011"/>
	<path clip-path="url(#SVGID_2_)" fill="#F7C35F" d="M11.111,64.011c0,29.21,23.679,52.89,52.889,52.89V11.123
		C34.791,11.123,11.111,34.802,11.111,64.011"/>
	<path clip-path="url(#SVGID_2_)" fill="#F7C35F" d="M116.89,64.011c0-29.209-23.68-52.889-52.89-52.889v105.778
		C93.21,116.901,116.89,93.221,116.89,64.011"/>
	<path clip-path="url(#SVGID_2_)" fill="#F1B84D" d="M7.556,64.011c0,31.174,25.271,56.445,56.444,56.445v-3.555
		c-29.21,0-52.889-23.68-52.889-52.89c0-29.209,23.679-52.889,52.889-52.889V7.567C32.827,7.567,7.556,32.838,7.556,64.011"/>
	<path clip-path="url(#SVGID_2_)" fill="#F1B84D" d="M116.89,64.011c0,29.21-23.68,52.89-52.89,52.89v3.555
		c31.174,0,56.445-25.271,56.445-56.445c0-31.173-25.271-56.444-56.445-56.444v3.556C93.21,11.123,116.89,34.802,116.89,64.011"/>
	<path clip-path="url(#SVGID_2_)" fill="#FFFFFF" d="M52.165,101.147c-2.744,0-4.996-1.041-6.756-3.121
		c-1.76-2.08-2.641-4.789-2.641-8.128c0-1.142,0.343-2.857,1.028-5.144c0.686-2.286,1.784-5.304,3.292-9.054
		c1.235-2.971,2.789-6.812,4.665-11.522c2.881-7.224,4.618-11.156,5.212-11.797c0.823-0.915,2.492-1.806,5.007-2.675
		c1.28-0.457,2.264-0.823,2.949-1.098c0.594-0.274,1.565-0.811,2.915-1.612c1.349-0.799,2.389-1.2,3.121-1.2
		c0.96,0,1.715,0.367,2.264,1.098c0.549,0.732,0.823,1.761,0.823,3.086c0,1.372-1.029,3.978-3.087,7.819
		c-1.509,2.835-2.675,5.144-3.498,6.928c-1.783,3.887-3.167,7.419-4.149,10.597c-0.983,3.179-1.475,5.682-1.475,7.511
		c0,1.372,0.343,2.469,1.029,3.292c0.686,0.823,1.554,1.234,2.606,1.234c1.052,0,2.675-0.731,4.87-2.195
		c2.194-1.463,3.681-2.195,4.458-2.195s1.44,0.274,1.989,0.823c0.549,0.548,0.823,1.212,0.823,1.99c0,1.327-1.361,3.304-4.081,5.932
		c-2.722,2.63-5.59,4.311-8.608,5.042c-2.241,0.595-4.653,1.475-7.236,2.641C55.103,100.564,53.263,101.147,52.165,101.147
		 M61.15,43.259c-0.778,0-1.487-0.468-2.126-1.406c-0.641-0.936-0.96-2.023-0.96-3.258c0-0.686,0.754-2.171,2.263-4.458
		c0.686-1.052,1.234-1.897,1.646-2.538c0.823-1.234,2.583-2.389,5.281-3.464c2.697-1.074,5.121-1.611,7.271-1.611
		c1.234,0,2.218,0.366,2.949,1.097c0.731,0.732,1.098,1.715,1.098,2.949c0,0.732-0.206,1.761-0.617,3.086
		c-0.412,1.327-0.96,2.79-1.646,4.39c-0.642,1.418-2.459,2.641-5.453,3.669C67.859,42.744,64.625,43.259,61.15,43.259"/>
</g>
</svg>
