<?xml version="1.0" encoding="utf-8"?>
<!-- Generator: Adobe Illustrator 16.0.0, SVG Export Plug-In . SVG Version: 6.00 Build 0)  -->
<!DOCTYPE svg PUBLIC "-//W3C//DTD SVG 1.1//EN" "http://www.w3.org/Graphics/SVG/1.1/DTD/svg11.dtd">
<svg version="1.1" id="Layer_1" xmlns="http://www.w3.org/2000/svg" xmlns:xlink="http://www.w3.org/1999/xlink" x="0px" y="0px"
	 width="128px" height="128px" viewBox="0 0 128 128" enable-background="new 0 0 128 128" xml:space="preserve">
<g>
	<g>
		<g>
			<path fill="#F8B551" d="M99.07,20.089c1.683,0,3.046-1.362,3.046-3.042V7.444c0-3.669-2.986-6.657-6.655-6.657H31.089
				c-0.809,0-1.582,0.321-2.152,0.892L3.726,26.89c-0.567,0.57-0.889,1.344-0.889,2.148v91.167c0,3.669,2.986,6.655,6.655,6.655
				h85.969c3.669,0,6.655-2.986,6.655-6.655V73.743c0-1.68-1.363-3.042-3.046-3.042c-1.68,0-3.042,1.362-3.042,3.042v46.462
				c0,0.312-0.252,0.568-0.565,0.568H9.492c-0.312,0-0.568-0.257-0.568-0.568V32.084h18.556c3.669,0,6.651-2.985,6.651-6.651V6.874
				h61.33c0.315,0,0.567,0.256,0.567,0.57v9.603C96.028,18.727,97.391,20.089,99.07,20.089z M28.044,25.429
				c0,0.315-0.253,0.568-0.564,0.568H13.227L28.044,11.18V25.429z"/>
		</g>
	</g>
	<g>
		<g>
			<path fill="#F8B551" d="M122.496,25.509l-3.58-3.58c-4.014-4.014-10.548-4.014-14.562,0L75.934,50.35h-49.3
				c-1.679,0-3.04,1.363-3.04,3.042c0,1.684,1.361,3.046,3.04,3.046h43.213L51.533,74.752H26.634c-1.679,0-3.04,1.361-3.04,3.041
				c0,1.681,1.361,3.045,3.04,3.045h18.812l-0.048,0.048c-0.371,0.372-0.639,0.833-0.782,1.338L39.917,99.15H26.634
				c-1.679,0-3.04,1.363-3.04,3.044c0,1.68,1.361,3.042,3.04,3.042H42.23c0,0,0.667-0.075,0.765-0.101
				c0.015-0.004,19.206-5.329,19.206-5.329c0.506-0.14,0.967-0.407,1.335-0.779l58.96-58.957
				C126.511,36.057,126.511,29.523,122.496,25.509z M46.602,97.82l2.483-8.944l6.462,6.461L46.602,97.82z M61.387,92.571
				l-9.533-9.532l48.665-48.668l9.536,9.533L61.387,92.571z M118.193,35.768l-3.836,3.833l-9.533-9.532l3.832-3.837
				c1.643-1.642,4.312-1.642,5.954,0l3.583,3.58C119.832,31.453,119.832,34.127,118.193,35.768z"/>
		</g>
	</g>
</g>
</svg>
