<?xml version="1.0" encoding="utf-8"?>
<!-- Generator: Adobe Illustrator 21.1.0, SVG Export Plug-In . SVG Version: 6.00 Build 0)  -->
<svg version="1.1" id="Layer_1" xmlns="http://www.w3.org/2000/svg" xmlns:xlink="http://www.w3.org/1999/xlink" x="0px" y="0px"
	 viewBox="0 0 84.2 128" style="enable-background:new 0 0 84.2 128;" xml:space="preserve">
<style type="text/css">
	.st0{fill:#FF5023;}
	.st1{fill:#FFDA44;}
	.st2{fill:none;stroke:#FFCD00;stroke-width:4;stroke-miterlimit:10;}
</style>
<g>
	<g>
		<path class="st0" d="M19.5,77.1V128l23.8-12l23.8,12V75.7c-7,5.1-15.5,8.1-24.8,8.1C33.8,83.9,26.1,81.4,19.5,77.1z"/>
		<path class="st1" d="M84.2,41.9c0,13.9-6.8,26.2-17.1,33.8c-6.9,5.1-15.5,8.1-24.8,8.1c-8.4,0-16.3-2.5-22.9-6.8
			C7.9,69.6,0.3,56.6,0.3,41.9C0.3,18.8,19.1,0,42.3,0S84.2,18.8,84.2,41.9z"/>
	</g>
	<circle class="st2" cx="42.3" cy="41.9" r="35.7"/>
</g>
</svg>
