<?xml version="1.0" encoding="utf-8"?>
<!-- Generator: Adobe Illustrator 16.0.0, SVG Export Plug-In . SVG Version: 6.00 Build 0)  -->
<!DOCTYPE svg PUBLIC "-//W3C//DTD SVG 1.1//EN" "http://www.w3.org/Graphics/SVG/1.1/DTD/svg11.dtd">
<svg version="1.1" id="Layer_1" xmlns="http://www.w3.org/2000/svg" xmlns:xlink="http://www.w3.org/1999/xlink" x="0px" y="0px"
	 width="128px" height="128px" viewBox="0 0 128 128" enable-background="new 0 0 128 128" xml:space="preserve">
<g>
	<path fill="#F8B551" d="M92.122,0.92H35.878c-4.686,0-8.522,3.83-8.522,8.522v109.112c0,4.688,3.837,8.525,8.522,8.525h56.244
		c4.685,0,8.522-3.83,8.522-8.521V9.442C100.645,4.75,96.807,0.92,92.122,0.92z M55.002,7.062h17.995
		c0.57,0,1.031,0.461,1.031,1.035c0,0.566-0.461,1.031-1.031,1.031H55.002c-0.57,0-1.031-0.465-1.031-1.031
		C53.971,7.523,54.432,7.062,55.002,7.062z M64,122.821c-2.352,0-4.26-1.908-4.26-4.267s1.908-4.26,4.26-4.26s4.26,1.901,4.26,4.26
		S66.352,122.821,64,122.821z M94.717,111.311H33.283V14.434h61.434V111.311z"/>
</g>
</svg>
