<?xml version="1.0" encoding="utf-8"?>
<!-- Generator: Adobe Illustrator 16.0.0, SVG Export Plug-In . SVG Version: 6.00 Build 0)  -->
<!DOCTYPE svg PUBLIC "-//W3C//DTD SVG 1.1//EN" "http://www.w3.org/Graphics/SVG/1.1/DTD/svg11.dtd">
<svg version="1.1" id="Layer_1" xmlns="http://www.w3.org/2000/svg" xmlns:xlink="http://www.w3.org/1999/xlink" x="0px" y="0px"
	 width="128px" height="128px" viewBox="0 0 128 128" enable-background="new 0 0 128 128" xml:space="preserve">
<g>
	<path fill="#FFCC3D" d="M64.521,12.261c-0.174-0.003-0.349-0.005-0.521-0.005c-0.174,0-0.349,0.002-0.521,0.005
		C35.141,12.538,12.255,35.597,12.255,64s22.886,51.463,51.223,51.739c0.172,0.003,0.348,0.005,0.521,0.005
		c0.172,0,0.347-0.002,0.521-0.005c21.984-0.356,44.272-23.386,44.272-51.739S86.505,12.617,64.521,12.261z"/>
	<g>
		<path fill="#FFCC3D" d="M64.521,12.261C92.858,12.538,115.745,35.597,115.745,64s-22.887,51.463-51.224,51.739
			c21.984-0.356,39.723-23.386,39.723-51.739S86.505,12.617,64.521,12.261z"/>
	</g>
	<g>
		<path fill="#804E30" d="M64,90.739c-8.961,0-17.32-4.448-22.357-11.898c-0.528-0.78-0.323-1.842,0.458-2.369
			c0.781-0.527,1.841-0.322,2.369,0.458C48.872,83.44,56.174,87.328,64,87.328c7.828,0,15.128-3.888,19.53-10.398
			c0.527-0.78,1.587-0.985,2.369-0.458c0.78,0.528,0.985,1.589,0.458,2.37C81.318,86.292,72.961,90.739,64,90.739z"/>
		<path fill="#804E30" d="M89.491,58.644c-0.941,0-1.705-0.764-1.705-1.705c0-2.822-2.296-5.118-5.118-5.118
			s-5.118,2.295-5.118,5.118c0,0.941-0.763,1.705-1.706,1.705s-1.706-0.764-1.706-1.705c0-4.703,3.826-8.53,8.529-8.53
			c4.704,0,8.529,3.826,8.529,8.53C91.198,57.88,90.434,58.644,89.491,58.644z"/>
		<path fill="#804E30" d="M52.155,58.644c-0.942,0-1.707-0.764-1.707-1.705c0-2.822-2.294-5.118-5.118-5.118
			c-2.821,0-5.117,2.295-5.117,5.118c0,0.941-0.764,1.705-1.706,1.705s-1.707-0.764-1.707-1.705c0-4.703,3.826-8.53,8.529-8.53
			c4.704,0,8.53,3.826,8.53,8.53C53.86,57.88,53.096,58.644,52.155,58.644z"/>
	</g>
</g>
</svg>
