<?xml version="1.0" encoding="utf-8"?>
<!-- Generator: Adobe Illustrator 21.1.0, SVG Export Plug-In . SVG Version: 6.00 Build 0)  -->
<svg version="1.1" id="Layer_1" xmlns="http://www.w3.org/2000/svg" xmlns:xlink="http://www.w3.org/1999/xlink" x="0px" y="0px"
	 viewBox="0 0 128 128" style="enable-background:new 0 0 128 128;" xml:space="preserve">
<style type="text/css">
	.st0{fill:#FFFFFF;}
</style>
<path class="st0" d="M72.7,64l53.5-53.5c2.4-2.4,2.4-6.3,0-8.7s-6.3-2.4-8.7,0L64,55.3L10.5,1.8c-2.4-2.4-6.3-2.4-8.7,0
	c-2.4,2.4-2.4,6.3,0,8.7L55.3,64L1.8,117.5c-2.4,2.4-2.4,6.3,0,8.7c1.2,1.2,2.8,1.8,4.3,1.8s3.1-0.6,4.3-1.8L64,72.7l53.5,53.5
	c1.2,1.2,2.8,1.8,4.3,1.8c1.6,0,3.1-0.6,4.3-1.8c2.4-2.4,2.4-6.3,0-8.7L72.7,64z"/>
</svg>
