<?xml version="1.0" encoding="utf-8"?>
<!-- Generator: Adobe Illustrator 16.0.0, SVG Export Plug-In . SVG Version: 6.00 Build 0)  -->
<!DOCTYPE svg PUBLIC "-//W3C//DTD SVG 1.1//EN" "http://www.w3.org/Graphics/SVG/1.1/DTD/svg11.dtd">
<svg version="1.1" id="Layer_1" xmlns="http://www.w3.org/2000/svg" xmlns:xlink="http://www.w3.org/1999/xlink" x="0px" y="0px"
	 width="128px" height="128px" viewBox="0 0 128 128" enable-background="new 0 0 128 128" xml:space="preserve">
<path fill="#FFFFFF" d="M99.834,28.166h-2.985v5.978h-8.962v-5.978H40.113v5.978h-8.962v-5.978h-2.985
	c-1.643,0-2.985,1.343-2.985,2.985v65.697c0,1.643,1.343,2.985,2.985,2.985h2.985v-2.985h8.962v2.985h47.773v-2.985h8.962v2.985
	h2.985c1.642,0,2.985-1.343,2.985-2.985V31.151C102.819,29.509,101.476,28.166,99.834,28.166z M40.113,87.887h-8.962v-8.955h8.962
	V87.887z M40.113,69.97h-8.962v-8.955h8.962V69.97z M40.113,52.053h-8.962v-8.955h8.962V52.053z M63.796,81.141
	c-5.323,0-8.867-2.093-11.368-4.594l3.094-4.273c1.908,1.867,4.273,3.415,7.408,3.415c3.503,0,5.957-2.229,5.957-6.188
	c0-3.905-2.27-6.093-5.684-6.093c-1.998,0-3.088,0.504-5.044,1.772l-3.046-1.998l0.906-16.322h18.006v5.596H61.792l-0.634,7.136
	c1.315-0.634,2.501-0.954,4.048-0.954c5.637,0,10.365,3.359,10.365,10.686C75.571,76.819,70.024,81.141,63.796,81.141z
	 M96.849,87.887h-8.962v-8.955h8.962V87.887z M96.849,69.97h-8.962v-8.955h8.962V69.97z M96.849,52.053h-8.962v-8.955h8.962V52.053z
	"/>
</svg>
