<?xml version="1.0" encoding="utf-8"?>
<!-- Generator: Adobe Illustrator 16.0.0, SVG Export Plug-In . SVG Version: 6.00 Build 0)  -->
<!DOCTYPE svg PUBLIC "-//W3C//DTD SVG 1.1//EN" "http://www.w3.org/Graphics/SVG/1.1/DTD/svg11.dtd">
<svg version="1.1" id="Layer_1" xmlns="http://www.w3.org/2000/svg" xmlns:xlink="http://www.w3.org/1999/xlink" x="0px" y="0px"
	 width="128px" height="128px" viewBox="0 0 128 128" enable-background="new 0 0 128 128" xml:space="preserve">
<g>
	<circle fill="#A0A0A0" cx="54.031" cy="59.153" r="3.892"/>
	<circle fill="#A0A0A0" cx="31.811" cy="59.153" r="3.892"/>
	<circle fill="#A0A0A0" cx="76.281" cy="59.153" r="3.892"/>
	<g>
		<path fill="#A0A0A0" d="M99.121,113.941c-14.91,0-27.033-12.123-27.033-27.02c0-14.904,12.127-27.025,27.033-27.025
			c14.904,0,27.025,12.125,27.025,27.025C126.146,101.818,114.023,113.941,99.121,113.941z M99.121,63.602
			c-12.863,0-23.324,10.459-23.324,23.318c0,12.855,10.461,23.309,23.324,23.309c12.857,0,23.316-10.453,23.316-23.309
			S111.977,63.602,99.121,63.602z"/>
		<path fill="#A0A0A0" d="M110.508,88.777H88.195c-1.025,0-1.855-0.83-1.855-1.855c0-1.023,0.83-1.854,1.855-1.854h22.312
			c1.023,0,1.854,0.83,1.854,1.854C112.361,87.947,111.531,88.777,110.508,88.777z"/>
		<path fill="#A0A0A0" d="M99.35,99.93c-1.021,0-1.854-0.832-1.854-1.854V75.773c0-1.023,0.832-1.854,1.854-1.854
			c1.025,0,1.855,0.83,1.855,1.854v22.305C101.205,99.104,100.377,99.93,99.35,99.93z"/>
	</g>
	<g>
		<path fill="#A0A0A0" d="M57.924,112.035c-10.862,0-21.425-2.74-30.543-7.922c-0.473-0.275-1.159-0.258-1.643,0.021
			c-4.505,2.693-9.989,4.121-15.844,4.121H5.342L8.463,105c2.675-2.619,4.716-5.848,6.1-9.623c0.205-0.553,0.07-1.217-0.333-1.658
			C6.135,84.941,1.853,74.328,1.853,63.031c0-27.004,25.167-48.973,56.102-48.973c28.668,0,52.643,18.748,55.768,43.611
			c0.166,1.312-0.949,4.605-2.723,3.234c-1.488-1.154-1.045-4.609-1.559-6.268c-0.703-2.281-1.482-4.541-2.402-6.744
			c-1.803-4.307-4.168-8.357-7.17-11.938c-6.338-7.561-15.07-12.83-24.557-15.4c-5.459-1.48-11.683-2.664-17.358-2.664
			c-28.822,0-52.268,20.252-52.268,45.141c0,10.316,3.932,20.031,11.372,28.098c1.371,1.508,1.8,3.693,1.101,5.574
			c-0.994,2.713-2.299,5.193-3.891,7.404c2.879-0.418,6.287-1.342,9.525-3.277c1.686-0.975,3.875-0.979,5.494-0.043
			c8.531,4.848,18.436,7.414,28.636,7.414c2.861,0,5.722-0.197,8.555-0.598c2.459-0.348,5.006-1.545,7.467-1.557
			c1.551-0.006,3.461,0.941,2.32,2.648c-1.137,1.703-4.201,1.799-5.984,2.15C66.215,111.646,62.068,112.035,57.924,112.035z"/>
	</g>
</g>
</svg>
