<?xml version="1.0" encoding="utf-8"?>
<!-- Generator: Adobe Illustrator 16.0.0, SVG Export Plug-In . SVG Version: 6.00 Build 0)  -->
<!DOCTYPE svg PUBLIC "-//W3C//DTD SVG 1.1//EN" "http://www.w3.org/Graphics/SVG/1.1/DTD/svg11.dtd">
<svg version="1.1" id="Layer_1" xmlns="http://www.w3.org/2000/svg" xmlns:xlink="http://www.w3.org/1999/xlink" x="0px" y="0px"
	 width="128px" height="128px" viewBox="0 0 128 128" enable-background="new 0 0 128 128" xml:space="preserve">
<g>
	<path fill="#F8B551" d="M117.661,18.182c-6.702-6.703-15.575-10.366-25.046-10.366s-18.371,3.69-25.074,10.394l-3.5,3.5
		l-3.556-3.555c-6.702-6.703-15.63-10.42-25.101-10.42c-9.442,0-18.344,3.689-25.019,10.365C3.663,24.803-0.027,33.703,0,43.174
		c0,9.47,3.718,18.344,10.42,25.046l50.961,50.961c0.706,0.706,1.655,1.085,2.578,1.085s1.873-0.352,2.578-1.058l51.07-50.88
		C124.31,61.626,128,52.725,128,43.255C128.027,33.784,124.363,24.884,117.661,18.182z M112.451,63.146l-48.492,48.302
		L15.576,63.064c-5.318-5.319-8.249-12.375-8.249-19.891c0-7.518,2.903-14.572,8.222-19.863c5.292-5.292,12.347-8.223,19.836-8.223
		c7.517,0,14.6,2.931,19.918,8.249l6.133,6.133c1.438,1.438,3.745,1.438,5.184,0l6.078-6.078c5.318-5.319,12.4-8.249,19.891-8.249
		c7.489,0,14.545,2.93,19.863,8.222c5.318,5.318,8.223,12.374,8.223,19.891C120.701,50.771,117.77,57.826,112.451,63.146z"/>
</g>
</svg>
