<?xml version="1.0" encoding="utf-8"?>
<!-- Generator: Adobe Illustrator 16.0.0, SVG Export Plug-In . SVG Version: 6.00 Build 0)  -->
<!DOCTYPE svg PUBLIC "-//W3C//DTD SVG 1.1//EN" "http://www.w3.org/Graphics/SVG/1.1/DTD/svg11.dtd">
<svg version="1.1" id="Layer_1" xmlns="http://www.w3.org/2000/svg" xmlns:xlink="http://www.w3.org/1999/xlink" x="0px" y="0px"
	 width="128px" height="128px" viewBox="0 0 128 128" enable-background="new 0 0 128 128" xml:space="preserve">
<g>
	<g>
		<g>
			<path fill="#A0A0A0" d="M125.895,111.917h-7.098V87.293c0-5.512-4.484-9.997-9.996-9.997h-3.082V51.623
				c0-4.933-4.014-8.946-8.947-8.946h-24.94v-20.64c0-1.162-0.942-2.104-2.104-2.104h-3.622v-3.145
				c2.784-0.893,4.805-3.504,4.805-6.58c0-3.225-4.104-7.928-5.362-9.292C65.148,0.484,64.588,0.239,64,0.239
				s-1.149,0.245-1.548,0.678c-1.258,1.364-5.361,6.067-5.361,9.292c0,3.076,2.021,5.688,4.805,6.58v3.145h-3.622
				c-1.163,0-2.104,0.941-2.104,2.104v20.639H31.228c-4.933,0-8.946,4.015-8.946,8.947v18.517c0,1.163,0.942,2.105,2.104,2.105
				s2.104-0.942,2.104-2.105V51.624c0-2.612,2.126-4.737,4.737-4.737h65.544c2.612,0,4.738,2.125,4.738,4.737v25.673H24.386h-5.187
				c-5.512,0-9.995,4.484-9.995,9.997v17.27c0,1.162,0.941,2.105,2.104,2.105s2.105-0.943,2.105-2.105v-17.27
				c0-3.192,2.596-5.788,5.786-5.788h5.187h79.228h5.187c3.191,0,5.786,2.596,5.786,5.788v24.623H11.308H2.104
				c-1.162,0-2.104,0.943-2.104,2.105c0,7.576,6.163,13.738,13.739,13.738h100.521c7.575,0,13.739-6.162,13.739-13.738
				C128,112.86,127.058,111.917,125.895,111.917z M61.3,10.209c0-0.725,1.166-2.667,2.7-4.617c1.533,1.95,2.699,3.893,2.699,4.617
				c0,1.488-1.211,2.699-2.699,2.699C62.511,12.908,61.3,11.697,61.3,10.209z M67.622,42.677h-7.244V24.143h7.244V42.677z
				 M114.261,123.551H13.739c-4.532,0-8.336-3.18-9.296-7.426h6.864h105.384h6.865C122.596,120.372,118.793,123.551,114.261,123.551
				z"/>
		</g>
	</g>
	<g>
		<g>
			<path fill="#A0A0A0" d="M94.43,53.033c-3.055-0.05-5.151,2.017-6.838,3.68c-1.527,1.507-2.541,2.416-3.632,2.387
				c-1.026-0.03-1.81-0.919-3.003-2.365c-1.398-1.696-3.139-3.807-6.124-3.895c-2.948-0.087-4.891,1.84-6.604,3.539
				c-1.585,1.57-2.642,2.525-3.955,2.526c0,0-0.001,0-0.002,0c-1.295,0-2.318-0.956-3.85-2.53c-1.615-1.659-3.621-3.721-6.668-3.721
				c-0.02,0-0.039,0-0.059,0c-3.181,0.027-5.229,2.27-6.874,4.07c-1.474,1.615-2.452,2.596-3.588,2.596c-0.002,0-0.003,0-0.005,0
				c-1.138-0.002-2.093-0.985-3.531-2.604c-1.564-1.76-3.51-3.949-6.537-3.949c-0.012,0-0.023,0-0.035,0
				c-1.162,0.006-2.1,0.953-2.093,2.115c0.007,1.159,0.947,2.094,2.104,2.094c0.007,0,0.014,0,0.021,0
				c1.062,0,1.991,0.959,3.395,2.537c1.586,1.785,3.561,4.008,6.664,4.017c0.006,0,0.012,0,0.018,0c3.073,0,5.082-2.198,6.695-3.966
				c1.528-1.673,2.547-2.689,3.803-2.701c1.221-0.004,2.189,0.924,3.672,2.447c1.65,1.695,3.701,3.805,6.867,3.805
				c0.002,0,0.005,0,0.007,0c3.139-0.004,5.232-2.08,6.914-3.748c1.451-1.438,2.416-2.319,3.463-2.319c0.018,0,0.037,0,0.055,0.001
				c1.024,0.029,1.807,0.918,3,2.363c1.398,1.696,3.139,3.807,6.126,3.895c2.981,0.095,5.046-1.955,6.711-3.596
				c1.571-1.551,2.611-2.496,3.809-2.469c1.173,0.016,2.121-0.904,2.142-2.066C96.518,54.012,95.592,53.054,94.43,53.033z"/>
		</g>
	</g>
	<g>
		<g>
			<path fill="#A0A0A0" d="M108.662,87.879c-3.143-0.1-5.233,1.982-7.08,3.812c-1.521,1.508-2.834,2.812-4.449,2.822
				c-1.253-0.027-2.15-0.961-3.509-2.479c-1.551-1.732-3.48-3.889-6.733-3.947c-0.041,0-0.082,0-0.123,0
				c-3.191,0-5.421,2.199-7.218,3.971c-1.474,1.453-2.744,2.703-4.118,2.668c-1.208-0.035-2.092-1.035-3.432-2.66
				c-1.506-1.824-3.378-4.096-6.555-4.189c-3.141-0.098-5.233,1.982-7.079,3.814c-1.527,1.514-2.846,2.82-4.467,2.822
				c-0.001,0-0.002,0-0.003,0c-1.495,0-2.644-1.07-4.355-2.828c-1.739-1.789-3.902-4.012-7.153-4.012c-0.021,0-0.041,0-0.062,0
				c-3.394,0.029-5.603,2.447-7.377,4.391c-1.649,1.807-2.748,2.904-4.072,2.904c-0.003,0-0.005,0-0.007,0
				c-1.326-0.004-2.4-1.105-4.01-2.916c-1.692-1.904-3.792-4.264-7.043-4.256c-1.162,0.006-2.1,0.955-2.093,2.117
				c0.007,1.158,0.947,2.092,2.104,2.092c0.005,0,0.009,0,0.013,0c1.255-0.018,2.296,1.07,3.872,2.844
				c1.711,1.924,3.839,4.318,7.145,4.328c0.008,0,0.014,0,0.021,0c3.274,0,5.349-2.271,7.179-4.275
				c1.708-1.869,2.85-3.006,4.305-3.02c0.008,0,0.016,0,0.023,0c1.375,0,2.483,1.037,4.139,2.738
				c1.778,1.828,3.991,4.102,7.371,4.102c0.003,0,0.005,0,0.008,0c3.352-0.002,5.611-2.242,7.426-4.043
				c1.652-1.639,2.738-2.627,3.993-2.594c1.207,0.035,2.09,1.033,3.43,2.658c1.506,1.824,3.379,4.096,6.557,4.189
				c3.174,0.098,5.31-2.018,7.197-3.879c1.515-1.494,2.818-2.793,4.311-2.758c1.348,0.023,2.272,0.982,3.67,2.545
				c1.528,1.707,3.43,3.832,6.6,3.881c0.012,0,0.022,0,0.033,0c3.354-0.004,5.612-2.242,7.428-4.043
				c1.652-1.639,2.742-2.625,3.992-2.596c1.164,0.037,2.132-0.879,2.166-2.041C110.738,88.881,109.824,87.913,108.662,87.879z"/>
		</g>
	</g>
</g>
</svg>
