<?xml version="1.0" encoding="utf-8"?>
<!-- Generator: Adobe Illustrator 22.1.0, SVG Export Plug-In . SVG Version: 6.00 Build 0)  -->
<svg version="1.1" id="圖層_1" xmlns="http://www.w3.org/2000/svg" xmlns:xlink="http://www.w3.org/1999/xlink" x="0px" y="0px"
	 viewBox="0 0 152 152" style="enable-background:new 0 0 152 152;" xml:space="preserve">
<style type="text/css">
	.st0{fill:#03B9CE;}
</style>
<g>
	<polygon class="st0" points="13.4,93.7 8.3,93.7 8.3,18.1 111.6,18.1 111.6,38.8 119.9,38.8 119.9,9.9 0,9.9 0,102 13.4,102 	"/>
	<polygon class="st0" points="87.8,102 119.9,102 119.9,60.3 111.6,60.3 111.6,93.7 87.8,93.7 79.5,93.7 75.8,93.7 75.8,102 
		79.5,102 	"/>
	<path class="st0" d="M20,93.7v8.3v40.1h49.1V102v-8.3V75.1H20V93.7z M28.3,102v-8.3V83.4h32.6v10.4v8.3v31.8H28.3V102z"/>
	<polygon class="st0" points="152,53.7 152,45.4 79.5,45.4 79.5,53.7 79.5,87.1 87.8,87.1 87.8,53.7 143.7,53.7 143.7,117.8 
		87.8,117.8 87.8,108.6 79.5,108.6 79.5,126.1 152,126.1 	"/>
	<rect x="137.6" y="9.9" class="st0" width="14.4" height="14.4"/>
	<rect x="28.3" y="45.4" class="st0" width="14.4" height="14.4"/>
</g>
</svg>
