<?xml version="1.0" encoding="utf-8"?>
<!-- Generator: Adobe Illustrator 22.1.0, SVG Export Plug-In . SVG Version: 6.00 Build 0)  -->
<svg version="1.1" id="圖層_1" xmlns="http://www.w3.org/2000/svg" xmlns:xlink="http://www.w3.org/1999/xlink" x="0px" y="0px"
	 viewBox="0 0 25 25" style="enable-background:new 0 0 25 25;" xml:space="preserve">
<style type="text/css">
	.st0{fill:#09BC8A;}
</style>
<title>錢包</title>
<desc>Created with Sketch.</desc>
<g id="交易紀錄">
	<g id="_x30_2錢包詳細_x5F_414" transform="translate(-15.000000, -103.000000)">
		<g id="錢包" transform="translate(15.000000, 103.000000)">
			<path id="Fill-1" class="st0" d="M23.6,17.3c0,0.3-0.2,0.5-0.5,0.5h-8c-0.3,0-0.5-0.2-0.5-0.5v-4.6c0-0.3,0.2-0.5,0.5-0.5h8
				c0.3,0,0.5,0.2,0.5,0.5V17.3z M20.6,23.6H2.9c-0.9,0-1.7-0.7-1.7-1.7V8c0-0.9,0.8-1.7,1.7-1.7h17.7c0.9,0,1.7,0.7,1.7,1.7V11
				h-7.1c-0.9,0-1.6,0.7-1.6,1.6v4.6c0,0.9,0.7,1.6,1.6,1.6h7.1V22C22.3,22.9,21.5,23.6,20.6,23.6z M15.4,3.5
				C15.4,3.5,15.4,3.5,15.4,3.5l1.2-0.3l0.1,1.9H9.3L15.4,3.5z M14.3,1.5l0.2,1.1L9.9,3.8C11.1,3.2,12.5,2.4,14.3,1.5z M23.4,11.1V8
				c0-1.6-1.3-2.8-2.9-2.8h-2.7l-0.1-2.7c0-0.2-0.1-0.3-0.2-0.5c-0.1-0.1-0.3-0.1-0.5-0.1l-1.3,0.4l-0.4-1.8c0-0.2-0.2-0.3-0.3-0.4
				c-0.2-0.1-0.4-0.1-0.5,0c-3.6,1.9-8.9,4.7-9.7,5.1H2.9C1.3,5.1,0,6.4,0,8v14c0,1.6,1.3,2.8,2.9,2.8h17.7c1.6,0,2.9-1.3,2.9-2.8
				v-3.1c0.8-0.1,1.4-0.8,1.4-1.6v-4.6C24.8,11.8,24.2,11.2,23.4,11.1z"/>
			<path id="Fill-4" class="st0" d="M18.1,15.9c-0.5,0-1-0.4-1-0.9s0.4-0.9,1-0.9c0.5,0,1,0.4,1,0.9S18.6,15.9,18.1,15.9 M18.1,12.9
				c-1.2,0-2.1,0.9-2.1,2.1c0,1.1,1,2.1,2.1,2.1c1.2,0,2.1-0.9,2.1-2.1C20.2,13.8,19.3,12.9,18.1,12.9"/>
		</g>
	</g>
</g>
</svg>
