<?xml version="1.0" encoding="utf-8"?>
<!-- Generator: Adobe Illustrator 22.1.0, SVG Export Plug-In . SVG Version: 6.00 Build 0)  -->
<svg version="1.1" id="圖層_1" xmlns="http://www.w3.org/2000/svg" xmlns:xlink="http://www.w3.org/1999/xlink" x="0px" y="0px"
	 viewBox="0 0 26 26" style="enable-background:new 0 0 26 26;" xml:space="preserve">
<style type="text/css">
	.st0{fill:#09BC8A;}
</style>
<title>002</title>
<desc>Created with Sketch.</desc>
<g id="首頁">
	<g id="漢堡" transform="translate(-1516.000000, -223.000000)">
		<g id="Group-5">
			<g id="_x30_02" transform="translate(1516.000000, 223.000000)">
				<path id="Fill-16" class="st0" d="M10.4,8C11.1,7.3,12,6.8,13,6.8c1,0,1.9,0.4,2.6,1.1c0.6,0.6,0.9,1.3,1,2.1H9.3
					C9.5,9.3,9.8,8.6,10.4,8 M11.6,1.9c0.4-0.4,0.9-0.6,1.5-0.6c0.6,0,1.1,0.2,1.5,0.6c0.4,0.4,0.6,0.9,0.6,1.5S14.9,4.5,14.5,5
					c-0.4,0.4-0.9,0.6-1.5,0.6c-0.6,0-1.1-0.2-1.5-0.6C11.2,4.5,11,4,11,3.4C11,2.9,11.2,2.3,11.6,1.9 M8.7,11.4h8.7
					c0.3,0,0.6-0.3,0.6-0.6c0-1.4-0.5-2.7-1.4-3.7c-0.4-0.4-0.9-0.8-1.4-1c0.1-0.1,0.2-0.1,0.2-0.2l0.1-0.1v0
					c0.6-0.6,0.9-1.5,0.9-2.3c0-0.9-0.3-1.8-1-2.4S13.9,0,13,0c-0.9,0-1.7,0.4-2.3,1c-0.6,0.6-1,1.5-1,2.4c0,0.9,0.3,1.8,1,2.4
					c0.1,0.1,0.2,0.2,0.2,0.2c-0.5,0.3-1,0.6-1.4,1c-0.9,1-1.4,2.3-1.4,3.7C8.1,11.1,8.3,11.4,8.7,11.4"/>
				<path id="Fill-18" class="st0" d="M17.3,24.4c0.1-0.8,0.5-1.6,1-2.1c0.7-0.7,1.6-1.1,2.6-1.1c1,0,1.9,0.4,2.6,1.1
					c0.6,0.6,0.9,1.3,1,2.1H17.3z M19.5,16.2c0.4-0.4,0.9-0.6,1.5-0.6c0.6,0,1.1,0.2,1.5,0.6c0.4,0.4,0.6,0.9,0.6,1.5
					c0,0.6-0.2,1.1-0.6,1.5l0,0c-0.4,0.4-0.9,0.6-1.5,0.6c-0.6,0-1.1-0.2-1.5-0.6c-0.4-0.4-0.6-0.9-0.6-1.5
					C18.9,17.1,19.1,16.6,19.5,16.2z M24.4,21.4c-0.4-0.4-0.9-0.8-1.4-1c0.1-0.1,0.1-0.1,0.2-0.2l0.3-0.3l0,0
					c0.5-0.6,0.7-1.3,0.7-2.1c0-0.9-0.3-1.8-1-2.4c-0.6-0.6-1.4-1-2.3-1c-0.9,0-1.7,0.4-2.3,1c-0.6,0.6-1,1.5-1,2.4
					c0,0.9,0.3,1.8,1,2.4c0.1,0.1,0.2,0.2,0.2,0.2c-0.5,0.3-1,0.6-1.4,1c-0.9,1-1.4,2.3-1.4,3.7c0,0.3,0.3,0.6,0.6,0.6h8.7
					c0.3,0,0.6-0.3,0.6-0.6C25.9,23.7,25.4,22.4,24.4,21.4z"/>
				<path id="Fill-20" class="st0" d="M1.4,24.4c0.1-0.8,0.5-1.6,1-2.1c0.7-0.7,1.6-1.1,2.6-1.1c1,0,1.9,0.4,2.6,1.1
					c0.6,0.6,0.9,1.3,1,2.1H1.4z M3.6,16.2c0.4-0.4,0.9-0.6,1.5-0.6c0.6,0,1.1,0.2,1.5,0.6c0.4,0.4,0.6,0.9,0.6,1.5
					c0,0.6-0.2,1.1-0.6,1.5l0,0c-0.4,0.4-0.9,0.6-1.5,0.6c-0.6,0-1.1-0.2-1.5-0.6v0C3.2,18.8,3,18.3,3,17.7
					C3,17.1,3.2,16.6,3.6,16.2z M7.2,20.4c0.1-0.1,0.2-0.1,0.2-0.2c0.6-0.6,1-1.5,1-2.4c0-0.9-0.3-1.8-1-2.4c-0.6-0.6-1.4-1-2.3-1
					c-0.9,0-1.7,0.4-2.3,1c-0.6,0.6-1,1.5-1,2.4c0,0.9,0.3,1.8,1,2.4c0.1,0.1,0.2,0.2,0.2,0.2c-0.5,0.3-1,0.6-1.4,1
					c-0.9,1-1.4,2.3-1.4,3.7c0,0.3,0.3,0.6,0.6,0.6h8.7c0.3,0,0.6-0.3,0.6-0.6c0-1.4-0.5-2.7-1.4-3.7C8.2,21,7.7,20.6,7.2,20.4z"/>
				<path id="Fill-22" class="st0" d="M14.1,18c-0.3,0.3-0.7,0.5-1.1,0.5c-0.4,0-0.8-0.2-1.1-0.5L11.9,18c-0.2-0.3-0.4-0.7-0.4-1
					c0-0.4,0.2-0.8,0.4-1.1c0.3-0.3,0.7-0.5,1.1-0.5c0.4,0,0.8,0.2,1.1,0.5c0.3,0.3,0.4,0.7,0.4,1.1C14.5,17.3,14.4,17.7,14.1,18
					 M16.7,20.6L16.7,20.6c0.2-0.2,0.2-0.6,0-0.9l-1.3-1.4c0.2-0.4,0.3-0.9,0.3-1.4c0-0.8-0.3-1.5-0.8-2c-0.4-0.4-0.8-0.6-1.3-0.8
					v-1.7c0-0.3-0.3-0.6-0.6-0.6c-0.3,0-0.6,0.3-0.6,0.6v1.7c-0.5,0.1-1,0.4-1.3,0.8c-0.5,0.5-0.8,1.2-0.8,2c0,0.5,0.1,1,0.4,1.4
					l-1.3,1.3c-0.2,0.2-0.2,0.6,0,0.9c0.1,0.1,0.3,0.2,0.4,0.2c0.2,0,0.3-0.1,0.4-0.2l1.2-1.3c0.9,0.6,2.2,0.6,3.1,0l1.3,1.3
					C16.1,20.8,16.5,20.8,16.7,20.6"/>
			</g>
		</g>
	</g>
</g>
</svg>
