<?xml version="1.0" encoding="utf-8"?>
<!-- Generator: Adobe Illustrator 22.1.0, SVG Export Plug-In . SVG Version: 6.00 Build 0)  -->
<svg version="1.1" id="圖層_1" xmlns="http://www.w3.org/2000/svg" xmlns:xlink="http://www.w3.org/1999/xlink" x="0px" y="0px"
	 viewBox="0 0 24 26" style="enable-background:new 0 0 24 26;" xml:space="preserve">
<style type="text/css">
	.st0{fill:#09BC8A;}
</style>
<title>004</title>
<desc>Created with Sketch.</desc>
<g id="首頁">
	<g id="漢堡" transform="translate(-1517.000000, -439.000000)">
		<g id="Group-5">
			<g id="_x30_04" transform="translate(1517.000000, 439.000000)">
				<path id="Fill-24" class="st0" d="M8.4,7.5c-0.4,0-0.7,0.3-0.7,0.7v11.7c0,0.2-0.1,0.5-0.3,0.6c-0.2,0.2-0.4,0.3-0.6,0.3H5.4
					c-0.2,0-0.4-0.1-0.6-0.2l0,0c-0.2-0.2-0.3-0.4-0.3-0.6V8.2c0-0.4-0.3-0.7-0.7-0.7H2.3l3.8-5.6L10,7.5H8.4z M11.9,8.2
					c0-0.1-0.1-0.3-0.1-0.4L6.7,0.4C6.6,0.2,6.4,0.1,6.3,0.1c-0.2,0-0.4,0-0.5,0.1c-0.1,0-0.1,0.1-0.2,0.2L0.5,7.8
					C0.4,7.9,0.3,8.1,0.4,8.3c0,0.2,0.1,0.3,0.3,0.4C0.8,8.8,0.9,8.8,1,8.8h2.1v11c0,0.6,0.2,1.1,0.7,1.6c0.4,0.4,1,0.6,1.6,0.6h1.5
					c0.6,0,1.2-0.2,1.6-0.6c0.4-0.4,0.7-1,0.7-1.6v-11h2.1C11.6,8.8,11.9,8.5,11.9,8.2z"/>
				<path id="Fill-26" class="st0" d="M18.1,24.1l-3.8-5.6h1.5c0.4,0,0.7-0.3,0.7-0.7V6.1c0-0.2,0.1-0.5,0.3-0.6
					c0.2-0.2,0.4-0.3,0.6-0.3h1.5c0.2,0,0.5,0.1,0.6,0.2l0,0c0.2,0.2,0.3,0.4,0.3,0.6v11.7c0,0.4,0.3,0.7,0.7,0.7H22L18.1,24.1z
					 M23.2,17.2h-2.1v-11c0-0.6-0.2-1.1-0.6-1.5l-0.1-0.1c-0.4-0.4-1-0.6-1.6-0.6h-1.5c-0.6,0-1.2,0.2-1.6,0.6
					c-0.4,0.4-0.7,1-0.7,1.6v11H13c-0.1,0-0.3,0-0.4,0.1c-0.1,0.1-0.3,0.2-0.3,0.4c0,0.2,0,0.3,0.1,0.5l5.1,7.4
					c0.1,0.1,0.1,0.1,0.2,0.2c0.1,0.1,0.2,0.1,0.4,0.1c0.2,0,0.4-0.1,0.6-0.3l5.1-7.4c0.1-0.1,0.1-0.3,0.1-0.4
					C23.9,17.5,23.6,17.2,23.2,17.2z"/>
			</g>
		</g>
	</g>
</g>
</svg>
