<?xml version="1.0" encoding="utf-8"?>
<!-- Generator: Adobe Illustrator 22.1.0, SVG Export Plug-In . SVG Version: 6.00 Build 0)  -->
<svg version="1.1" id="圖層_1" xmlns="http://www.w3.org/2000/svg" xmlns:xlink="http://www.w3.org/1999/xlink" x="0px" y="0px"
	 viewBox="0 0 25 25" style="enable-background:new 0 0 25 25;" xml:space="preserve">
<style type="text/css">
	.st0{fill:#09BC8A;}
</style>
<title>i points</title>
<desc>Created with Sketch.</desc>
<g id="會員資料修改">
	<g id="_x30_1資產" transform="translate(-576.000000, -355.000000)">
		<g id="Group-3" transform="translate(576.000000, 349.000000)">
			<g id="i-points" transform="translate(0.000000, 6.000000)">
				<path id="Fill-1" class="st0" d="M12.4,23.7c-6.3,0-11.3-5.1-11.3-11.3S6.2,1.1,12.4,1.1c6.3,0,11.3,5.1,11.3,11.3
					S18.7,23.7,12.4,23.7 M12.4,0C5.6,0,0,5.6,0,12.4s5.6,12.4,12.4,12.4c6.8,0,12.4-5.6,12.4-12.4S19.2,0,12.4,0"/>
				<path id="Fill-4" class="st0" d="M13.9,20.6v-2.9h-1v3c-0.2,0-0.3,0-0.5,0c-0.2,0-0.3,0-0.5,0v-3h-1v2.9
					c-3.9-0.7-6.8-4.1-6.8-8.2s3-7.5,6.8-8.2v2.5h1V4.1c0.2,0,0.3,0,0.5,0c0.2,0,0.3,0,0.5,0v2.7h1V4.2c3.9,0.7,6.8,4.1,6.8,8.2
					S17.8,19.9,13.9,20.6 M12.4,2.9c-5.2,0-9.5,4.2-9.5,9.5c0,5.2,4.2,9.5,9.5,9.5c5.2,0,9.5-4.2,9.5-9.5
					C21.9,7.2,17.6,2.9,12.4,2.9"/>
				<path id="Fill-6" class="st0" d="M12.4,8.2c0,0-2.6,0-3.6,0.1l-0.1,0v0.6l0.1,0c0.2,0,0.4,0,0.4,0.1C9.3,9,9.4,9,9.7,9.1
					C10,9.2,11,9.4,11.1,9.6v5.7c-0.1,0.2-1.1,0.4-1.4,0.5c-0.2,0.1-0.4,0.1-0.4,0.1c-0.1,0-0.2,0.1-0.4,0.1l-0.1,0v0.6l0.1,0
					c0.9,0.1,3.6,0.1,3.6,0.1h0.3c0.8,0,2.6,0,3.3-0.1l0.1,0v-0.6l-0.1,0c-0.2,0-0.4,0-0.4-0.1c-0.1,0-0.2-0.1-0.4-0.1
					c-0.3-0.1-1.3-0.3-1.4-0.5V9.6c0.1-0.2,1.1-0.4,1.4-0.5C15.4,9,15.5,9,15.6,9c0.1,0,0.2-0.1,0.4-0.1l0.1,0V8.3l-0.1,0
					C15,8.2,12.4,8.2,12.4,8.2"/>
			</g>
		</g>
	</g>
</g>
</svg>
