<?xml version="1.0" encoding="utf-8"?>
<!-- Generator: Adobe Illustrator 22.1.0, SVG Export Plug-In . SVG Version: 6.00 Build 0)  -->
<svg version="1.1" id="圖層_1" xmlns="http://www.w3.org/2000/svg" xmlns:xlink="http://www.w3.org/1999/xlink" x="0px" y="0px"
	 viewBox="0 0 25 25" style="enable-background:new 0 0 25 25;" xml:space="preserve">
<style type="text/css">
	.st0{fill:#09BC8A;}
</style>
<title>支付方式</title>
<desc>Created with Sketch.</desc>
<g id="交易紀錄">
	<g id="_x30_2錢包詳細_x5F_414" transform="translate(-15.000000, -398.000000)">
		<g id="支付方式" transform="translate(15.000000, 398.000000)">
			<path id="Fill-1" class="st0" d="M10.6,7.3c0.9,0,1.6,0.6,1.6,1.4c0,0.3,0.2,0.6,0.6,0.6c0.3,0,0.6-0.2,0.6-0.6
				c0-1.2-0.8-2.2-2.1-2.4l-0.1,0V5.8c0-0.3-0.2-0.6-0.6-0.6c-0.3,0-0.6,0.2-0.6,0.6v0.4l-0.1,0C8.8,6.6,7.9,7.6,7.9,8.7
				c0,1.4,1.2,2.5,2.7,2.5c0.9,0,1.6,0.6,1.6,1.4c0,0.8-0.7,1.4-1.6,1.4S9,13.4,9,12.6c0-0.3-0.2-0.6-0.6-0.6
				c-0.3,0-0.6,0.2-0.6,0.6c0,1.2,0.8,2.2,2.1,2.4l0.1,0v0.4c0,0.3,0.2,0.6,0.6,0.6c0.3,0,0.6-0.2,0.6-0.6v-0.4l0.1,0
				c1.2-0.3,2.1-1.3,2.1-2.4c0-1.4-1.2-2.5-2.7-2.5C9.8,10.1,9,9.5,9,8.7C9,7.9,9.8,7.3,10.6,7.3"/>
			<path id="Fill-3" class="st0" d="M15.7,15.7c-2.8,2.8-7.4,2.8-10.2,0c-1.4-1.4-2.1-3.2-2.1-5.1c0-1.9,0.8-3.7,2.1-5.1
				c1.4-1.4,3.2-2.1,5.1-2.1c1.9,0,3.7,0.8,5.1,2.1c1.4,1.4,2.1,3.2,2.1,5.1C17.9,12.6,17.1,14.4,15.7,15.7 M16.6,4.7
				c-1.6-1.6-3.7-2.5-5.9-2.5c-2.2,0-4.4,0.9-5.9,2.5c-1.6,1.6-2.5,3.7-2.5,5.9s0.9,4.4,2.5,5.9c1.6,1.6,3.8,2.5,5.9,2.5
				s4.3-0.8,5.9-2.5c1.6-1.6,2.5-3.7,2.5-5.9S18.2,6.3,16.6,4.7"/>
			<path id="Fill-5" class="st0" d="M3.9,17.3c-3.7-3.7-3.7-9.7,0-13.4c1.8-1.8,4.2-2.8,6.7-2.8s4.9,1,6.7,2.8
				c3.7,3.7,3.7,9.7,0,13.4c-1.8,1.8-4.2,2.8-6.7,2.8S5.7,19.1,3.9,17.3 M24.8,24l-6.2-6.2c1.8-2,2.7-4.5,2.7-7.1
				c0-2.8-1.1-5.5-3.1-7.5c-2-2-4.7-3.1-7.5-3.1S5.1,1.1,3.1,3.1c-2,2-3.1,4.7-3.1,7.5c0,2.8,1.1,5.5,3.1,7.5c2,2,4.7,3.1,7.5,3.1
				c2.6,0,5.1-1,7.1-2.7l6.2,6.2c0.1,0.1,0.3,0.2,0.4,0.2c0.1,0,0.3-0.1,0.4-0.2C25,24.6,25,24.2,24.8,24"/>
		</g>
	</g>
</g>
</svg>
