<?xml version="1.0" encoding="utf-8"?>
<!-- Generator: Adobe Illustrator 22.1.0, SVG Export Plug-In . SVG Version: 6.00 Build 0)  -->
<svg version="1.1" id="圖層_1" xmlns="http://www.w3.org/2000/svg" xmlns:xlink="http://www.w3.org/1999/xlink" x="0px" y="0px"
	 viewBox="0 0 25 25" style="enable-background:new 0 0 25 25;" xml:space="preserve">
<style type="text/css">
	.st0{fill:#09BC8A;}
</style>
<title>品項</title>
<desc>Created with Sketch.</desc>
<g id="交易紀錄">
	<g id="_x30_2錢包詳細_x5F_414" transform="translate(-15.000000, -280.000000)">
		<g id="品項" transform="translate(15.000000, 280.000000)">
			<path id="Fill-1" class="st0" d="M20.2,5.3H5.6C5.3,5.3,5,5.6,5,6c0,0.4,0.3,0.7,0.6,0.7h14.5c0.3,0,0.6-0.3,0.6-0.7
				C20.8,5.6,20.5,5.3,20.2,5.3"/>
			<path id="Fill-3" class="st0" d="M20.2,9H5.6C5.3,9,5,9.3,5,9.7s0.3,0.7,0.6,0.7h14.5c0.3,0,0.6-0.3,0.6-0.7S20.5,9,20.2,9"/>
			<path id="Fill-5" class="st0" d="M20.2,12.6H5.6C5.3,12.6,5,13,5,13.4c0,0.4,0.3,0.7,0.6,0.7h14.5c0.3,0,0.6-0.3,0.6-0.7
				C20.8,13,20.5,12.6,20.2,12.6"/>
			<path id="Fill-7" class="st0" d="M15.5,16.3H5.6C5.3,16.3,5,16.6,5,17s0.3,0.7,0.6,0.7h9.8c0.3,0,0.6-0.3,0.6-0.7
				S15.8,16.3,15.5,16.3"/>
			<path id="Fill-9" class="st0" d="M23.4,19.7l-3.8-1.8c-0.3-0.2-0.7,0-0.9,0.3l-2.6,5H2.9c-0.3,0-0.5-0.2-0.5-0.5v-5h0.2
				c0.3,0,0.6-0.3,0.6-0.7S3,16.3,2.6,16.3H2.4v-2.2h0.2c0.3,0,0.6-0.3,0.6-0.7c0-0.4-0.3-0.7-0.6-0.7H2.4v-2.2h0.2
				c0.3,0,0.6-0.3,0.6-0.7S3,9,2.6,9H2.4V6.7h0.2C3,6.7,3.3,6.4,3.3,6c0-0.4-0.3-0.7-0.6-0.7H2.4V1.9c0-0.3,0.2-0.5,0.5-0.5h20.1
				c0.3,0,0.5,0.2,0.5,0.5V19.7z M23.4,22.7c0,0.3-0.2,0.5-0.5,0.5h-5.2l1.9-3.5l3.8,1.8V22.7z M24,0H1.8C1.4,0,1.1,0.3,1.1,0.7v4.6
				H0.6C0.3,5.3,0,5.6,0,6c0,0.4,0.3,0.7,0.6,0.7h0.5V9H0.6C0.3,9,0,9.3,0,9.7s0.3,0.7,0.6,0.7h0.5v2.2H0.6C0.3,12.6,0,13,0,13.4
				c0,0.4,0.3,0.7,0.6,0.7h0.5v2.2H0.6C0.3,16.3,0,16.6,0,17s0.3,0.7,0.6,0.7h0.5v6.2c0,0.4,0.3,0.7,0.6,0.7H24
				c0.3,0,0.6-0.3,0.6-0.7V0.7C24.6,0.3,24.4,0,24,0z"/>
		</g>
	</g>
</g>
</svg>
