<?xml version="1.0" encoding="utf-8"?>
<!-- Generator: Adobe Illustrator 22.1.0, SVG Export Plug-In . SVG Version: 6.00 Build 0)  -->
<svg version="1.1" id="圖層_1" xmlns="http://www.w3.org/2000/svg" xmlns:xlink="http://www.w3.org/1999/xlink" x="0px" y="0px"
	 viewBox="0 0 25 25" style="enable-background:new 0 0 25 25;" xml:space="preserve">
<style type="text/css">
	.st0{fill:#09BC8A;}
</style>
<title>區塊算力(右)</title>
<desc>Created with Sketch.</desc>
<g id="會員資料修改">
	<g id="資產_414" transform="translate(-15.000000, -383.000000)">
		<path id="區塊算力_x28_右_x29_" class="st0" d="M30.2,384.2c1.3,0,2.6,0.5,3.5,1.4c1,0.9,1.5,2.1,1.6,3.4v9.3
			c0,0.3,0.3,0.6,0.6,0.6h2.4l-5.3,7.5l-5.3-7.5H30c0.3,0,0.6-0.3,0.6-0.6v-8.2c0-0.4-0.2-0.8-0.5-1.1c-0.2-0.2-0.6-0.4-0.9-0.4v0
			h-12c-0.3,0-0.5-0.1-0.7-0.3c-0.2-0.2-0.3-0.4-0.3-0.7v-2.4c0-0.2,0.1-0.5,0.3-0.7l0,0c0.2-0.2,0.5-0.3,0.8-0.3H30.2z M15.7,389.1
			c0.4,0.4,1,0.6,1.6,0.6H29c0.1,0,0.2,0.1,0.3,0.1c0.1,0.1,0.1,0.2,0.1,0.2l0,7.7l-3.2,0c0,0,0,0-0.1,0c-0.1,0.1-0.2,0.3-0.3,0.4
			c0,0.2,0,0.3,0.1,0.4l6.4,9.1c0,0.1,0.1,0.1,0.2,0.2c0.3,0.2,0.6,0.1,0.8-0.2l6.4-9c0.1-0.1,0.1-0.2,0.1-0.4
			c0-0.3-0.3-0.6-0.6-0.6h-2.9V389l0-0.3h0c-0.1-1.5-0.8-2.9-1.9-4c-1.2-1.1-2.7-1.7-4.4-1.7H17.3c-0.6,0-1.2,0.2-1.6,0.6l-0.1,0.1
			v0c-0.4,0.4-0.6,0.9-0.6,1.4v2.4C15,388.1,15.2,388.7,15.7,389.1z"/>
	</g>
</g>
</svg>
