<?xml version="1.0" encoding="utf-8"?>
<!-- Generator: Adobe Illustrator 22.1.0, SVG Export Plug-In . SVG Version: 6.00 Build 0)  -->
<svg version="1.1" id="圖層_1" xmlns="http://www.w3.org/2000/svg" xmlns:xlink="http://www.w3.org/1999/xlink" x="0px" y="0px"
	 viewBox="0 0 25 25" style="enable-background:new 0 0 25 25;" xml:space="preserve">
<style type="text/css">
	.st0{fill:#09BC8A;}
</style>
<title>星級</title>
<desc>Created with Sketch.</desc>
<g id="會員資料修改">
	<g id="資產_414" transform="translate(-15.000000, -88.000000)">
		<g id="星級" transform="translate(15.000000, 88.000000)">
			<path id="Fill-1" class="st0" d="M14.7,14l0.5,2.9l-2.6-1.3c-0.1,0-0.2-0.1-0.2-0.1c-0.1,0-0.2,0-0.2,0.1l-2.6,1.3l0.5-2.9
				c0-0.2,0-0.4-0.2-0.5l-2.1-2l2.9-0.4c0.2,0,0.3-0.1,0.4-0.3l1.3-2.6l1.3,2.6c0.1,0.2,0.2,0.3,0.4,0.3l2.9,0.4l-2.1,2
				C14.8,13.6,14.7,13.8,14.7,14 M18.6,11c-0.1-0.2-0.2-0.3-0.4-0.4l-3.7-0.5l-1.6-3.3c-0.1-0.2-0.3-0.3-0.5-0.3
				c-0.2,0-0.4,0.1-0.5,0.3l-1.6,3.3l-3.7,0.5c-0.2,0-0.4,0.2-0.4,0.4c-0.1,0.2,0,0.4,0.1,0.5L9,14.1l-0.6,3.6c0,0.2,0,0.4,0.2,0.5
				c0.2,0.1,0.4,0.1,0.6,0l3.3-1.7l3.3,1.7c0.1,0,0.2,0.1,0.2,0.1c0.1,0,0.2,0,0.3-0.1c0.2-0.1,0.2-0.3,0.2-0.5l-0.6-3.6l2.6-2.6
				C18.6,11.4,18.7,11.2,18.6,11"/>
			<path id="Fill-5" class="st0" d="M12.4,23.7c-6.3,0-11.3-5.1-11.3-11.3c0-6.3,5.1-11.3,11.3-11.3s11.3,5.1,11.3,11.3
				C23.7,18.7,18.7,23.7,12.4,23.7 M12.4,0C5.6,0,0,5.6,0,12.4c0,6.8,5.6,12.4,12.4,12.4s12.4-5.6,12.4-12.4C24.8,5.6,19.2,0,12.4,0
				"/>
			<path id="Fill-3" class="st0" d="M12.4,21.2c-4.8,0-8.8-3.9-8.8-8.8s3.9-8.8,8.8-8.8s8.8,3.9,8.8,8.8S17.3,21.2,12.4,21.2
				 M12.4,2.5C7,2.5,2.5,7,2.5,12.4s4.4,9.9,9.9,9.9s9.9-4.4,9.9-9.9S17.8,2.5,12.4,2.5"/>
		</g>
	</g>
</g>
</svg>
