<?xml version="1.0" encoding="utf-8"?>
<!-- Generator: Adobe Illustrator 22.1.0, SVG Export Plug-In . SVG Version: 6.00 Build 0)  -->
<svg version="1.1" id="圖層_1" xmlns="http://www.w3.org/2000/svg" xmlns:xlink="http://www.w3.org/1999/xlink" x="0px" y="0px"
	 viewBox="0 0 26 26" style="enable-background:new 0 0 26 26;" xml:space="preserve">
<style type="text/css">
	.st0{fill:#09BC8A;}
</style>
<title>005</title>
<desc>Created with Sketch.</desc>
<g id="首頁">
	<g id="漢堡" transform="translate(-1516.000000, -547.000000)">
		<g id="Group-5">
			<g id="_x30_05" transform="translate(1516.000000, 547.000000)">
				<path id="Fill-28" class="st0" d="M18.6,16.9v-1.6c0-0.4-0.3-0.7-0.6-0.7H10c-0.2,0-0.5-0.1-0.6-0.3c-0.2-0.2-0.3-0.4-0.3-0.7
					v-1.5c0-0.2,0.1-0.5,0.3-0.7c0.2-0.2,0.4-0.3,0.6-0.3H18c0.3,0,0.6-0.3,0.6-0.7V8.9l5.4,4L18.6,16.9z M25.5,12.4L25.5,12.4
					l-7.1-5.2C18.3,7,18.2,7,18,7c-0.3,0-0.6,0.3-0.6,0.7v2.2H10c-0.5,0-1,0.2-1.4,0.6l-0.1,0.1c-0.4,0.4-0.6,1-0.6,1.6v1.5
					c0,0.6,0.2,1.2,0.6,1.6C8.9,15.7,9.4,16,10,16h7.4v2.2c0,0.1,0,0.3,0.1,0.4c0.1,0.2,0.2,0.3,0.4,0.3c0,0,0.1,0,0.1,0
					c0.1,0,0.2,0,0.3-0.1l7.2-5.3c0.1-0.1,0.1-0.1,0.2-0.2C25.9,13,25.8,12.6,25.5,12.4z"/>
				<path id="Fill-30" class="st0" d="M15.9,23.1c0,0.7-0.6,1.3-1.2,1.3H2.5c-0.7,0-1.2-0.6-1.2-1.3V2.7c0-0.7,0.6-1.3,1.2-1.3h12.1
					c0.7,0,1.2,0.6,1.2,1.3v3.6h1.3V2.7C17.1,1.2,16,0,14.6,0H2.5C1.1,0,0,1.2,0,2.7v20.4c0,1.5,1.1,2.7,2.5,2.7h12.1
					c1.4,0,2.5-1.2,2.5-2.7v-3.6h-1.3V23.1z"/>
			</g>
		</g>
	</g>
</g>
</svg>
