<?xml version="1.0" encoding="utf-8"?>
<!-- Generator: Adobe Illustrator 22.1.0, SVG Export Plug-In . SVG Version: 6.00 Build 0)  -->
<svg version="1.1" id="圖層_1" xmlns="http://www.w3.org/2000/svg" xmlns:xlink="http://www.w3.org/1999/xlink" x="0px" y="0px"
	 viewBox="0 0 206 36" style="enable-background:new 0 0 206 36;" xml:space="preserve">
<style type="text/css">
	.st0{fill:#09BC8A;}
</style>
<title>Group</title>
<desc>Created with Sketch.</desc>
<g id="Symbols">
	<g id="web-menu" transform="translate(-210.000000, -27.000000)">
		<g id="Group" transform="translate(210.000000, 27.000000)">
			<polygon id="Fill-1" class="st0" points="0,35.8 3.5,35.8 3.5,0 0,0 			"/>
			<path id="Fill-2" class="st0" d="M27.8,3c0.3,0,0.5,0,0.8,0c2.7,0,5.1,0.7,7.3,2.3L38,2.7C36.5,1.6,33.5,0,28.8,0
				c-1.4,0-2.7,0.2-3.9,0.5C26.2,1.2,27.1,2.1,27.8,3"/>
			<path id="Fill-4" class="st0" d="M29.4,16.5c-0.3-0.1-0.5-0.2-0.8-0.3c-0.5,1-1.1,1.9-1.9,2.7c0.2,0.1,0.4,0.2,0.7,0.3
				c4.2,1.8,8.1,3.5,8.1,7.4c0,3.8-3.3,6.3-8.2,6.3c-4.6,0-7.6-1.8-9.5-3.2l-2.1,2.7c1.5,1.2,5.1,3.4,11.2,3.4
				c8.4,0,12.2-4.8,12.2-9.5C39.1,20.7,34.2,18.6,29.4,16.5"/>
			<path id="Fill-6" class="st0" d="M21.2,16c1-0.7,1.6-1.6,2-2.9c-1.2-1.1-2-2.4-2-4.2c0-1.1,0.3-2,0.8-2.9
				c-0.7-0.7-1.7-1.2-2.9-1.5c-0.9,1.3-1.4,2.9-1.4,4.6C17.6,12.3,19.1,14.4,21.2,16"/>
			<path id="Fill-8" class="st0" d="M9.7,3h6c1.6,0,3,0.2,4.2,0.5C21.1,3.8,22,4.3,22.8,5c1.4,1.3,2,3.1,2,5.6
				c0,1.3-0.2,2.4-0.5,3.4c-0.4,1.2-1,2.1-1.9,2.8c-1.5,1.2-3.6,1.7-6.5,1.7H9.7V3z M25.4,18.3c0.8-0.8,1.5-1.7,1.9-2.7
				c0.7-1.5,1.1-3.4,1.1-5.5c0-2.9-0.8-5.2-2.3-6.9c-0.8-0.9-1.8-1.6-3-2.1C21.5,0.4,19.3,0,16.7,0H6.2v35.8h3.5V21.4h6.1
				C20.1,21.4,23.3,20.3,25.4,18.3z"/>
			<polygon id="Fill-11" class="st0" points="51.1,27.8 54.3,27.8 54.3,6.9 51.1,6.9 			"/>
			<polygon id="Fill-13" class="st0" points="60.3,19.1 66.5,19.1 66.5,16.4 60.3,16.4 			"/>
			<path id="Fill-14" class="st0" d="M75.7,16.4h1.2c3,0,4.5-1.1,4.5-3.3c0-2.1-1.5-3.2-4.6-3.2h-1.1V16.4z M75.7,19.3v8.5h-3.2V6.9
				h3.7c1.8,0,3.2,0.1,4.1,0.4C81.1,7.5,82,8,82.7,8.7c1.2,1.2,1.8,2.6,1.8,4.4c0,1.9-0.7,3.4-2,4.5c-1.3,1.1-3.1,1.7-5.3,1.7H75.7z
				"/>
			<path id="Fill-15" class="st0" d="M88.7,14.6v7.5c0,2.2,0.9,3.3,2.7,3.3c1.8,0,2.7-1.1,2.7-3.3v-7.5h3.1v7.6c0,1.1-0.1,2-0.4,2.7
				c-0.3,0.7-0.7,1.3-1.3,1.8c-1.1,0.9-2.4,1.3-4,1.3c-1.6,0-3-0.4-4-1.3c-0.6-0.5-1.1-1.2-1.4-1.8c-0.3-0.6-0.4-1.5-0.4-2.7v-7.6
				H88.7z"/>
			<path id="Fill-16" class="st0" d="M107.2,16.9l-2.6,1.3c-0.4-0.8-0.9-1.2-1.5-1.2c-0.3,0-0.5,0.1-0.7,0.3
				c-0.2,0.2-0.3,0.4-0.3,0.7c0,0.5,0.6,1,1.8,1.5c1.7,0.7,2.8,1.3,3.3,1.9c0.6,0.6,0.9,1.4,0.9,2.4c0,1.3-0.5,2.3-1.4,3.2
				c-0.9,0.8-2.1,1.2-3.4,1.2c-2.3,0-3.9-1.1-4.8-3.2l2.7-1.2c0.4,0.6,0.7,1,0.8,1.2c0.4,0.3,0.8,0.5,1.4,0.5c1.1,0,1.6-0.5,1.6-1.4
				c0-0.5-0.4-1-1.2-1.5c-0.3-0.2-0.6-0.3-0.9-0.4c-0.3-0.1-0.6-0.3-1-0.4c-0.9-0.4-1.5-0.9-1.9-1.3c-0.5-0.5-0.7-1.3-0.7-2.1
				c0-1.1,0.4-2.1,1.2-2.8c0.8-0.7,1.8-1.1,3-1.1C105.1,14.3,106.3,15.1,107.2,16.9"/>
			<path id="Fill-17" class="st0" d="M109.2,5h3.1v10.7c1.1-1,2.3-1.5,3.7-1.5c1.5,0,2.7,0.5,3.7,1.4c0.8,0.8,1.2,2.2,1.2,4v8.1
				h-3.1V20c0-1.1-0.2-1.8-0.6-2.3c-0.4-0.5-1-0.7-1.9-0.7c-1.1,0-1.9,0.3-2.3,1c-0.4,0.7-0.7,1.8-0.7,3.4v6.4h-3.1V5z"/>
			<path id="Fill-18" class="st0" d="M140.9,10l-2.6,1.5c-0.5-0.8-1-1.4-1.4-1.6c-0.5-0.3-1.1-0.4-1.8-0.4c-0.9,0-1.6,0.2-2.2,0.7
				c-0.6,0.5-0.9,1.1-0.9,1.8c0,1,0.8,1.8,2.3,2.5l2.1,0.8c1.7,0.7,3,1.5,3.8,2.5c0.8,1,1.2,2.2,1.2,3.6c0,1.9-0.7,3.5-2,4.7
				c-1.3,1.3-3,1.9-4.9,1.9c-1.9,0-3.4-0.5-4.6-1.6c-1.2-1.1-1.9-2.6-2.2-4.5l3.3-0.7c0.1,1.2,0.4,2.1,0.8,2.5
				c0.7,0.9,1.6,1.3,2.9,1.3c1,0,1.8-0.3,2.5-1c0.7-0.7,1-1.5,1-2.5c0-0.4-0.1-0.8-0.2-1.1c-0.1-0.3-0.3-0.6-0.5-0.9
				c-0.2-0.3-0.6-0.5-1-0.8c-0.4-0.2-0.9-0.5-1.4-0.7l-2.1-0.8c-2.9-1.2-4.4-3-4.4-5.3c0-1.6,0.6-2.9,1.8-3.9
				c1.2-1.1,2.8-1.6,4.6-1.6C137.6,6.5,139.5,7.7,140.9,10"/>
			<polygon id="Fill-19" class="st0" points="146.7,25.3 140.7,14.6 144.3,14.6 148.4,22.2 152.3,14.6 155.8,14.6 145,34.9 
				141.5,34.9 			"/>
			<path id="Fill-20" class="st0" d="M163.5,16.9l-2.6,1.3c-0.4-0.8-0.9-1.2-1.5-1.2c-0.3,0-0.5,0.1-0.7,0.3
				c-0.2,0.2-0.3,0.4-0.3,0.7c0,0.5,0.6,1,1.8,1.5c1.7,0.7,2.8,1.3,3.3,1.9c0.6,0.6,0.9,1.4,0.9,2.4c0,1.3-0.5,2.3-1.4,3.2
				c-0.9,0.8-2.1,1.2-3.4,1.2c-2.3,0-3.9-1.1-4.8-3.2l2.7-1.2c0.4,0.6,0.7,1,0.8,1.2c0.4,0.3,0.8,0.5,1.4,0.5c1.1,0,1.6-0.5,1.6-1.4
				c0-0.5-0.4-1-1.2-1.5c-0.3-0.2-0.6-0.3-0.9-0.4c-0.3-0.1-0.6-0.3-1-0.4c-0.9-0.4-1.5-0.9-1.9-1.3c-0.5-0.5-0.7-1.3-0.7-2.1
				c0-1.1,0.4-2.1,1.2-2.8c0.8-0.7,1.8-1.1,3-1.1C161.4,14.3,162.7,15.1,163.5,16.9"/>
			<polygon id="Fill-21" class="st0" points="169.9,17.5 169.9,27.8 166.7,27.8 166.7,17.5 165.4,17.5 165.4,14.6 166.7,14.6 
				166.7,9.8 169.9,9.8 169.9,14.6 172.3,14.6 172.3,17.5 			"/>
			<path id="Fill-22" class="st0" d="M181.8,19.4c-0.4-1.6-1.5-2.4-3.2-2.4c-0.4,0-0.7,0.1-1.1,0.2c-0.3,0.1-0.6,0.3-0.9,0.5
				c-0.3,0.2-0.5,0.5-0.7,0.8c-0.2,0.3-0.3,0.6-0.4,1H181.8z M185,21.9h-9.7c0.1,1.1,0.4,1.9,1.1,2.6c0.6,0.6,1.5,0.9,2.5,0.9
				c0.8,0,1.4-0.2,1.9-0.5c0.5-0.4,1.1-1,1.7-2l2.6,1.4c-0.4,0.7-0.8,1.3-1.3,1.7c-0.5,0.5-0.9,0.9-1.5,1.2
				c-0.5,0.3-1.1,0.5-1.7,0.7c-0.6,0.1-1.3,0.2-2,0.2c-2,0-3.6-0.6-4.9-1.9c-1.2-1.3-1.8-2.9-1.8-5c0-2.1,0.6-3.8,1.8-5
				c1.2-1.3,2.8-1.9,4.8-1.9c2,0,3.6,0.6,4.7,1.8c1.1,1.2,1.7,2.9,1.7,5.1L185,21.9z"/>
			<path id="Fill-23" class="st0" d="M186.7,14.6h3.1v1.2c0.6-0.6,1.1-1,1.5-1.2c0.5-0.2,1-0.3,1.7-0.3c1.5,0,2.7,0.6,3.6,1.9
				c1-1.3,2.3-1.9,4-1.9c3,0,4.6,1.8,4.6,5.4v8.1h-3.1v-7.3c0-1.3-0.2-2.1-0.5-2.7c-0.3-0.5-0.9-0.8-1.6-0.8c-0.9,0-1.5,0.3-1.9,0.9
				c-0.4,0.6-0.6,1.6-0.6,3v6.8h-3.1v-7.3c0-2.3-0.7-3.5-2.1-3.5c-0.9,0-1.5,0.3-1.9,1c-0.4,0.6-0.6,1.6-0.6,3v6.8h-3.1V14.6z"/>
		</g>
	</g>
</g>
</svg>
