<svg id="圖層_1" data-name="圖層 1" xmlns="http://www.w3.org/2000/svg" viewBox="0 0 600 200"><defs><style>.cls-1{opacity:0.5;}.cls-2{fill:#25b184;}.cls-3{fill:none;stroke-width:2px;}.cls-3,.cls-4{stroke:#25b184;stroke-miterlimit:10;}.cls-4{fill:#05172f;stroke-width:2.5px;}</style></defs><title>20180806-驗證密碼</title><g id="_群組_" data-name="&lt;群組&gt;" class="cls-1"><circle id="_路徑_" data-name="&lt;路徑&gt;" class="cls-2" cx="399.97" cy="107.3" r="49.43"/></g><g id="_群組_2" data-name="&lt;群組&gt;" class="cls-1"><circle id="_路徑_2" data-name="&lt;路徑&gt;" class="cls-2" cx="200.04" cy="62.89" r="10.42" transform="translate(-7.49 32.85) rotate(-9.22)"/></g><g id="_群組_3" data-name="&lt;群組&gt;" class="cls-1"><circle id="_路徑_3" data-name="&lt;路徑&gt;" class="cls-2" cx="449.03" cy="45.82" r="4.58"/></g><g id="_群組_4" data-name="&lt;群組&gt;" class="cls-1"><circle id="_路徑_4" data-name="&lt;路徑&gt;" class="cls-2" cx="202.03" cy="155.82" r="4.58"/></g><g id="_群組_5" data-name="&lt;群組&gt;" class="cls-1"><ellipse id="_路徑_5" data-name="&lt;路徑&gt;" class="cls-2" cx="155.68" cy="109.33" rx="22.15" ry="21.17"/></g><g id="_群組_6" data-name="&lt;群組&gt;" class="cls-1"><rect id="_矩形_" data-name="&lt;矩形&gt;" class="cls-2" x="214.54" y="128.43" width="123" height="42.25"/></g><g id="_群組_7" data-name="&lt;群組&gt;" class="cls-1"><circle id="_路徑_6" data-name="&lt;路徑&gt;" class="cls-2" cx="458.6" cy="152.26" r="9.17"/></g><g id="_群組_8" data-name="&lt;群組&gt;"><path id="_路徑_7" data-name="&lt;路徑&gt;" class="cls-2" d="M254.07,82.36a1.27,1.27,0,0,1-1.27-1.27V58.83a1.27,1.27,0,0,1,2.54,0V81.09A1.27,1.27,0,0,1,254.07,82.36Z"/></g><g id="_群組_9" data-name="&lt;群組&gt;"><g id="_群組_10" data-name="&lt;群組&gt;"><path id="_路徑_8" data-name="&lt;路徑&gt;" class="cls-2" d="M387.79,171.39H214.6a1.27,1.27,0,0,1-1.27-1.27V64.82A10.66,10.66,0,0,1,224,54.17H246.5a1.27,1.27,0,1,1,0,2.54H224a8.11,8.11,0,0,0-8.1,8.11v104H386.52v-104a8.11,8.11,0,0,0-8.1-8.11H356.76a1.27,1.27,0,1,1,0-2.54h21.66a10.66,10.66,0,0,1,10.64,10.65v105.3A1.27,1.27,0,0,1,387.79,171.39Z"/></g><g id="_群組_11" data-name="&lt;群組&gt;"><path id="_複合路徑_" data-name="&lt;複合路徑&gt;" class="cls-2" d="M394.05,181.83H208.34a8.5,8.5,0,0,1-8.49-8.5v-3.2a1.27,1.27,0,0,1,1.27-1.27H401.27a1.27,1.27,0,0,1,1.27,1.27v3.2A8.5,8.5,0,0,1,394.05,181.83ZM202.39,171.4v1.93a6,6,0,0,0,6,6H394.05a6,6,0,0,0,5.95-6V171.4Z"/></g><g id="_群組_12" data-name="&lt;群組&gt;"><path id="_路徑_9" data-name="&lt;路徑&gt;" class="cls-2" d="M376.46,171.4H225.87a1.27,1.27,0,0,1-1.27-1.27V67.93a1.27,1.27,0,0,1,1.27-1.27H246.5a1.27,1.27,0,1,1,0,2.54H227.14v99.66H375.19V69.2H356.76a1.27,1.27,0,1,1,0-2.54h19.7a1.27,1.27,0,0,1,1.27,1.27v102.2A1.27,1.27,0,0,1,376.46,171.4Z"/></g></g><g id="_群組_13" data-name="&lt;群組&gt;"><path id="_路徑_10" data-name="&lt;路徑&gt;" class="cls-2" d="M349.35,171.39H254.07a1.27,1.27,0,0,1-1.27-1.27V162.6a1.27,1.27,0,0,1,2.54,0v6.25h92.74V40.77H270.15a1.27,1.27,0,1,1,0-2.53h79.2a1.26,1.26,0,0,1,1.27,1.26V170.12A1.27,1.27,0,0,1,349.35,171.39Z"/></g><g id="_群組_14" data-name="&lt;群組&gt;"><path id="_路徑_11" data-name="&lt;路徑&gt;" class="cls-2" d="M270.15,56.86H254.07a1.27,1.27,0,0,1,0-2.54h14.81V39.5a1.27,1.27,0,0,1,2.54,0V55.59A1.27,1.27,0,0,1,270.15,56.86Z"/></g><g id="_群組_15" data-name="&lt;群組&gt;"><path id="_路徑_12" data-name="&lt;路徑&gt;" class="cls-2" d="M254.07,56.86a1.27,1.27,0,0,1-.9-2.17l16.09-16.08a1.27,1.27,0,0,1,1.79,1.79L255,56.49A1.23,1.23,0,0,1,254.07,56.86Z"/></g><rect class="cls-3" x="262.85" y="62.88" width="15.91" height="26.38" rx="2" ry="2"/><rect class="cls-3" x="283.27" y="62.88" width="15.91" height="26.38" rx="2" ry="2"/><rect class="cls-3" x="303.69" y="62.88" width="15.91" height="26.38" rx="2" ry="2"/><rect class="cls-3" x="324.11" y="62.88" width="15.91" height="26.38" rx="2" ry="2"/><circle class="cls-4" cx="254.55" cy="123.92" r="46.58"/><path class="cls-2" d="M230,149.57H242.1a4.68,4.68,0,0,0,1.87-.4,4.55,4.55,0,0,0,2.65-4.13v-10.1a4.55,4.55,0,0,0-2.65-4.13,4.68,4.68,0,0,0-1.87-.4H230v-2.57a5.55,5.55,0,0,1,5.54-5.54,5.3,5.3,0,0,1,1.32.16,1.47,1.47,0,0,0,1.71-.87h0a1.45,1.45,0,0,0-1-2,8.4,8.4,0,0,0-2-.24h0a8.45,8.45,0,0,0-8.45,8.44v3a4.53,4.53,0,0,0-2.65,4.12V145a4.53,4.53,0,0,0,4.53,4.53Zm3.59-11.66a2,2,0,0,1,3.9.12,2,2,0,0,1-.22.92,1.23,1.23,0,0,0-.17.62v1.76a1.56,1.56,0,0,1-1.56,1.57h0a1.56,1.56,0,0,1-1.56-1.57v-1.76a1.23,1.23,0,0,0-.17-.62A2,2,0,0,1,233.57,137.91Z"/><circle class="cls-2" cx="256.13" cy="107.91" r="15.36" transform="translate(-12.54 36.77) rotate(-8.01)"/><path class="cls-2" d="M274.35,128.38h-27V129a7.92,7.92,0,0,1,2.65,5.91V145a7.93,7.93,0,0,1-4.64,7.2,7.76,7.76,0,0,1-3.27.71H229a7.19,7.19,0,0,1-1.39-.13v1.52a1,1,0,0,0,1,1h55.2a1,1,0,0,0,1-1V138.72A10.34,10.34,0,0,0,274.35,128.38Z"/></svg>