<svg id="圖層_1" data-name="圖層 1" xmlns="http://www.w3.org/2000/svg" viewBox="0 0 110 97"><defs><style>.cls-1{fill:#fff;}</style></defs><title>20180806-驗證密碼</title><g id="規範"><g id="Apple-TV"><g id="Group-25"><polygon id="Fill-1" class="cls-1" points="21.7 67.43 28.04 67.43 28.04 1.79 21.7 1.79 21.7 67.43"/><path id="Fill-2" class="cls-1" d="M71.63,7.29c.46,0,.94,0,1.42,0a21.53,21.53,0,0,1,13.1,4.2L90,6.72c-2.72-2-8.11-4.93-16.49-4.93a25.22,25.22,0,0,0-6.93,1,16.65,16.65,0,0,1,5,4.54"/><path id="Fill-5" class="cls-1" d="M74.5,32.06l-1.38-.62a18.75,18.75,0,0,1-3.35,5L71,37c7.47,3.26,14.53,6.35,14.53,13.56,0,6.89-5.94,11.53-14.78,11.53A27.15,27.15,0,0,1,53.6,56.23l-3.73,4.9c2.68,2.17,9.23,6.3,20.19,6.3C85.18,67.43,92,58.72,92,50.08c0-10.33-8.87-14.24-17.45-18"/><path id="Fill-7" class="cls-1" d="M59.74,31a8.56,8.56,0,0,0,3.51-5.28,10,10,0,0,1-3.53-7.63,10.18,10.18,0,0,1,1.39-5.23,10.27,10.27,0,0,0-5.28-2.68,15,15,0,0,0-2.54,8.37c0,5.79,2.65,9.58,6.45,12.45"/><path id="Fill-9" class="cls-1" d="M39.18,7.21H49.91a26.92,26.92,0,0,1,7.55.94A12.45,12.45,0,0,1,62.6,11c2.43,2.3,3.62,5.67,3.62,10.21a19.3,19.3,0,0,1-.9,6.2,10.78,10.78,0,0,1-3.48,5.1c-2.64,2.12-6.48,3.15-11.64,3.15h-11Zm28.2,28.18a16.18,16.18,0,0,0,3.5-5,24.09,24.09,0,0,0,2-10.1q0-8-4.06-12.61A15.21,15.21,0,0,0,63.43,3.9,29.19,29.19,0,0,0,51.64,1.79H32.85V67.43h6.33V41h11C57.82,41,63.57,39.06,67.38,35.39Z"/><polygon id="Fill-12" class="cls-1" points="2.29 91.74 4.53 91.74 4.53 77.04 2.29 77.04 2.29 91.74"/><polygon id="Fill-14" class="cls-1" points="8.68 86.01 12.97 86.01 12.97 84.15 8.68 84.15 8.68 86.01"/><path id="Fill-15" class="cls-1" d="M19.35,83.72h.83c2.06,0,3.09-.79,3.09-2.36s-1.06-2.27-3.18-2.27h-.74Zm0,2v6H17.11V77h2.53a11.56,11.56,0,0,1,2.82.26,3.75,3.75,0,0,1,1.69,1,4.15,4.15,0,0,1,1.28,3.12,4,4,0,0,1-1.36,3.2,5.43,5.43,0,0,1-3.69,1.18Z"/><path id="Fill-16" class="cls-1" d="M28.3,82.47v5.32c0,1.54.62,2.31,1.84,2.31S32,89.33,32,87.79V82.47h2.16v5.37a5.8,5.8,0,0,1-.28,1.92,3.3,3.3,0,0,1-.93,1.31,4.11,4.11,0,0,1-2.79.94,4.11,4.11,0,0,1-2.78-.94,3.36,3.36,0,0,1-.95-1.31,5.22,5.22,0,0,1-.27-1.92V82.47Z"/><path id="Fill-17" class="cls-1" d="M41.13,84.05,39.34,85c-.28-.57-.63-.86-1.05-.86a.73.73,0,0,0-.51.2.66.66,0,0,0-.21.5c0,.36.42.71,1.25,1.06a7.57,7.57,0,0,1,2.32,1.35,2.33,2.33,0,0,1,.59,1.67,2.88,2.88,0,0,1-1,2.24,3.6,3.6,0,0,1-5.68-1.42l1.85-.84a4,4,0,0,0,.58.84,1.34,1.34,0,0,0,1,.37c.73,0,1.09-.33,1.09-1,0-.39-.28-.74-.84-1.07L38,87.73l-.66-.32A4.1,4.1,0,0,1,36,86.5a2.29,2.29,0,0,1-.49-1.5,2.63,2.63,0,0,1,.84-2,2.93,2.93,0,0,1,2.07-.79,2.84,2.84,0,0,1,2.68,1.84"/><path id="Fill-18" class="cls-1" d="M42.49,75.66h2.16v7.58a3.73,3.73,0,0,1,2.55-1,3.31,3.31,0,0,1,2.54,1,4.11,4.11,0,0,1,.81,2.83v5.68H48.38V86.26a2.59,2.59,0,0,0-.4-1.62,1.54,1.54,0,0,0-1.28-.5,1.77,1.77,0,0,0-1.59.7,4.64,4.64,0,0,0-.46,2.42v4.48H42.49Z"/><path id="Fill-19" class="cls-1" d="M64.45,79.23,62.63,80.3a3.09,3.09,0,0,0-1-1.15,2.61,2.61,0,0,0-2.78.22,1.64,1.64,0,0,0-.62,1.3c0,.72.54,1.29,1.62,1.73l1.47.6A6.27,6.27,0,0,1,64,84.77a4,4,0,0,1,.83,2.55,4.48,4.48,0,0,1-1.36,3.36A4.7,4.7,0,0,1,60.06,92a4.61,4.61,0,0,1-3.19-1.13,5.22,5.22,0,0,1-1.55-3.19l2.27-.5A3.74,3.74,0,0,0,58.13,89a2.31,2.31,0,0,0,2,1,2.36,2.36,0,0,0,1.74-.69,2.4,2.4,0,0,0,.7-1.76,2.47,2.47,0,0,0-.12-.79,2,2,0,0,0-.38-.66,3.13,3.13,0,0,0-.66-.56,7.08,7.08,0,0,0-1-.5L59,84.38Q56,83.11,56,80.65a3.52,3.52,0,0,1,1.28-2.77,4.63,4.63,0,0,1,3.18-1.13,4.45,4.45,0,0,1,4,2.48"/><polygon id="Fill-20" class="cls-1" points="68.5 90.02 64.29 82.47 66.8 82.47 69.66 87.8 72.33 82.47 74.77 82.47 67.31 96.79 64.84 96.79 68.5 90.02"/><path id="Fill-21" class="cls-1" d="M80.11,84.05,78.32,85c-.28-.57-.63-.86-1-.86a.73.73,0,0,0-.51.2.66.66,0,0,0-.21.5c0,.36.42.71,1.25,1.06a7.57,7.57,0,0,1,2.32,1.35,2.29,2.29,0,0,1,.59,1.67,2.88,2.88,0,0,1-1,2.24A3.6,3.6,0,0,1,74,89.73l1.85-.84a3.88,3.88,0,0,0,.59.84,1.3,1.3,0,0,0,.94.37c.73,0,1.09-.33,1.09-1,0-.39-.28-.74-.84-1.07L77,87.73l-.66-.32A4.1,4.1,0,0,1,75,86.5a2.29,2.29,0,0,1-.49-1.5,2.63,2.63,0,0,1,.84-2,2.93,2.93,0,0,1,2.08-.79,2.83,2.83,0,0,1,2.67,1.84"/><polygon id="Fill-22" class="cls-1" points="84.49 84.47 84.49 91.74 82.33 91.74 82.33 84.47 81.41 84.47 81.41 82.47 82.33 82.47 82.33 79.07 84.49 79.07 84.49 82.47 86.17 82.47 86.17 84.47 84.49 84.47"/><path id="Fill-23" class="cls-1" d="M92.77,85.86a2.08,2.08,0,0,0-2.18-1.72,2.21,2.21,0,0,0-.74.12,1.93,1.93,0,0,0-.63.35,2.06,2.06,0,0,0-.49.53,2.61,2.61,0,0,0-.31.72ZM95,87.61H88.28A2.83,2.83,0,0,0,89,89.43a2.31,2.31,0,0,0,1.7.67,2.21,2.21,0,0,0,1.34-.39,5.46,5.46,0,0,0,1.18-1.4l1.82,1a7.54,7.54,0,0,1-.89,1.22,4.65,4.65,0,0,1-1,.84,4.07,4.07,0,0,1-1.16.48,5.84,5.84,0,0,1-1.36.15,4.41,4.41,0,0,1-3.36-1.33A5,5,0,0,1,86,87.12a5.13,5.13,0,0,1,1.23-3.57,4.72,4.72,0,0,1,6.56,0A5.12,5.12,0,0,1,95,87.11Z"/><path id="Fill-24" class="cls-1" d="M96.17,82.47h2.16v.86a4.26,4.26,0,0,1,1.07-.88,2.58,2.58,0,0,1,1.18-.24,2.89,2.89,0,0,1,2.51,1.37,3.27,3.27,0,0,1,2.76-1.37q3.16,0,3.16,3.8v5.73h-2.17V86.59a3.86,3.86,0,0,0-.33-1.88,1.17,1.17,0,0,0-1.1-.57,1.44,1.44,0,0,0-1.31.67,4.27,4.27,0,0,0-.41,2.14v4.79h-2.17V86.62c0-1.65-.48-2.48-1.44-2.48a1.45,1.45,0,0,0-1.33.68A4.16,4.16,0,0,0,98.33,87v4.79H96.17Z"/></g></g></g></svg>