<?xml version="1.0" encoding="utf-8"?>
<!-- Generator: Adobe Illustrator 21.1.0, SVG Export Plug-In . SVG Version: 6.00 Build 0)  -->
<svg version="1.1" id="Layer_1" xmlns="http://www.w3.org/2000/svg" xmlns:xlink="http://www.w3.org/1999/xlink" x="0px" y="0px"
	 viewBox="0 0 128 384" style="enable-background:new 0 0 128 384;" xml:space="preserve">
<style type="text/css">
	.st0{fill:#F8B551;}
</style>
<g id="header-invite">
	<g>
		<g>
			<path class="st0" d="M119.3,95.4h-17.5V78.1c0-1.3-1-2.3-2.3-2.3c-1.3,0-2.3,1-2.3,2.3v17.4H79.7c-1.3,0-2.3,1.1-2.3,2.3
				s1,2.3,2.3,2.3h17.5v17.6c0,1.3,1,2.3,2.3,2.3c1.3,0,2.3-1,2.3-2.3v-17.6h17.5c1.3,0,2.3-1,2.3-2.3S120.6,95.4,119.3,95.4z"/>
			<path class="st0" d="M96.4,70.5c3.2,1,6.2,2.5,8.6,4.6c0.9,0.7,2.2,0.6,3-0.2c0.7-0.9,0.6-2.2-0.2-3c-2.9-2.6-6.4-4.4-10.4-5.5
				l-1.3-0.3c-2-0.5-4.3,0.2-5.6,1.7c-4.7,5.4-10.7,5.8-17,5.8c-6.2,0-12.2-0.4-16.9-5.8c-1.4-1.6-3.5-2.2-5.5-1.7l-1.3,0.3
				c-8.9,2.4-16,9.2-18.5,18.1l-1.8,6.2c-0.1,0-0.2,0-0.3,0H11.6c-0.4,0-0.6-0.2-0.8-0.3c-0.1-0.1-0.3-0.4-0.2-0.9L14.1,77
				c3-10,9.3-13.2,20.7-15.8c0.2,0,0.3-0.1,0.5-0.2c0.7,0.5,1.6,1.1,2.4,1.5c0.3,0.2,0.6,0.2,1,0.2c0.8,0,1.5-0.4,1.9-1.2
				c0.5-1.1,0.1-2.4-0.9-2.9c-6.3-3.2-10.9-12.5-10.9-22.1c0-8.7,7-15.6,15.6-15.6c2.6,0,4.9,0.6,7.3,1.8c-1.3,3-2,6.3-2,9.7
				c0,18.3,11,33.7,24.2,33.7c12.8,0,24.2-15.7,24.2-33.7c0-13.4-10.8-24.2-24.2-24.2c-8.3,0-15.7,4.3-20.1,10.7l-0.1-0.1
				c-2.9-1.5-6-2.2-9.2-2.2c-11,0-19.9,8.9-19.9,19.9c0,8,2.8,15.7,7.2,20.9c-9.7,2.5-17.9,6.1-21.6,18.3L6.5,88.4
				c-0.4,1.6-0.1,3.3,1,4.6c1,1.3,2.5,2,4.1,2h16.7l-1.5,5c-0.5,1.8-0.2,3.7,1,5.2c1.2,1.5,3,2.5,4.9,2.5H78c1.2,0,2.1-1,2.1-2.1
				c0-1.2-1-2.1-2.1-2.1H32.6c-0.5,0-1.1-0.2-1.4-0.7c-0.2-0.2-0.4-0.8-0.2-1.5l4.5-15.6c2.1-7.4,8-13.2,15.5-15.1l1.3-0.3
				c0.4-0.1,0.9,0.1,1.2,0.4c5.9,6.7,13.2,7.3,20.2,7.3s14.3-0.5,20.2-7.3c0,0,0-0.1,0.1-0.1c0.2-0.2,0.7-0.4,1.1-0.3L96.4,70.5z
				 M73.9,12.6c8.9,0,16.4,5.9,18.9,13.9c-3.7,0.7-7.7-0.7-10.1-4c-0.7-1-2-1.2-3-0.4c-0.4,0.3-0.6,0.6-0.8,1.1
				c-0.1,0.1-0.1,0.2-0.2,0.3c-3,6.1-13.1,8.7-24.6,6.4C55.4,20.2,63.8,12.6,73.9,12.6z M62.2,34.9c8.6,0,15.6-2.7,19.3-7.7
				c2.7,2.4,6,3.6,9.5,3.6c0.9,0,1.8-0.1,2.7-0.3c0.1,0.6,0.1,1.2,0.1,1.8c0,15.7-9.3,29.5-19.9,29.5c-10.2,0-19.3-12.7-19.9-27.7
				C56.8,34.7,59.5,34.9,62.2,34.9z"/>
		</g>
	</g>
</g>
<g id="header-notify">
	<path class="st0" d="M81.3,198.2l-2.1,3.3c6.5,4.2,10.4,11.4,10.4,19.1v10.8H65.1l14.4-24.7l-3.4-2L64,225.6l-12.1-20.8l-3.4,2
		l14.4,24.7H38.4v-10.8c0-7.7,3.9-14.9,10.4-19.1l-2.1-3.3c-7.7,4.9-12.2,13.3-12.2,22.4v14.8h59.2v-14.8
		C93.6,211.6,89,203.2,81.3,198.2z"/>
	<path class="st0" d="M42.1,180.2c0,12,9.8,21.8,21.8,21.8s21.8-9.8,21.8-21.8c0-12-9.8-21.8-21.8-21.8S42.1,168.2,42.1,180.2z
		 M81.7,180.2c0,9.8-8,17.8-17.8,17.8c-9.8,0-17.8-8-17.8-17.8c0-9.8,8-17.8,17.8-17.8C73.7,162.4,81.7,170.4,81.7,180.2z"/>
	<path class="st0" d="M37.2,187.5c-1.6,0.5-3.3,0.7-4.9,0.7c-9.8,0-17.8-8-17.8-17.8c0-9.8,8-17.8,17.8-17.8
		c5.4,0,10.4,2.4,13.8,6.6l3.1-2.5c-4.2-5.1-10.3-8-16.9-8c-12,0-21.8,9.8-21.8,21.8c0,12,9.8,21.8,21.8,21.8c2,0,4-0.3,6-0.9
		L37.2,187.5z"/>
	<path class="st0" d="M6.8,210.8c0-7.7,3.9-14.9,10.4-19.1l-2.1-3.3c-7.7,4.9-12.2,13.3-12.2,22.4v14.8h25.6v-3.9H6.8V210.8z"/>
	<path class="st0" d="M117.2,170.4c0-12-9.8-21.8-21.8-21.8c-6.6,0-12.7,2.9-16.9,8l3.1,2.5c3.4-4.2,8.4-6.6,13.8-6.6
		c9.8,0,17.8,8,17.8,17.8c0,9.8-8,17.8-17.8,17.8c-1.6,0-3.3-0.2-4.9-0.7l-1.1,3.8c2,0.6,4,0.9,6,0.9
		C107.5,192.2,117.2,182.4,117.2,170.4z"/>
	<path class="st0" d="M112.9,188.4l-2.1,3.3c6.5,4.2,10.4,11.4,10.4,19.1v10.8h-19.7l0,0h-3.9v3.9h27.6v-14.8
		C125.2,201.7,120.6,193.3,112.9,188.4z"/>
</g>
<g id="header-message">
	<path class="st0" d="M121.9,325.2l-5.8-5.8c-2.4-2.4-6.2-2.4-8.6,0L76,350.8l-4.3,15.9l-1.1,1.1c-0.8,0.8-0.8,2.1,0,2.9l0,0l0,0
		c0.4,0.4,0.9,0.6,1.4,0.6c0.5,0,1-0.2,1.4-0.6l1.1-1.1l15.9-4.3l31.4-31.4C124.3,331.5,124.3,327.6,121.9,325.2z M80.8,351.9
		l20.9-20.9l8.7,8.7l-20.9,20.9L80.8,351.9z M78.9,355.8l6.6,6.6l-9,2.5L78.9,355.8z M119,331l-5.8,5.8l-8.7-8.7l5.8-5.8
		c0.8-0.8,2.1-0.8,2.8,0l5.8,5.8C119.8,328.9,119.8,330.2,119,331z"/>
	<path class="st0" d="M63.3,354.4H12c9.3-7.4,30.2-24.1,41-33.5l2.9,2.6c2,1.8,4.7,2.7,7.4,2.7c2.7,0,5.4-0.9,7.4-2.7l47.7-42.2
		v32.2c0,1.1,0.9,2,2,2s2-0.9,2-2v-36.8c0,0,0,0,0,0c0-0.2,0-0.5-0.1-0.7c0,0,0,0,0,0c0-0.1-0.1-0.1-0.1-0.1
		c-0.1-0.2-0.2-0.3-0.3-0.5c-0.1-0.1-0.1-0.1-0.2-0.2c-0.1-0.1-0.3-0.2-0.4-0.3c-0.1,0-0.1-0.1-0.2-0.1c-0.2-0.1-0.5-0.1-0.7-0.1
		H6.1c-0.3,0-0.5,0.1-0.7,0.1c-0.1,0-0.1,0.1-0.2,0.1c-0.2,0.1-0.3,0.2-0.4,0.3c-0.1,0.1-0.1,0.1-0.2,0.2c-0.1,0.1-0.2,0.3-0.3,0.5
		c0,0.1-0.1,0.1-0.1,0.1c0,0,0,0,0,0c-0.1,0.2-0.1,0.4-0.1,0.7c0,0,0,0,0,0v79.7c0,0,0,0,0,0c0,0.2,0,0.4,0.1,0.7c0,0,0,0,0,0.1
		c0,0.1,0.1,0.1,0.1,0.2c0.1,0.1,0.2,0.3,0.3,0.4c0.1,0.1,0.1,0.1,0.2,0.2c0.1,0.1,0.3,0.2,0.4,0.3c0.1,0,0.1,0.1,0.2,0.1
		c0.2,0.1,0.5,0.1,0.7,0.1h57.2c1.1,0,2-0.9,2-2C65.4,355.3,64.4,354.4,63.3,354.4z M8.2,352.2v-70.9l41.7,36.9
		C38.6,328.1,16.5,345.6,8.2,352.2z M115.1,278.8L68,320.4c-2.6,2.3-6.8,2.3-9.4,0l-4-3.6c0,0,0,0,0,0c0-0.1-0.1-0.1-0.2-0.1
		l-42.9-37.9H115.1z"/>
</g>
</svg>
