<?xml version="1.0" encoding="utf-8"?>
<!-- Generator: Adobe Illustrator 22.0.1, SVG Export Plug-In . SVG Version: 6.00 Build 0)  -->
<svg version="1.1" id="圖層_1" xmlns="http://www.w3.org/2000/svg" xmlns:xlink="http://www.w3.org/1999/xlink" x="0px" y="0px"
	 viewBox="0 0 103.4 30" style="enable-background:new 0 0 103.4 30;" xml:space="preserve">
<style type="text/css">
	.st0{fill:#FFFFFF;}
	.st1{fill:none;}
</style>
<g>
	<g>
		<path class="st0" d="M103.4,26.8c0,1.6-1.3,2.9-2.9,2.9c-1.6,0-3-1.3-3-2.9c0-1.6,1.3-2.9,3-2.9C102.1,23.9,103.4,25.2,103.4,26.8
			z M98.2,26.8c0,1.3,0.9,2.3,2.2,2.3c1.3,0,2.2-1,2.2-2.3c0-1.3-0.9-2.3-2.2-2.3C99.1,24.5,98.2,25.5,98.2,26.8z M100,28.3h-0.7
			v-2.9c0.3-0.1,0.6-0.1,1.1-0.1c0.5,0,0.8,0.1,1,0.2c0.2,0.1,0.3,0.3,0.3,0.6c0,0.3-0.2,0.6-0.6,0.7v0c0.3,0.1,0.4,0.3,0.5,0.7
			c0.1,0.4,0.1,0.6,0.2,0.7h-0.7c-0.1-0.1-0.1-0.4-0.2-0.7c-0.1-0.3-0.2-0.5-0.6-0.5H100V28.3z M100,26.7h0.3c0.4,0,0.7-0.1,0.7-0.4
			c0-0.3-0.2-0.4-0.6-0.4c-0.2,0-0.3,0-0.4,0V26.7z"/>
	</g>
	<path class="st0" d="M5.4,28c0,0.8-0.2,1.3-0.7,1.6c-0.5,0.2-1.1,0.4-2,0.4c-0.9,0-1.5-0.1-2-0.4C0.2,29.3,0,28.8,0,28V1.9
		c0-0.8,0.2-1.3,0.7-1.6C1.2,0.1,1.8,0,2.7,0c0.9,0,1.6,0.1,2,0.4c0.5,0.2,0.7,0.8,0.7,1.6V28z"/>
	<path class="st0" d="M27.3,0C28,0,28.5,0.2,29,0.4c0.4,0.2,0.8,0.6,1,1.1l14.9,25.4c0.2,0.3,0.2,0.6,0.2,0.9c0,0.3-0.1,0.6-0.2,0.9
		c-0.1,0.3-0.3,0.5-0.6,0.7c-0.2,0.2-0.5,0.3-0.8,0.4C43.2,29.9,43,30,42.7,30c-0.3,0-0.6-0.1-0.9-0.2c-0.3-0.1-0.5-0.3-0.6-0.6
		l-4-7h-19l-3.8,7c-0.2,0.3-0.4,0.5-0.6,0.6c-0.3,0.1-0.5,0.2-0.8,0.2c-0.3,0-0.6-0.1-0.9-0.2c-0.3-0.1-0.6-0.3-0.8-0.5
		c-0.2-0.2-0.4-0.4-0.6-0.7c-0.1-0.3-0.2-0.6-0.2-0.9c0-0.3,0.1-0.6,0.2-0.9l14-25.4c0.3-0.5,0.6-0.8,1-1.1C26.1,0.2,26.7,0,27.3,0z
		 M20.5,17.7h14.1L27.3,5L20.5,17.7z"/>
	<path class="st0" d="M94.1,28c0,0.8-0.2,1.3-0.7,1.6c-0.5,0.2-1.1,0.4-2,0.4c-0.9,0-1.5-0.1-2-0.4c-0.5-0.2-0.7-0.8-0.7-1.6V1.9
		c0-0.8,0.2-1.3,0.7-1.6c0.5-0.2,1.1-0.4,2-0.4c0.9,0,1.6,0.1,2,0.4c0.5,0.2,0.7,0.8,0.7,1.6V28z"/>
	<path class="st0" d="M77.7,28.1c0,0.8,0.2,1.3,0.6,1.5c0.4,0.2,0.9,0.4,1.6,0.4c0.7,0,1.3-0.1,1.7-0.4c0.4-0.2,0.6-0.7,0.6-1.5v-26
		h-4.4V28.1z"/>
	<path class="st0" d="M47.3,28.1c0,0.8,0.2,1.3,0.6,1.5c0.4,0.2,0.9,0.4,1.6,0.4c0.7,0,1.3-0.1,1.7-0.4c0.4-0.2,0.6-0.7,0.6-1.5v-26
		h-4.4V28.1z"/>
	<line class="st1" x1="74.9" y1="6.9" x2="70.8" y2="14.6"/>
	<g>
		<path class="st0" d="M81.9,1.3c-0.1-0.3-0.3-0.5-0.6-0.7c-0.2-0.2-0.5-0.4-0.8-0.5C80.2,0.1,79.9,0,79.6,0c-0.3,0-0.6,0.1-0.8,0.2
			c-0.3,0.1-0.5,0.3-0.6,0.6l-3.8,7L72,12.3L65.2,25l-7.2-12.7l-2.5-4.4l-4-7c-0.2-0.3-0.4-0.5-0.6-0.6C50.4,0.1,50.2,0,49.8,0
			c-0.3,0-0.6,0.1-0.9,0.2c-0.3,0.1-0.6,0.3-0.8,0.4c-0.2,0.2-0.4,0.4-0.6,0.7c-0.1,0.3-0.2,0.6-0.2,0.9c0,0.3,0.1,0.6,0.2,0.9
			l14.9,25.4c0.3,0.5,0.6,0.8,1,1.1c0.4,0.2,1,0.4,1.6,0.4c0.7,0,1.2-0.1,1.7-0.4c0.4-0.2,0.8-0.6,1-1.1l14-25.4
			c0.2-0.3,0.2-0.6,0.2-0.9C82.1,1.9,82,1.6,81.9,1.3z"/>
	</g>
</g>
</svg>
