<?xml version="1.0" encoding="utf-8"?>
<!-- Generator: Adobe Illustrator 16.0.0, SVG Export Plug-In . SVG Version: 6.00 Build 0)  -->
<!DOCTYPE svg PUBLIC "-//W3C//DTD SVG 1.1//EN" "http://www.w3.org/Graphics/SVG/1.1/DTD/svg11.dtd">
<svg version="1.1" id="Layer_1" xmlns="http://www.w3.org/2000/svg" xmlns:xlink="http://www.w3.org/1999/xlink" x="0px" y="0px"
	 width="128px" height="128px" viewBox="0 0 128 128" enable-background="new 0 0 128 128" xml:space="preserve">
<g>
	<g>
		<g>
			<path fill="#8361C2" d="M37.996,108.629c-0.399,0-0.799,0-1.199-0.2c-1.398-0.599-2.198-1.798-2.198-3.196l-0.2-11.388h-8.391
				c-5.195,0-9.59-4.195-9.59-9.589V52.091c0-5.194,4.196-9.589,9.59-9.589h52.342c5.194,0,9.589,4.195,9.589,9.589v32.165
				c0,5.194-4.195,9.589-9.589,9.589H52.779L40.393,107.63C39.793,108.229,38.995,108.629,37.996,108.629z M25.809,46.498
				c-2.997,0-5.593,2.397-5.593,5.593v32.165c0,2.997,2.397,5.594,5.593,5.594h12.386l0.2,14.184L50.981,89.85h27.17
				c2.997,0,5.594-2.397,5.594-5.594V52.091c0-2.997-2.397-5.593-5.594-5.593H25.809z"/>
		</g>
		<g>
			<path fill="#8361C2" d="M95.732,91.448c-0.999,0-1.998-0.4-2.597-1.199l-8.99-9.989l2.996-2.597l8.191,9.19l0.2-14.185h4.396
				c2.997,0,5.593-2.397,5.593-5.594V34.91c0-2.997-2.397-5.594-5.593-5.594H47.585c-2.997,0-5.594,2.397-5.594,5.594v9.789h-3.996
				V34.91c0-5.195,4.195-9.59,9.589-9.59h52.343c5.194,0,9.589,4.195,9.589,9.59v32.164c0,5.195-4.196,9.59-9.589,9.59h-0.4
				l-0.199,11.387c0,1.399-0.999,2.797-2.198,3.197C96.731,91.448,96.332,91.448,95.732,91.448z"/>
		</g>
		<g>
			<rect x="31.203" y="57.885" fill="#8361C2" width="20.777" height="3.996"/>
		</g>
		<g>
			<rect x="31.203" y="67.274" fill="#8361C2" width="41.155" height="3.996"/>
		</g>
		<g>
			<rect x="31.203" y="76.863" fill="#8361C2" width="41.155" height="3.996"/>
		</g>
	</g>
	<g>
		<path fill="#8361C2" d="M63.93,127.72c-17.038,0-33.057-6.635-45.105-18.684S0.141,80.969,0.141,63.93
			c0-17.038,6.635-33.057,18.684-45.105S46.892,0.141,63.93,0.141c17.039,0,33.058,6.635,45.106,18.684S127.72,46.892,127.72,63.93
			c0,17.039-6.635,33.058-18.684,45.106S80.969,127.72,63.93,127.72z M63.93,3.575c-16.121,0-31.277,6.278-42.676,17.678
			C9.854,32.652,3.575,47.809,3.575,63.93c0,16.122,6.278,31.278,17.678,42.678c11.399,11.399,26.556,17.678,42.676,17.678
			c16.122,0,31.278-6.278,42.678-17.678s17.678-26.556,17.678-42.678c0-16.121-6.278-31.277-17.678-42.676
			C95.208,9.854,80.051,3.575,63.93,3.575z"/>
	</g>
</g>
</svg>
