<?xml version="1.0" encoding="utf-8"?>
<!-- Generator: Adobe Illustrator 21.1.0, SVG Export Plug-In . SVG Version: 6.00 Build 0)  -->
<svg version="1.1" id="Layer_1" xmlns="http://www.w3.org/2000/svg" xmlns:xlink="http://www.w3.org/1999/xlink" x="0px" y="0px"
	 viewBox="0 0 128 128" style="enable-background:new 0 0 128 128;" xml:space="preserve">
<style type="text/css">
	.st0{fill:#8361c2;}
</style>
<path class="st0" d="M121.6,43.5c-1.9-1.4-4.4-2-6.7-1.5l-11.7,4v-2.1c0-6.8-5.6-12.4-12.4-12.4H17.7c-6.8,0-12.4,5.6-12.4,12.4
	v40.3c0,6.8,5.6,12.4,12.4,12.4h73.2c6.8,0,12.4-5.6,12.4-12.4v-1.7l11.5,3.5l0.2,0c0.6,0.1,1.2,0.2,1.8,0.2c1.9,0,3.6-0.6,4.9-1.8
	c1.9-1.5,3-3.8,3-6.2V49.7C124.7,47.2,123.6,45,121.6,43.5z M33.5,78.8H19.1v-23h5.3v18.6h9.1V78.8z M43.5,78.8h-5.2v-23h5.2V78.8z
	 M62.1,78.8H56l-7.4-23h5.7l2.8,9.7c0.8,2.7,1.5,5.4,2.1,8.2h0.1c0.6-2.8,1.3-5.5,2.1-8.1l2.9-9.8h5.5L62.1,78.8z M89.6,78.8H74.9
	v-23h14.2v4.3h-9v4.7h8.5v4.3h-8.5v5.4h9.5V78.8z M85.2,51.3c-2.7,0-4.9-2.2-4.9-4.9c0-2.7,2.2-4.9,4.9-4.9s4.9,2.2,4.9,4.9
	C90.1,49.1,87.9,51.3,85.2,51.3z"/>
</svg>
