<?xml version="1.0" encoding="utf-8"?>
<!-- Generator: Adobe Illustrator 22.1.0, SVG Export Plug-In . SVG Version: 6.00 Build 0)  -->
<svg version="1.1" id="Layer_1" xmlns="http://www.w3.org/2000/svg" xmlns:xlink="http://www.w3.org/1999/xlink" x="0px" y="0px"
	 viewBox="0 0 128 128" enable-background="new 0 0 128 128" xml:space="preserve">
<rect x="35.816" y="20.521" fill="#FFFFFF" width="59.333" height="89.667"/>
<g>
	<g>
		<path fill="#8361C2" d="M109.138,18.863c-24.924-24.927-65.346-24.93-90.275,0c-24.93,24.927-24.927,65.346,0,90.275
			c24.927,24.925,65.346,24.93,90.275,0S134.063,43.792,109.138,18.863z M72.327,91.754c0,4.602-3.729,8.326-8.329,8.326
			c-4.599,0-8.326-3.724-8.326-8.326V58.45c0-4.6,3.728-8.326,8.326-8.326c4.6,0,8.329,3.727,8.329,8.326V91.754z M63.849,44.218
			c-4.795,0-7.99-3.396-7.893-7.592c-0.098-4.396,3.098-7.69,7.99-7.69c4.9,0,7.995,3.299,8.099,7.69
			C72.039,40.822,68.847,44.218,63.849,44.218z"/>
	</g>
</g>
</svg>
