<?xml version="1.0" encoding="utf-8"?>
<!-- Generator: Adobe Illustrator 16.0.0, SVG Export Plug-In . SVG Version: 6.00 Build 0)  -->
<!DOCTYPE svg PUBLIC "-//W3C//DTD SVG 1.1//EN" "http://www.w3.org/Graphics/SVG/1.1/DTD/svg11.dtd">
<svg version="1.1" id="Layer_1" xmlns="http://www.w3.org/2000/svg" xmlns:xlink="http://www.w3.org/1999/xlink" x="0px" y="0px"
	 width="128px" height="128px" viewBox="0 0 128 128" enable-background="new 0 0 128 128" xml:space="preserve">
<path fill="#8361C2" d="M66.078,66.078h25.623c1.147-0.001,2.078-0.931,2.078-2.078s-0.931-2.078-2.078-2.078H66.078l-0.002-25.621
	c0-1.147-0.931-2.078-2.078-2.078s-2.078,0.931-2.078,2.078v25.623H36.302c-1.148-0.001-2.079,0.93-2.078,2.078
	c0.001,0.574,0.231,1.093,0.606,1.469c0.377,0.376,0.896,0.609,1.469,0.607l25.624-0.001l-0.001,25.624
	c0.002,0.573,0.231,1.092,0.607,1.468s0.895,0.61,1.469,0.607c1.147,0.001,2.078-0.93,2.078-2.078L66.078,66.078z"/>
<g>
	<path fill="#8361C2" d="M63.93,127.72c-17.038,0-33.057-6.636-45.105-18.684S0.141,80.969,0.141,63.93
		c0-17.038,6.635-33.057,18.684-45.105S46.892,0.141,63.93,0.141c17.039,0,33.059,6.635,45.106,18.684S127.72,46.892,127.72,63.93
		c0,17.039-6.636,33.059-18.684,45.106S80.969,127.72,63.93,127.72z M63.93,3.575c-16.121,0-31.277,6.278-42.676,17.678
		C9.854,32.652,3.575,47.809,3.575,63.93c0,16.121,6.278,31.278,17.679,42.678c11.398,11.399,26.555,17.678,42.676,17.678
		s31.278-6.278,42.678-17.678s17.678-26.557,17.678-42.678c0-16.121-6.278-31.277-17.678-42.676
		C95.208,9.854,80.051,3.575,63.93,3.575z"/>
</g>
</svg>
