<?xml version="1.0" encoding="utf-8"?>
<!-- Generator: Adobe Illustrator 21.1.0, SVG Export Plug-In . SVG Version: 6.00 Build 0)  -->
<svg version="1.1" id="Layer_1" xmlns="http://www.w3.org/2000/svg" xmlns:xlink="http://www.w3.org/1999/xlink" x="0px" y="0px"
	 viewBox="0 0 30 30" style="enable-background:new 0 0 30 30;" xml:space="preserve">
<style type="text/css">
	.st0{fill:#8361c2;}
</style>
<g>
	<path class="st0" d="M26.5,18.7c0.9,0.3,1.8,0.7,2.5,1.4c0.3,0.2,0.7,0.2,0.9-0.1c0.2-0.3,0.2-0.7-0.1-0.9c-0.8-0.8-1.9-1.3-3-1.6
		l-0.4-0.1c-0.6-0.2-1.3,0.1-1.6,0.5c-1.4,1.6-3.1,1.7-5,1.7c-1.8,0-3.6-0.1-5-1.7c-0.4-0.5-1-0.7-1.6-0.5l-0.4,0.1
		c-2.6,0.7-4.7,2.7-5.4,5.3l-0.5,1.8c0,0-0.1,0-0.1,0H1.5c-0.1,0-0.2-0.1-0.2-0.1c0,0-0.1-0.1-0.1-0.3l1-3.7
		c0.9-2.9,2.7-3.9,6.1-4.7c0.1,0,0.1,0,0.2-0.1C8.7,16,9,16.2,9.2,16.3c0.1,0.1,0.2,0.1,0.3,0.1c0.2,0,0.4-0.1,0.6-0.3
		c0.2-0.3,0-0.7-0.3-0.8c-1.9-0.9-3.2-3.7-3.2-6.5c0-2.5,2-4.6,4.6-4.6c0.8,0,1.4,0.2,2.1,0.5c-0.4,0.9-0.6,1.9-0.6,2.9
		c0,5.4,3.2,9.9,7.1,9.9c3.8,0,7.1-4.6,7.1-9.9c0-3.9-3.2-7.1-7.1-7.1c-2.5,0-4.6,1.3-5.9,3.1l0,0c-0.8-0.4-1.8-0.7-2.7-0.7
		c-3.2,0-5.8,2.6-5.8,5.8c0,2.4,0.8,4.6,2.1,6.1c-2.9,0.7-5.2,1.8-6.3,5.4l-1,3.7c-0.1,0.5,0,1,0.3,1.4c0.3,0.4,0.7,0.6,1.2,0.6h4.9
		L6,27.3c-0.2,0.5-0.1,1.1,0.3,1.5c0.3,0.4,0.9,0.7,1.4,0.7h13.3c0.3,0,0.6-0.3,0.6-0.6c0-0.3-0.3-0.6-0.6-0.6H7.7
		c-0.2,0-0.3-0.1-0.4-0.2c-0.1-0.1-0.1-0.2-0.1-0.4l1.3-4.6c0.6-2.2,2.4-3.9,4.6-4.4l0.4-0.1c0.1,0,0.3,0,0.3,0.1
		c1.7,2,3.9,2.1,5.9,2.1c2.1,0,4.2-0.2,5.9-2.1c0,0,0,0,0,0c0.1-0.1,0.2-0.1,0.3-0.1L26.5,18.7z M19.8,1.7c2.6,0,4.8,1.7,5.6,4.1
		c-1.1,0.2-2.3-0.2-3-1.2c-0.2-0.3-0.6-0.3-0.9-0.1c-0.1,0.1-0.2,0.2-0.2,0.3c0,0,0,0.1-0.1,0.1c-0.9,1.8-3.8,2.5-7.2,1.9
		C14.4,3.9,16.9,1.7,19.8,1.7z M16.4,8.2c2.5,0,4.6-0.8,5.7-2.3C22.8,6.7,23.8,7,24.9,7c0.3,0,0.5,0,0.8-0.1c0,0.2,0,0.3,0,0.5
		c0,4.6-2.7,8.7-5.8,8.7c-3,0-5.7-3.7-5.8-8.1C14.8,8.2,15.6,8.2,16.4,8.2z"/>
</g>
</svg>
