<?xml version="1.0" encoding="utf-8"?>
<!-- Generator: Adobe Illustrator 22.0.1, SVG Export Plug-In . SVG Version: 6.00 Build 0)  -->
<svg version="1.1" id="圖層_1" xmlns="http://www.w3.org/2000/svg" xmlns:xlink="http://www.w3.org/1999/xlink" x="0px" y="0px"
	 viewBox="0 0 128 128" style="enable-background:new 0 0 128 128;" xml:space="preserve">
<style type="text/css">
	.st0{fill:#8361c2;}
	.st1{fill:#FFFFFF;}
</style>
<g>
	<g>
		<path class="st0" d="M116.5,28.6c3.1,0,5.5,2.5,5.5,5.5v73c0,3.1-2.5,5.5-5.5,5.5H11.5c-3.1,0-5.5-2.5-5.5-5.5v-73
			c0-3.1,2.5-5.5,5.5-5.5H116.5 M116.5,22.6H11.5C5.2,22.6,0,27.8,0,34.1v73c0,6.3,5.2,11.5,11.5,11.5h104.9
			c6.3,0,11.5-5.2,11.5-11.5v-73C128,27.8,122.8,22.6,116.5,22.6L116.5,22.6z"/>
	</g>
	<g>
		<path class="st0" d="M115.8,28.6c3.4,0,6.2,2.5,6.2,5.6v4.1H6v-4.1c0-3,2.9-5.6,6.2-5.6H115.8 M115.8,22.6H12.2
			C5.5,22.6,0,27.8,0,34.2v10.1h128V34.2C128,27.8,122.5,22.6,115.8,22.6L115.8,22.6z"/>
	</g>
	<path class="st0" d="M112.2,106H15.8c-1.1,0-2-0.9-2-2V53.9c0-1.1,0.9-2,2-2h96.3c1.1,0,2,0.9,2,2V104
		C114.2,105.1,113.3,106,112.2,106z M17.8,102h92.3V55.9H17.8V102z"/>
	<rect x="15.8" y="64.4" class="st0" width="96.3" height="4"/>
	<rect x="15.8" y="77" class="st0" width="96.3" height="4"/>
	<rect x="15.8" y="89.5" class="st0" width="96.3" height="4"/>
	<rect x="27.6" y="53.9" class="st0" width="4" height="50.1"/>
	<rect x="41.4" y="53.9" class="st0" width="4" height="50.1"/>
	<rect x="55.1" y="53.9" class="st0" width="4" height="50.1"/>
	<rect x="68.9" y="53.9" class="st0" width="4" height="50.1"/>
	<rect x="82.6" y="53.9" class="st0" width="4" height="50.1"/>
	<rect x="96.4" y="53.9" class="st0" width="4" height="50.1"/>
	<g>
		<g>
			<path class="st1" d="M44.1,33.4h-7.4c-2.5,0-4.6-2.1-4.6-4.6V16.9c0-2.5,2.1-4.6,4.6-4.6h7.4c2.5,0,4.6,2.1,4.6,4.6v11.9
				C48.7,31.3,46.7,33.4,44.1,33.4z"/>
			<path class="st0" d="M44.1,36.4h-7.4c-4.2,0-7.6-3.4-7.6-7.6V16.9c0-4.2,3.4-7.6,7.6-7.6h7.4c4.2,0,7.6,3.4,7.6,7.6v11.9
				C51.7,33,48.3,36.4,44.1,36.4z M36.8,15.3c-0.9,0-1.6,0.7-1.6,1.6v11.9c0,0.9,0.7,1.6,1.6,1.6h7.4c0.9,0,1.6-0.7,1.6-1.6V16.9
				c0-0.9-0.7-1.6-1.6-1.6H36.8z"/>
		</g>
		<g>
			<path class="st1" d="M90.9,33.4h-7.4c-2.5,0-4.6-2.1-4.6-4.6V16.9c0-2.5,2.1-4.6,4.6-4.6h7.4c2.5,0,4.6,2.1,4.6,4.6v11.9
				C95.5,31.3,93.4,33.4,90.9,33.4z"/>
			<path class="st0" d="M90.9,36.4h-7.4c-4.2,0-7.6-3.4-7.6-7.6V16.9c0-4.2,3.4-7.6,7.6-7.6h7.4c4.2,0,7.6,3.4,7.6,7.6v11.9
				C98.5,33,95.1,36.4,90.9,36.4z M83.5,15.3c-0.9,0-1.6,0.7-1.6,1.6v11.9c0,0.9,0.7,1.6,1.6,1.6h7.4c0.9,0,1.6-0.7,1.6-1.6V16.9
				c0-0.9-0.7-1.6-1.6-1.6H83.5z"/>
		</g>
	</g>
</g>
</svg>
