<?xml version="1.0" encoding="utf-8"?>
<!-- Generator: Adobe Illustrator 22.0.1, SVG Export Plug-In . SVG Version: 6.00 Build 0)  -->
<svg version="1.1" id="圖層_1" xmlns="http://www.w3.org/2000/svg" xmlns:xlink="http://www.w3.org/1999/xlink" x="0px" y="0px"
	 viewBox="0 0 128 128" style="enable-background:new 0 0 128 128;" xml:space="preserve">
<style type="text/css">
	.st0{fill:#8361c2;}
</style>
<g>
	<g>
		<path class="st0" d="M115.8,34.8c3.4,0,6.2,2.8,6.2,6.2V107c0,3.4-2.8,6.2-6.2,6.2H12.2c-3.4,0-6.2-2.8-6.2-6.2V41.1
			c0-3.4,2.8-6.2,6.2-6.2H115.8 M115.8,28.8H12.2C5.5,28.8,0,34.3,0,41.1V107c0,6.7,5.5,12.2,12.2,12.2h103.5
			c6.7,0,12.2-5.5,12.2-12.2V41.1C128,34.3,122.5,28.8,115.8,28.8L115.8,28.8z"/>
		<path class="st0" d="M42.3,57.5l43,18.1l-43,18.1V57.5 M41,50.8c-2.5,0-4.7,2-4.7,4.7v40.3c0,2.7,2.2,4.7,4.7,4.7
			c0.6,0,1.2-0.1,1.8-0.4l47.7-20.1c3.8-1.6,3.8-7,0-8.6L42.8,51.2C42.2,50.9,41.6,50.8,41,50.8L41,50.8z"/>
	</g>
	<path class="st0" d="M59.6,25.3c-0.5,0-1.1-0.1-1.6-0.4L40.9,14.3c-1.4-0.9-1.8-2.7-1-4.1c0.9-1.4,2.7-1.8,4.1-1l17.1,10.5
		c1.4,0.9,1.8,2.7,1,4.1C61.6,24.8,60.6,25.3,59.6,25.3z"/>
	<path class="st0" d="M59.6,25.3c-1,0-2-0.5-2.6-1.4c-0.9-1.4-0.4-3.3,1-4.1L75.1,9.2c1.4-0.9,3.3-0.4,4.1,1c0.9,1.4,0.4,3.3-1,4.1
		L61.1,24.9C60.6,25.2,60.1,25.3,59.6,25.3z"/>
</g>
</svg>
