<?xml version="1.0" encoding="utf-8"?>
<!-- Generator: Adobe Illustrator 16.0.0, SVG Export Plug-In . SVG Version: 6.00 Build 0)  -->
<!DOCTYPE svg PUBLIC "-//W3C//DTD SVG 1.1//EN" "http://www.w3.org/Graphics/SVG/1.1/DTD/svg11.dtd">
<svg version="1.1" id="Layer_1" xmlns="http://www.w3.org/2000/svg" xmlns:xlink="http://www.w3.org/1999/xlink" x="0px" y="0px"
	 width="128px" height="128px" viewBox="0 0 128 128" enable-background="new 0 0 128 128" xml:space="preserve">
<g>
	<path fill="#8361c2" d="M81.349,70.232l-2.139,3.319c6.536,4.214,10.438,11.354,10.438,19.099v10.811H65.133l14.383-24.655
		l-3.411-1.989L64,97.573L51.894,76.817l-3.41,1.988l14.385,24.655H38.352v-10.81c0-7.746,3.902-14.888,10.438-19.101l-2.138-3.319
		c-7.669,4.948-12.247,13.328-12.247,22.42v14.756h59.191V92.651C93.597,83.559,89.018,75.179,81.349,70.232z"/>
	<path fill="#8361c2" d="M42.113,52.24c0,12.012,9.771,21.783,21.782,21.783s21.782-9.771,21.782-21.783
		c0-12.009-9.771-21.78-21.782-21.78S42.113,40.231,42.113,52.24z M81.731,52.24c0,9.834-8.003,17.837-17.836,17.837
		c-9.834,0-17.837-8.003-17.837-17.837c0-9.835,8.003-17.836,17.837-17.836C73.729,34.404,81.731,42.405,81.731,52.24z"/>
	<path fill="#8361c2" d="M37.242,59.509c-1.632,0.467-3.286,0.703-4.912,0.703c-9.834,0-17.837-8.003-17.837-17.836
		c0-9.835,8.002-17.837,17.837-17.837c5.368,0,10.398,2.387,13.807,6.553l3.056-2.5c-4.16-5.083-10.308-7.999-16.865-7.999
		c-12.012,0-21.782,9.773-21.782,21.782c0,12.012,9.771,21.782,21.782,21.782c1.994,0,4.011-0.288,5.996-0.854L37.242,59.509z"/>
	<path fill="#8361c2" d="M6.782,82.785c0-7.746,3.902-14.886,10.439-19.101l-2.139-3.318C7.414,65.314,2.836,73.693,2.836,82.785
		v14.756h25.65v-3.945H6.782V82.785z"/>
	<path fill="#8361c2" d="M117.246,42.377c0-12.011-9.77-21.782-21.781-21.782c-6.558,0-12.702,2.915-16.864,7.998l3.057,2.499
		c3.407-4.164,8.44-6.551,13.808-6.551c9.833,0,17.836,8,17.836,17.836c0,9.833-8.003,17.836-17.836,17.836
		c-1.629,0-3.281-0.237-4.913-0.702l-1.088,3.791c1.985,0.569,4.004,0.858,6.001,0.858
		C107.477,64.158,117.246,54.387,117.246,42.377z"/>
	<path fill="#8361c2" d="M112.917,60.367l-2.139,3.319c6.537,4.215,10.439,11.355,10.439,19.099v10.812h-19.73l0,0h-3.946v3.945
		h27.623V82.785C125.164,73.693,120.586,65.314,112.917,60.367z"/>
</g>
</svg>
