<?xml version="1.0" encoding="utf-8"?>
<!-- Generator: Adobe Illustrator 16.0.0, SVG Export Plug-In . SVG Version: 6.00 Build 0)  -->
<!DOCTYPE svg PUBLIC "-//W3C//DTD SVG 1.1//EN" "http://www.w3.org/Graphics/SVG/1.1/DTD/svg11.dtd">
<svg version="1.1" id="Layer_1" xmlns="http://www.w3.org/2000/svg" xmlns:xlink="http://www.w3.org/1999/xlink" x="0px" y="0px"
	 width="96px" height="96px" viewBox="0 0 96 96" enable-background="new 0 0 96 96" xml:space="preserve">
<path fill="#A0A0A0" d="M85.7,96H10.3C4.6,96,0,91.4,0,85.699v-75.4C0,4.6,4.6,0,10.3,0h75.4C91.4,0,96,4.6,96,10.299v75.4
	C96,91.4,91.4,96,85.7,96z M10.3,7.5c-1.5,0-2.8,1.199-2.8,2.799v75.4c0,1.5,1.2,2.801,2.8,2.801h75.4c1.5,0,2.8-1.201,2.8-2.801
	v-75.4c0-1.5-1.2-2.799-2.8-2.799H10.3z"/>
</svg>
