<?xml version="1.0" encoding="utf-8"?>
<!-- Generator: Adobe Illustrator 21.1.0, SVG Export Plug-In . SVG Version: 6.00 Build 0)  -->
<svg version="1.1" id="Layer_1" xmlns="http://www.w3.org/2000/svg" xmlns:xlink="http://www.w3.org/1999/xlink" x="0px" y="0px"
	 viewBox="0 0 30 30" style="enable-background:new 0 0 30 30;" xml:space="preserve">
<style type="text/css">
	.st0{fill:#8361c2;}
</style>
<g>
	<g>
		<g>
			<path class="st0" d="M3.1,6.6l0.4,6.1c0.1,1.2,0.6,2.2,1.5,3l11.5,10c0.6,0.5,1.3,0.7,2,0.7c0.7-0.1,1.5-0.4,1.9-0.9l5.9-6.8
				c0.5-0.6,0.7-1.3,0.7-2c-0.1-0.7-0.4-1.5-0.9-1.9l-11.6-10c-0.9-0.8-2-1.1-3.2-1.1l-6,0.5C4,4.2,3,5.3,3.1,6.6z M11.5,4.6
				c0.8-0.1,1.8,0.3,2.5,0.8l11.4,10c0.7,0.6,0.8,1.9,0.2,2.6l-5.9,6.8c-0.3,0.4-0.8,0.6-1.3,0.6c-0.5,0-0.9-0.2-1.4-0.5L5.6,15
				c-0.7-0.6-1.1-1.5-1.1-2.3L4,6.6C3.9,5.7,4.5,5,5.4,5L11.5,4.6L11.5,4.6z"/>
		</g>
	</g>
	<g>
		<g>
			<path class="st0" d="M6.1,9.3c0.1,1.4,1.3,2.3,2.6,2.2c1.4-0.1,2.3-1.3,2.2-2.6c-0.1-1.3-1.2-2.4-2.6-2.3C7,6.8,6,8,6.1,9.3z
				 M10,9c0.1,0.8-0.6,1.5-1.4,1.6c-0.8,0-1.5-0.6-1.5-1.4C7,8.4,7.7,7.7,8.4,7.7C9.3,7.7,9.9,8.2,10,9z"/>
		</g>
	</g>
</g>
</svg>
