<?xml version="1.0" encoding="utf-8"?>
<!-- Generator: Adobe Illustrator 22.1.0, SVG Export Plug-In . SVG Version: 6.00 Build 0)  -->
<svg version="1.1" id="Layer_1" xmlns="http://www.w3.org/2000/svg" xmlns:xlink="http://www.w3.org/1999/xlink" x="0px" y="0px"
	 viewBox="0 0 128 128" enable-background="new 0 0 128 128" xml:space="preserve">
<g>
	<path fill="#8361C2" d="M85.591,128H42.409c-7.971,0-14.46-6.461-14.5-14.418l-4.996-89.991l4.992-0.277l5.004,90.196
		c0,5.235,4.262,9.493,9.5,9.493h43.182c5.238,0,9.5-4.259,9.5-9.493l0.004-0.139l5-90.058l4.992,0.277l-4.996,89.991
		C100.051,121.539,93.562,128,85.591,128z"/>
	<path fill="#8361C2" d="M111.482,25.951H16.518c-1.381,0-2.5-1.118-2.5-2.498c0-1.38,1.119-2.498,2.5-2.498h94.965
		c1.381,0,2.5,1.118,2.5,2.498C113.982,24.832,112.863,25.951,111.482,25.951z"/>
	<path fill="#8361C2" d="M83.857,25.951c-1.381,0-2.5-1.118-2.5-2.498V8.312c0-1.828-1.488-3.315-3.317-3.315H49.96
		c-1.829,0-3.317,1.487-3.317,3.315v15.141c0,1.38-1.119,2.498-2.5,2.498s-2.5-1.118-2.5-2.498V8.312C41.643,3.729,45.374,0,49.96,0
		h28.08c4.586,0,8.317,3.729,8.317,8.312v15.141C86.357,24.832,85.238,25.951,83.857,25.951z"/>
	<path fill="#8361C2" d="M45.153,114.639c-1.381,0-2.5-1.118-2.5-2.498V34.944c0-1.38,1.119-2.498,2.5-2.498s2.5,1.118,2.5,2.498
		v77.196C47.653,113.521,46.534,114.639,45.153,114.639z"/>
	<path fill="#8361C2" d="M64.506,114.639c-1.381,0-2.5-1.118-2.5-2.498V34.944c0-1.38,1.119-2.498,2.5-2.498s2.5,1.118,2.5,2.498
		v77.196C67.006,113.521,65.887,114.639,64.506,114.639z"/>
	<path fill="#8361C2" d="M83.857,114.639c-1.381,0-2.5-1.118-2.5-2.498V34.944c0-1.38,1.119-2.498,2.5-2.498s2.5,1.118,2.5,2.498
		v77.196C86.357,113.521,85.238,114.639,83.857,114.639z"/>
</g>
</svg>
