<?xml version="1.0" encoding="utf-8"?>
<!-- Generator: Adobe Illustrator 21.1.0, SVG Export Plug-In . SVG Version: 6.00 Build 0)  -->
<svg version="1.1" id="Layer_1" xmlns="http://www.w3.org/2000/svg" xmlns:xlink="http://www.w3.org/1999/xlink" x="0px" y="0px"
	 viewBox="0 0 128 128" style="enable-background:new 0 0 128 128;" xml:space="preserve">
<style type="text/css">
	.st0{fill:#FFFFFF;}
</style>
<path class="st0" d="M66.1,66.1h25.6c1.1,0,2.1-0.9,2.1-2.1s-0.9-2.1-2.1-2.1H66.1l0-25.6c0-1.1-0.9-2.1-2.1-2.1s-2.1,0.9-2.1,2.1
	v25.6H36.3c-1.1,0-2.1,0.9-2.1,2.1c0,0.6,0.2,1.1,0.6,1.5c0.4,0.4,0.9,0.6,1.5,0.6l25.6,0l0,25.6c0,0.6,0.2,1.1,0.6,1.5
	s0.9,0.6,1.5,0.6c1.1,0,2.1-0.9,2.1-2.1L66.1,66.1z"/>
</svg>
