<?xml version="1.0" encoding="utf-8"?>
<!-- Generator: Adobe Illustrator 21.1.0, SVG Export Plug-In . SVG Version: 6.00 Build 0)  -->
<svg version="1.1" id="Layer_1" xmlns="http://www.w3.org/2000/svg" xmlns:xlink="http://www.w3.org/1999/xlink" x="0px" y="0px"
	 viewBox="0 0 30 30" style="enable-background:new 0 0 30 30;" xml:space="preserve">
<style type="text/css">
	.st0{fill:#8361c2;}
</style>
<g>
	<path class="st0" d="M29.2,8.1l-13.6,0c-0.5,0-0.9,0.3-0.9,0.8c0,0.5,0.4,0.9,0.8,0.9l13.7,0c0.4,0,0.7-0.2,0.8-0.6
		C30.1,8.6,29.7,8.1,29.2,8.1z"/>
	<path class="st0" d="M29.2,11.9l-13.6,0c-0.5,0-0.9,0.3-0.9,0.8c0,0.5,0.4,0.9,0.8,0.9l13.6,0c0.5,0,0.9-0.3,0.9-0.8
		C30,12.3,29.6,11.9,29.2,11.9z"/>
	<path class="st0" d="M29.2,15.8l-13.6,0c-0.5,0-0.9,0.3-0.9,0.8c0,0.5,0.4,0.9,0.8,0.9l13.6,0c0.5,0,0.9-0.3,0.9-0.8
		C30,16.2,29.6,15.8,29.2,15.8z"/>
	<path class="st0" d="M23.3,19.6h-7.8c-0.5,0-0.8,0.4-0.8,0.8c0,0.5,0.4,0.8,0.8,0.8h7.8c0.5,0,0.8-0.4,0.8-0.8
		C24.1,20,23.8,19.6,23.3,19.6z"/>
	<path class="st0" d="M12.9,20.3c0-1.8-2.1-4.2-4.9-4.9c1.2-0.8,2-2.3,2-3.7c0-2-1.6-3.6-3.6-3.6c-2,0-3.6,1.6-3.6,3.6
		c0,1.4,0.8,2.9,2,3.7C2.1,16.1,0,18.5,0,20.3C0,22.4,12.9,22.4,12.9,20.3z M6.2,16.4L6.2,16.4l-0.6-0.7c0.3,0.1,0.6,0.2,0.9,0.2
		c0.3,0,0.6-0.1,0.9-0.2l-0.6,0.7h0l1.5,3.7l-1.8,1.8l-1.8-1.8L6.2,16.4z"/>
</g>
</svg>
