<?xml version="1.0" encoding="utf-8"?>
<!-- Generator: Adobe Illustrator 16.0.0, SVG Export Plug-In . SVG Version: 6.00 Build 0)  -->
<!DOCTYPE svg PUBLIC "-//W3C//DTD SVG 1.1//EN" "http://www.w3.org/Graphics/SVG/1.1/DTD/svg11.dtd">
<svg version="1.1" id="Layer_1" xmlns="http://www.w3.org/2000/svg" xmlns:xlink="http://www.w3.org/1999/xlink" x="0px" y="0px"
	 width="128px" height="128px" viewBox="0 0 128 128" enable-background="new 0 0 128 128" xml:space="preserve">
<g>
	<circle fill="#8361c2" cx="64" cy="64" r="62.623"/>
	<path fill="#FFFFFF" d="M69.075,64l31.291-31.29c1.4-1.402,1.4-3.675,0-5.076c-1.402-1.401-3.674-1.401-5.076,0L64,58.925
		L32.71,27.639c-1.402-1.401-3.675-1.401-5.076,0c-1.4,1.401-1.4,3.674,0,5.075l31.291,31.29L27.64,95.289
		c-1.403,1.402-1.403,3.675,0,5.076c0.703,0.698,1.616,1.052,2.534,1.052c0.919,0,1.838-0.349,2.536-1.052L64,69.074l31.29,31.291
		c0.703,0.698,1.617,1.052,2.536,1.052c0.917,0,1.837-0.349,2.534-1.052c1.402-1.401,1.402-3.674,0-5.076L69.075,64z"/>
</g>
</svg>
