<?xml version="1.0" encoding="utf-8"?>
<!-- Generator: Adobe Illustrator 21.1.0, SVG Export Plug-In . SVG Version: 6.00 Build 0)  -->
<svg version="1.1" id="Layer_1" xmlns="http://www.w3.org/2000/svg" xmlns:xlink="http://www.w3.org/1999/xlink" x="0px" y="0px"
	 viewBox="0 0 128 128" style="enable-background:new 0 0 128 128;" xml:space="preserve">
<style type="text/css">
	.st0{fill:#8361c2;}
</style>
<g>
	<g>
		<g>
			<path class="st0" d="M118.8,53.5L65.7,14.7c-1-0.8-2.4-0.8-3.5,0l-53,38.9c-1.3,0.9-1.6,2.7-0.7,4c0.9,1.3,2.7,1.6,4,0.7L64,20.6
				l51.3,37.6c0.5,0.4,1.1,0.6,1.7,0.6c0.9,0,1.8-0.4,2.4-1.2C120.4,56.3,120.1,54.5,118.8,53.5z"/>
		</g>
	</g>
	<g>
		<g>
			<path class="st0" d="M104.8,58.9c-1.6,0-2.9,1.3-2.9,2.9v46.3H78.6V82.8c0-8-6.5-14.5-14.6-14.5s-14.5,6.5-14.5,14.5v25.2H26.1
				V61.7c0-1.6-1.3-2.9-2.9-2.9c-1.6,0-2.9,1.3-2.9,2.9V111c0,1.6,1.3,2.9,2.9,2.9h29.1c1.5,0,2.8-1.2,2.9-2.6c0-0.1,0-0.2,0-0.2
				V82.8c0-4.8,4-8.8,8.8-8.8c4.8,0,8.8,4,8.8,8.8V111c0,0.1,0,0.2,0,0.2c0.1,1.5,1.4,2.7,2.9,2.7h29.1c1.6,0,2.9-1.3,2.9-2.9V61.7
				C107.6,60.1,106.4,58.9,104.8,58.9z"/>
		</g>
	</g>
</g>
</svg>
