<?xml version="1.0" encoding="utf-8"?>
<!-- Generator: Adobe Illustrator 22.0.1, SVG Export Plug-In . SVG Version: 6.00 Build 0)  -->
<svg version="1.1" id="圖層_1" xmlns="http://www.w3.org/2000/svg" xmlns:xlink="http://www.w3.org/1999/xlink" x="0px" y="0px"
	 viewBox="0 0 128 128" style="enable-background:new 0 0 128 128;" xml:space="preserve">
<style type="text/css">
	.st0{fill:#8361C2;}
</style>
<g>
	<path class="st0" d="M87,7H20.5c-5.3,0-9.7,4.3-9.7,9.7v94.6c0,5.3,4.3,9.7,9.7,9.7H87c5.3,0,9.7-4.3,9.7-9.7v-2.5v-9.3
		c0-1.1-0.9-1.9-1.9-1.9c-1.1,0-1.9,0.9-1.9,1.9v9.3v2.5c0,3.2-2.6,5.8-5.8,5.8H20.5c-3.2,0-5.8-2.6-5.8-5.8V16.7
		c0-3.2,2.6-5.8,5.8-5.8H87c3.2,0,5.8,2.6,5.8,5.8v2.5v9.3c0,1.1,0.9,1.9,1.9,1.9c1.1,0,1.9-0.9,1.9-1.9v-9.3v-2.5
		C96.7,11.3,92.3,7,87,7z"/>
	<path class="st0" d="M41,34.1H23.1c-1.1,0-1.9-0.9-1.9-1.9c0-1.1,0.9-1.9,1.9-1.9H41c1.1,0,1.9,0.9,1.9,1.9
		C42.9,33.2,42,34.1,41,34.1z"/>
	<path class="st0" d="M41,48.9H23.1c-1.1,0-1.9-0.9-1.9-1.9c0-1.1,0.9-1.9,1.9-1.9H41c1.1,0,1.9,0.9,1.9,1.9
		C42.9,48,42,48.9,41,48.9z"/>
	<path class="st0" d="M41,63.6H23.1c-1.1,0-1.9-0.9-1.9-1.9c0-1.1,0.9-1.9,1.9-1.9H41c1.1,0,1.9,0.9,1.9,1.9
		C42.9,62.7,42,63.6,41,63.6z"/>
	<path class="st0" d="M41,78.3H23.1c-1.1,0-1.9-0.9-1.9-1.9c0-1.1,0.9-1.9,1.9-1.9H41c1.1,0,1.9,0.9,1.9,1.9
		C42.9,77.5,42,78.3,41,78.3z"/>
	<path class="st0" d="M66.5,103.8c-0.2,0-0.5,0-0.7-0.1c-0.7-0.3-1.1-0.9-1.1-1.7V89.3h-6.6c-5.1,0-9.2-4.1-9.2-9.2v-33
		c0-5.1,4.1-9.2,9.2-9.2h49c5.1,0,9.2,4.1,9.2,9.2v33c0,5.1-4.1,9.2-9.2,9.2H81.7l-14,14C67.4,103.6,66.9,103.8,66.5,103.8z
		 M58.1,41.5c-3.1,0-5.6,2.5-5.6,5.6v33c0,3.1,2.5,5.6,5.6,5.6h8.4c1,0,1.8,0.8,1.8,1.8v10.2l11.4-11.4c0.3-0.3,0.8-0.5,1.3-0.5
		h26.1c3.1,0,5.6-2.5,5.6-5.6v-33c0-3.1-2.5-5.6-5.6-5.6H58.1z"/>
	<g>
		<path class="st0" d="M82.7,60.7c2.1,0,3.9,1.7,3.9,3.9c0,2.2-1.7,3.9-3.9,3.9c-2.2,0-3.9-1.7-3.9-3.9
			C78.8,62.5,80.5,60.7,82.7,60.7z"/>
		<path class="st0" d="M98.5,60.7c2.1,0,3.9,1.7,3.9,3.9c0,2.2-1.7,3.9-3.9,3.9c-2.2,0-3.9-1.7-3.9-3.9
			C94.6,62.5,96.4,60.7,98.5,60.7z"/>
		<path class="st0" d="M66.1,60.8c2.6-0.4,4.9,1.8,4.5,4.5c-0.3,1.6-1.6,3-3.2,3.2c-2.6,0.4-4.9-1.8-4.5-4.5
			C63.1,62.4,64.4,61,66.1,60.8z"/>
	</g>
</g>
</svg>
