<?xml version="1.0" encoding="utf-8"?>
<!-- Generator: Adobe Illustrator 21.1.0, SVG Export Plug-In . SVG Version: 6.00 Build 0)  -->
<svg version="1.1" id="Layer_1" xmlns="http://www.w3.org/2000/svg" xmlns:xlink="http://www.w3.org/1999/xlink" x="0px" y="0px"
	 viewBox="0 0 128 128" style="enable-background:new 0 0 128 128;" xml:space="preserve">
<style type="text/css">
	.st0{fill:#8361c2;}
</style>
<g>
	<g>
		<g>
			<path class="st0" d="M119.3,95.4h-17.5V78.1c0-1.3-1-2.3-2.3-2.3c-1.3,0-2.3,1-2.3,2.3v17.4H79.7c-1.3,0-2.3,1.1-2.3,2.3
				s1,2.3,2.3,2.3h17.5v17.6c0,1.3,1,2.3,2.3,2.3c1.3,0,2.3-1,2.3-2.3v-17.6h17.5c1.3,0,2.3-1,2.3-2.3S120.6,95.4,119.3,95.4z"/>
			<path class="st0" d="M96.4,70.5c3.2,1,6.2,2.5,8.6,4.6c0.9,0.7,2.2,0.6,3-0.2c0.7-0.9,0.6-2.2-0.2-3c-2.9-2.6-6.4-4.4-10.4-5.5
				l-1.3-0.3c-2-0.5-4.3,0.2-5.6,1.7c-4.7,5.4-10.7,5.8-17,5.8c-6.2,0-12.2-0.4-16.9-5.8c-1.4-1.6-3.5-2.2-5.5-1.7l-1.3,0.3
				c-8.9,2.4-16,9.2-18.5,18.1l-1.8,6.2c-0.1,0-0.2,0-0.3,0H11.6c-0.4,0-0.6-0.2-0.8-0.3c-0.1-0.1-0.3-0.4-0.2-0.9L14.1,77
				c3-10,9.3-13.2,20.7-15.8c0.2,0,0.3-0.1,0.5-0.2c0.7,0.5,1.6,1.1,2.4,1.5c0.3,0.2,0.6,0.2,1,0.2c0.8,0,1.5-0.4,1.9-1.2
				c0.5-1.1,0.1-2.4-0.9-2.9c-6.3-3.2-10.9-12.5-10.9-22.1c0-8.7,7-15.6,15.6-15.6c2.6,0,4.9,0.6,7.3,1.8c-1.3,3-2,6.3-2,9.7
				c0,18.3,11,33.7,24.2,33.7c12.8,0,24.2-15.7,24.2-33.7c0-13.4-10.8-24.2-24.2-24.2c-8.3,0-15.7,4.3-20.1,10.7l-0.1-0.1
				c-2.9-1.5-6-2.2-9.2-2.2c-11,0-19.9,8.9-19.9,19.9c0,8,2.8,15.7,7.2,20.9c-9.7,2.5-17.9,6.1-21.6,18.3L6.5,88.4
				c-0.4,1.6-0.1,3.3,1,4.6c1,1.3,2.5,2,4.1,2h16.7l-1.5,5c-0.5,1.8-0.2,3.7,1,5.2c1.2,1.5,3,2.5,4.9,2.5H78c1.2,0,2.1-1,2.1-2.1
				c0-1.2-1-2.1-2.1-2.1H32.6c-0.5,0-1.1-0.2-1.4-0.7c-0.2-0.2-0.4-0.8-0.2-1.5l4.5-15.6c2.1-7.4,8-13.2,15.5-15.1l1.3-0.3
				c0.4-0.1,0.9,0.1,1.2,0.4c5.9,6.7,13.2,7.3,20.2,7.3s14.3-0.5,20.2-7.3c0,0,0-0.1,0.1-0.1c0.2-0.2,0.7-0.4,1.1-0.3L96.4,70.5z
				 M73.9,12.6c8.9,0,16.4,5.9,18.9,13.9c-3.7,0.7-7.7-0.7-10.1-4c-0.7-1-2-1.2-3-0.4c-0.4,0.3-0.6,0.6-0.8,1.1
				c-0.1,0.1-0.1,0.2-0.2,0.3c-3,6.1-13.1,8.7-24.6,6.4C55.4,20.2,63.8,12.6,73.9,12.6z M62.2,34.9c8.6,0,15.6-2.7,19.3-7.7
				c2.7,2.4,6,3.6,9.5,3.6c0.9,0,1.8-0.1,2.7-0.3c0.1,0.6,0.1,1.2,0.1,1.8c0,15.7-9.3,29.5-19.9,29.5c-10.2,0-19.3-12.7-19.9-27.7
				C56.8,34.7,59.5,34.9,62.2,34.9z"/>
		</g>
	</g>
</g>
</svg>
