<?xml version="1.0" encoding="utf-8"?>
<!-- Generator: Adobe Illustrator 16.0.0, SVG Export Plug-In . SVG Version: 6.00 Build 0)  -->
<!DOCTYPE svg PUBLIC "-//W3C//DTD SVG 1.1//EN" "http://www.w3.org/Graphics/SVG/1.1/DTD/svg11.dtd">
<svg version="1.1" id="Layer_1" xmlns="http://www.w3.org/2000/svg" xmlns:xlink="http://www.w3.org/1999/xlink" x="0px" y="0px"
	 width="128px" height="128px" viewBox="0 0 128 128" enable-background="new 0 0 128 128" xml:space="preserve">
<path fill="#FFFFFF" d="M113.414,45.06c-1.446-1.131-3.295-1.52-5.071-1.074l-17.059,4.797v-4.949
	c0-5.744-4.669-10.412-10.412-10.412H22.71c-5.734,0-10.403,4.668-10.403,10.412v40.335c0,5.742,4.668,10.411,10.403,10.411h58.162
	c5.743,0,10.412-4.669,10.412-10.411v-4.401l17.059,4.256c0.484,0.112,0.968,0.177,1.445,0.177c1.301,0,2.576-0.436,3.626-1.258
	c1.446-1.132,2.278-2.828,2.278-4.662V49.72C115.692,47.887,114.86,46.19,113.414,45.06z M78.215,41.546
	c2.682,0,4.863,2.181,4.863,4.862c0,2.683-2.182,4.861-4.863,4.861c-2.681,0-4.862-2.179-4.862-4.861
	C73.353,43.727,75.534,41.546,78.215,41.546z M32.864,78.077H19.399V56.521h4.895v17.463h8.57V78.077z M42.216,78.077H37.33V56.521
	h4.886V78.077z M59.614,78.077h-5.695l-6.913-21.557h5.347l2.617,9.119c0.735,2.561,1.414,5.022,1.922,7.705h0.097
	c0.541-2.585,1.211-5.145,1.946-7.608l2.755-9.216h5.176L59.614,78.077z M85.315,78.077H71.567V56.521H84.87v3.998h-8.416v4.482
	h7.933v3.966h-7.933v5.112h8.861V78.077z"/>
<g>
	<circle fill="#F8B551" cx="64" cy="64" r="64"/>
	<path fill="#FFFFFF" d="M120.414,45.06c-1.446-1.131-3.295-1.52-5.071-1.074l-14.059,4.797v-4.949
		c0-5.744-4.669-10.412-10.412-10.412H17.71c-5.734,0-10.403,4.668-10.403,10.412v40.335c0,5.742,4.668,10.411,10.403,10.411h73.162
		c5.743,0,10.412-4.669,10.412-10.411v-4.401l14.059,4.256c0.484,0.112,0.968,0.177,1.445,0.177c1.301,0,2.576-0.436,3.626-1.258
		c1.446-1.132,2.278-2.828,2.278-4.662V49.72C122.692,47.887,121.86,46.19,120.414,45.06z M85.215,41.546
		c2.682,0,4.863,2.181,4.863,4.862c0,2.683-2.182,4.861-4.863,4.861c-2.681,0-4.862-2.179-4.862-4.861
		C80.353,43.727,82.534,41.546,85.215,41.546z M33.527,78.816H19.138V55.781h5.231v18.66h9.158V78.816z M43.52,78.816h-5.221V55.781
		h5.221V78.816z M62.112,78.816h-6.085l-7.387-23.035h5.714l2.796,9.744c0.786,2.736,1.511,5.367,2.054,8.234h0.104
		c0.578-2.763,1.294-5.498,2.08-8.131l2.945-9.848h5.53L62.112,78.816z M89.576,78.816H74.885V55.781H89.1v4.272h-8.993v4.79h8.478
		v4.237h-8.478v5.463h9.47V78.816z"/>
</g>
</svg>
