<?xml version="1.0" encoding="utf-8"?>
<!-- Generator: Adobe Illustrator 16.0.0, SVG Export Plug-In . SVG Version: 6.00 Build 0)  -->
<!DOCTYPE svg PUBLIC "-//W3C//DTD SVG 1.1//EN" "http://www.w3.org/Graphics/SVG/1.1/DTD/svg11.dtd">
<svg version="1.1" id="Layer_1" xmlns="http://www.w3.org/2000/svg" xmlns:xlink="http://www.w3.org/1999/xlink" x="0px" y="0px"
	 width="128px" height="128px" viewBox="0 0 128 128" enable-background="new 0 0 128 128" xml:space="preserve">
<g>
	<path fill="#FFFFFF" d="M119.414,45.06c-1.446-1.131-3.295-1.52-5.071-1.074l-14.059,4.797v-4.949
		c0-5.744-4.669-10.412-10.412-10.412H16.711c-5.734,0-10.403,4.668-10.403,10.412v40.335c0,5.742,4.669,10.411,10.403,10.411
		h73.161c5.743,0,10.412-4.669,10.412-10.411v-4.401l14.059,4.256c0.484,0.112,0.968,0.177,1.445,0.177
		c1.301,0,2.576-0.436,3.626-1.258c1.446-1.132,2.278-2.828,2.278-4.662V49.72C121.692,47.887,120.86,46.19,119.414,45.06z
		 M84.215,41.546c2.682,0,4.863,2.181,4.863,4.862c0,2.683-2.182,4.861-4.863,4.861c-2.681,0-4.862-2.179-4.862-4.861
		C79.353,43.727,81.534,41.546,84.215,41.546z M32.527,78.816H18.139V55.781h5.23v18.66h9.158V78.816z M42.52,78.816h-5.221V55.781
		h5.221V78.816z M61.111,78.816h-6.085l-7.388-23.035h5.715l2.796,9.744c0.786,2.736,1.511,5.367,2.054,8.234h0.104
		c0.578-2.763,1.294-5.498,2.079-8.131l2.945-9.848h5.53L61.111,78.816z M88.576,78.816H73.885V55.781H88.1v4.272h-8.993v4.79h8.478
		v4.237h-8.478v5.463h9.47V78.816z"/>
</g>
</svg>
