<?xml version="1.0" encoding="utf-8"?>
<!-- Generator: Adobe Illustrator 16.0.0, SVG Export Plug-In . SVG Version: 6.00 Build 0)  -->
<!DOCTYPE svg PUBLIC "-//W3C//DTD SVG 1.1//EN" "http://www.w3.org/Graphics/SVG/1.1/DTD/svg11.dtd">
<svg version="1.1" id="Layer_1" xmlns="http://www.w3.org/2000/svg" xmlns:xlink="http://www.w3.org/1999/xlink" x="0px" y="0px"
	 width="96px" height="96px" viewBox="0 0 96 96" enable-background="new 0 0 96 96" xml:space="preserve">
<g>
	<path fill="#8361C2" d="M85.7,96H10.3C4.6,96,0,91.4,0,85.7V10.3C0,4.601,4.6,0,10.3,0H62.9v7.5H10.3c-1.5,0-2.8,1.2-2.8,2.8v75.4
		c0,1.5,1.2,2.8,2.8,2.8h75.4c1.5,0,2.8-1.2,2.8-2.8V47.2H96v38.5C96,91.4,91.4,96,85.7,96z"/>
	<path fill="#8361C2" d="M40.2,66.9c-1,0-1.9-0.4-2.7-1.102l-18-18.1c-1.5-1.5-1.5-3.801,0-5.301s3.8-1.5,5.3,0l15.4,15.4
		l45.2-45.199c1.5-1.5,3.8-1.5,5.3,0s1.5,3.799,0,5.299L42.9,65.8C42.1,66.5,41.2,66.9,40.2,66.9z"/>
</g>
</svg>
