<svg id="圖層_1" data-name="圖層 1" xmlns="http://www.w3.org/2000/svg" viewBox="0 0 600 200"><defs><style>.cls-1{opacity:0.5;}.cls-2{fill:#25b184;}.cls-3{fill:none;stroke:#25b184;stroke-miterlimit:10;stroke-width:2px;}.cls-4{fill:#05172f;}</style></defs><title>20180806-驗證密碼</title><g id="_群組_" data-name="&lt;群組&gt;" class="cls-1"><circle id="_路徑_" data-name="&lt;路徑&gt;" class="cls-2" cx="399.97" cy="105.3" r="49.43"/></g><g id="_群組_2" data-name="&lt;群組&gt;" class="cls-1"><circle id="_路徑_2" data-name="&lt;路徑&gt;" class="cls-2" cx="197.04" cy="60.89" r="10.42" transform="translate(-7.21 32.35) rotate(-9.22)"/></g><g id="_群組_3" data-name="&lt;群組&gt;" class="cls-1"><circle id="_路徑_3" data-name="&lt;路徑&gt;" class="cls-2" cx="449.03" cy="43.82" r="4.58"/></g><g id="_群組_4" data-name="&lt;群組&gt;" class="cls-1"><circle id="_路徑_4" data-name="&lt;路徑&gt;" class="cls-2" cx="150.53" cy="168.32" r="4.58"/></g><g id="_群組_5" data-name="&lt;群組&gt;" class="cls-1"><ellipse id="_路徑_5" data-name="&lt;路徑&gt;" class="cls-2" cx="155.68" cy="102.33" rx="22.15" ry="21.17"/></g><g id="_群組_6" data-name="&lt;群組&gt;" class="cls-1"><rect id="_矩形_" data-name="&lt;矩形&gt;" class="cls-2" x="187.07" y="129.56" width="40" height="39.99"/></g><g id="_群組_7" data-name="&lt;群組&gt;" class="cls-1"><circle id="_路徑_6" data-name="&lt;路徑&gt;" class="cls-2" cx="458.6" cy="150.26" r="9.17"/></g><g id="_群組_8" data-name="&lt;群組&gt;"><g id="_群組_9" data-name="&lt;群組&gt;"><path id="_路徑_7" data-name="&lt;路徑&gt;" class="cls-2" d="M387.79,172.63H214.6a1.27,1.27,0,0,1-1.27-1.27V66.05A10.65,10.65,0,0,1,224,55.41H246.5a1.27,1.27,0,1,1,0,2.54H224a8.1,8.1,0,0,0-8.1,8.1v104H386.52v-104a8.1,8.1,0,0,0-8.1-8.1H356.76a1.27,1.27,0,1,1,0-2.54h21.66a10.65,10.65,0,0,1,10.64,10.64V171.36A1.27,1.27,0,0,1,387.79,172.63Z"/></g><g id="_群組_10" data-name="&lt;群組&gt;"><path id="_複合路徑_" data-name="&lt;複合路徑&gt;" class="cls-2" d="M394.05,183.06H208.34a8.5,8.5,0,0,1-8.49-8.49v-3.21a1.27,1.27,0,0,1,1.27-1.27H401.27a1.27,1.27,0,0,1,1.27,1.27v3.21A8.5,8.5,0,0,1,394.05,183.06ZM202.39,172.63v1.94a6,6,0,0,0,6,6H394.05a6,6,0,0,0,5.95-6v-1.94Z"/></g><g id="_群組_11" data-name="&lt;群組&gt;"><path id="_路徑_8" data-name="&lt;路徑&gt;" class="cls-2" d="M376.46,172.64H225.87a1.27,1.27,0,0,1-1.27-1.27V69.17a1.27,1.27,0,0,1,1.27-1.27H246.5a1.27,1.27,0,1,1,0,2.54H227.14V170.1H375.19V70.44H356.76a1.27,1.27,0,1,1,0-2.54h19.7a1.27,1.27,0,0,1,1.27,1.27V171.36A1.28,1.28,0,0,1,376.46,172.64Z"/></g></g><g id="_群組_12" data-name="&lt;群組&gt;"><path id="_路徑_9" data-name="&lt;路徑&gt;" class="cls-2" d="M254.07,121.36a1.27,1.27,0,0,1-1.27-1.27V56.83a1.27,1.27,0,0,1,2.54,0v63.26A1.27,1.27,0,0,1,254.07,121.36Z"/></g><g id="_群組_13" data-name="&lt;群組&gt;"><path id="_路徑_10" data-name="&lt;路徑&gt;" class="cls-2" d="M349.35,172.63H254.07a1.27,1.27,0,0,1-1.27-1.27v-7.52a1.27,1.27,0,1,1,2.54,0v6.25h92.74V42H270.15a1.27,1.27,0,0,1,0-2.54h79.2a1.27,1.27,0,0,1,1.27,1.27V171.36A1.27,1.27,0,0,1,349.35,172.63Z"/></g><g id="_群組_14" data-name="&lt;群組&gt;"><path id="_路徑_11" data-name="&lt;路徑&gt;" class="cls-2" d="M270.15,58.09H254.07a1.27,1.27,0,1,1,0-2.53h14.81V40.74a1.27,1.27,0,0,1,2.54,0V56.83A1.26,1.26,0,0,1,270.15,58.09Z"/></g><g id="_群組_15" data-name="&lt;群組&gt;"><path id="_路徑_12" data-name="&lt;路徑&gt;" class="cls-2" d="M254.07,58.1a1.3,1.3,0,0,1-.9-.37,1.27,1.27,0,0,1,0-1.8l16.09-16.09a1.27,1.27,0,0,1,1.79,1.8L255,57.73A1.27,1.27,0,0,1,254.07,58.1Z"/></g><rect class="cls-3" x="262.85" y="64.12" width="15.91" height="26.38" rx="2" ry="2"/><rect class="cls-3" x="283.27" y="64.12" width="15.91" height="26.38" rx="2" ry="2"/><rect class="cls-3" x="303.69" y="64.12" width="15.91" height="26.38" rx="2" ry="2"/><rect class="cls-3" x="324.11" y="64.12" width="15.91" height="26.38" rx="2" ry="2"/><path class="cls-4" d="M253.13,101.5s0-19,18-19H285.8s15.33,2,15.33,16v23H253.34S253.13,100.83,253.13,101.5Z"/><rect class="cls-4" x="237.13" y="121.5" width="80" height="42"/><g id="_群組_16" data-name="&lt;群組&gt;"><g id="_群組_17" data-name="&lt;群組&gt;"><path id="_複合路徑_2" data-name="&lt;複合路徑&gt;" class="cls-2" d="M317.52,164.58H237.38a1.41,1.41,0,0,1-1.41-1.4V121.25a1.41,1.41,0,0,1,1.41-1.4h80.14a1.4,1.4,0,0,1,1.4,1.4v41.93A1.4,1.4,0,0,1,317.52,164.58Zm-78.74-2.8h77.33V122.66H238.78Z"/></g><g id="_群組_18" data-name="&lt;群組&gt;"><g id="_群組_19" data-name="&lt;群組&gt;"><path id="_路徑_13" data-name="&lt;路徑&gt;" class="cls-2" d="M311.62,133.13a1.4,1.4,0,0,1-1.4-1.4v-4.3a1.4,1.4,0,1,1,2.8,0v4.3A1.4,1.4,0,0,1,311.62,133.13Z"/></g><g id="_群組_20" data-name="&lt;群組&gt;"><path id="_路徑_14" data-name="&lt;路徑&gt;" class="cls-2" d="M311.62,128.83h-4.25a1.4,1.4,0,1,1,0-2.8h4.25a1.4,1.4,0,0,1,0,2.8Z"/></g></g><g id="_群組_21" data-name="&lt;群組&gt;"><g id="_群組_22" data-name="&lt;群組&gt;"><path id="_路徑_15" data-name="&lt;路徑&gt;" class="cls-2" d="M311.65,158.65h-4.3a1.4,1.4,0,1,1,0-2.8h4.3a1.4,1.4,0,1,1,0,2.8Z"/></g><g id="_群組_23" data-name="&lt;群組&gt;"><path id="_路徑_16" data-name="&lt;路徑&gt;" class="cls-2" d="M311.65,158.65a1.41,1.41,0,0,1-1.41-1.4V153a1.41,1.41,0,0,1,2.81,0v4.25A1.4,1.4,0,0,1,311.65,158.65Z"/></g></g><g id="_群組_24" data-name="&lt;群組&gt;"><g id="_群組_25" data-name="&lt;群組&gt;"><path id="_路徑_17" data-name="&lt;路徑&gt;" class="cls-2" d="M243.37,158.65a1.4,1.4,0,0,1-1.4-1.4V153a1.4,1.4,0,0,1,2.8,0v4.3A1.4,1.4,0,0,1,243.37,158.65Z"/></g><g id="_群組_26" data-name="&lt;群組&gt;"><path id="_路徑_18" data-name="&lt;路徑&gt;" class="cls-2" d="M247.62,158.65h-4.25a1.4,1.4,0,0,1,0-2.8h4.25a1.4,1.4,0,0,1,0,2.8Z"/></g></g><g id="_群組_27" data-name="&lt;群組&gt;"><g id="_群組_28" data-name="&lt;群組&gt;"><path id="_路徑_19" data-name="&lt;路徑&gt;" class="cls-2" d="M247.65,128.83h-4.3a1.4,1.4,0,1,1,0-2.8h4.3a1.4,1.4,0,1,1,0,2.8Z"/></g><g id="_群組_29" data-name="&lt;群組&gt;"><path id="_路徑_20" data-name="&lt;路徑&gt;" class="cls-2" d="M243.35,133.08a1.4,1.4,0,0,1-1.4-1.4v-4.25a1.4,1.4,0,0,1,2.8,0v4.25A1.4,1.4,0,0,1,243.35,133.08Z"/></g></g><g id="_群組_30" data-name="&lt;群組&gt;"><path id="_複合路徑_3" data-name="&lt;複合路徑&gt;" class="cls-2" d="M301,122.66H254a1.4,1.4,0,0,1-1.4-1.41v-22a18.82,18.82,0,0,1,18.8-18.8H283.6a18.82,18.82,0,0,1,18.8,18.8v22A1.41,1.41,0,0,1,301,122.66Zm-45.63-2.81H299.6V99.22a16,16,0,0,0-16-16H271.37a16,16,0,0,0-16,16Z"/></g><g id="_群組_31" data-name="&lt;群組&gt;"><path id="_複合路徑_4" data-name="&lt;複合路徑&gt;" class="cls-2" d="M282.19,151h-9.42a1.4,1.4,0,0,1-1.39-1.59l.95-7.28a5.8,5.8,0,0,1-1.34-3.45,6.46,6.46,0,1,1,12.91,0,5.71,5.71,0,0,1-1.28,3.37l1,7.36a1.4,1.4,0,0,1-.33,1.11A1.43,1.43,0,0,1,282.19,151Zm-7.83-2.8h6.24l-.64-4.89a1.46,1.46,0,0,1-.53-.62,1.4,1.4,0,0,1,.26-1.51,4.66,4.66,0,0,0,1.41-2.5,3.66,3.66,0,1,0-7.31,0,4.15,4.15,0,0,0,1.41,2.5,1.4,1.4,0,0,1,.26,1.51,1.48,1.48,0,0,1-.45.57Z"/></g></g></svg>